<svg width="1200" height="630" viewBox="0 0 1200 630" fill="none" xmlns="http://www.w3.org/2000/svg">
<g clip-path="url(#clip0_4_2)">
<rect width="1200" height="630" fill="#F5F1EC"/>
<path d="M1126.6 609.647C1126.6 609.647 1142.49 616.06 1143.35 629.737C1143.35 629.737 1130.46 622.898 1126.6 609.647Z" fill="#A4BF7D"/>
<path d="M1145.28 627.809C1145.28 627.809 1142.92 606.223 1133.25 596.812V587.408C1133.25 587.408 1142.7 593.176 1145.28 613.911V590.823C1145.28 590.823 1137.55 583.56 1140.34 570.733L1147 576.934V619.688C1147 619.688 1150.22 605.153 1151.51 597.457C1151.51 597.457 1158.61 582.073 1163.33 581.215C1163.33 581.215 1160.11 598.74 1155.81 602.163C1155.81 602.163 1148.94 619.475 1149.15 627.809H1145.29H1145.28Z" fill="#A4BF7D"/>
<path d="M1153.23 627.808C1153.23 627.808 1155.59 607.931 1168.26 603.87C1168.26 603.87 1161.6 623.536 1153.23 627.808Z" fill="#A4BF7D"/>
<path d="M1183.85 634.606C1183.85 634.606 1187.92 595.905 1172.32 570.937L1174.7 569.589C1174.7 569.589 1185.71 587.637 1184.33 600.66C1184.33 600.66 1195.84 559.924 1194.02 533.837L1197.24 536.313C1197.24 536.313 1196.62 568.355 1194.53 576.509C1194.53 576.509 1187.24 606.746 1188.15 634.614H1183.85V634.606Z" fill="#044A27"/>
<path d="M1150.29 554.973L1162.67 556.321L1165.55 543.502C1165.55 543.502 1177.08 551.149 1174.7 569.597L1172.32 570.945C1172.32 570.945 1153.57 565.095 1150.29 554.981" fill="#A4BF7D"/>
<path d="M1147.23 541.476H1156.27C1156.27 541.476 1164.97 546.01 1163.82 551.166L1162.66 556.321L1154.02 555.381L1147.24 548.903V541.484L1147.23 541.476Z" fill="#E02F38"/>
<path d="M1176.16 471.761C1176.16 471.761 1157.41 458.943 1154.46 483.461C1154.46 483.461 1141.58 499.874 1160.34 503.02C1160.34 503.02 1147 519.662 1168.25 525.732C1168.25 525.732 1180.22 544.85 1192.43 529.556C1192.43 529.556 1197.85 547.326 1218.42 530.455C1218.42 530.455 1239.89 527.979 1227.01 510.218C1227.01 510.218 1258.87 507.971 1242.6 484.58C1242.6 484.58 1239.21 460.969 1220.67 471.982C1220.67 471.982 1227.68 450.617 1205.31 453.542C1205.31 453.542 1195.81 446.018 1190.62 453.265C1190.62 453.265 1171.18 449.711 1176.16 471.753" fill="#E02F38"/>
<path d="M1206.9 496.059C1206.9 501.149 1202.76 505.267 1197.64 505.267C1192.53 505.267 1188.39 501.149 1188.39 496.059C1188.39 490.969 1192.54 486.851 1197.64 486.851C1202.75 486.851 1206.9 490.977 1206.9 496.059Z" fill="#231F20"/>
<path d="M1206.9 496.059C1206.9 501.149 1202.76 505.267 1197.64 505.267C1192.53 505.267 1188.39 501.149 1188.39 496.059C1188.39 490.969 1192.54 486.851 1197.64 486.851C1202.75 486.851 1206.9 490.977 1206.9 496.059Z" stroke="#231F20" stroke-width="0.25" stroke-miterlimit="10"/>
<path d="M1193.94 528.527L1192.72 528.29L1197.01 505.291L1198.24 505.528L1193.94 528.527ZM1207.68 512.105L1202.96 503.649L1204.06 503.044L1208.77 511.5L1207.68 512.105ZM1189.58 510.757L1188.48 510.152L1192.07 503.665L1193.17 504.27L1189.58 510.757ZM1200.63 510.757L1198.93 505.414L1200.11 505.03L1201.82 510.373L1200.63 510.757ZM1181.55 510.7L1180.72 509.768L1190 501.574L1190.82 502.505L1181.55 510.7ZM1223.08 509.678L1205.48 501.304L1206.02 500.177L1223.62 508.551L1223.08 509.678ZM1161.99 504.115L1161.78 502.889L1188.15 498.567L1188.35 499.793L1161.99 504.115ZM1206.81 498.837L1206.67 497.603L1217.75 496.369L1217.89 497.603L1206.81 498.837ZM1188.26 496.721H1178.64V495.471H1186.51L1182.67 494.842L1182.87 493.616L1187.7 494.409L1175.65 489.245L1176.14 488.093L1188.5 493.387L1188.04 494.458L1188.36 494.515L1188.2 495.471H1188.26V496.721ZM1207.16 495.119L1206.83 493.918L1216.52 491.222L1216.86 492.423L1207.16 495.119ZM1188.52 492.513L1186.83 491.394L1187.52 490.348L1189.21 491.467L1188.52 492.513ZM1205.92 491.459L1205.02 490.593L1209.57 485.895L1210.47 486.761L1205.92 491.459ZM1205.23 489.882L1204.31 489.041L1220.18 471.639L1221.1 472.48L1205.23 489.882ZM1190.18 489.842L1177.14 472.668L1178.14 471.917L1191.17 489.09L1190.18 489.842ZM1203.59 488.714L1202.43 488.248L1205.95 479.58L1207.11 480.046L1203.59 488.714ZM1192.78 487.652L1191.82 483.779L1193.03 483.477L1193.99 487.35L1192.78 487.652ZM1195.31 487.088L1191.02 479.392L1192.12 478.788L1196.41 486.484L1195.31 487.088ZM1198.25 486.786H1197V476.451H1198.25V486.786Z" fill="#231F20"/>
<path d="M787.271 633.748C787.271 633.748 805.27 626.705 814.502 620.733C814.502 620.733 822.345 616.599 846.349 612.465C846.349 612.465 934.961 603.094 906.349 536.361C906.349 536.361 890.655 470.895 819.584 480.372L828.816 475.912C828.816 475.912 801.896 463.82 783.889 472.693L789.273 466.72L773.121 460.446L798.816 463.967L793.276 453.706C793.276 453.706 804.812 465.797 833.579 467.333L830.499 460.446C830.499 460.446 835.27 466.263 843.424 467.791C843.424 467.791 857.272 468.551 862.958 473.305C862.958 473.305 849.151 457.407 843.113 438.681C843.113 438.681 834.592 405.813 809.02 405.813L812.214 403.697C812.214 403.697 784.167 393.101 759.657 403.697C759.657 403.697 760.016 396.63 777.059 395.217C777.059 395.217 757.173 394.154 744.387 386.385L766.405 388.501C766.405 388.501 760.727 382.145 761.789 377.194C761.789 377.194 767.108 388.15 785.932 391.328C785.932 391.328 808.301 392.382 814.69 396.27C814.69 396.27 810.074 379.669 805.107 377.194L806.03 374.873C806.03 374.873 809.412 375.478 817.566 390.184C817.566 390.184 828.179 404.269 833.26 406.565C833.26 406.565 829.608 367.079 798.285 338.084L829.804 372.21L831.79 356.033C831.79 356.033 843.783 428.926 857.934 442.48L858.979 373.648C858.979 373.648 861.341 402.071 863.702 405.454L871.561 389.285L868.939 411.973L872.337 411.459C872.337 411.459 848.228 447.178 905.361 491.5C905.361 491.5 910.091 446.369 943.751 427.08C943.751 427.08 1006.34 375.641 956.799 348.084L962.028 345.331L934.952 323.901C934.952 323.901 968.18 335.535 973.719 351.458C973.719 351.458 953.719 292.977 874.952 292.364L880.491 287.462C880.491 287.462 858.955 277.356 845.417 273.99L831.569 273.377L842.648 270.926L812.803 252.863L804.191 252.258L807.272 250.42L785.735 238.173L810.964 247.054V238.786C810.964 238.786 814.347 248.581 838.35 258.99L838.04 244.905C838.04 244.905 836.193 266.033 872.811 275.526V271.245C872.811 271.245 874.355 280.126 932.199 293.598C932.199 293.598 926.349 276.147 908.196 275.232L908.816 271.858L918.351 273.696L898.661 250.42C898.661 250.42 889.004 239.488 887.893 239.096L891.276 238.483L880.205 203.271L873.13 193.475L880.205 197.454L881.431 187.65L899.274 239.701C899.274 239.701 911.586 261.131 922.044 266.335C922.044 266.335 940.5 287.462 941.733 293.892L953.122 303.386C953.122 303.386 941.121 271.85 940.81 257.152L932.812 251.637L941.121 254.088V231.122L934.356 219.488L941.742 225.305L943.768 201.114L937.738 185.803L945.426 194.994L949.119 168.352L950.042 202.952L960.81 188.556C960.81 188.556 939.887 234.48 954.658 271.841C954.658 271.841 966.047 236.326 981.121 222.544C981.121 222.544 939.585 269.088 979.887 319.603C979.887 319.603 971.276 279.186 984.503 264.186C984.503 264.186 977.428 293.884 985.116 312.863C985.116 312.863 986.963 304.293 992.191 300.616C992.191 300.616 984.806 332.455 992.191 340.42C992.191 340.42 1014.04 390.02 982.347 423.084C982.347 423.084 1023.88 384.506 1013.73 356.948C1013.73 356.948 1021.11 369.506 1017.73 377.774C1017.73 377.774 1043.88 353.582 1036.19 327.863C1036.19 327.863 1042.65 334.595 1041.11 346.85C1041.11 346.85 1068.8 303.68 1043.27 257.144L1048.81 261.122C1048.81 261.122 1044.5 205.395 1041.42 201.106C1041.42 201.106 1045.73 205.395 1049.11 225.902L1055.26 218.867C1055.26 218.867 1051.57 246.727 1056.19 264.488C1056.19 264.488 1065.11 292.046 1061.73 312.25L1080.49 292.348C1080.49 292.348 1086.96 266.016 1091.57 259.586L1088.8 283.467C1088.8 283.467 1102.03 274.276 1108.18 262.037L1106.95 271.833C1106.95 271.833 1119.57 265.403 1130.64 266.016C1130.64 266.016 1086.96 282.552 1081.41 302.454C1081.41 302.454 1086.33 298.165 1095.26 299.391C1095.26 299.391 1071.87 304.905 1062.34 334.603C1062.34 334.603 1028.49 399.212 1006.95 417.578C1006.95 417.578 1058.65 416.663 1071.26 375.02C1071.26 375.02 1073.11 393.387 1059.87 404.726C1059.87 404.726 1094.64 398.909 1106.02 362.169L1106.95 371.05L1124.79 348.697L1114.02 370.739L1118.03 369.824L1084.8 406.565L1111.57 407.48C1111.57 407.48 1131.26 396.458 1131.57 389.726C1131.57 389.726 1132.18 397.382 1121.42 406.867H1132.8C1132.8 406.867 1144.49 401.05 1150.64 401.05L1140.49 407.79L1151.25 409.016L1114.02 413.297L1122.94 420.952C1122.94 420.952 1109.1 415.437 1102.02 416.671H1082.33L1091.56 427.995C1091.56 427.995 1075.87 415.748 1070.64 418.199L1042.95 424.016L1062.03 434.122L1051.26 432.284V436.042C1051.26 436.042 1032.49 418.975 998.033 436.042C998.033 436.042 916.496 476.435 973.727 551.117C973.727 551.117 1007.57 601.321 1042.03 607.432C1042.03 607.432 1068.49 604.81 1093.11 623.511L1117.1 631.771L1108.49 638.037L1051.26 623.511L1063.56 638.037C1063.56 638.037 995.876 618.854 982.951 596.297L1011.26 638.037L978.646 639.426C978.646 639.426 963.261 630.864 958.956 618.225L943.751 639.018L907.877 638.037C907.877 638.037 952.183 605.578 939.258 562.105C939.258 562.105 946.023 604.802 913.408 623.511L888.171 639.426L850.638 638.65C850.638 638.65 893.71 621.052 891.251 616.068C891.251 616.068 859.87 632.449 826.022 630.039L792.786 639.426H781.095L787.247 633.748H787.271Z" fill="#2D4B41"/>
<path d="M1004.65 217.96C1004.65 217.96 971.881 234.039 980.647 263.426L991.905 243.671L987.338 261.351C987.338 261.351 1015.72 245.967 1004.64 217.952" fill="#87A75F"/>
<path d="M1017.11 256.31C1017.11 256.31 985.5 267.56 991.497 297.414L1005.57 278.81L992.183 300.624C992.183 300.624 1026.57 289.832 1017.11 256.302" fill="#87A75F"/>
<path d="M1008.57 305.682C1008.57 305.682 983.106 332.038 1010.19 355.053L1012.27 327.732L1015.03 353.223C1015.03 353.223 1039.19 330.706 1008.57 305.69" fill="#87A75F"/>
<path d="M1031.42 278.467C1031.42 278.467 1007.41 302.234 1034.41 325.428V300.632L1038.11 325.428C1038.11 325.428 1058.64 299.015 1031.42 278.467Z" fill="#87A75F"/>
<path d="M1023.11 210.844C1023.11 210.844 1006.26 241.155 1036.73 251.948L1032.34 235.411L1043.65 254.93C1043.65 254.93 1051.49 222.094 1023.11 210.844Z" fill="#87A75F"/>
<path d="M1046.64 152.053C1046.64 152.053 1008.56 177.078 1037.65 200.501L1041.34 172.723L1042.49 197.062C1042.49 197.062 1062.34 175.019 1046.65 152.053" fill="#87A75F"/>
<path d="M1087.49 170.198C1087.49 170.198 1044.65 175.019 1052.69 216.588L1069.59 193.393L1055.26 218.884C1055.26 218.884 1093.96 206.939 1087.49 170.207" fill="#87A75F"/>
<path d="M1072.72 228.067C1072.72 228.067 1049.64 240.011 1059.57 260.673L1067.64 244.366L1063.03 270.771C1063.03 270.771 1084.15 251.351 1072.71 228.058" fill="#87A75F"/>
<path d="M1108.49 207.625C1108.49 207.625 1073.65 222.781 1090.72 256.302L1100.18 235.183L1094.87 258.377C1094.87 258.377 1125.33 233.344 1108.49 207.625Z" fill="#87A75F"/>
<path d="M1145.64 221.866C1145.64 221.866 1116.79 218.426 1111.95 254.938L1130.87 238.361L1113.56 261.368C1113.56 261.368 1147.03 254.48 1145.64 221.866Z" fill="#87A75F"/>
<path d="M1177.03 258.377C1177.03 258.377 1149.57 241.155 1132.26 263.892H1151.87L1132.26 268.484C1132.26 268.484 1158.34 286.164 1177.03 258.377Z" fill="#87A75F"/>
<path d="M1094.19 295.575C1094.19 295.575 1117.72 265.951 1151.87 293.737C1151.87 293.737 1127.26 321.825 1095.26 299.399L1125.57 294.963L1094.19 295.567V295.575Z" fill="#87A75F"/>
<path d="M1086.57 324.048C1086.57 324.048 1053.8 344.252 1068.34 373.419L1079.65 349.996L1072.5 377.096C1072.5 377.096 1104.81 360.331 1086.58 324.048" fill="#87A75F"/>
<path d="M1114.03 318.312C1114.03 318.312 1089.1 335.992 1106.19 358.958L1110.8 335.306L1111.73 350.576C1111.73 350.576 1127.19 336.907 1114.04 318.312" fill="#87A75F"/>
<path d="M1158.34 313.484C1158.34 313.484 1126.73 310.959 1125.34 344.71L1144.72 329.072L1125.34 352.291C1125.34 352.291 1160.65 347.7 1158.34 313.484Z" fill="#87A75F"/>
<path d="M1120.72 366.074C1120.72 366.074 1144.49 342.651 1167.8 360.331C1167.8 360.331 1147.26 385.127 1120.72 371.123L1144.26 364.571L1120.72 366.074Z" fill="#87A75F"/>
<path d="M1151.65 398.223C1151.65 398.223 1165.26 367.684 1198.26 386.973C1198.26 386.973 1180.26 413.844 1153.49 402.586L1174.95 392.022L1151.65 398.223Z" fill="#87A75F"/>
<path d="M1147.26 414.294C1147.26 414.294 1176.64 400.976 1192.29 430.83C1192.29 430.83 1161.56 441.393 1148.41 418.428L1169.77 423.477L1147.26 414.285V414.294Z" fill="#87A75F"/>
<path d="M1160.8 452.644C1160.8 452.644 1155.4 420.911 1121.41 419.629L1140.03 438.256L1121.41 423.558C1121.41 423.558 1119.41 459.539 1160.8 452.644Z" fill="#87A75F"/>
<path d="M1093.72 426.467C1093.72 426.467 1125.33 430.143 1120.26 467.113C1120.26 467.113 1086.33 464.351 1085.87 426.467L1106.87 448.51L1093.71 426.467H1093.72Z" fill="#87A75F"/>
<path d="M1062.03 434.122L1077.11 452.415L1066.49 443.264C1066.49 443.264 1069.95 469.752 1088.88 474.057C1088.88 474.057 1100.26 437.407 1062.03 434.114" fill="#87A75F"/>
<path d="M1051.26 436.042V457.243L1047.1 436.042C1047.1 436.042 1024.03 459.425 1056.79 480.381C1056.79 480.381 1077.1 449.98 1051.25 436.042" fill="#87A75F"/>
<path d="M819.576 480.373C819.576 480.373 788.195 476.067 786.038 512.807C786.038 512.807 821.112 513.11 823.579 483.722L804.813 494.131L819.584 480.373H819.576Z" fill="#87A75F"/>
<path d="M782.345 475.454C782.345 475.454 775.58 502.097 735.269 494.441C735.269 494.441 744.804 461.982 782.345 469.645L758.807 482.154L782.345 475.462V475.454Z" fill="#87A75F"/>
<path d="M768.807 454.939C768.807 454.939 753.423 430.756 726.037 444.22C726.037 444.22 745.727 473.926 768.807 459.22L747.426 453.101L768.807 454.939Z" fill="#87A75F"/>
<path d="M789.118 453.714C789.118 453.714 761.487 451.263 762.345 419.727C762.345 419.727 789.42 423.183 794.959 451.001L778.644 440.144L789.11 453.714H789.118Z" fill="#87A75F"/>
<path d="M826.961 460.144C826.961 460.144 807.582 456.467 807.582 434.114C807.582 434.114 833.121 438.248 830.965 457.08L819.339 447.129L826.961 460.144Z" fill="#87A75F"/>
<path d="M807.574 410.544H794.959L806.038 404.727C806.038 404.727 787.272 398.91 776.193 415.135C776.193 415.135 800.499 430.135 807.574 410.544Z" fill="#87A75F"/>
<path d="M756.503 400.437L736.503 409.629L756.503 405.037C756.503 405.037 744.812 431.982 710.661 414.22C710.661 414.22 727.581 388.199 756.503 400.445" fill="#87A75F"/>
<path d="M739.575 385.748C739.575 385.748 715.572 395.543 701.732 365.845C701.732 365.845 733.97 356.744 741.421 381.769L721.576 375.764L739.575 385.748Z" fill="#87A75F"/>
<path d="M758.039 377.782C758.039 377.782 730.964 370.127 735.882 338.59C735.882 338.59 768.154 343.182 762.328 374.105L749.158 356.965L758.039 377.782Z" fill="#87A75F"/>
<path d="M802.345 375.764C802.345 375.764 773.113 376.565 772.5 341.965C772.5 341.965 804.608 346.646 805.425 370.135L787.582 358.868L802.353 375.764H802.345Z" fill="#87A75F"/>
<path d="M794.959 334.922C794.959 334.922 767.41 338.599 763.031 302.463C763.031 302.463 801.12 299.922 799.273 335.02L781.185 318.721L794.968 334.914L794.959 334.922Z" fill="#87A75F"/>
<path d="M826.651 351.45C826.651 351.45 802.345 329.71 816.806 307.969C816.806 307.969 847.574 328.795 832.803 352.675L824.51 335.02L826.651 351.45Z" fill="#87A75F"/>
<path d="M856.496 373.19C856.496 373.19 838.04 351.45 856.496 326.956C856.496 326.956 878.342 345.943 861.422 369.824L858.073 347.161L856.504 373.19H856.496Z" fill="#87A75F"/>
<path d="M870.957 384.522C870.957 384.522 865.107 354.514 895.263 348.697C895.263 348.697 906.031 376.597 874.339 387.292L883.767 365.837L870.957 384.514V384.522Z" fill="#87A75F"/>
<path d="M873.726 408.722C873.726 408.722 888.187 384.824 912.804 401.671C912.804 401.671 895.263 423.902 876.186 412.178L893.261 405.625L873.726 408.722Z" fill="#87A75F"/>
<path d="M954.952 350.576C954.952 350.576 946.954 374.13 907.877 367.994C907.877 367.994 921.415 327.569 956.799 343.795L932.338 354.481L954.952 350.568V350.576Z" fill="#87A75F"/>
<path d="M934.96 323.893C934.96 323.893 898.343 342.259 876.496 321.744C876.496 321.744 906.946 287.773 934.96 319.906L905.728 318.77L934.96 323.884V323.893Z" fill="#87A75F"/>
<path d="M836.814 307.977C836.814 307.977 847.264 281.645 873.726 289.301L855.27 299.407L873.726 295.428C873.726 295.428 869.135 314.718 836.814 307.986" fill="#87A75F"/>
<path d="M834.037 269.399C834.037 269.399 806.961 252.56 786.038 290.526C786.038 290.526 815.883 301.801 831.267 278.1L807.884 279.44L834.037 269.39V269.399Z" fill="#87A75F"/>
<path d="M802.035 249.496C802.035 249.496 770.964 235.011 752.5 265.673C752.5 265.673 785.115 282.16 802.035 255.869L779.265 258.426L802.035 249.496Z" fill="#87A75F"/>
<path d="M782.655 235.722C782.655 235.722 762.966 244.292 747.271 215.207C747.271 215.207 771.389 204.66 784.502 230.518L765.891 226.237L782.664 235.73L782.655 235.722Z" fill="#87A75F"/>
<path d="M807.272 239.088C807.272 239.088 779.273 227.764 784.502 197.454C784.502 197.454 818.652 202.356 810.041 235.722L797.647 218.271L807.272 239.088Z" fill="#87A75F"/>
<path d="M835.27 242.144C835.27 242.144 808.195 224.39 828.195 191.62C828.195 191.62 856.504 213.05 839.584 242.144L832.909 218.263L835.278 242.144H835.27Z" fill="#87A75F"/>
<path d="M867.264 267.56C867.264 267.56 851.569 264.039 854.028 240.689C854.028 240.689 876.186 248.876 873.718 267.56L862.027 254.129L867.256 267.56H867.264Z" fill="#87A75F"/>
<path d="M908.8 271.85L895.263 265.681L906.954 268.761C906.954 268.761 901.962 251.131 878.955 254.129C878.955 254.129 885.892 273.917 908.187 275.216L908.8 271.85Z" fill="#87A75F"/>
<path d="M884.494 239.088C884.494 239.088 856.275 241.237 853.767 204.798C853.767 204.798 886.03 208.777 886.03 234.807L869.903 223.786L884.494 239.096V239.088Z" fill="#87A75F"/>
<path d="M869.903 194.079C869.903 194.079 838.955 196.53 829.723 164.382C829.723 164.382 863.571 159.79 868.187 187.952L853.775 182.135L869.903 194.079Z" fill="#87A75F"/>
<path d="M875.262 141.416C875.262 141.416 901.267 160.484 884.184 184.586L877.419 160.705L877.721 185.811C877.721 185.811 857.109 163.148 875.262 141.416Z" fill="#87A75F"/>
<path d="M927.877 251.637C927.877 251.637 904.797 250.412 903.261 224.08C903.261 224.08 931.872 224.08 931.872 247.658L918.947 237.863L927.869 251.637H927.877Z" fill="#87A75F"/>
<path d="M930.034 218.875C930.034 218.875 891.88 215.738 901.112 176.277C901.112 176.277 936.496 179.373 934.65 215.509L917.199 197.576L930.034 218.875Z" fill="#87A75F"/>
<path d="M934.715 182.445C934.715 182.445 900.189 169.275 912.183 130.092C912.183 130.092 947.338 145.027 938.645 177.854L924.838 156.269L934.715 182.445Z" fill="#87A75F"/>
<path d="M949.724 164.104C949.724 164.104 934.029 138.05 965.721 118.458C965.721 118.458 981.154 146.93 955.778 163.613L958.106 141.277L949.724 164.104Z" fill="#87A75F"/>
<path d="M966.644 176.285C966.644 176.285 963.564 153.05 995.255 141.424C995.255 141.424 1001.35 179.61 965.108 185.819L980.378 164.104L966.644 176.285Z" fill="#87A75F"/>
<path d="M960.802 244.292C960.802 244.292 947.877 222.552 969.111 204.79C969.111 204.79 978.956 223.54 965.108 232.993V218.875L960.802 244.284V244.292Z" fill="#87A75F"/>
<path d="M980.378 212.756C980.378 212.756 977.722 180.297 1013.72 173.875C1013.72 173.875 1023.56 207.862 981.105 222.552L997.714 194.537L980.378 212.756Z" fill="#87A75F"/>
</g>
<defs>
<clipPath id="clip0_4_2">
<rect width="1200" height="630" fill="white"/>
</clipPath>
</defs>
</svg>
