<?xml version="1.0" encoding="iso-8859-1"?>
<!-- Generator: Adobe Illustrator 19.0.0, SVG Export Plug-In . SVG Version: 6.00 Build 0)  -->
<svg version="1.1" id="Capa_1" xmlns="http://www.w3.org/2000/svg" xmlns:xlink="http://www.w3.org/1999/xlink" x="0px" y="0px"
	 viewBox="0 0 512 512" style="enable-background:new 0 0 512 512;" xml:space="preserve">
<path style="fill:#524A56;" d="M452,136v215c0,5.523-4.477,10-10,10H10c-5.523,0-10-4.477-10-10V136c0-5.523,4.477-10,10-10h432
	C447.523,126,452,130.477,452,136z"/>
<path style="fill:#41313B;" d="M31.667,361H10c-5.523,0-10-4.477-10-10V136c0-5.523,4.477-10,10-10h21.667c-5.523,0-10,4.477-10,10
	v215C21.667,356.523,26.144,361,31.667,361z"/>
<path style="fill:#F2CF90;" d="M60,163.5c16.569,0,30,13.431,30,30s-13.431,30-30,30s-30-13.431-30-30S43.431,163.5,60,163.5z"/>
<path style="fill:#CD8E5E;" d="M153.333,163.5c16.569,0,30,13.431,30,30s-13.431,30-30,30s-30-13.431-30-30
	S136.765,163.5,153.333,163.5z"/>
<path style="fill:#B37952;" d="M246.667,163.5c16.569,0,30,13.431,30,30s-13.431,30-30,30s-30-13.431-30-30
	S230.098,163.5,246.667,163.5z"/>
<path style="fill:#A0704F;" d="M340,163.5c16.569,0,30,13.431,30,30s-13.431,30-30,30s-30-13.431-30-30S323.431,163.5,340,163.5z"/>
<path style="fill:#FFDB8B;" d="M60,263.5c16.569,0,30,13.431,30,30s-13.431,30-30,30s-30-13.431-30-30S43.431,263.5,60,263.5z"/>
<path style="fill:#99CFD7;" d="M153.333,263.5c16.569,0,30,13.431,30,30s-13.431,30-30,30s-30-13.431-30-30
	S136.765,263.5,153.333,263.5z"/>
<path style="fill:#99DF70;" d="M246.667,263.5c16.569,0,30,13.431,30,30s-13.431,30-30,30s-30-13.431-30-30
	S230.098,263.5,246.667,263.5z"/>
<path style="fill:#FA9A8E;" d="M340,263.5c16.569,0,30,13.431,30,30s-13.431,30-30,30s-30-13.431-30-30S323.431,263.5,340,263.5z"/>
<path style="fill:#DC5B4D;" d="M487.607,66.497v175.401H422.56V106.225c0-3.699,1.323-7.277,3.731-10.085l34.053-39.728
	C463.288,52.977,467.586,51,472.11,51l0,0C480.669,51,487.607,57.938,487.607,66.497z"/>
<path style="fill:#C35243;" d="M455.061,62.576v179.323h-32.5V106.225c0-3.699,1.323-7.277,3.731-10.085L455.061,62.576z"/>
<path style="fill:#FFC261;" d="M501.395,230.688v29.492c0,5.523-4.477,10-10,10h-72.621c-5.523,0-10-4.477-10-10v-29.492
	c0-5.523,4.477-10,10-10h72.621C496.917,220.688,501.395,225.165,501.395,230.688z"/>
<path style="fill:#6C6272;" d="M512,260.383V393c0,11.046-8.954,20-20,20h-73.832c-11.046,0-20-8.954-20-20V260.383
	c0-5.523,4.477-10,10-10H502C507.523,250.383,512,254.86,512,260.383z"/>
<path style="fill:#8D7B93;" d="M492,413h-39.167c-11.046,0-20-8.954-20-20V250.383H502c5.523,0,10,4.477,10,10V393
	C512,404.046,503.046,413,492,413z"/>
<path style="fill:#524A56;" d="M58.067,411h50l270.012,9.643c5.573,0.199,9.988,4.774,9.988,10.351l0,0
	c0,5.581-4.422,10.159-10,10.351l-270,9.321h-50L58.067,411L58.067,411z"/>
<path style="fill:#F2CF90;" d="M5.004,401H70v60H21.67c-2.152,0-4.063-1.377-4.743-3.419l-16.667-50
	C-0.819,404.343,1.591,401,5.004,401z"/>
<path style="fill:#6C6272;" d="M98.067,431L98.067,431c0,16.569-13.431,30-30,30h-10v-60h10C84.635,401,98.067,414.431,98.067,431z"
	/>
<g>
</g>
<g>
</g>
<g>
</g>
<g>
</g>
<g>
</g>
<g>
</g>
<g>
</g>
<g>
</g>
<g>
</g>
<g>
</g>
<g>
</g>
<g>
</g>
<g>
</g>
<g>
</g>
<g>
</g>
</svg>
