<svg height="512pt" viewBox="-31 0 512 512" width="512pt" xmlns="http://www.w3.org/2000/svg"><path d="m420 331h-90l-30 30v136c0 8.289062 6.710938 15 15 15s15-6.710938 15-15v-46h90v46c0 8.289062 6.710938 15 15 15s15-6.710938 15-15v-136zm0 0" fill="#3e322e"/><path d="m120 331h-90l-30 30v136c0 8.289062 6.710938 15 15 15s15-6.710938 15-15v-46h90v46c0 8.289062 6.710938 15 15 15s15-6.710938 15-15v-136zm0 0" fill="#53433f"/><path d="m105 121h-45v-15c0-8.289062-6.710938-15-15-15s-15 6.710938-15 15v180c0 8.289062 6.710938 15 15 15s15-6.710938 15-15v-75h45zm0 0" fill="#53433f"/><path d="m405 91c-8.289062 0-15 6.710938-15 15v15h-45v90h45v75c0 8.289062 6.710938 15 15 15s15-6.710938 15-15v-180c0-8.289062-6.710938-15-15-15zm0 0" fill="#3e322e"/><path d="m225 0c-74.398438 0-135 61.597656-135 136v30c0 74.398438 60.601562 135 135 135s135-60.601562 135-135v-30c0-74.402344-60.601562-136-135-136zm0 0" fill="#ff7cb9"/><path d="m360 136v30c0 74.398438-60.601562 135-135 135v-301c74.398438 0 135 61.597656 135 136zm0 0" fill="#ff5e95"/><path d="m225 30c-57.898438 0-105 48.101562-105 106v30c0 57.898438 47.101562 105 105 105s105-47.101562 105-105v-30c0-57.898438-47.101562-106-105-106zm0 0" fill="#fff4ca"/><path d="m330 136v30c0 57.898438-47.101562 105-105 105v-241c57.898438 0 105 48.101562 105 106zm0 0" fill="#ffe1ba"/><path d="m375 391c-8.289062 0-15-6.710938-15-15v-30c0-8.289062 6.710938-15 15-15s15 6.710938 15 15v30c0 8.289062-6.710938 15-15 15zm0 0" fill="#ff9100"/><path d="m75 391c-8.289062 0-15-6.710938-15-15v-30c0-8.289062 6.710938-15 15-15s15 6.710938 15 15v30c0 8.289062-6.710938 15-15 15zm0 0" fill="#fdbf00"/><path d="m295.5 161.5c-5.699219 6-15.300781 6-21 0l-75-75c-6-5.699219-6-15.300781 0-21 5.699219-6 15.300781-6 21 0l75 75c6 5.699219 6 15.300781 0 21zm0 0" fill="#ffe1ba"/><path d="m265.5 221.5c-5.699219 6-15.300781 6-21 0l-75-75c-6-5.699219-6-15.300781 0-21 5.699219-6 15.300781-6 21 0l75 75c6 5.699219 6 15.300781 0 21zm0 0" fill="#ffe1ba"/><path d="m265.5 200.5c6 5.699219 6 15.300781 0 21-5.699219 6-15.300781 6-21 0l-19.5-19.5v-42zm0 0" fill="#ffc473"/><path d="m295.5 161.5c-5.699219 6-15.300781 6-21 0l-49.5-49.5v-42l70.5 70.5c6 5.699219 6 15.300781 0 21zm0 0" fill="#ffc473"/><path d="m435 271h-420c-8.402344 0-15 6.597656-15 15v75h128.699219c11.398437 10.199219 40.800781 30 96.300781 30s84.902344-19.800781 96.300781-30h128.699219v-75c0-8.402344-6.597656-15-15-15zm0 0" fill="#725d57"/><path d="m450 286v75h-128.699219c-11.398437 10.199219-40.800781 30-96.300781 30v-120h210c8.402344 0 15 6.597656 15 15zm0 0" fill="#53433f"/></svg>