<svg id="Capa_1" enable-background="new 0 0 512 512" height="512" viewBox="0 0 512 512" width="512" xmlns="http://www.w3.org/2000/svg"><path d="m430.4 351.315c-1.786 24.047-7.849 47.896-18.253 70.385l-40.369 87.289c-.851 1.838-2.689 3.011-4.714 3.011h-222.11c-2.025 0-3.862-1.173-4.714-3.011l-40.369-87.289c-10.404-22.489-16.467-46.339-18.253-70.385-.374-5.036-.561-10.082-.561-15.118 0-42.237 12.543-73.459 22.78-93.373 4.62-8.971 8.763-15.657 11.089-20.008 25.365-47.522 30.931-103.289 15.221-155.047-.291-1.038 1.194 3.748-19.021-61.031-1.048-3.343 1.454-6.738 4.953-6.738h279.86c3.499 0 6.001 3.395 4.953 6.738-20.226 64.82-18.616 59.639-18.938 60.74-16.966 55.59-9.199 115.219 20.07 164.06 2.222 3.707 4.309 7.476 6.271 11.286 17.422 33.765 24.866 71.351 22.105 108.491z" fill="#ffcdbe"/><path d="m181.294 512h-36.34c-2.025 0-3.862-1.173-4.714-3.011l-40.369-87.289c-10.404-22.489-16.467-46.339-18.253-70.385-.374-5.036-.561-10.082-.561-15.118 0-42.237 12.543-73.459 22.78-93.373 4.62-8.971 8.763-15.657 11.089-20.008 25.365-47.522 30.931-103.289 15.221-155.047-.291-1.038 1.194 3.748-19.021-61.031-1.048-3.343 1.454-6.738 4.953-6.738h32.436c-.872 3.354-1.308 5.908-1.049 6.738l18.554 59.463c16.291 52.195 10.871 108.615-14.754 156.615-7.476 14.017-33.869 52.101-33.869 113.381 0 29.114 6.23 58.3 18.814 85.503l40.369 87.289c.851 1.838 2.689 3.011 4.714 3.011z" fill="#fcb19f"/><path d="m263.796 394.788v117.212h-15.574v-117.212c0-4.298 3.489-7.787 7.787-7.787s7.787 3.488 7.787 7.787z" fill="#faa68e"/><path d="m256.009 200.28c-4.301 0-7.787 3.486-7.787 7.787v16.613c0 4.301 3.486 7.787 7.787 7.787s7.787-3.486 7.787-7.787v-16.613c0-4.3-3.486-7.787-7.787-7.787z" fill="#faa68e"/><path d="m430.4 351.315c-57.137 3.956-117.69 26.414-152.555 70.967-1.796 2.305-4.558 3.655-7.486 3.655h-28.699c-2.928 0-5.69-1.35-7.486-3.655-34.866-44.553-95.419-67.011-152.555-70.967-.374-5.036-.561-10.082-.561-15.118 0-42.237 12.543-73.459 22.78-93.373 32.955 11.38 78.64 27.67 152.171 27.67 80.955 0 132.174-20.797 152.285-27.67 17.423 33.765 24.867 71.351 22.106 108.491z" fill="#eb5793"/><path d="m400.891 6.738c-20.226 64.822-18.616 59.637-18.938 60.74-29.144 10.115-76.401 18.803-125.944 18.803-43.982 0-85.534-6.323-122.393-17.578h-.021l-3.447-.934c-.291-1.038 1.192 3.749-19.021-61.031-1.049-3.343 1.453-6.738 4.952-6.738h279.86c3.499 0 6.001 3.395 4.952 6.738z" fill="#eb5793"/><g fill="#e7387f"><path d="m103.838 242.824c-18.114 35.236-24.947 71.735-22.219 108.491 12.2.841 24.556 2.533 36.786 5.098-3.508-34.979 1.929-70.31 16.779-103.247-11.692-3.51-22.033-7.123-31.346-10.342z"/><path d="m111.184 6.922c1.131 3.623 18.905 60.55 18.964 60.847l3.447.934h.021c11.452 3.499 23.351 6.51 35.634 9.012-.966-3.862-2.035-7.694-3.229-11.515l-18.555-59.462c-.26-.831.176-3.385 1.049-6.738h-32.436c-3.499 0-6.001 3.395-4.953 6.738.004.011.024.077.058.184z"/></g></svg>