<svg id="Capa_1" enable-background="new 0 0 512 512" height="512" viewBox="0 0 512 512" width="512" xmlns="http://www.w3.org/2000/svg"><g><g fill="#fce3a0"><path d="m480.681 174.024c-4.182-2.559-8.767-4.524-13.638-5.778-1.254-4.871-3.219-9.456-5.778-13.638-3.117-5.092-10.413-5.092-13.529 0-2.56 4.182-4.524 8.768-5.779 13.638-4.87 1.254-9.455 3.219-13.638 5.778-2.546 1.558-3.819 4.161-3.819 6.765 0 2.603 1.273 5.206 3.819 6.764 4.182 2.559 8.77 4.534 13.641 5.787 1.254 4.87 3.216 9.447 5.776 13.629 3.116 5.092 10.412 5.092 13.529 0 2.559-4.182 4.522-8.759 5.776-13.629 4.87-1.254 9.458-3.228 13.64-5.787 5.092-3.116 5.092-10.413 0-13.529z"/><path d="m89.544 461.608c-4.879-2.986-10.229-5.279-15.911-6.741-1.463-5.683-3.756-11.032-6.742-15.911-3.636-5.941-12.149-5.941-15.784 0-2.986 4.879-5.279 10.229-6.742 15.911-5.682 1.463-11.031 3.755-15.911 6.741-2.969 1.818-4.454 4.855-4.454 7.892s1.485 6.074 4.456 7.892c4.879 2.986 10.231 5.289 15.914 6.752 1.463 5.682 3.753 11.021 6.739 15.9 3.635 5.941 12.148 5.941 15.784 0 2.986-4.879 5.275-10.218 6.739-15.9 5.682-1.463 11.035-3.766 15.913-6.752 5.94-3.636 5.94-12.148-.001-15.784z"/></g><g fill="#fce3a0"><path d="m47.5 329h-6c-4.142 0-7.5 3.358-7.5 7.5s3.358 7.5 7.5 7.5h6c4.142 0 7.5-3.358 7.5-7.5s-3.358-7.5-7.5-7.5z"/><path d="m13.5 329h-6c-4.142 0-7.5 3.358-7.5 7.5s3.358 7.5 7.5 7.5h6c4.142 0 7.5-3.358 7.5-7.5s-3.358-7.5-7.5-7.5z"/><path d="m27.5 343c-4.142 0-7.5 3.358-7.5 7.5v6c0 4.142 3.358 7.5 7.5 7.5s7.5-3.358 7.5-7.5v-6c0-4.142-3.358-7.5-7.5-7.5z"/><path d="m27.5 330c4.142 0 7.5-3.358 7.5-7.5v-6c0-4.142-3.358-7.5-7.5-7.5s-7.5 3.358-7.5 7.5v6c0 4.142 3.358 7.5 7.5 7.5z"/><path d="m504.5 393.917h-6c-4.142 0-7.5 3.358-7.5 7.5s3.358 7.5 7.5 7.5h6c4.142 0 7.5-3.358 7.5-7.5s-3.358-7.5-7.5-7.5z"/><path d="m470.5 393.917h-6c-4.142 0-7.5 3.358-7.5 7.5s3.358 7.5 7.5 7.5h6c4.142 0 7.5-3.358 7.5-7.5s-3.358-7.5-7.5-7.5z"/><path d="m484.5 407.917c-4.142 0-7.5 3.358-7.5 7.5v6c0 4.142 3.358 7.5 7.5 7.5s7.5-3.358 7.5-7.5v-6c0-4.142-3.358-7.5-7.5-7.5z"/><path d="m484.5 394.917c4.142 0 7.5-3.358 7.5-7.5v-6c0-4.142-3.358-7.5-7.5-7.5s-7.5 3.358-7.5 7.5v6c0 4.142 3.358 7.5 7.5 7.5z"/></g><g><path d="m417.597 353.038 7.393-7.393c8.032-8.032 8.032-21.054 0-29.086-3.857-3.857-6.024-7.877-6.024-13.332v-38.73c0-5.791-2.413-11.343-4.092-16.885l-158.874-.004-158.873-.003c-1.679 5.544-4.093 11.097-4.093 16.891v38.73c0 5.455-2.167 9.475-6.024 13.332-8.032 8.032-8.032 21.054 0 29.086l7.393 7.393c11.64 11.639 11.64 30.511 0 42.151s-11.64 30.511 0 42.15c17.388 17.388 40.972 27.157 65.562 27.157h96.035 96.035c24.591 0 48.174-9.769 65.563-27.157 11.639-11.64 11.639-30.511 0-42.15-11.64-11.64-11.64-30.511-.001-42.15z" fill="#ffb39d"/><path d="m97.127 247.605c-1.679 5.544-4.093 11.097-4.093 16.891v38.73c0 5.455-2.167 9.475-6.024 13.332-8.032 8.032-8.032 21.054 0 29.086l7.393 7.393c11.64 11.639 11.64 30.511 0 42.151s-11.64 30.511 0 42.15c17.388 17.388 40.972 27.157 65.562 27.157h96.035v-216.887z" fill="#ff8f71"/></g><g><g><path d="m316.437 443.8c-11.149-14-26.969-24.063-45.052-27.753-4.974-1.015-10.119-1.548-15.385-1.548-24.412 0-46.22 11.449-60.436 29.3-10.669 13.397-17.063 30.398-17.063 48.88v11.82h77.499 77.5v-11.82c0-18.481-6.395-35.482-17.063-48.879z" fill="#c9aaf2"/><path d="m271.384 416.048c-4.974-1.015-10.118-1.548-15.385-1.548-24.412 0-46.22 11.449-60.436 29.3-10.669 13.397-17.063 30.398-17.063 48.88v11.82h30.795v-11.82c0-37.736 26.725-69.406 62.089-76.632z" fill="#b28ae4"/></g><path d="m308.851 429.535-14.976-5.043h-37.875-37.875l-14.976 5.043c-9.292 3.129-11.716 15.142-4.365 21.629l29.981 26.458v3.263c0 5.038 2.707 9.687 7.087 12.174l20.148 11.441 20.148-11.44c4.381-2.488 7.087-7.137 7.087-12.174v-3.263l29.981-26.458c7.352-6.489 4.928-18.501-4.365-21.63z" fill="#b28ae4"/><path d="m256 392.632-37.875 31.859c4.223 20.009 18.581 36.364 37.875 43.141 19.294-6.778 33.652-23.132 37.875-43.141z" fill="#ffcbbe"/></g><g><path d="m401 249.5h-290c-19.33 0-35 15.67-35 35s15.67 35 35 35h290c19.33 0 35-15.67 35-35s-15.67-35-35-35z" fill="#ffcbbe"/><path d="m280.148 141.513c-7.854-1.317-15.919-2.013-24.148-2.013-8.228 0-16.293.696-24.147 2.013-68.586 11.498-120.853 71.134-120.853 142.987s52.267 131.489 120.853 142.987c7.854 1.317 15.919 2.013 24.147 2.013s16.293-.696 24.148-2.013c68.585-11.499 120.852-71.134 120.852-142.987s-52.267-131.488-120.852-142.987z" fill="#ffddcf"/><path d="m159.099 284.702c0-71.98 52.361-131.723 121.049-143.189-7.854-1.317-15.919-2.013-24.148-2.013-8.228 0-16.293.696-24.147 2.013-68.586 11.498-120.853 71.134-120.853 142.987s52.267 131.489 120.853 142.987c7.854 1.317 15.919 2.013 24.147 2.013s16.293-.696 24.148-2.013c-68.688-11.466-121.049-70.807-121.049-142.785z" fill="#ffcbbe"/></g><g><g><g><ellipse cx="176" cy="331.5" fill="#ff8e9e" rx="29" ry="23"/></g><g><ellipse cx="336" cy="331.5" fill="#ff8e9e" rx="29" ry="23"/></g></g></g><g fill="#313d40"><path d="m193.551 290c-4.142 0-7.5 3.358-7.5 7.5v12c0 4.142 3.358 7.5 7.5 7.5s7.5-3.358 7.5-7.5v-12c0-4.142-3.358-7.5-7.5-7.5z"/><path d="m318.449 290c-4.142 0-7.5 3.358-7.5 7.5v12c0 4.142 3.358 7.5 7.5 7.5s7.5-3.358 7.5-7.5v-12c0-4.142-3.358-7.5-7.5-7.5z"/><path d="m277.392 302.986c-3.122-2.722-7.86-2.397-10.582.726-2.73 3.132-6.67 4.928-10.811 4.928s-8.081-1.796-10.811-4.928c-2.721-3.123-7.46-3.448-10.582-.726-3.123 2.722-3.448 7.459-.726 10.582 5.579 6.401 13.641 10.073 22.118 10.073s16.539-3.671 22.118-10.073c2.724-3.123 2.399-7.86-.724-10.582z"/></g><g><path d="m414.875 247.61c-8.483-28.005-23.318-52.974-42.696-72.982-21.722-22.43-49.154-38.622-79.75-45.875-11.727-2.78-23.916-4.252-36.429-4.252-45.167 0-86.145 19.099-116.192 50.131-19.371 20.006-34.2 44.975-42.681 72.974l18.126 1.895c-2.777 11.205-4.253 22.925-4.253 34.999 16.469-.012 32.692-2.346 48.275-6.869 16.781-4.871 32.819-12.28 47.612-22.093 19.802-13.134 36.447-29.91 49.113-49.343 12.666 19.433 29.312 36.209 49.113 49.343 28.53 18.924 61.684 28.936 95.887 28.961 0-12.074-1.476-23.794-4.253-34.998z" fill="#ffb39d"/><path d="m261.187 146.013c11.496-3.565 22.076-9.518 31.242-17.26-11.727-2.78-23.916-4.252-36.429-4.252-45.167 0-86.145 19.099-116.192 50.131-19.371 20.006-34.2 44.975-42.681 72.974l18.126 1.895c-2.777 11.205-4.253 22.925-4.253 34.999 16.469-.012 32.692-2.346 48.275-6.869 2.977-62.087 44.929-113.947 101.912-131.618z" fill="#ff8f71"/></g><g><path d="m180.644 22.653c-16.894-5.861-34.446-10.09-52.436-12.567-12.377-1.705-24.961-2.586-37.682-2.586-10.646 0-15.833 12.999-8.113 20.328l47.198 44.807c7.543 7.161 10.839 17.719 8.709 27.9l-20.138 96.271c28.162-20.725 59.55-36.596 93.748-47.351 4.098-1.289 8.205-2.49 12.32-3.612 27.641-7.537 55.655-11.32 83.774-11.32 4.742 0 9.486.12 14.231.334-16.132-25.417-36.057-47.637-58.795-66.097-24.694-20.049-52.708-35.663-82.816-46.107z" fill="#c9aaf2"/><path d="m177.109 57.629c-8.54-10.68-6.972-26.225 3.535-34.976-16.894-5.861-34.446-10.09-52.436-12.567-12.392-1.707-24.99-2.588-37.727-2.586-10.622.002-15.771 13.016-8.068 20.328l47.198 44.807c7.543 7.161 10.839 17.719 8.709 27.9l-20.138 96.271c28.162-20.725 59.55-36.596 93.748-47.351 4.098-1.289 8.205-2.49 12.32-3.612-10.186-32.116-26.185-62.007-47.141-88.214z" fill="#b28ae4"/><path d="m263.461 68.761c-23.19 2.637-46.06 7.387-68.385 14.16-1.238.376-2.482.732-3.717 1.12-18.648 5.865-36.703 13.093-54.107 21.6l-19.07 91.166c28.162-20.725 59.55-36.596 93.748-47.351 4.098-1.289 8.205-2.49 12.32-3.612 27.641-7.537 55.655-11.32 83.774-11.32 4.742 0 9.486.12 14.231.334-16.132-25.419-36.054-47.636-58.794-66.097z" fill="#b0ebd8"/><path d="m191.359 84.041c-18.648 5.865-36.703 13.093-54.107 21.6l-19.07 91.166c28.162-20.725 59.55-36.596 93.748-47.351 4.098-1.289 8.205-2.49 12.32-3.612-7.041-22.199-16.862-43.332-29.175-62.923-1.237.376-2.481.732-3.716 1.12z" fill="#5fd9b3"/><path d="m77.118 242.073c7.32 3.817 16.276 2.553 22.208-3.188 33.084-32.018 73.406-56.137 118.605-70.351 45.116-14.188 91.896-17.5 137.272-10.233 8.134 1.303 16.182-2.781 19.992-10.086 6.098-11.693-1.142-25.871-14.177-27.872-10.942-1.679-22.005-2.817-33.158-3.474-39.964-2.353-81.041 2.145-121.5 14.868-40.58 12.761-77.004 32.55-108.493 57.458-8.763 6.932-17.155 14.241-25.139 21.92-9.494 9.132-7.289 24.867 4.39 30.958z" fill="#b28ae4"/></g></g></svg>