<?xml version="1.0" encoding="iso-8859-1"?>
<!-- Generator: Adobe Illustrator 19.0.0, SVG Export Plug-In . SVG Version: 6.00 Build 0)  -->
<svg version="1.1" id="Layer_1" xmlns="http://www.w3.org/2000/svg" xmlns:xlink="http://www.w3.org/1999/xlink" x="0px" y="0px"
	 viewBox="0 0 512 512" style="enable-background:new 0 0 512 512;" xml:space="preserve">
<path style="fill:#FCC695;" d="M360.511,167.143v61.214c16.903,0,30.608-13.701,30.608-30.606
	C391.118,180.849,377.414,167.143,360.511,167.143z"/>
<path style="fill:#FFC07D;" d="M151.489,167.143v61.214c-16.903,0-30.608-13.701-30.608-30.606
	C120.881,180.849,134.586,167.143,151.489,167.143z"/>
<path style="fill:#7F7265;" d="M151.489,167.143v-12.937c0,0,105.021-0.04,154.889-29.328l54.131,29.328v12.937
	c12.26,0,22.807,7.226,27.693,17.635v-65.81C388.203,53.264,334.934,0,269.235,0h-26.469c-65.7,0-118.968,53.264-118.968,118.967
	v65.81C128.682,174.369,139.229,167.143,151.489,167.143z"/>
<path style="fill:#897C71;" d="M291.335,2.058c-37.935,39.75-64.159,90.764-73.182,147.511
	c30.687-3.939,65.287-11.219,88.226-24.691l54.131,29.328v12.937c12.26,0,22.807,7.226,27.693,17.635v-65.81
	C388.203,60.817,346.475,12.42,291.335,2.058z"/>
<path style="fill:#FFC48F;" d="M361.491,150.309l-52.435-28.41c-1.694-0.918-3.746-0.894-5.419,0.068
	c-45.753,26.269-139.959,28.198-150.551,28.332c-3.044,0.039-5.491,2.518-5.491,5.562v76.426c0,49.295,40.105,89.398,89.399,89.398
	H275c49.298,0,89.404-40.104,89.404-89.398v-77.086C364.405,153.159,363.287,151.282,361.491,150.309z"/>
<path style="fill:#FFD0A9;" d="M361.491,150.309l-52.435-28.41c-1.694-0.918-3.746-0.894-5.419,0.068
	c-21.971,12.614-55.113,19.614-84.805,23.5c-2.718,15.584-4.146,31.611-4.146,47.973c0,46.275,11.352,89.892,31.4,128.245h28.915
	c49.298,0,89.404-40.104,89.404-89.398v-77.086C364.405,153.159,363.287,151.282,361.491,150.309z"/>
<g style="opacity:0.1;">
	<path style="fill:#231F20;" d="M141.874,118.967C141.874,53.264,195.143,0,260.843,0h-18.078
		c-65.7,0-118.968,53.264-118.968,118.967v65.81c3.545-7.553,10.079-13.413,18.078-16.069v-49.742H141.874z"/>
</g>
<path style="fill:#EFA467;" d="M173.72,295.383c16.194,16.241,38.582,26.304,63.275,26.304c6.025,0,12.053,0,18.078,0
	c-24.516,0-46.759-9.919-62.926-25.954c-16.341-16.208-26.475-38.666-26.475-63.444c0-27.448,0-54.898,0-82.347l0,0
	c-6.289,0.256-10.729,0.335-12.587,0.358c-3.044,0.039-5.491,2.518-5.491,5.562c-0.001,25.475-0.001,50.951,0,76.426
	c0,5.643,0.525,11.165,1.531,16.522C152.5,266.802,161.286,282.914,173.72,295.383z"/>
<path style="fill:#363D51;" d="M361.242,317.792H150.757c-43.596,0-78.931,35.34-78.931,78.931v96.279
	c0,10.492,8.506,18.998,18.998,18.998h84.624h27.811h217.917c10.493,0,18.998-8.506,18.998-18.998v-96.279
	C440.174,353.132,404.838,317.792,361.242,317.792z"/>
<path style="fill:#40485B;" d="M361.242,317.792H244.088c38.143,75.876,110.094,131.813,196.086,148.055v-69.124
	C440.174,353.132,404.838,317.792,361.242,317.792z"/>
<polygon style="fill:#E0E1E2;" points="214.686,355.268 297.313,355.268 256.001,483.204 "/>
<g>
	<path style="fill:#1E2535;" d="M147.984,512V395.11c0-4.609-3.735-8.344-8.344-8.344s-8.344,3.735-8.344,8.344V512H147.984z"/>
	<path style="fill:#1E2535;" d="M380.177,512V395.11c0-4.609-3.735-8.344-8.344-8.344s-8.344,3.735-8.344,8.344V512H380.177z"/>
</g>
<path style="fill:#6A7591;" d="M263.245,507.785l74.946-82.737c1.54-1.698,2.311-3.956,2.135-6.24l-7.754-101.016h-33.059
	l-43.514,137.799l-43.514-137.799h-33.059l-7.754,101.016c-0.176,2.285,0.595,4.542,2.135,6.24l74.946,82.737
	c1.437,2.516,4.141,4.215,7.246,4.215S261.808,510.301,263.245,507.785z"/>
<path style="fill:#76819B;" d="M332.572,317.792h-33.059l-17.809,56.394c16.566,19.249,35.731,36.19,56.948,50.296
	c1.226-1.618,1.83-3.634,1.672-5.675L332.572,317.792z"/>
<path style="fill:#FF3B3B;" d="M299.103,342.07c0,10.492-8.503,18.998-18.998,18.998h-48.21c-10.492,0-18.998-8.507-18.998-18.998
	v-3.29c0-10.492,8.506-18.998,18.998-18.998h48.21c10.495,0,18.998,8.506,18.998,18.998V342.07z"/>
<path style="fill:#FC5959;" d="M299.103,338.78c0-10.492-8.503-18.998-18.998-18.998h-34.98
	c7.467,14.558,16.187,28.364,26.012,41.285h8.969c10.495,0,18.998-8.507,18.998-18.998v-3.29H299.103z"/>
<g>
	<path style="opacity:0.1;fill:#231F20;enable-background:new    ;" d="M89.904,493.002v-96.279
		c0-43.592,35.335-78.931,78.931-78.931h-18.078c-43.596,0-78.931,35.34-78.931,78.931v96.279c0,10.492,8.506,18.998,18.998,18.998
		h18.078C98.409,512,89.904,503.494,89.904,493.002z"/>
	<path style="opacity:0.1;fill:#231F20;enable-background:new    ;" d="M230.975,342.07v-3.29c0-10.492,8.506-18.998,18.998-18.998
		h-18.078c-10.492,0-18.998,8.506-18.998,18.998v3.29c0,10.492,8.506,18.998,18.998,18.998h18.078
		C239.482,361.069,230.975,352.562,230.975,342.07z"/>
</g>
<g>
</g>
<g>
</g>
<g>
</g>
<g>
</g>
<g>
</g>
<g>
</g>
<g>
</g>
<g>
</g>
<g>
</g>
<g>
</g>
<g>
</g>
<g>
</g>
<g>
</g>
<g>
</g>
<g>
</g>
</svg>
