<?xml version="1.0" encoding="utf-8"?>
<!-- Generator: Adobe Illustrator 25.3.0, SVG Export Plug-In . SVG Version: 6.00 Build 0)  -->
<svg version="1.1" id="Capa_1" xmlns="http://www.w3.org/2000/svg" xmlns:xlink="http://www.w3.org/1999/xlink" x="0px" y="0px"
	 viewBox="0 0 362 362" style="enable-background:new 0 0 362 362;" xml:space="preserve" fill="#f297ae">
<g>
	<path d="M354.8,193.6c4.8-2.4,4.8-10.4,0-12.9C317.6,160,279.8,141,239.1,130c-6-1.2-12,5.5-8.4,11c8.4,12.2,18.6,22.6,30.6,31.8
		c-83.9-2.4-170.9-14.1-253.6,6.1c-6,1.2-4.8,11.6,1.2,11c85.7-11,170.9-2.4,256.6-1.2c-9,10.4-18,20.8-27,30.6
		c-4.2,4.3-1.8,13.5,5.4,12.9C283.4,227.3,320.6,213.8,354.8,193.6z M283.4,186.9c5.4-3.7,4.2-14.1-4.2-14.1c-0.6,0-1.2,0-1.2,0
		c-7.2-7.3-14.4-14.1-21.6-22c27.6,9.8,53.4,22,79.1,36.1c-23.4,12.2-47.4,21.4-73.1,26.3c6-6.7,12-14.1,18.6-20.8
		C283.4,191.2,284,188.7,283.4,186.9z"/>
</g>
</svg>
