<?xml version="1.0" encoding="utf-8"?>
<!-- Generator: Adobe Illustrator 25.2.3, SVG Export Plug-In . SVG Version: 6.00 Build 0)  -->
<svg version="1.1" id="Layer_1" xmlns="http://www.w3.org/2000/svg" xmlns:xlink="http://www.w3.org/1999/xlink" x="0px" y="0px"
	 viewBox="0 0 418.1 418.1" style="enable-background:new 0 0 418.1 418.1;" xml:space="preserve">
<style type="text/css">
	.st0{fill:#FFFFFF;}
</style>
<g>
	<path class="st0" d="M201,43.3c-87.6,4.2-156.8,77.2-156.5,165c0.1,26.8,6.5,52,17.9,74.2l-17.5,84.9c-1,4.6,3.2,8.6,7.8,7.5
		l83.1-19.7c21.4,10.6,45.3,16.7,70.7,17.1c89.6,1.3,164.3-69.8,167.1-159.3C376.6,117,297.4,38.7,201,43.3z M300.2,298.9
		c-24.4,24.4-56.7,37.8-91.1,37.8c-20.2,0-39.5-4.5-57.4-13.4l-11.6-5.8l-51,12.1l10.7-52.1l-5.7-11.2c-9.3-18.2-14-37.9-14-58.5
		c0-34.5,13.4-66.8,37.8-91.1c24.1-24.1,57-37.8,91.1-37.8c34.5,0,66.8,13.4,91.1,37.8c24.4,24.4,37.8,56.7,37.8,91.1
		C337.9,241.9,324.4,274.7,300.2,298.9z"/>
	<path class="st0" d="M289,243.5l-31.9-9.1c-4.2-1.2-8.7,0-11.7,3.1l-7.8,7.9c-3.3,3.3-8.3,4.4-12.6,2.7
		c-15.1-6.1-46.8-34.3-54.9-48.4c-2.3-4-2-9.1,1-12.9l6.8-8.8c2.7-3.4,3.3-8.1,1.4-12.1l-13.4-30.3c-3.2-7.3-12.5-9.4-18.6-4.3
		c-8.9,7.5-19.4,19-20.7,31.7c-2.3,22.3,7.3,50.5,43.6,84.3c41.8,39.1,75.4,44.2,97.2,39c12.4-3,22.3-15,28.5-24.8
		C300,254.5,296.6,245.6,289,243.5z"/>
</g>
</svg>
