<?xml version="1.0" encoding="utf-8"?>
<!-- Generator: Adobe Illustrator 25.2.0, SVG Export Plug-In . SVG Version: 6.00 Build 0)  -->
<svg version="1.1" id="Layer_1" xmlns="http://www.w3.org/2000/svg" xmlns:xlink="http://www.w3.org/1999/xlink" x="0px" y="0px"
	 viewBox="0 0 400.9 400.9" style="enable-background:new 0 0 400.9 400.9;" xml:space="preserve">
<style type="text/css">
	.st0{fill:#FFFFFF;}
</style>
<path class="st0" d="M384.8,231c-6.4-8.8-9.3-19.5-9.3-30.4c0-0.1,0-0.1,0-0.2c0-96.6-78.4-175-175-175c-21.1,0-41.4,3.8-60.2,10.6
	c-10.1,3.7-21.3,4.4-31.7,1.5c-9.2-2.6-19-3.7-29.2-3c-42.7,2.9-77.1,38-79.3,80.7c-1.1,20.4,5.1,39.4,16.1,54.5
	c6.4,8.8,9.3,19.5,9.3,30.4c0,0.1,0,0.1,0,0.2c0,96.6,78.3,175,175,175c21.1,0,41.4-3.8,60.2-10.6c10.1-3.7,21.3-4.4,31.7-1.5
	c9.2,2.6,19,3.7,29.2,3c42.7-2.9,77.1-38,79.3-80.7C401.9,265.2,395.8,246.2,384.8,231z M206.9,169.1c35.3,8.4,88.6,21.1,88.6,79.8
	c0,28.9-14.2,51-40.1,62.1c-18.5,8-39.4,9-57.4,9c-55.3,0-90.3-43-91.7-44.9c-9.1-11.4-7.2-27.9,4.2-37c11.4-9.1,27.9-7.2,37,4.2
	c0.1,0.1,21,24.1,50.6,25c35.7,1.1,43.8-9.5,44.8-18.5c1.3-11.1-8.6-19.2-48.1-28.6c-33.6-8-84.3-20-84.3-74.1
	c0-16.8,6.9-71.8,95-71.8c55.7,0,88.5,43.8,89.9,45.7c8.6,11.7,6.1,28.2-5.6,36.8c-11.7,8.6-28,6.1-36.7-5.5
	c-0.6-0.8-19.4-21.7-47.6-24.4c-21.3-2-42.4,5.7-42.4,17C163,156.1,169.1,160.1,206.9,169.1z"/>
</svg>
