<?xml version="1.0" encoding="utf-8"?>
<!-- Generator: Adobe Illustrator 25.2.0, SVG Export Plug-In . SVG Version: 6.00 Build 0)  -->
<svg version="1.1" id="Layer_1" xmlns="http://www.w3.org/2000/svg" xmlns:xlink="http://www.w3.org/1999/xlink" x="0px" y="0px"
	 viewBox="0 0 427.7 427.7" style="enable-background:new 0 0 427.7 427.7;" xml:space="preserve">
<style type="text/css">
	.st0{fill:#FFFFFF;}
</style>
<path class="st0" d="M386.5,335.6c0,0-2.1,30.7-30,30.7c-21.6,0-36.3-16.4-50.1-37.8c39.1-34.2,64-85.2,64-142.2
	C370.5,83.4,289.6,0,189.8,0S9.1,83.4,9.1,186.3S90,372.6,189.8,372.6c18.1,0,35.6-2.8,52.1-7.9c20.9,33.2,47.4,63,88.8,63
	c84.4,0,87.9-92.1,87.9-92.1L386.5,335.6L386.5,335.6L386.5,335.6z M189.8,341.9c-58.2,0-105.4-69.7-105.4-155.6
	S131.6,30.7,189.8,30.7s105.4,69.7,105.4,155.6c0,34.2-7.5,65.8-20.1,91.4c-14.3-20.4-31.4-37.8-55.9-43.3
	c-43.5-9.8-80.9,9.8-92.8,19.5l11.2,23c0,0,11.3-6.5,39.3,0c17.6,4.1,31.3,28.6,47,56.6C213.1,339,201.7,341.9,189.8,341.9z"/>
</svg>
