<svg width="376" height="680" viewBox="0 0 376 680" fill="none" xmlns="http://www.w3.org/2000/svg">
<path d="M112.521 39.9993C110.798 39.9905 109.211 40.1295 107.822 40.3997C104.122 41.1208 102.268 42.6298 101.881 44.0394C101.495 45.449 102.32 47.6898 105.138 50.1912C107.955 52.693 112.468 55.1119 117.809 56.5706C123.149 58.0296 128.269 58.2418 131.97 57.521C135.671 56.7999 137.524 55.2909 137.91 53.8813C138.297 52.4716 137.472 50.2309 134.654 47.7294C131.837 45.2277 127.324 42.8094 121.983 41.3504C118.645 40.4387 115.394 40.0138 112.521 39.9993ZM97.0871 48.1023L69.6558 75.4799C69.962 76.4019 70.6614 78.0701 72.1253 80.1464C73.9931 82.7952 76.6364 85.8491 79.4815 88.6887C82.3264 91.528 85.3856 94.1665 88.0396 96.0303C90.1205 97.4917 91.7923 98.1891 92.7158 98.4944L128.026 63.2526C124.42 63.3228 120.462 62.8177 116.4 61.7078C110.37 60.0606 105.214 57.3887 101.59 54.1706C99.5724 52.3787 97.9398 50.3105 97.0868 48.102L97.0871 48.1023ZM64.0253 74.4044L44.7678 93.6238C47.0271 99.4892 51.4303 105.884 56.8413 111.285C58.4536 112.891 60.1527 114.408 61.9311 115.83L80.7208 97.0757C78.9882 95.603 77.3159 94.0613 75.7078 92.4542C72.6833 89.4355 69.8766 86.2121 67.7614 83.2118C65.6458 80.2115 64.0253 77.6757 64.0253 74.6704V74.4044ZM39.2796 94.0804L0 133.283C1.41622 140.159 6.4843 148.264 13.1527 154.873C15.9564 157.652 19.0286 160.146 22.1558 162.221L61.9278 122.527C58.8217 120.348 55.8348 117.812 53.0673 115.05C46.8024 108.798 41.6955 101.426 39.2793 94.0807L39.2796 94.0804ZM84.9584 100.378L66.2944 119.005C69.0557 120.822 71.8508 122.304 74.5362 123.334L93.7934 104.114H93.5266C90.5154 104.114 87.9747 102.497 84.9685 100.386C84.965 100.384 84.962 100.381 84.9584 100.378ZM66.5533 125.443L26.8992 165.019C29.6231 166.421 32.3085 167.449 34.814 167.999L74.0782 128.811C71.557 127.985 69.0341 126.837 66.553 125.442L66.5533 125.443Z" fill="white"/>
<path d="M112.521 168C110.798 167.992 109.211 168.131 107.822 168.401C104.122 169.122 102.268 170.631 101.881 172.04C101.495 173.45 102.32 175.691 105.138 178.192C107.955 180.694 112.468 183.113 117.809 184.572C123.149 186.031 128.269 186.243 131.97 185.522C135.671 184.801 137.524 183.292 137.91 181.882C138.297 180.473 137.472 178.232 134.654 175.73C131.837 173.229 127.324 170.81 121.983 169.351C118.645 168.44 115.394 168.015 112.521 168ZM97.0871 176.103L69.6558 203.481C69.962 204.403 70.6614 206.071 72.1253 208.147C73.9931 210.796 76.6364 213.85 79.4815 216.69C82.3264 219.529 85.3856 222.168 88.0396 224.031C90.1205 225.493 91.7923 226.19 92.7158 226.495L128.026 191.254C124.42 191.324 120.462 190.819 116.4 189.709C110.37 188.062 105.214 185.39 101.59 182.172C99.5724 180.38 97.9398 178.312 97.0868 176.103L97.0871 176.103ZM64.0253 202.405L44.7678 221.625C47.0271 227.49 51.4303 233.885 56.8413 239.286C58.4536 240.892 60.1527 242.41 61.9311 243.831L80.7208 225.077C78.9882 223.604 77.3159 222.062 75.7078 220.455C72.6833 217.437 69.8766 214.213 67.7614 211.213C65.6458 208.213 64.0253 205.677 64.0253 202.671V202.405ZM39.2796 222.081L0 261.284C1.41622 268.16 6.4843 276.265 13.1527 282.874C15.9564 285.653 19.0286 288.147 22.1558 290.222L61.9278 250.528C58.8217 248.349 55.8348 245.813 53.0673 243.051C46.8024 236.799 41.6955 229.427 39.2793 222.082L39.2796 222.081ZM84.9584 228.379L66.2944 247.006C69.0557 248.823 71.8508 250.305 74.5362 251.335L93.7934 232.115H93.5266C90.5154 232.115 87.9747 230.498 84.9685 228.387C84.965 228.385 84.962 228.382 84.9584 228.379ZM66.5533 253.444L26.8992 293.02C29.6231 294.422 32.3085 295.451 34.814 296L74.0782 256.813C71.557 255.986 69.0341 254.838 66.553 253.444L66.5533 253.444Z" fill="white"/>
<path d="M112.521 296C110.798 295.992 109.211 296.131 107.822 296.401C104.122 297.122 102.268 298.631 101.881 300.04C101.495 301.45 102.32 303.691 105.138 306.192C107.955 308.694 112.468 311.113 117.809 312.572C123.149 314.031 128.269 314.243 131.97 313.522C135.671 312.801 137.524 311.292 137.91 309.882C138.297 308.473 137.472 306.232 134.654 303.73C131.837 301.229 127.324 298.81 121.983 297.351C118.645 296.44 115.394 296.015 112.521 296ZM97.0871 304.103L69.6558 331.481C69.962 332.403 70.6614 334.071 72.1253 336.147C73.9931 338.796 76.6364 341.85 79.4815 344.69C82.3264 347.529 85.3856 350.168 88.0396 352.031C90.1205 353.493 91.7923 354.19 92.7158 354.495L128.026 319.254C124.42 319.324 120.462 318.819 116.4 317.709C110.37 316.062 105.214 313.39 101.59 310.172C99.5724 308.38 97.9398 306.312 97.0868 304.103L97.0871 304.103ZM64.0253 330.405L44.7678 349.625C47.0271 355.49 51.4303 361.885 56.8413 367.286C58.4536 368.892 60.1527 370.41 61.9311 371.831L80.7208 353.077C78.9882 351.604 77.3159 350.062 75.7078 348.455C72.6833 345.437 69.8766 342.213 67.7614 339.213C65.6458 336.213 64.0253 333.677 64.0253 330.671V330.405ZM39.2796 350.081L0 389.284C1.41622 396.16 6.4843 404.265 13.1527 410.874C15.9564 413.653 19.0286 416.147 22.1558 418.222L61.9278 378.528C58.8217 376.349 55.8348 373.813 53.0673 371.051C46.8024 364.799 41.6955 357.427 39.2793 350.082L39.2796 350.081ZM84.9584 356.379L66.2944 375.006C69.0557 376.823 71.8508 378.305 74.5362 379.335L93.7934 360.115H93.5266C90.5154 360.115 87.9747 358.498 84.9685 356.387C84.965 356.385 84.962 356.382 84.9584 356.379ZM66.5533 381.444L26.8992 421.02C29.6231 422.422 32.3085 423.451 34.814 424L74.0782 384.813C71.557 383.986 69.0341 382.838 66.553 381.444L66.5533 381.444Z" fill="white"/>
<path d="M112.521 424C110.798 423.992 109.211 424.131 107.822 424.401C104.122 425.122 102.268 426.631 101.881 428.04C101.495 429.45 102.32 431.691 105.138 434.192C107.955 436.694 112.468 439.113 117.809 440.572C123.149 442.031 128.269 442.243 131.97 441.522C135.671 440.801 137.524 439.292 137.91 437.882C138.297 436.473 137.472 434.232 134.654 431.73C131.837 429.229 127.324 426.81 121.983 425.351C118.645 424.44 115.394 424.015 112.521 424ZM97.0871 432.103L69.6558 459.481C69.962 460.403 70.6614 462.071 72.1253 464.147C73.9931 466.796 76.6364 469.85 79.4815 472.69C82.3264 475.529 85.3856 478.168 88.0396 480.031C90.1205 481.493 91.7923 482.19 92.7158 482.495L128.026 447.254C124.42 447.324 120.462 446.819 116.4 445.709C110.37 444.062 105.214 441.39 101.59 438.172C99.5724 436.38 97.9398 434.312 97.0868 432.103L97.0871 432.103ZM64.0253 458.405L44.7678 477.625C47.0271 483.49 51.4303 489.885 56.8413 495.286C58.4536 496.892 60.1527 498.41 61.9311 499.831L80.7208 481.077C78.9882 479.604 77.3159 478.062 75.7078 476.455C72.6833 473.437 69.8766 470.213 67.7614 467.213C65.6458 464.213 64.0253 461.677 64.0253 458.671V458.405ZM39.2796 478.081L0 517.284C1.41622 524.16 6.4843 532.265 13.1527 538.874C15.9564 541.653 19.0286 544.147 22.1558 546.222L61.9278 506.528C58.8217 504.349 55.8348 501.813 53.0673 499.051C46.8024 492.799 41.6955 485.427 39.2793 478.082L39.2796 478.081ZM84.9584 484.379L66.2944 503.006C69.0557 504.823 71.8508 506.305 74.5362 507.335L93.7934 488.115H93.5266C90.5154 488.115 87.9747 486.498 84.9685 484.387C84.965 484.385 84.962 484.382 84.9584 484.379ZM66.5533 509.444L26.8992 549.02C29.6231 550.422 32.3085 551.451 34.814 552L74.0782 512.813C71.557 511.986 69.0341 510.838 66.553 509.444L66.5533 509.444Z" fill="white"/>
<path d="M112.521 552C110.798 551.992 109.211 552.131 107.822 552.401C104.122 553.122 102.268 554.631 101.881 556.04C101.495 557.45 102.32 559.691 105.138 562.192C107.955 564.694 112.468 567.113 117.809 568.572C123.149 570.031 128.269 570.243 131.97 569.522C135.671 568.801 137.524 567.292 137.91 565.882C138.297 564.473 137.472 562.232 134.654 559.73C131.837 557.229 127.324 554.81 121.983 553.351C118.645 552.44 115.394 552.015 112.521 552ZM97.0871 560.103L69.6558 587.481C69.962 588.403 70.6614 590.071 72.1253 592.147C73.9931 594.796 76.6364 597.85 79.4815 600.69C82.3264 603.529 85.3856 606.168 88.0396 608.031C90.1205 609.493 91.7923 610.19 92.7158 610.495L128.026 575.254C124.42 575.324 120.462 574.819 116.4 573.709C110.37 572.062 105.214 569.39 101.59 566.172C99.5724 564.38 97.9398 562.312 97.0868 560.103L97.0871 560.103ZM64.0253 586.405L44.7678 605.625C47.0271 611.49 51.4303 617.885 56.8413 623.286C58.4536 624.892 60.1527 626.41 61.9311 627.831L80.7208 609.077C78.9882 607.604 77.3159 606.062 75.7078 604.455C72.6833 601.437 69.8766 598.213 67.7614 595.213C65.6458 592.213 64.0253 589.677 64.0253 586.671V586.405ZM39.2796 606.081L0 645.284C1.41622 652.16 6.4843 660.265 13.1527 666.874C15.9564 669.653 19.0286 672.147 22.1558 674.222L61.9278 634.528C58.8217 632.349 55.8348 629.813 53.0673 627.051C46.8024 620.799 41.6955 613.427 39.2793 606.082L39.2796 606.081ZM84.9584 612.379L66.2944 631.006C69.0557 632.823 71.8508 634.305 74.5362 635.335L93.7934 616.115H93.5266C90.5154 616.115 87.9747 614.498 84.9685 612.387C84.965 612.385 84.962 612.382 84.9584 612.379ZM66.5533 637.444L26.8992 677.02C29.6231 678.422 32.3085 679.451 34.814 680L74.0782 640.813C71.557 639.986 69.0341 638.838 66.553 637.444L66.5533 637.444Z" fill="white"/>
<path d="M226.521 10.0004C224.798 9.99152 223.211 10.1306 221.822 10.4007C218.122 11.1218 216.268 12.6308 215.881 14.0405C215.495 15.4501 216.32 17.6908 219.138 20.1923C221.955 22.694 226.468 25.1129 231.809 26.5716C237.149 28.0307 242.269 28.2428 245.97 27.522C249.671 26.801 251.524 25.2919 251.91 23.8823C252.297 22.4727 251.472 20.2319 248.654 17.7305C245.837 15.2288 241.324 12.8105 235.983 11.3514C232.645 10.4398 229.394 10.0149 226.521 10.0004ZM211.087 18.1033L183.656 45.481C183.962 46.403 184.661 48.0712 186.125 50.1474C187.993 52.7962 190.636 55.8501 193.482 58.6897C196.326 61.5291 199.386 64.1675 202.04 66.0313C204.12 67.4927 205.792 68.1901 206.716 68.4955L242.026 33.2537C238.42 33.3238 234.462 32.8187 230.4 31.7089C224.37 30.0616 219.214 27.3898 215.59 24.1717C213.572 22.3798 211.94 20.3115 211.087 18.103L211.087 18.1033ZM178.025 44.4054L158.768 63.6249C161.027 69.4903 165.43 75.8853 170.841 81.2859C172.454 82.8923 174.153 84.4095 175.931 85.8307L194.721 67.0767C192.988 65.6041 191.316 64.0623 189.708 62.4552C186.683 59.4366 183.877 56.2132 181.761 53.2129C179.646 50.2125 178.025 47.6768 178.025 44.6714V44.4054ZM153.28 64.0814L114 103.284C115.416 110.16 120.484 118.265 127.153 124.874C129.956 127.653 133.029 130.147 136.156 132.222L175.928 92.5279C172.822 90.3486 169.835 87.8135 167.067 85.0513C160.802 78.7986 155.696 71.4272 153.279 64.0817L153.28 64.0814ZM198.958 70.3794L180.294 89.0065C183.056 90.8226 185.851 92.3048 188.536 93.3353L207.793 74.115H207.527C204.515 74.115 201.975 72.4983 198.969 70.3868C198.965 70.3847 198.962 70.3818 198.958 70.3794ZM180.553 95.4441L140.899 135.02C143.623 136.422 146.309 137.451 148.814 138L188.078 98.8125C185.557 97.9861 183.034 96.8384 180.553 95.4435L180.553 95.4441Z" fill="white"/>
<path d="M226.521 138.001C224.798 137.993 223.211 138.132 221.822 138.402C218.122 139.123 216.268 140.632 215.881 142.042C215.495 143.451 216.32 145.692 219.138 148.193C221.955 150.695 226.468 153.114 231.809 154.573C237.149 156.032 242.269 156.244 245.97 155.523C249.671 154.802 251.524 153.293 251.91 151.883C252.297 150.474 251.472 148.233 248.654 145.732C245.837 143.23 241.324 140.812 235.983 139.352C232.645 138.441 229.394 138.016 226.521 138.001ZM211.087 146.104L183.656 173.482C183.962 174.404 184.661 176.072 186.125 178.148C187.993 180.797 190.636 183.851 193.482 186.691C196.326 189.53 199.386 192.169 202.04 194.032C204.12 195.494 205.792 196.191 206.716 196.497L242.026 161.255C238.42 161.325 234.462 160.82 230.4 159.71C224.37 158.063 219.214 155.391 215.59 152.173C213.572 150.381 211.94 148.313 211.087 146.104L211.087 146.104ZM178.025 172.406L158.768 191.626C161.027 197.491 165.43 203.886 170.841 209.287C172.454 210.893 174.153 212.411 175.931 213.832L194.721 195.078C192.988 193.605 191.316 192.063 189.708 190.456C186.683 187.438 183.877 184.214 181.761 181.214C179.646 178.214 178.025 175.678 178.025 172.672V172.406ZM153.28 192.082L114 231.285C115.416 238.161 120.484 246.266 127.153 252.875C129.956 255.654 133.029 258.148 136.156 260.224L175.928 220.529C172.822 218.35 169.835 215.815 167.067 213.052C160.802 206.8 155.696 199.428 153.279 192.083L153.28 192.082ZM198.958 198.38L180.294 217.008C183.056 218.824 185.851 220.306 188.536 221.336L207.793 202.116H207.527C204.515 202.116 201.975 200.499 198.969 198.388C198.965 198.386 198.962 198.383 198.958 198.38ZM180.553 223.445L140.899 263.021C143.623 264.423 146.309 265.452 148.814 266.001L188.078 226.814C185.557 225.987 183.034 224.839 180.553 223.445L180.553 223.445Z" fill="white"/>
<path d="M226.521 266.001C224.798 265.993 223.211 266.132 221.822 266.402C218.122 267.123 216.268 268.632 215.881 270.041C215.495 271.451 216.32 273.692 219.138 276.193C221.955 278.695 226.468 281.114 231.809 282.573C237.149 284.032 242.269 284.244 245.97 283.523C249.671 282.802 251.524 281.293 251.91 279.883C252.297 278.474 251.472 276.233 248.654 273.732C245.837 271.23 241.324 268.811 235.983 267.352C232.645 266.441 229.394 266.016 226.521 266.001ZM211.087 274.104L183.656 301.482C183.962 302.404 184.661 304.072 186.125 306.148C187.993 308.797 190.636 311.851 193.482 314.691C196.326 317.53 199.386 320.169 202.04 322.032C204.12 323.494 205.792 324.191 206.716 324.497L242.026 289.255C238.42 289.325 234.462 288.82 230.4 287.71C224.37 286.063 219.214 283.391 215.59 280.173C213.572 278.381 211.94 276.313 211.087 274.104L211.087 274.104ZM178.025 300.406L158.768 319.626C161.027 325.491 165.43 331.886 170.841 337.287C172.454 338.893 174.153 340.411 175.931 341.832L194.721 323.078C192.988 321.605 191.316 320.063 189.708 318.456C186.683 315.438 183.877 312.214 181.761 309.214C179.646 306.214 178.025 303.678 178.025 300.672V300.406ZM153.28 320.082L114 359.285C115.416 366.161 120.484 374.266 127.153 380.875C129.956 383.654 133.029 386.148 136.156 388.224L175.928 348.529C172.822 346.35 169.835 343.815 167.067 341.052C160.802 334.8 155.696 327.428 153.279 320.083L153.28 320.082ZM198.958 326.38L180.294 345.008C183.056 346.824 185.851 348.306 188.536 349.336L207.793 330.116H207.527C204.515 330.116 201.975 328.499 198.969 326.388C198.965 326.386 198.962 326.383 198.958 326.38ZM180.553 351.445L140.899 391.021C143.623 392.423 146.309 393.452 148.814 394.001L188.078 354.814C185.557 353.987 183.034 352.839 180.553 351.445L180.553 351.445Z" fill="white"/>
<path d="M226.521 394.001C224.798 393.993 223.211 394.132 221.822 394.402C218.122 395.123 216.268 396.632 215.881 398.041C215.495 399.451 216.32 401.692 219.138 404.193C221.955 406.695 226.468 409.114 231.809 410.573C237.149 412.032 242.269 412.244 245.97 411.523C249.671 410.802 251.524 409.293 251.91 407.883C252.297 406.474 251.472 404.233 248.654 401.732C245.837 399.23 241.324 396.811 235.983 395.352C232.645 394.441 229.394 394.016 226.521 394.001ZM211.087 402.104L183.656 429.482C183.962 430.404 184.661 432.072 186.125 434.148C187.993 436.797 190.636 439.851 193.482 442.691C196.326 445.53 199.386 448.169 202.04 450.032C204.12 451.494 205.792 452.191 206.716 452.497L242.026 417.255C238.42 417.325 234.462 416.82 230.4 415.71C224.37 414.063 219.214 411.391 215.59 408.173C213.572 406.381 211.94 404.313 211.087 402.104L211.087 402.104ZM178.025 428.406L158.768 447.626C161.027 453.491 165.43 459.886 170.841 465.287C172.454 466.893 174.153 468.411 175.931 469.832L194.721 451.078C192.988 449.605 191.316 448.063 189.708 446.456C186.683 443.438 183.877 440.214 181.761 437.214C179.646 434.214 178.025 431.678 178.025 428.672V428.406ZM153.28 448.082L114 487.285C115.416 494.161 120.484 502.266 127.153 508.875C129.956 511.654 133.029 514.148 136.156 516.224L175.928 476.529C172.822 474.35 169.835 471.815 167.067 469.052C160.802 462.8 155.696 455.428 153.279 448.083L153.28 448.082ZM198.958 454.38L180.294 473.008C183.056 474.824 185.851 476.306 188.536 477.336L207.793 458.116H207.527C204.515 458.116 201.975 456.499 198.969 454.388C198.965 454.386 198.962 454.383 198.958 454.38ZM180.553 479.445L140.899 519.021C143.623 520.423 146.309 521.452 148.814 522.001L188.078 482.814C185.557 481.987 183.034 480.839 180.553 479.445L180.553 479.445Z" fill="white"/>
<path d="M226.521 522.001C224.798 521.993 223.211 522.132 221.822 522.402C218.122 523.123 216.268 524.632 215.881 526.041C215.495 527.451 216.32 529.692 219.138 532.193C221.955 534.695 226.468 537.114 231.809 538.573C237.149 540.032 242.269 540.244 245.97 539.523C249.671 538.802 251.524 537.293 251.91 535.883C252.297 534.474 251.472 532.233 248.654 529.732C245.837 527.23 241.324 524.811 235.983 523.352C232.645 522.441 229.394 522.016 226.521 522.001ZM211.087 530.104L183.656 557.482C183.962 558.404 184.661 560.072 186.125 562.148C187.993 564.797 190.636 567.851 193.482 570.691C196.326 573.53 199.386 576.169 202.04 578.032C204.12 579.494 205.792 580.191 206.716 580.497L242.026 545.255C238.42 545.325 234.462 544.82 230.4 543.71C224.37 542.063 219.214 539.391 215.59 536.173C213.572 534.381 211.94 532.313 211.087 530.104L211.087 530.104ZM178.025 556.406L158.768 575.626C161.027 581.491 165.43 587.886 170.841 593.287C172.454 594.893 174.153 596.411 175.931 597.832L194.721 579.078C192.988 577.605 191.316 576.063 189.708 574.456C186.683 571.438 183.877 568.214 181.761 565.214C179.646 562.214 178.025 559.678 178.025 556.672V556.406ZM153.28 576.082L114 615.285C115.416 622.161 120.484 630.266 127.153 636.875C129.956 639.654 133.029 642.148 136.156 644.224L175.928 604.529C172.822 602.35 169.835 599.815 167.067 597.052C160.802 590.8 155.696 583.428 153.279 576.083L153.28 576.082ZM198.958 582.38L180.294 601.008C183.056 602.824 185.851 604.306 188.536 605.336L207.793 586.116H207.527C204.515 586.116 201.975 584.499 198.969 582.388C198.965 582.386 198.962 582.383 198.958 582.38ZM180.553 607.445L140.899 647.021C143.623 648.423 146.309 649.452 148.814 650.001L188.078 610.814C185.557 609.987 183.034 608.839 180.553 607.445L180.553 607.445Z" fill="white"/>
<path d="M350.521 0.000399906C348.798 -0.00847675 347.211 0.130591 345.822 0.400737C342.122 1.12182 340.268 2.63085 339.881 4.04046C339.495 5.45007 340.32 7.69084 343.138 10.1923C345.955 12.694 350.468 15.1129 355.809 16.5716C361.149 18.0307 366.269 18.2428 369.97 17.522C373.671 16.801 375.524 15.2919 375.91 13.8823C376.297 12.4727 375.472 10.2319 372.654 7.73049C369.837 5.22875 365.324 2.81045 359.983 1.35143C356.645 0.439795 353.394 0.0148984 350.521 0.000399906ZM335.087 8.10331L307.656 35.481C307.962 36.403 308.661 38.0712 310.125 40.1474C311.993 42.7962 314.636 45.8501 317.482 48.6897C320.326 51.5291 323.386 54.1675 326.04 56.0313C328.12 57.4927 329.792 58.1901 330.716 58.4955L366.026 23.2537C362.42 23.3238 358.462 22.8187 354.4 21.7089C348.37 20.0616 343.214 17.3898 339.59 14.1717C337.572 12.3798 335.94 10.3115 335.087 8.10301L335.087 8.10331ZM302.025 34.4054L282.768 53.6249C285.027 59.4903 289.43 65.8853 294.841 71.2859C296.454 72.8923 298.153 74.4095 299.931 75.8307L318.721 57.0767C316.988 55.6041 315.316 54.0623 313.708 52.4552C310.683 49.4366 307.877 46.2132 305.761 43.2129C303.646 40.2125 302.025 37.6768 302.025 34.6714V34.4054ZM277.28 54.0814L238 93.2843C239.416 100.16 244.484 108.265 251.153 114.874C253.956 117.653 257.029 120.147 260.156 122.222L299.928 82.5279C296.822 80.3486 293.835 77.8135 291.067 75.0513C284.802 68.7986 279.696 61.4272 277.279 54.0817L277.28 54.0814ZM322.958 60.3794L304.294 79.0065C307.056 80.8226 309.851 82.3048 312.536 83.3353L331.793 64.115H331.527C328.515 64.115 325.975 62.4983 322.969 60.3868C322.965 60.3847 322.962 60.3818 322.958 60.3794ZM304.553 85.4441L264.899 125.02C267.623 126.422 270.309 127.451 272.814 128L312.078 88.8125C309.557 87.9861 307.034 86.8384 304.553 85.4435L304.553 85.4441Z" fill="white"/>
<path d="M350.521 128.001C348.798 127.993 347.211 128.132 345.822 128.402C342.122 129.123 340.268 130.632 339.881 132.042C339.495 133.451 340.32 135.692 343.138 138.193C345.955 140.695 350.468 143.114 355.809 144.573C361.149 146.032 366.269 146.244 369.97 145.523C373.671 144.802 375.524 143.293 375.91 141.883C376.297 140.474 375.472 138.233 372.654 135.732C369.837 133.23 365.324 130.812 359.983 129.352C356.645 128.441 353.394 128.016 350.521 128.001ZM335.087 136.104L307.656 163.482C307.962 164.404 308.661 166.072 310.125 168.148C311.993 170.797 314.636 173.851 317.482 176.691C320.326 179.53 323.386 182.169 326.04 184.032C328.12 185.494 329.792 186.191 330.716 186.497L366.026 151.255C362.42 151.325 358.462 150.82 354.4 149.71C348.37 148.063 343.214 145.391 339.59 142.173C337.572 140.381 335.94 138.313 335.087 136.104L335.087 136.104ZM302.025 162.406L282.768 181.626C285.027 187.491 289.43 193.886 294.841 199.287C296.454 200.893 298.153 202.411 299.931 203.832L318.721 185.078C316.988 183.605 315.316 182.063 313.708 180.456C310.683 177.438 307.877 174.214 305.761 171.214C303.646 168.214 302.025 165.678 302.025 162.672V162.406ZM277.28 182.082L238 221.285C239.416 228.161 244.484 236.266 251.153 242.875C253.956 245.654 257.029 248.148 260.156 250.224L299.928 210.529C296.822 208.35 293.835 205.815 291.067 203.052C284.802 196.8 279.696 189.428 277.279 182.083L277.28 182.082ZM322.958 188.38L304.294 207.008C307.056 208.824 309.851 210.306 312.536 211.336L331.793 192.116H331.527C328.515 192.116 325.975 190.499 322.969 188.388C322.965 188.386 322.962 188.383 322.958 188.38ZM304.553 213.445L264.899 253.021C267.623 254.423 270.309 255.452 272.814 256.001L312.078 216.814C309.557 215.987 307.034 214.839 304.553 213.445L304.553 213.445Z" fill="white"/>
<path d="M350.521 256.001C348.798 255.993 347.211 256.132 345.822 256.402C342.122 257.123 340.268 258.632 339.881 260.041C339.495 261.451 340.32 263.692 343.138 266.193C345.955 268.695 350.468 271.114 355.809 272.573C361.149 274.032 366.269 274.244 369.97 273.523C373.671 272.802 375.524 271.293 375.91 269.883C376.297 268.474 375.472 266.233 372.654 263.732C369.837 261.23 365.324 258.811 359.983 257.352C356.645 256.441 353.394 256.016 350.521 256.001ZM335.087 264.104L307.656 291.482C307.962 292.404 308.661 294.072 310.125 296.148C311.993 298.797 314.636 301.851 317.482 304.691C320.326 307.53 323.386 310.169 326.04 312.032C328.12 313.494 329.792 314.191 330.716 314.497L366.026 279.255C362.42 279.325 358.462 278.82 354.4 277.71C348.37 276.063 343.214 273.391 339.59 270.173C337.572 268.381 335.94 266.313 335.087 264.104L335.087 264.104ZM302.025 290.406L282.768 309.626C285.027 315.491 289.43 321.886 294.841 327.287C296.454 328.893 298.153 330.411 299.931 331.832L318.721 313.078C316.988 311.605 315.316 310.063 313.708 308.456C310.683 305.438 307.877 302.214 305.761 299.214C303.646 296.214 302.025 293.678 302.025 290.672V290.406ZM277.28 310.082L238 349.285C239.416 356.161 244.484 364.266 251.153 370.875C253.956 373.654 257.029 376.148 260.156 378.224L299.928 338.529C296.822 336.35 293.835 333.815 291.067 331.052C284.802 324.8 279.696 317.428 277.279 310.083L277.28 310.082ZM322.958 316.38L304.294 335.008C307.056 336.824 309.851 338.306 312.536 339.336L331.793 320.116H331.527C328.515 320.116 325.975 318.499 322.969 316.388C322.965 316.386 322.962 316.383 322.958 316.38ZM304.553 341.445L264.899 381.021C267.623 382.423 270.309 383.452 272.814 384.001L312.078 344.814C309.557 343.987 307.034 342.839 304.553 341.445L304.553 341.445Z" fill="white"/>
<path d="M350.521 384.001C348.798 383.993 347.211 384.132 345.822 384.402C342.122 385.123 340.268 386.632 339.881 388.041C339.495 389.451 340.32 391.692 343.138 394.193C345.955 396.695 350.468 399.114 355.809 400.573C361.149 402.032 366.269 402.244 369.97 401.523C373.671 400.802 375.524 399.293 375.91 397.883C376.297 396.474 375.472 394.233 372.654 391.732C369.837 389.23 365.324 386.811 359.983 385.352C356.645 384.441 353.394 384.016 350.521 384.001ZM335.087 392.104L307.656 419.482C307.962 420.404 308.661 422.072 310.125 424.148C311.993 426.797 314.636 429.851 317.482 432.691C320.326 435.53 323.386 438.169 326.04 440.032C328.12 441.494 329.792 442.191 330.716 442.497L366.026 407.255C362.42 407.325 358.462 406.82 354.4 405.71C348.37 404.063 343.214 401.391 339.59 398.173C337.572 396.381 335.94 394.313 335.087 392.104L335.087 392.104ZM302.025 418.406L282.768 437.626C285.027 443.491 289.43 449.886 294.841 455.287C296.454 456.893 298.153 458.411 299.931 459.832L318.721 441.078C316.988 439.605 315.316 438.063 313.708 436.456C310.683 433.438 307.877 430.214 305.761 427.214C303.646 424.214 302.025 421.678 302.025 418.672V418.406ZM277.28 438.082L238 477.285C239.416 484.161 244.484 492.266 251.153 498.875C253.956 501.654 257.029 504.148 260.156 506.224L299.928 466.529C296.822 464.35 293.835 461.815 291.067 459.052C284.802 452.8 279.696 445.428 277.279 438.083L277.28 438.082ZM322.958 444.38L304.294 463.008C307.056 464.824 309.851 466.306 312.536 467.336L331.793 448.116H331.527C328.515 448.116 325.975 446.499 322.969 444.388C322.965 444.386 322.962 444.383 322.958 444.38ZM304.553 469.445L264.899 509.021C267.623 510.423 270.309 511.452 272.814 512.001L312.078 472.814C309.557 471.987 307.034 470.839 304.553 469.445L304.553 469.445Z" fill="white"/>
<path d="M350.521 512.001C348.798 511.993 347.211 512.132 345.822 512.402C342.122 513.123 340.268 514.632 339.881 516.041C339.495 517.451 340.32 519.692 343.138 522.193C345.955 524.695 350.468 527.114 355.809 528.573C361.149 530.032 366.269 530.244 369.97 529.523C373.671 528.802 375.524 527.293 375.91 525.883C376.297 524.474 375.472 522.233 372.654 519.732C369.837 517.23 365.324 514.811 359.983 513.352C356.645 512.441 353.394 512.016 350.521 512.001ZM335.087 520.104L307.656 547.482C307.962 548.404 308.661 550.072 310.125 552.148C311.993 554.797 314.636 557.851 317.482 560.691C320.326 563.53 323.386 566.169 326.04 568.032C328.12 569.494 329.792 570.191 330.716 570.497L366.026 535.255C362.42 535.325 358.462 534.82 354.4 533.71C348.37 532.063 343.214 529.391 339.59 526.173C337.572 524.381 335.94 522.313 335.087 520.104L335.087 520.104ZM302.025 546.406L282.768 565.626C285.027 571.491 289.43 577.886 294.841 583.287C296.454 584.893 298.153 586.411 299.931 587.832L318.721 569.078C316.988 567.605 315.316 566.063 313.708 564.456C310.683 561.438 307.877 558.214 305.761 555.214C303.646 552.214 302.025 549.678 302.025 546.672V546.406ZM277.28 566.082L238 605.285C239.416 612.161 244.484 620.266 251.153 626.875C253.956 629.654 257.029 632.148 260.156 634.224L299.928 594.529C296.822 592.35 293.835 589.815 291.067 587.052C284.802 580.8 279.696 573.428 277.279 566.083L277.28 566.082ZM322.958 572.38L304.294 591.008C307.056 592.824 309.851 594.306 312.536 595.336L331.793 576.116H331.527C328.515 576.116 325.975 574.499 322.969 572.388C322.965 572.386 322.962 572.383 322.958 572.38ZM304.553 597.445L264.899 637.021C267.623 638.423 270.309 639.452 272.814 640.001L312.078 600.814C309.557 599.987 307.034 598.839 304.553 597.445L304.553 597.445Z" fill="white"/>
</svg>
