<svg width="420" height="986" viewBox="0 0 420 986" fill="none" xmlns="http://www.w3.org/2000/svg">
<path d="M49.0869 133.868L36.1196 157.006C21.1594 149.499 9.20154 143.431 0.246094 138.804C11.7381 128.16 18.1311 120.679 19.4252 116.36C19.6323 115.588 19.7358 114.688 19.7358 113.66C19.7358 108.775 17.5876 101.628 13.291 92.2186C8.99448 82.809 6.12149 76.356 4.67205 72.8596C3.27438 69.3117 2.57554 66.5865 2.57554 64.6841C2.57554 62.7816 2.88614 61.1362 3.50733 59.7479C4.95676 56.5599 8.37329 53.6548 13.7569 51.0325C19.1405 48.3587 27.3195 45.0165 38.2938 41.0059C39.8468 44.6052 40.9856 47.3046 41.7103 49.1043C34.7737 51.3667 30.969 54.1947 30.296 57.5883C30.1407 58.3082 30.0631 59.0794 30.0631 59.9021C30.0631 62.833 31.0466 66.3037 33.0137 70.3144C51.287 52.5236 61.2777 42.7541 62.986 41.0059C67.5931 44.0395 71.5014 46.9447 74.7109 49.7213C77.9721 52.4465 81.8804 54.9403 86.4358 57.2027L101.965 41.0059C108.177 44.3481 114.415 47.6903 120.679 51.0325C126.942 54.3232 133.465 57.1512 140.246 59.5165C131.912 65.1725 127.512 74.7621 127.046 88.2851L126.192 116.977C126.192 117.542 126.192 118.108 126.192 118.673C126.192 127.003 129.168 132.068 135.121 133.868L122.775 157.006C115.269 154.281 110.067 150.064 107.168 144.357C104.321 138.598 102.897 130.654 102.897 120.524C102.897 119.805 102.897 119.085 102.897 118.365L103.053 98.9287C103.053 94.2497 103.907 90.1619 105.615 86.6654C107.323 83.169 109.549 79.6468 112.293 76.0989C101.888 68.5404 94.0971 64.4527 88.9205 63.8356C86.9534 66.7665 85.944 70.2372 85.8922 74.2479C85.8922 78.2585 85.7887 82.9376 85.5816 88.2851L84.7275 116.977C84.7275 117.542 84.7275 118.108 84.7275 118.673C84.7275 127.98 87.1864 133.431 92.1041 135.024L73.9344 157.006C71.1391 153.509 67.9813 150.193 64.4613 147.056C60.9412 143.92 57.6282 141.04 54.5223 138.418C56.0753 136.618 57.6024 133.79 59.1036 129.934C60.6048 126.078 61.3812 122.221 61.433 118.365L64.1507 70.6229C59.6471 67.2807 56.1529 65.6096 53.6682 65.6096C53.047 65.6096 52.4776 65.7124 51.9599 65.9181C49.5269 66.9979 44.5833 71.1114 37.1291 78.2585L38.1385 80.0325C42.0209 87.231 43.9621 93.1956 43.9621 97.9261C43.9621 99.2115 43.8068 100.42 43.4962 101.551C42.0986 106.744 37.1808 114.791 28.743 125.692C33.609 129.188 40.3903 131.914 49.0869 133.868Z" fill="black"/>
<path d="M49.0869 365.862L36.1196 389C21.1594 381.493 9.20154 375.426 0.246094 370.798C11.7381 360.154 18.1311 352.673 19.4252 348.354C19.6323 347.582 19.7358 346.683 19.7358 345.654C19.7358 340.77 17.5876 333.622 13.291 324.213C8.99448 314.803 6.12149 308.35 4.67205 304.854C3.27438 301.306 2.57554 298.581 2.57554 296.678C2.57554 294.776 2.88614 293.13 3.50733 291.742C4.95676 288.554 8.37329 285.649 13.7569 283.027C19.1405 280.353 27.3195 277.011 38.2938 273C39.8468 276.599 40.9856 279.299 41.7103 281.098C34.7737 283.361 30.969 286.189 30.296 289.582C30.1407 290.302 30.0631 291.074 30.0631 291.896C30.0631 294.827 31.0466 298.298 33.0137 302.309C51.287 284.518 61.2777 274.748 62.986 273C67.5931 276.034 71.5014 278.939 74.7109 281.715C77.9721 284.441 81.8804 286.934 86.4358 289.197L101.965 273C108.177 276.342 114.415 279.684 120.679 283.027C126.942 286.317 133.465 289.145 140.246 291.511C131.912 297.167 127.512 306.756 127.046 320.279L126.192 348.971C126.192 349.536 126.192 350.102 126.192 350.668C126.192 358.997 129.168 364.062 135.121 365.862L122.775 389C115.269 386.275 110.067 382.059 107.168 376.351C104.321 370.592 102.897 362.648 102.897 352.519C102.897 351.799 102.897 351.079 102.897 350.359L103.053 330.923C103.053 326.244 103.907 322.156 105.615 318.66C107.323 315.163 109.549 311.641 112.293 308.093C101.888 300.535 94.0971 296.447 88.9205 295.83C86.9534 298.761 85.944 302.231 85.8922 306.242C85.8922 310.253 85.7887 314.932 85.5816 320.279L84.7275 348.971C84.7275 349.536 84.7275 350.102 84.7275 350.668C84.7275 359.974 87.1864 365.425 92.1041 367.019L73.9344 389C71.1391 385.504 67.9813 382.187 64.4613 379.051C60.9412 375.914 57.6282 373.035 54.5223 370.412C56.0753 368.613 57.6024 365.785 59.1036 361.928C60.6048 358.072 61.3812 354.215 61.433 350.359L64.1507 302.617C59.6471 299.275 56.1529 297.604 53.6682 297.604C53.047 297.604 52.4776 297.707 51.9599 297.912C49.5269 298.992 44.5833 303.105 37.1291 310.253L38.1385 312.027C42.0209 319.225 43.9621 325.19 43.9621 329.92C43.9621 331.206 43.8068 332.414 43.4962 333.545C42.0986 338.738 37.1808 346.785 28.743 357.686C33.609 361.183 40.3903 363.908 49.0869 365.862Z" fill="black"/>
<path d="M49.0869 597.862L36.1196 621C21.1594 613.493 9.20154 607.426 0.246094 602.798C11.7381 592.154 18.1311 584.673 19.4252 580.354C19.6323 579.582 19.7358 578.683 19.7358 577.654C19.7358 572.77 17.5876 565.622 13.291 556.213C8.99448 546.803 6.12149 540.35 4.67205 536.854C3.27438 533.306 2.57554 530.581 2.57554 528.678C2.57554 526.776 2.88614 525.13 3.50733 523.742C4.95676 520.554 8.37329 517.649 13.7569 515.027C19.1405 512.353 27.3195 509.011 38.2938 505C39.8468 508.599 40.9856 511.299 41.7103 513.098C34.7737 515.361 30.969 518.189 30.296 521.582C30.1407 522.302 30.0631 523.074 30.0631 523.896C30.0631 526.827 31.0466 530.298 33.0137 534.309C51.287 516.518 61.2777 506.748 62.986 505C67.5931 508.034 71.5014 510.939 74.7109 513.715C77.9721 516.441 81.8804 518.934 86.4358 521.197L101.965 505C108.177 508.342 114.415 511.684 120.679 515.027C126.942 518.317 133.465 521.145 140.246 523.511C131.912 529.167 127.512 538.756 127.046 552.279L126.192 580.971C126.192 581.536 126.192 582.102 126.192 582.668C126.192 590.997 129.168 596.062 135.121 597.862L122.775 621C115.269 618.275 110.067 614.059 107.168 608.351C104.321 602.592 102.897 594.648 102.897 584.519C102.897 583.799 102.897 583.079 102.897 582.359L103.053 562.923C103.053 558.244 103.907 554.156 105.615 550.66C107.323 547.163 109.549 543.641 112.293 540.093C101.888 532.535 94.0971 528.447 88.9205 527.83C86.9534 530.761 85.944 534.231 85.8922 538.242C85.8922 542.253 85.7887 546.932 85.5816 552.279L84.7275 580.971C84.7275 581.536 84.7275 582.102 84.7275 582.668C84.7275 591.974 87.1864 597.425 92.1041 599.019L73.9344 621C71.1391 617.504 67.9813 614.187 64.4613 611.051C60.9412 607.914 57.6282 605.035 54.5223 602.412C56.0753 600.613 57.6024 597.785 59.1036 593.928C60.6048 590.072 61.3812 586.215 61.433 582.359L64.1507 534.617C59.6471 531.275 56.1529 529.604 53.6682 529.604C53.047 529.604 52.4776 529.707 51.9599 529.912C49.5269 530.992 44.5833 535.105 37.1291 542.253L38.1385 544.027C42.0209 551.225 43.9621 557.19 43.9621 561.92C43.9621 563.206 43.8068 564.414 43.4962 565.545C42.0986 570.738 37.1808 578.785 28.743 589.686C33.609 593.183 40.3903 595.908 49.0869 597.862Z" fill="black"/>
<path d="M49.0869 249.862L36.1196 273C21.1594 265.493 9.20154 259.426 0.246094 254.798C11.7381 244.154 18.1311 236.673 19.4252 232.354C19.6323 231.582 19.7358 230.683 19.7358 229.654C19.7358 224.77 17.5876 217.622 13.291 208.213C8.99448 198.803 6.12149 192.35 4.67205 188.854C3.27438 185.306 2.57554 182.581 2.57554 180.678C2.57554 178.776 2.88614 177.13 3.50733 175.742C4.95676 172.554 8.37329 169.649 13.7569 167.027C19.1405 164.353 27.3195 161.011 38.2938 157C39.8468 160.599 40.9856 163.299 41.7103 165.098C34.7737 167.361 30.969 170.189 30.296 173.582C30.1407 174.302 30.0631 175.074 30.0631 175.896C30.0631 178.827 31.0466 182.298 33.0137 186.309C51.287 168.518 61.2777 158.748 62.986 157C67.5931 160.034 71.5014 162.939 74.7109 165.715C77.9721 168.441 81.8804 170.934 86.4358 173.197L101.965 157C108.177 160.342 114.415 163.684 120.679 167.027C126.942 170.317 133.465 173.145 140.246 175.511C131.912 181.167 127.512 190.756 127.046 204.279L126.192 232.971C126.192 233.536 126.192 234.102 126.192 234.668C126.192 242.997 129.168 248.062 135.121 249.862L122.775 273C115.269 270.275 110.067 266.059 107.168 260.351C104.321 254.592 102.897 246.648 102.897 236.519C102.897 235.799 102.897 235.079 102.897 234.359L103.053 214.923C103.053 210.244 103.907 206.156 105.615 202.66C107.323 199.163 109.549 195.641 112.293 192.093C101.888 184.535 94.0971 180.447 88.9205 179.83C86.9534 182.761 85.944 186.231 85.8922 190.242C85.8922 194.253 85.7887 198.932 85.5816 204.279L84.7275 232.971C84.7275 233.536 84.7275 234.102 84.7275 234.668C84.7275 243.974 87.1864 249.425 92.1041 251.019L73.9344 273C71.1391 269.504 67.9813 266.187 64.4613 263.051C60.9412 259.914 57.6282 257.035 54.5223 254.412C56.0753 252.613 57.6024 249.785 59.1036 245.928C60.6048 242.072 61.3812 238.215 61.433 234.359L64.1507 186.617C59.6471 183.275 56.1529 181.604 53.6682 181.604C53.047 181.604 52.4776 181.707 51.9599 181.912C49.5269 182.992 44.5833 187.105 37.1291 194.253L38.1385 196.027C42.0209 203.225 43.9621 209.19 43.9621 213.92C43.9621 215.206 43.8068 216.414 43.4962 217.545C42.0986 222.738 37.1808 230.785 28.743 241.686C33.609 245.183 40.3903 247.908 49.0869 249.862Z" fill="black"/>
<path d="M49.0869 481.856L36.1196 504.994C21.1594 497.487 9.20154 491.42 0.246094 486.792C11.7381 476.148 18.1311 468.667 19.4252 464.348C19.6323 463.577 19.7358 462.677 19.7358 461.648C19.7358 456.764 17.5876 449.616 13.291 440.207C8.99448 430.797 6.12149 424.344 4.67205 420.848C3.27438 417.3 2.57554 414.575 2.57554 412.672C2.57554 410.77 2.88614 409.124 3.50733 407.736C4.95676 404.548 8.37329 401.643 13.7569 399.021C19.1405 396.347 27.3195 393.005 38.2938 388.994C39.8468 392.593 40.9856 395.293 41.7103 397.093C34.7737 399.355 30.969 402.183 30.296 405.577C30.1407 406.296 30.0631 407.068 30.0631 407.89C30.0631 410.821 31.0466 414.292 33.0137 418.303C51.287 400.512 61.2777 390.742 62.986 388.994C67.5931 392.028 71.5014 394.933 74.7109 397.71C77.9721 400.435 81.8804 402.929 86.4358 405.191L101.965 388.994C108.177 392.336 114.415 395.679 120.679 399.021C126.942 402.312 133.465 405.14 140.246 407.505C131.912 413.161 127.512 422.75 127.046 436.273L126.192 464.965C126.192 465.53 126.192 466.096 126.192 466.662C126.192 474.991 129.168 480.056 135.121 481.856L122.775 504.994C115.269 502.269 110.067 498.053 107.168 492.345C104.321 486.586 102.897 478.642 102.897 468.513C102.897 467.793 102.897 467.073 102.897 466.353L103.053 446.917C103.053 442.238 103.907 438.15 105.615 434.654C107.323 431.157 109.549 427.635 112.293 424.087C101.888 416.529 94.0971 412.441 88.9205 411.824C86.9534 414.755 85.944 418.226 85.8922 422.236C85.8922 426.247 85.7887 430.926 85.5816 436.273L84.7275 464.965C84.7275 465.53 84.7275 466.096 84.7275 466.662C84.7275 475.968 87.1864 481.419 92.1041 483.013L73.9344 504.994C71.1391 501.498 67.9813 498.181 64.4613 495.045C60.9412 491.908 57.6282 489.029 54.5223 486.406C56.0753 484.607 57.6024 481.779 59.1036 477.922C60.6048 474.066 61.3812 470.21 61.433 466.353L64.1507 418.611C59.6471 415.269 56.1529 413.598 53.6682 413.598C53.047 413.598 52.4776 413.701 51.9599 413.906C49.5269 414.986 44.5833 419.1 37.1291 426.247L38.1385 428.021C42.0209 435.219 43.9621 441.184 43.9621 445.914C43.9621 447.2 43.8068 448.408 43.4962 449.539C42.0986 454.733 37.1808 462.78 28.743 473.68C33.609 477.177 40.3903 479.902 49.0869 481.856Z" fill="black"/>
<path d="M49.0869 713.856L36.1196 736.994C21.1594 729.487 9.20154 723.42 0.246094 718.792C11.7381 708.148 18.1311 700.667 19.4252 696.348C19.6323 695.577 19.7358 694.677 19.7358 693.648C19.7358 688.764 17.5876 681.616 13.291 672.207C8.99448 662.797 6.12149 656.344 4.67205 652.848C3.27438 649.3 2.57554 646.575 2.57554 644.672C2.57554 642.77 2.88614 641.124 3.50733 639.736C4.95676 636.548 8.37329 633.643 13.7569 631.021C19.1405 628.347 27.3195 625.005 38.2938 620.994C39.8468 624.593 40.9856 627.293 41.7103 629.093C34.7737 631.355 30.969 634.183 30.296 637.577C30.1407 638.296 30.0631 639.068 30.0631 639.89C30.0631 642.821 31.0466 646.292 33.0137 650.303C51.287 632.512 61.2777 622.742 62.986 620.994C67.5931 624.028 71.5014 626.933 74.7109 629.71C77.9721 632.435 81.8804 634.929 86.4358 637.191L101.965 620.994C108.177 624.336 114.415 627.679 120.679 631.021C126.942 634.312 133.465 637.14 140.246 639.505C131.912 645.161 127.512 654.75 127.046 668.273L126.192 696.965C126.192 697.53 126.192 698.096 126.192 698.662C126.192 706.991 129.168 712.056 135.121 713.856L122.775 736.994C115.269 734.269 110.067 730.053 107.168 724.345C104.321 718.586 102.897 710.642 102.897 700.513C102.897 699.793 102.897 699.073 102.897 698.353L103.053 678.917C103.053 674.238 103.907 670.15 105.615 666.654C107.323 663.157 109.549 659.635 112.293 656.087C101.888 648.529 94.0971 644.441 88.9205 643.824C86.9534 646.755 85.944 650.226 85.8922 654.236C85.8922 658.247 85.7887 662.926 85.5816 668.273L84.7275 696.965C84.7275 697.53 84.7275 698.096 84.7275 698.662C84.7275 707.968 87.1864 713.419 92.1041 715.013L73.9344 736.994C71.1391 733.498 67.9813 730.181 64.4613 727.045C60.9412 723.908 57.6282 721.029 54.5223 718.406C56.0753 716.607 57.6024 713.779 59.1036 709.922C60.6048 706.066 61.3812 702.21 61.433 698.353L64.1507 650.611C59.6471 647.269 56.1529 645.598 53.6682 645.598C53.047 645.598 52.4776 645.701 51.9599 645.906C49.5269 646.986 44.5833 651.1 37.1291 658.247L38.1385 660.021C42.0209 667.219 43.9621 673.184 43.9621 677.914C43.9621 679.2 43.8068 680.408 43.4962 681.539C42.0986 686.733 37.1808 694.78 28.743 705.68C33.609 709.177 40.3903 711.902 49.0869 713.856Z" fill="black"/>
<path d="M49.0869 829.868L36.1196 853.006C21.1594 845.499 9.20154 839.431 0.246094 834.804C11.7381 824.16 18.1311 816.679 19.4252 812.36C19.6323 811.588 19.7358 810.688 19.7358 809.66C19.7358 804.775 17.5876 797.628 13.291 788.219C8.99448 778.809 6.12149 772.356 4.67205 768.86C3.27438 765.312 2.57554 762.587 2.57554 760.684C2.57554 758.782 2.88614 757.136 3.50733 755.748C4.95676 752.56 8.37329 749.655 13.7569 747.032C19.1405 744.359 27.3195 741.016 38.2938 737.006C39.8468 740.605 40.9856 743.305 41.7103 745.104C34.7737 747.367 30.969 750.195 30.296 753.588C30.1407 754.308 30.0631 755.079 30.0631 755.902C30.0631 758.833 31.0466 762.304 33.0137 766.314C51.287 748.524 61.2777 738.754 62.986 737.006C67.5931 740.04 71.5014 742.945 74.7109 745.721C77.9721 748.446 81.8804 750.94 86.4358 753.203L101.965 737.006C108.177 740.348 114.415 743.69 120.679 747.032C126.942 750.323 133.465 753.151 140.246 755.516C131.912 761.173 127.512 770.762 127.046 784.285L126.192 812.977C126.192 813.542 126.192 814.108 126.192 814.673C126.192 823.003 129.168 828.068 135.121 829.868L122.775 853.006C115.269 850.281 110.067 846.064 107.168 840.357C104.321 834.598 102.897 826.654 102.897 816.524C102.897 815.805 102.897 815.085 102.897 814.365L103.053 794.929C103.053 790.25 103.907 786.162 105.615 782.665C107.323 779.169 109.549 775.647 112.293 772.099C101.888 764.54 94.0971 760.453 88.9205 759.836C86.9534 762.766 85.944 766.237 85.8922 770.248C85.8922 774.259 85.7887 778.938 85.5816 784.285L84.7275 812.977C84.7275 813.542 84.7275 814.108 84.7275 814.673C84.7275 823.98 87.1864 829.431 92.1041 831.024L73.9344 853.006C71.1391 849.509 67.9813 846.193 64.4613 843.056C60.9412 839.92 57.6282 837.04 54.5223 834.418C56.0753 832.618 57.6024 829.79 59.1036 825.934C60.6048 822.078 61.3812 818.221 61.433 814.365L64.1507 766.623C59.6471 763.281 56.1529 761.61 53.6682 761.61C53.047 761.61 52.4776 761.712 51.9599 761.918C49.5269 762.998 44.5833 767.111 37.1291 774.259L38.1385 776.032C42.0209 783.231 43.9621 789.196 43.9621 793.926C43.9621 795.212 43.8068 796.42 43.4962 797.551C42.0986 802.744 37.1808 810.791 28.743 821.692C33.609 825.188 40.3903 827.914 49.0869 829.868Z" fill="black"/>
<path d="M49.0869 945.868L36.1196 969.006C21.1594 961.499 9.20154 955.431 0.246094 950.804C11.7381 940.16 18.1311 932.679 19.4252 928.36C19.6323 927.588 19.7358 926.688 19.7358 925.66C19.7358 920.775 17.5876 913.628 13.291 904.219C8.99448 894.809 6.12149 888.356 4.67205 884.86C3.27438 881.312 2.57554 878.587 2.57554 876.684C2.57554 874.782 2.88614 873.136 3.50733 871.748C4.95676 868.56 8.37329 865.655 13.7569 863.032C19.1405 860.359 27.3195 857.016 38.2938 853.006C39.8468 856.605 40.9856 859.305 41.7103 861.104C34.7737 863.367 30.969 866.195 30.296 869.588C30.1407 870.308 30.0631 871.079 30.0631 871.902C30.0631 874.833 31.0466 878.304 33.0137 882.314C51.287 864.524 61.2777 854.754 62.986 853.006C67.5931 856.04 71.5014 858.945 74.7109 861.721C77.9721 864.446 81.8804 866.94 86.4358 869.203L101.965 853.006C108.177 856.348 114.415 859.69 120.679 863.032C126.942 866.323 133.465 869.151 140.246 871.516C131.912 877.173 127.512 886.762 127.046 900.285L126.192 928.977C126.192 929.542 126.192 930.108 126.192 930.673C126.192 939.003 129.168 944.068 135.121 945.868L122.775 969.006C115.269 966.281 110.067 962.064 107.168 956.357C104.321 950.598 102.897 942.654 102.897 932.524C102.897 931.805 102.897 931.085 102.897 930.365L103.053 910.929C103.053 906.25 103.907 902.162 105.615 898.665C107.323 895.169 109.549 891.647 112.293 888.099C101.888 880.54 94.0971 876.453 88.9205 875.836C86.9534 878.766 85.944 882.237 85.8922 886.248C85.8922 890.259 85.7887 894.938 85.5816 900.285L84.7275 928.977C84.7275 929.542 84.7275 930.108 84.7275 930.673C84.7275 939.98 87.1864 945.431 92.1041 947.024L73.9344 969.006C71.1391 965.509 67.9813 962.193 64.4613 959.056C60.9412 955.92 57.6282 953.04 54.5223 950.418C56.0753 948.618 57.6024 945.79 59.1036 941.934C60.6048 938.078 61.3812 934.221 61.433 930.365L64.1507 882.623C59.6471 879.281 56.1529 877.61 53.6682 877.61C53.047 877.61 52.4776 877.712 51.9599 877.918C49.5269 878.998 44.5833 883.111 37.1291 890.259L38.1385 892.032C42.0209 899.231 43.9621 905.196 43.9621 909.926C43.9621 911.212 43.8068 912.42 43.4962 913.551C42.0986 918.744 37.1808 926.791 28.743 937.692C33.609 941.188 40.3903 943.914 49.0869 945.868Z" fill="black"/>
<path d="M188.841 208.856L175.874 231.994C160.913 224.487 148.955 218.42 140 213.792C151.492 203.148 157.885 195.667 159.179 191.348C159.386 190.577 159.49 189.677 159.49 188.648C159.49 183.764 157.341 176.616 153.045 167.207C148.748 157.797 145.875 151.344 144.426 147.848C143.028 144.3 142.329 141.575 142.329 139.672C142.329 137.77 142.64 136.124 143.261 134.736C144.711 131.548 148.127 128.643 153.511 126.021C158.894 123.347 167.073 120.005 178.048 115.994C179.601 119.593 180.74 122.293 181.464 124.093C174.528 126.355 170.723 129.183 170.05 132.577C169.895 133.296 169.817 134.068 169.817 134.89C169.817 137.821 170.801 141.292 172.768 145.303C191.041 127.512 201.032 117.742 202.74 115.994C207.347 119.028 211.255 121.933 214.465 124.71C217.726 127.435 221.634 129.929 226.19 132.191L241.719 115.994C247.931 119.336 254.169 122.679 260.433 126.021C266.696 129.312 273.219 132.14 280 134.505C271.666 140.161 267.266 149.75 266.8 163.273L265.946 191.965C265.946 192.53 265.946 193.096 265.946 193.662C265.946 201.991 268.922 207.056 274.875 208.856L262.529 231.994C255.023 229.269 249.821 225.053 246.922 219.345C244.075 213.586 242.651 205.642 242.651 195.513C242.651 194.793 242.651 194.073 242.651 193.353L242.806 173.917C242.806 169.238 243.661 165.15 245.369 161.654C247.077 158.157 249.303 154.635 252.047 151.087C241.642 143.529 233.851 139.441 228.674 138.824C226.707 141.755 225.698 145.226 225.646 149.236C225.646 153.247 225.543 157.926 225.336 163.273L224.481 191.965C224.481 192.53 224.481 193.096 224.481 193.662C224.481 202.968 226.94 208.419 231.858 210.013L213.688 231.994C210.893 228.498 207.735 225.181 204.215 222.045C200.695 218.908 197.382 216.029 194.276 213.406C195.829 211.607 197.356 208.779 198.857 204.922C200.359 201.066 201.135 197.21 201.187 193.353L203.905 145.611C199.401 142.269 195.907 140.598 193.422 140.598C192.801 140.598 192.231 140.701 191.714 140.906C189.281 141.986 184.337 146.1 176.883 153.247L177.892 155.021C181.775 162.219 183.716 168.184 183.716 172.914C183.716 174.2 183.561 175.408 183.25 176.539C181.852 181.733 176.935 189.78 168.497 200.68C173.363 204.177 180.144 206.902 188.841 208.856Z" fill="black"/>
<path d="M188.841 440.85L175.874 463.988C160.913 456.481 148.955 450.414 140 445.786C151.492 435.143 157.885 427.661 159.179 423.342C159.386 422.571 159.49 421.671 159.49 420.643C159.49 415.758 157.341 408.611 153.045 399.201C148.748 389.791 145.875 383.338 144.426 379.842C143.028 376.294 142.329 373.569 142.329 371.666C142.329 369.764 142.64 368.119 143.261 366.73C144.711 363.542 148.127 360.637 153.511 358.015C158.894 355.341 167.073 351.999 178.048 347.988C179.601 351.588 180.74 354.287 181.464 356.087C174.528 358.349 170.723 361.177 170.05 364.571C169.895 365.291 169.817 366.062 169.817 366.885C169.817 369.815 170.801 373.286 172.768 377.297C191.041 359.506 201.032 349.737 202.74 347.988C207.347 351.022 211.255 353.927 214.465 356.704C217.726 359.429 221.634 361.923 226.19 364.185L241.719 347.988C247.931 351.33 254.169 354.673 260.433 358.015C266.696 361.306 273.219 364.134 280 366.499C271.666 372.155 267.266 381.744 266.8 395.268L265.946 423.959C265.946 424.525 265.946 425.09 265.946 425.656C265.946 433.986 268.922 439.05 274.875 440.85L262.529 463.988C255.023 461.263 249.821 457.047 246.922 451.339C244.075 445.58 242.651 437.636 242.651 427.507C242.651 426.787 242.651 426.067 242.651 425.347L242.806 405.911C242.806 401.232 243.661 397.144 245.369 393.648C247.077 390.151 249.303 386.629 252.047 383.081C241.642 375.523 233.851 371.435 228.674 370.818C226.707 373.749 225.698 377.22 225.646 381.23C225.646 385.241 225.543 389.92 225.336 395.268L224.481 423.959C224.481 424.525 224.481 425.09 224.481 425.656C224.481 434.963 226.94 440.413 231.858 442.007L213.688 463.988C210.893 460.492 207.735 457.175 204.215 454.039C200.695 450.902 197.382 448.023 194.276 445.401C195.829 443.601 197.356 440.773 198.857 436.916C200.359 433.06 201.135 429.204 201.187 425.347L203.905 377.605C199.401 374.263 195.907 372.592 193.422 372.592C192.801 372.592 192.231 372.695 191.714 372.901C189.281 373.98 184.337 378.094 176.883 385.241L177.892 387.015C181.775 394.213 183.716 400.178 183.716 404.908C183.716 406.194 183.561 407.402 183.25 408.533C181.852 413.727 176.935 421.774 168.497 432.674C173.363 436.171 180.144 438.896 188.841 440.85Z" fill="black"/>
<path d="M188.841 672.85L175.874 695.988C160.913 688.481 148.955 682.414 140 677.786C151.492 667.143 157.885 659.661 159.179 655.342C159.386 654.571 159.49 653.671 159.49 652.643C159.49 647.758 157.341 640.611 153.045 631.201C148.748 621.791 145.875 615.338 144.426 611.842C143.028 608.294 142.329 605.569 142.329 603.666C142.329 601.764 142.64 600.119 143.261 598.73C144.711 595.542 148.127 592.637 153.511 590.015C158.894 587.341 167.073 583.999 178.048 579.988C179.601 583.588 180.74 586.287 181.464 588.087C174.528 590.349 170.723 593.177 170.05 596.571C169.895 597.291 169.817 598.062 169.817 598.885C169.817 601.815 170.801 605.286 172.768 609.297C191.041 591.506 201.032 581.737 202.74 579.988C207.347 583.022 211.255 585.927 214.465 588.704C217.726 591.429 221.634 593.923 226.19 596.185L241.719 579.988C247.931 583.33 254.169 586.673 260.433 590.015C266.696 593.306 273.219 596.134 280 598.499C271.666 604.155 267.266 613.744 266.8 627.268L265.946 655.959C265.946 656.525 265.946 657.09 265.946 657.656C265.946 665.986 268.922 671.05 274.875 672.85L262.529 695.988C255.023 693.263 249.821 689.047 246.922 683.339C244.075 677.58 242.651 669.636 242.651 659.507C242.651 658.787 242.651 658.067 242.651 657.347L242.806 637.911C242.806 633.232 243.661 629.144 245.369 625.648C247.077 622.151 249.303 618.629 252.047 615.081C241.642 607.523 233.851 603.435 228.674 602.818C226.707 605.749 225.698 609.22 225.646 613.23C225.646 617.241 225.543 621.92 225.336 627.268L224.481 655.959C224.481 656.525 224.481 657.09 224.481 657.656C224.481 666.963 226.94 672.413 231.858 674.007L213.688 695.988C210.893 692.492 207.735 689.175 204.215 686.039C200.695 682.902 197.382 680.023 194.276 677.401C195.829 675.601 197.356 672.773 198.857 668.916C200.359 665.06 201.135 661.204 201.187 657.347L203.905 609.605C199.401 606.263 195.907 604.592 193.422 604.592C192.801 604.592 192.231 604.695 191.714 604.901C189.281 605.98 184.337 610.094 176.883 617.241L177.892 619.015C181.775 626.213 183.716 632.178 183.716 636.908C183.716 638.194 183.561 639.402 183.25 640.533C181.852 645.727 176.935 653.774 168.497 664.674C173.363 668.171 180.144 670.896 188.841 672.85Z" fill="black"/>
<path d="M188.841 788.862L175.874 812C160.913 804.493 148.955 798.426 140 793.798C151.492 783.154 157.885 775.673 159.179 771.354C159.386 770.582 159.49 769.683 159.49 768.654C159.49 763.77 157.341 756.622 153.045 747.213C148.748 737.803 145.875 731.35 144.426 727.854C143.028 724.306 142.329 721.581 142.329 719.678C142.329 717.776 142.64 716.13 143.261 714.742C144.711 711.554 148.127 708.649 153.511 706.027C158.894 703.353 167.073 700.011 178.048 696C179.601 699.599 180.74 702.299 181.464 704.098C174.528 706.361 170.723 709.189 170.05 712.582C169.895 713.302 169.817 714.074 169.817 714.896C169.817 717.827 170.801 721.298 172.768 725.309C191.041 707.518 201.032 697.748 202.74 696C207.347 699.034 211.255 701.939 214.465 704.715C217.726 707.441 221.634 709.934 226.19 712.197L241.719 696C247.931 699.342 254.169 702.684 260.433 706.027C266.696 709.317 273.219 712.145 280 714.511C271.666 720.167 267.266 729.756 266.8 743.279L265.946 771.971C265.946 772.536 265.946 773.102 265.946 773.668C265.946 781.997 268.922 787.062 274.875 788.862L262.529 812C255.023 809.275 249.821 805.059 246.922 799.351C244.075 793.592 242.651 785.648 242.651 775.519C242.651 774.799 242.651 774.079 242.651 773.359L242.806 753.923C242.806 749.244 243.661 745.156 245.369 741.66C247.077 738.163 249.303 734.641 252.047 731.093C241.642 723.535 233.851 719.447 228.674 718.83C226.707 721.761 225.698 725.231 225.646 729.242C225.646 733.253 225.543 737.932 225.336 743.279L224.481 771.971C224.481 772.536 224.481 773.102 224.481 773.668C224.481 782.974 226.94 788.425 231.858 790.019L213.688 812C210.893 808.504 207.735 805.187 204.215 802.051C200.695 798.914 197.382 796.035 194.276 793.412C195.829 791.613 197.356 788.785 198.857 784.928C200.359 781.072 201.135 777.215 201.187 773.359L203.905 725.617C199.401 722.275 195.907 720.604 193.422 720.604C192.801 720.604 192.231 720.707 191.714 720.912C189.281 721.992 184.337 726.105 176.883 733.253L177.892 735.027C181.775 742.225 183.716 748.19 183.716 752.92C183.716 754.206 183.561 755.414 183.25 756.545C181.852 761.738 176.935 769.785 168.497 780.686C173.363 784.183 180.144 786.908 188.841 788.862Z" fill="black"/>
<path d="M188.841 904.862L175.874 928C160.913 920.493 148.955 914.426 140 909.798C151.492 899.154 157.885 891.673 159.179 887.354C159.386 886.582 159.49 885.683 159.49 884.654C159.49 879.77 157.341 872.622 153.045 863.213C148.748 853.803 145.875 847.35 144.426 843.854C143.028 840.306 142.329 837.581 142.329 835.678C142.329 833.776 142.64 832.13 143.261 830.742C144.711 827.554 148.127 824.649 153.511 822.027C158.894 819.353 167.073 816.011 178.048 812C179.601 815.599 180.74 818.299 181.464 820.098C174.528 822.361 170.723 825.189 170.05 828.582C169.895 829.302 169.817 830.074 169.817 830.896C169.817 833.827 170.801 837.298 172.768 841.309C191.041 823.518 201.032 813.748 202.74 812C207.347 815.034 211.255 817.939 214.465 820.715C217.726 823.441 221.634 825.934 226.19 828.197L241.719 812C247.931 815.342 254.169 818.684 260.433 822.027C266.696 825.317 273.219 828.145 280 830.511C271.666 836.167 267.266 845.756 266.8 859.279L265.946 887.971C265.946 888.536 265.946 889.102 265.946 889.668C265.946 897.997 268.922 903.062 274.875 904.862L262.529 928C255.023 925.275 249.821 921.059 246.922 915.351C244.075 909.592 242.651 901.648 242.651 891.519C242.651 890.799 242.651 890.079 242.651 889.359L242.806 869.923C242.806 865.244 243.661 861.156 245.369 857.66C247.077 854.163 249.303 850.641 252.047 847.093C241.642 839.535 233.851 835.447 228.674 834.83C226.707 837.761 225.698 841.231 225.646 845.242C225.646 849.253 225.543 853.932 225.336 859.279L224.481 887.971C224.481 888.536 224.481 889.102 224.481 889.668C224.481 898.974 226.94 904.425 231.858 906.019L213.688 928C210.893 924.504 207.735 921.187 204.215 918.051C200.695 914.914 197.382 912.035 194.276 909.412C195.829 907.613 197.356 904.785 198.857 900.928C200.359 897.072 201.135 893.215 201.187 889.359L203.905 841.617C199.401 838.275 195.907 836.604 193.422 836.604C192.801 836.604 192.231 836.707 191.714 836.912C189.281 837.992 184.337 842.105 176.883 849.253L177.892 851.027C181.775 858.225 183.716 864.19 183.716 868.92C183.716 870.206 183.561 871.414 183.25 872.545C181.852 877.738 176.935 885.785 168.497 896.686C173.363 900.183 180.144 902.908 188.841 904.862Z" fill="black"/>
<path d="M328.841 266.856L315.874 289.994C300.913 282.487 288.955 276.42 280 271.792C291.492 261.148 297.885 253.667 299.179 249.348C299.386 248.577 299.49 247.677 299.49 246.648C299.49 241.764 297.341 234.616 293.045 225.207C288.748 215.797 285.875 209.344 284.426 205.848C283.028 202.3 282.329 199.575 282.329 197.672C282.329 195.77 282.64 194.124 283.261 192.736C284.711 189.548 288.127 186.643 293.511 184.021C298.894 181.347 307.073 178.005 318.048 173.994C319.601 177.593 320.74 180.293 321.464 182.093C314.528 184.355 310.723 187.183 310.05 190.577C309.895 191.296 309.817 192.068 309.817 192.89C309.817 195.821 310.801 199.292 312.768 203.303C331.041 185.512 341.032 175.742 342.74 173.994C347.347 177.028 351.255 179.933 354.465 182.71C357.726 185.435 361.634 187.929 366.19 190.191L381.719 173.994C387.931 177.336 394.169 180.679 400.433 184.021C406.696 187.312 413.219 190.14 420 192.505C411.666 198.161 407.266 207.75 406.8 221.273L405.946 249.965C405.946 250.53 405.946 251.096 405.946 251.662C405.946 259.991 408.922 265.056 414.875 266.856L402.529 289.994C395.023 287.269 389.821 283.053 386.922 277.345C384.075 271.586 382.651 263.642 382.651 253.513C382.651 252.793 382.651 252.073 382.651 251.353L382.806 231.917C382.806 227.238 383.661 223.15 385.369 219.654C387.077 216.157 389.303 212.635 392.047 209.087C381.642 201.529 373.851 197.441 368.674 196.824C366.707 199.755 365.698 203.226 365.646 207.236C365.646 211.247 365.543 215.926 365.336 221.273L364.481 249.965C364.481 250.53 364.481 251.096 364.481 251.662C364.481 260.968 366.94 266.419 371.858 268.013L353.688 289.994C350.893 286.498 347.735 283.181 344.215 280.045C340.695 276.908 337.382 274.029 334.276 271.406C335.829 269.607 337.356 266.779 338.857 262.922C340.359 259.066 341.135 255.21 341.187 251.353L343.905 203.611C339.401 200.269 335.907 198.598 333.422 198.598C332.801 198.598 332.231 198.701 331.714 198.906C329.281 199.986 324.337 204.1 316.883 211.247L317.892 213.021C321.775 220.219 323.716 226.184 323.716 230.914C323.716 232.2 323.561 233.408 323.25 234.539C321.852 239.733 316.935 247.78 308.497 258.68C313.363 262.177 320.144 264.902 328.841 266.856Z" fill="black"/>
<path d="M328.841 498.85L315.874 521.988C300.913 514.481 288.955 508.414 280 503.786C291.492 493.143 297.885 485.661 299.179 481.342C299.386 480.571 299.49 479.671 299.49 478.643C299.49 473.758 297.341 466.611 293.045 457.201C288.748 447.791 285.875 441.338 284.426 437.842C283.028 434.294 282.329 431.569 282.329 429.666C282.329 427.764 282.64 426.119 283.261 424.73C284.711 421.542 288.127 418.637 293.511 416.015C298.894 413.341 307.073 409.999 318.048 405.988C319.601 409.588 320.74 412.287 321.464 414.087C314.528 416.349 310.723 419.177 310.05 422.571C309.895 423.291 309.817 424.062 309.817 424.885C309.817 427.815 310.801 431.286 312.768 435.297C331.041 417.506 341.032 407.737 342.74 405.988C347.347 409.022 351.255 411.927 354.465 414.704C357.726 417.429 361.634 419.923 366.19 422.185L381.719 405.988C387.931 409.33 394.169 412.673 400.433 416.015C406.696 419.306 413.219 422.134 420 424.499C411.666 430.155 407.266 439.744 406.8 453.268L405.946 481.959C405.946 482.525 405.946 483.09 405.946 483.656C405.946 491.986 408.922 497.05 414.875 498.85L402.529 521.988C395.023 519.263 389.821 515.047 386.922 509.339C384.075 503.58 382.651 495.636 382.651 485.507C382.651 484.787 382.651 484.067 382.651 483.347L382.806 463.911C382.806 459.232 383.661 455.144 385.369 451.648C387.077 448.151 389.303 444.629 392.047 441.081C381.642 433.523 373.851 429.435 368.674 428.818C366.707 431.749 365.698 435.22 365.646 439.23C365.646 443.241 365.543 447.92 365.336 453.268L364.481 481.959C364.481 482.525 364.481 483.09 364.481 483.656C364.481 492.963 366.94 498.413 371.858 500.007L353.688 521.988C350.893 518.492 347.735 515.175 344.215 512.039C340.695 508.902 337.382 506.023 334.276 503.401C335.829 501.601 337.356 498.773 338.857 494.916C340.359 491.06 341.135 487.204 341.187 483.347L343.905 435.605C339.401 432.263 335.907 430.592 333.422 430.592C332.801 430.592 332.231 430.695 331.714 430.901C329.281 431.98 324.337 436.094 316.883 443.241L317.892 445.015C321.775 452.213 323.716 458.178 323.716 462.908C323.716 464.194 323.561 465.402 323.25 466.533C321.852 471.727 316.935 479.774 308.497 490.674C313.363 494.171 320.144 496.896 328.841 498.85Z" fill="black"/>
<path d="M328.841 730.85L315.874 753.988C300.913 746.481 288.955 740.414 280 735.786C291.492 725.143 297.885 717.661 299.179 713.342C299.386 712.571 299.49 711.671 299.49 710.643C299.49 705.758 297.341 698.611 293.045 689.201C288.748 679.791 285.875 673.338 284.426 669.842C283.028 666.294 282.329 663.569 282.329 661.666C282.329 659.764 282.64 658.119 283.261 656.73C284.711 653.542 288.127 650.637 293.511 648.015C298.894 645.341 307.073 641.999 318.048 637.988C319.601 641.588 320.74 644.287 321.464 646.087C314.528 648.349 310.723 651.177 310.05 654.571C309.895 655.291 309.817 656.062 309.817 656.885C309.817 659.815 310.801 663.286 312.768 667.297C331.041 649.506 341.032 639.737 342.74 637.988C347.347 641.022 351.255 643.927 354.465 646.704C357.726 649.429 361.634 651.923 366.19 654.185L381.719 637.988C387.931 641.33 394.169 644.673 400.433 648.015C406.696 651.306 413.219 654.134 420 656.499C411.666 662.155 407.266 671.744 406.8 685.268L405.946 713.959C405.946 714.525 405.946 715.09 405.946 715.656C405.946 723.986 408.922 729.05 414.875 730.85L402.529 753.988C395.023 751.263 389.821 747.047 386.922 741.339C384.075 735.58 382.651 727.636 382.651 717.507C382.651 716.787 382.651 716.067 382.651 715.347L382.806 695.911C382.806 691.232 383.661 687.144 385.369 683.648C387.077 680.151 389.303 676.629 392.047 673.081C381.642 665.523 373.851 661.435 368.674 660.818C366.707 663.749 365.698 667.22 365.646 671.23C365.646 675.241 365.543 679.92 365.336 685.268L364.481 713.959C364.481 714.525 364.481 715.09 364.481 715.656C364.481 724.963 366.94 730.413 371.858 732.007L353.688 753.988C350.893 750.492 347.735 747.175 344.215 744.039C340.695 740.902 337.382 738.023 334.276 735.401C335.829 733.601 337.356 730.773 338.857 726.916C340.359 723.06 341.135 719.204 341.187 715.347L343.905 667.605C339.401 664.263 335.907 662.592 333.422 662.592C332.801 662.592 332.231 662.695 331.714 662.901C329.281 663.98 324.337 668.094 316.883 675.241L317.892 677.015C321.775 684.213 323.716 690.178 323.716 694.908C323.716 696.194 323.561 697.402 323.25 698.533C321.852 703.727 316.935 711.774 308.497 722.674C313.363 726.171 320.144 728.896 328.841 730.85Z" fill="black"/>
<path d="M328.841 846.862L315.874 870C300.913 862.493 288.955 856.426 280 851.798C291.492 841.154 297.885 833.673 299.179 829.354C299.386 828.582 299.49 827.683 299.49 826.654C299.49 821.77 297.341 814.622 293.045 805.213C288.748 795.803 285.875 789.35 284.426 785.854C283.028 782.306 282.329 779.581 282.329 777.678C282.329 775.776 282.64 774.13 283.261 772.742C284.711 769.554 288.127 766.649 293.511 764.027C298.894 761.353 307.073 758.011 318.048 754C319.601 757.599 320.74 760.299 321.464 762.098C314.528 764.361 310.723 767.189 310.05 770.582C309.895 771.302 309.817 772.074 309.817 772.896C309.817 775.827 310.801 779.298 312.768 783.309C331.041 765.518 341.032 755.748 342.74 754C347.347 757.034 351.255 759.939 354.465 762.715C357.726 765.441 361.634 767.934 366.19 770.197L381.719 754C387.931 757.342 394.169 760.684 400.433 764.027C406.696 767.317 413.219 770.145 420 772.511C411.666 778.167 407.266 787.756 406.8 801.279L405.946 829.971C405.946 830.536 405.946 831.102 405.946 831.668C405.946 839.997 408.922 845.062 414.875 846.862L402.529 870C395.023 867.275 389.821 863.059 386.922 857.351C384.075 851.592 382.651 843.648 382.651 833.519C382.651 832.799 382.651 832.079 382.651 831.359L382.806 811.923C382.806 807.244 383.661 803.156 385.369 799.66C387.077 796.163 389.303 792.641 392.047 789.093C381.642 781.535 373.851 777.447 368.674 776.83C366.707 779.761 365.698 783.231 365.646 787.242C365.646 791.253 365.543 795.932 365.336 801.279L364.481 829.971C364.481 830.536 364.481 831.102 364.481 831.668C364.481 840.974 366.94 846.425 371.858 848.019L353.688 870C350.893 866.504 347.735 863.187 344.215 860.051C340.695 856.914 337.382 854.035 334.276 851.412C335.829 849.613 337.356 846.785 338.857 842.928C340.359 839.072 341.135 835.215 341.187 831.359L343.905 783.617C339.401 780.275 335.907 778.604 333.422 778.604C332.801 778.604 332.231 778.707 331.714 778.912C329.281 779.992 324.337 784.105 316.883 791.253L317.892 793.027C321.775 800.225 323.716 806.19 323.716 810.92C323.716 812.206 323.561 813.414 323.25 814.545C321.852 819.738 316.935 827.785 308.497 838.686C313.363 842.183 320.144 844.908 328.841 846.862Z" fill="black"/>
<path d="M328.841 962.862L315.874 986C300.913 978.493 288.955 972.426 280 967.798C291.492 957.154 297.885 949.673 299.179 945.354C299.386 944.582 299.49 943.683 299.49 942.654C299.49 937.77 297.341 930.622 293.045 921.213C288.748 911.803 285.875 905.35 284.426 901.854C283.028 898.306 282.329 895.581 282.329 893.678C282.329 891.776 282.64 890.13 283.261 888.742C284.711 885.554 288.127 882.649 293.511 880.027C298.894 877.353 307.073 874.011 318.048 870C319.601 873.599 320.74 876.299 321.464 878.098C314.528 880.361 310.723 883.189 310.05 886.582C309.895 887.302 309.817 888.074 309.817 888.896C309.817 891.827 310.801 895.298 312.768 899.309C331.041 881.518 341.032 871.748 342.74 870C347.347 873.034 351.255 875.939 354.465 878.715C357.726 881.441 361.634 883.934 366.19 886.197L381.719 870C387.931 873.342 394.169 876.684 400.433 880.027C406.696 883.317 413.219 886.145 420 888.511C411.666 894.167 407.266 903.756 406.8 917.279L405.946 945.971C405.946 946.536 405.946 947.102 405.946 947.668C405.946 955.997 408.922 961.062 414.875 962.862L402.529 986C395.023 983.275 389.821 979.059 386.922 973.351C384.075 967.592 382.651 959.648 382.651 949.519C382.651 948.799 382.651 948.079 382.651 947.359L382.806 927.923C382.806 923.244 383.661 919.156 385.369 915.66C387.077 912.163 389.303 908.641 392.047 905.093C381.642 897.535 373.851 893.447 368.674 892.83C366.707 895.761 365.698 899.231 365.646 903.242C365.646 907.253 365.543 911.932 365.336 917.279L364.481 945.971C364.481 946.536 364.481 947.102 364.481 947.668C364.481 956.974 366.94 962.425 371.858 964.019L353.688 986C350.893 982.504 347.735 979.187 344.215 976.051C340.695 972.914 337.382 970.035 334.276 967.412C335.829 965.613 337.356 962.785 338.857 958.928C340.359 955.072 341.135 951.215 341.187 947.359L343.905 899.617C339.401 896.275 335.907 894.604 333.422 894.604C332.801 894.604 332.231 894.707 331.714 894.912C329.281 895.992 324.337 900.105 316.883 907.253L317.892 909.027C321.775 916.225 323.716 922.19 323.716 926.92C323.716 928.206 323.561 929.414 323.25 930.545C321.852 935.738 316.935 943.785 308.497 954.686C313.363 958.183 320.144 960.908 328.841 962.862Z" fill="black"/>
<path d="M188.841 92.8617L175.874 116C160.913 108.493 148.955 102.426 140 97.7979C151.492 87.1543 157.885 79.6729 159.179 75.3537C159.386 74.5824 159.49 73.6826 159.49 72.6543C159.49 67.7695 157.341 60.6223 153.045 51.2128C148.748 41.8032 145.875 35.3502 144.426 31.8537C143.028 28.3059 142.329 25.5807 142.329 23.6782C142.329 21.7757 142.64 20.1303 143.261 18.742C144.711 15.5541 148.127 12.6489 153.511 10.0266C158.894 7.35284 167.073 4.01064 178.048 0C179.601 3.59929 180.74 6.29876 181.464 8.0984C174.528 10.3608 170.723 13.1888 170.05 16.5824C169.895 17.3023 169.817 18.0736 169.817 18.8963C169.817 21.8271 170.801 25.2979 172.768 29.3085C191.041 11.5177 201.032 1.74823 202.74 0C207.347 3.03369 211.255 5.93883 214.465 8.71543C217.726 11.4406 221.634 13.9344 226.19 16.1968L241.719 0C247.931 3.3422 254.169 6.6844 260.433 10.0266C266.696 13.3174 273.219 16.1454 280 18.5106C271.666 24.1667 267.266 33.7562 266.8 47.2793L265.946 75.9707C265.946 76.5363 265.946 77.1019 265.946 77.6676C265.946 85.9973 268.922 91.0621 274.875 92.8617L262.529 116C255.023 113.275 249.821 109.059 246.922 103.351C244.075 97.5922 242.651 89.648 242.651 79.5186C242.651 78.7988 242.651 78.0789 242.651 77.359L242.806 57.9229C242.806 53.2438 243.661 49.156 245.369 45.6596C247.077 42.1631 249.303 38.641 252.047 35.0931C241.642 27.5346 233.851 23.4468 228.674 22.8298C226.707 25.7606 225.698 29.2314 225.646 33.242C225.646 37.2527 225.543 41.9317 225.336 47.2793L224.481 75.9707C224.481 76.5363 224.481 77.1019 224.481 77.6676C224.481 86.9743 226.94 92.4246 231.858 94.0186L213.688 116C210.893 112.504 207.735 109.187 204.215 106.051C200.695 102.914 197.382 100.035 194.276 97.4122C195.829 95.6126 197.356 92.7846 198.857 88.9282C200.359 85.0718 201.135 81.2154 201.187 77.359L203.905 29.617C199.401 26.2748 195.907 24.6037 193.422 24.6037C192.801 24.6037 192.231 24.7066 191.714 24.9122C189.281 25.992 184.337 30.1055 176.883 37.2527L177.892 39.0266C181.775 46.2252 183.716 52.1897 183.716 56.9202C183.716 58.2057 183.561 59.414 183.25 60.5452C181.852 65.7385 176.935 73.7855 168.497 84.6862C173.363 88.1826 180.144 90.9078 188.841 92.8617Z" fill="black"/>
<path d="M188.841 324.856L175.874 347.994C160.913 340.487 148.955 334.42 140 329.792C151.492 319.148 157.885 311.667 159.179 307.348C159.386 306.577 159.49 305.677 159.49 304.648C159.49 299.764 157.341 292.616 153.045 283.207C148.748 273.797 145.875 267.344 144.426 263.848C143.028 260.3 142.329 257.575 142.329 255.672C142.329 253.77 142.64 252.124 143.261 250.736C144.711 247.548 148.127 244.643 153.511 242.021C158.894 239.347 167.073 236.005 178.048 231.994C179.601 235.593 180.74 238.293 181.464 240.093C174.528 242.355 170.723 245.183 170.05 248.577C169.895 249.296 169.817 250.068 169.817 250.89C169.817 253.821 170.801 257.292 172.768 261.303C191.041 243.512 201.032 233.742 202.74 231.994C207.347 235.028 211.255 237.933 214.465 240.71C217.726 243.435 221.634 245.929 226.19 248.191L241.719 231.994C247.931 235.336 254.169 238.679 260.433 242.021C266.696 245.312 273.219 248.14 280 250.505C271.666 256.161 267.266 265.75 266.8 279.273L265.946 307.965C265.946 308.53 265.946 309.096 265.946 309.662C265.946 317.991 268.922 323.056 274.875 324.856L262.529 347.994C255.023 345.269 249.821 341.053 246.922 335.345C244.075 329.586 242.651 321.642 242.651 311.513C242.651 310.793 242.651 310.073 242.651 309.353L242.806 289.917C242.806 285.238 243.661 281.15 245.369 277.654C247.077 274.157 249.303 270.635 252.047 267.087C241.642 259.529 233.851 255.441 228.674 254.824C226.707 257.755 225.698 261.226 225.646 265.236C225.646 269.247 225.543 273.926 225.336 279.273L224.481 307.965C224.481 308.53 224.481 309.096 224.481 309.662C224.481 318.968 226.94 324.419 231.858 326.013L213.688 347.994C210.893 344.498 207.735 341.181 204.215 338.045C200.695 334.908 197.382 332.029 194.276 329.406C195.829 327.607 197.356 324.779 198.857 320.922C200.359 317.066 201.135 313.21 201.187 309.353L203.905 261.611C199.401 258.269 195.907 256.598 193.422 256.598C192.801 256.598 192.231 256.701 191.714 256.906C189.281 257.986 184.337 262.1 176.883 269.247L177.892 271.021C181.775 278.219 183.716 284.184 183.716 288.914C183.716 290.2 183.561 291.408 183.25 292.539C181.852 297.733 176.935 305.78 168.497 316.68C173.363 320.177 180.144 322.902 188.841 324.856Z" fill="black"/>
<path d="M188.841 556.856L175.874 579.994C160.913 572.487 148.955 566.42 140 561.792C151.492 551.148 157.885 543.667 159.179 539.348C159.386 538.577 159.49 537.677 159.49 536.648C159.49 531.764 157.341 524.616 153.045 515.207C148.748 505.797 145.875 499.344 144.426 495.848C143.028 492.3 142.329 489.575 142.329 487.672C142.329 485.77 142.64 484.124 143.261 482.736C144.711 479.548 148.127 476.643 153.511 474.021C158.894 471.347 167.073 468.005 178.048 463.994C179.601 467.593 180.74 470.293 181.464 472.093C174.528 474.355 170.723 477.183 170.05 480.577C169.895 481.296 169.817 482.068 169.817 482.89C169.817 485.821 170.801 489.292 172.768 493.303C191.041 475.512 201.032 465.742 202.74 463.994C207.347 467.028 211.255 469.933 214.465 472.71C217.726 475.435 221.634 477.929 226.19 480.191L241.719 463.994C247.931 467.336 254.169 470.679 260.433 474.021C266.696 477.312 273.219 480.14 280 482.505C271.666 488.161 267.266 497.75 266.8 511.273L265.946 539.965C265.946 540.53 265.946 541.096 265.946 541.662C265.946 549.991 268.922 555.056 274.875 556.856L262.529 579.994C255.023 577.269 249.821 573.053 246.922 567.345C244.075 561.586 242.651 553.642 242.651 543.513C242.651 542.793 242.651 542.073 242.651 541.353L242.806 521.917C242.806 517.238 243.661 513.15 245.369 509.654C247.077 506.157 249.303 502.635 252.047 499.087C241.642 491.529 233.851 487.441 228.674 486.824C226.707 489.755 225.698 493.226 225.646 497.236C225.646 501.247 225.543 505.926 225.336 511.273L224.481 539.965C224.481 540.53 224.481 541.096 224.481 541.662C224.481 550.968 226.94 556.419 231.858 558.013L213.688 579.994C210.893 576.498 207.735 573.181 204.215 570.045C200.695 566.908 197.382 564.029 194.276 561.406C195.829 559.607 197.356 556.779 198.857 552.922C200.359 549.066 201.135 545.21 201.187 541.353L203.905 493.611C199.401 490.269 195.907 488.598 193.422 488.598C192.801 488.598 192.231 488.701 191.714 488.906C189.281 489.986 184.337 494.1 176.883 501.247L177.892 503.021C181.775 510.219 183.716 516.184 183.716 520.914C183.716 522.2 183.561 523.408 183.25 524.539C181.852 529.733 176.935 537.78 168.497 548.68C173.363 552.177 180.144 554.902 188.841 556.856Z" fill="black"/>
<path d="M328.841 150.862L315.874 174C300.913 166.493 288.955 160.426 280 155.798C291.492 145.154 297.885 137.673 299.179 133.354C299.386 132.582 299.49 131.683 299.49 130.654C299.49 125.77 297.341 118.622 293.045 109.213C288.748 99.8032 285.875 93.3502 284.426 89.8537C283.028 86.3059 282.329 83.5807 282.329 81.6782C282.329 79.7757 282.64 78.1303 283.261 76.742C284.711 73.5541 288.127 70.6489 293.511 68.0266C298.894 65.3528 307.073 62.0106 318.048 58C319.601 61.5993 320.74 64.2988 321.464 66.0984C314.528 68.3608 310.723 71.1888 310.05 74.5824C309.895 75.3023 309.817 76.0736 309.817 76.8963C309.817 79.8271 310.801 83.2979 312.768 87.3085C331.041 69.5177 341.032 59.7482 342.74 58C347.347 61.0337 351.255 63.9388 354.465 66.7154C357.726 69.4406 361.634 71.9344 366.19 74.1968L381.719 58C387.931 61.3422 394.169 64.6844 400.433 68.0266C406.696 71.3174 413.219 74.1454 420 76.5106C411.666 82.1667 407.266 91.7562 406.8 105.279L405.946 133.971C405.946 134.536 405.946 135.102 405.946 135.668C405.946 143.997 408.922 149.062 414.875 150.862L402.529 174C395.023 171.275 389.821 167.059 386.922 161.351C384.075 155.592 382.651 147.648 382.651 137.519C382.651 136.799 382.651 136.079 382.651 135.359L382.806 115.923C382.806 111.244 383.661 107.156 385.369 103.66C387.077 100.163 389.303 96.641 392.047 93.0931C381.642 85.5346 373.851 81.4468 368.674 80.8298C366.707 83.7606 365.698 87.2314 365.646 91.242C365.646 95.2527 365.543 99.9317 365.336 105.279L364.481 133.971C364.481 134.536 364.481 135.102 364.481 135.668C364.481 144.974 366.94 150.425 371.858 152.019L353.688 174C350.893 170.504 347.735 167.187 344.215 164.051C340.695 160.914 337.382 158.035 334.276 155.412C335.829 153.613 337.356 150.785 338.857 146.928C340.359 143.072 341.135 139.215 341.187 135.359L343.905 87.617C339.401 84.2748 335.907 82.6037 333.422 82.6037C332.801 82.6037 332.231 82.7066 331.714 82.9122C329.281 83.992 324.337 88.1055 316.883 95.2527L317.892 97.0266C321.775 104.225 323.716 110.19 323.716 114.92C323.716 116.206 323.561 117.414 323.25 118.545C321.852 123.738 316.935 131.785 308.497 142.686C313.363 146.183 320.144 148.908 328.841 150.862Z" fill="black"/>
<path d="M328.841 382.856L315.874 405.994C300.913 398.487 288.955 392.42 280 387.792C291.492 377.148 297.885 369.667 299.179 365.348C299.386 364.577 299.49 363.677 299.49 362.648C299.49 357.764 297.341 350.616 293.045 341.207C288.748 331.797 285.875 325.344 284.426 321.848C283.028 318.3 282.329 315.575 282.329 313.672C282.329 311.77 282.64 310.124 283.261 308.736C284.711 305.548 288.127 302.643 293.511 300.021C298.894 297.347 307.073 294.005 318.048 289.994C319.601 293.593 320.74 296.293 321.464 298.093C314.528 300.355 310.723 303.183 310.05 306.577C309.895 307.296 309.817 308.068 309.817 308.89C309.817 311.821 310.801 315.292 312.768 319.303C331.041 301.512 341.032 291.742 342.74 289.994C347.347 293.028 351.255 295.933 354.465 298.71C357.726 301.435 361.634 303.929 366.19 306.191L381.719 289.994C387.931 293.336 394.169 296.679 400.433 300.021C406.696 303.312 413.219 306.14 420 308.505C411.666 314.161 407.266 323.75 406.8 337.273L405.946 365.965C405.946 366.53 405.946 367.096 405.946 367.662C405.946 375.991 408.922 381.056 414.875 382.856L402.529 405.994C395.023 403.269 389.821 399.053 386.922 393.345C384.075 387.586 382.651 379.642 382.651 369.513C382.651 368.793 382.651 368.073 382.651 367.353L382.806 347.917C382.806 343.238 383.661 339.15 385.369 335.654C387.077 332.157 389.303 328.635 392.047 325.087C381.642 317.529 373.851 313.441 368.674 312.824C366.707 315.755 365.698 319.226 365.646 323.236C365.646 327.247 365.543 331.926 365.336 337.273L364.481 365.965C364.481 366.53 364.481 367.096 364.481 367.662C364.481 376.968 366.94 382.419 371.858 384.013L353.688 405.994C350.893 402.498 347.735 399.181 344.215 396.045C340.695 392.908 337.382 390.029 334.276 387.406C335.829 385.607 337.356 382.779 338.857 378.922C340.359 375.066 341.135 371.21 341.187 367.353L343.905 319.611C339.401 316.269 335.907 314.598 333.422 314.598C332.801 314.598 332.231 314.701 331.714 314.906C329.281 315.986 324.337 320.1 316.883 327.247L317.892 329.021C321.775 336.219 323.716 342.184 323.716 346.914C323.716 348.2 323.561 349.408 323.25 350.539C321.852 355.733 316.935 363.78 308.497 374.68C313.363 378.177 320.144 380.902 328.841 382.856Z" fill="black"/>
<path d="M328.841 614.856L315.874 637.994C300.913 630.487 288.955 624.42 280 619.792C291.492 609.148 297.885 601.667 299.179 597.348C299.386 596.577 299.49 595.677 299.49 594.648C299.49 589.764 297.341 582.616 293.045 573.207C288.748 563.797 285.875 557.344 284.426 553.848C283.028 550.3 282.329 547.575 282.329 545.672C282.329 543.77 282.64 542.124 283.261 540.736C284.711 537.548 288.127 534.643 293.511 532.021C298.894 529.347 307.073 526.005 318.048 521.994C319.601 525.593 320.74 528.293 321.464 530.093C314.528 532.355 310.723 535.183 310.05 538.577C309.895 539.296 309.817 540.068 309.817 540.89C309.817 543.821 310.801 547.292 312.768 551.303C331.041 533.512 341.032 523.742 342.74 521.994C347.347 525.028 351.255 527.933 354.465 530.71C357.726 533.435 361.634 535.929 366.19 538.191L381.719 521.994C387.931 525.336 394.169 528.679 400.433 532.021C406.696 535.312 413.219 538.14 420 540.505C411.666 546.161 407.266 555.75 406.8 569.273L405.946 597.965C405.946 598.53 405.946 599.096 405.946 599.662C405.946 607.991 408.922 613.056 414.875 614.856L402.529 637.994C395.023 635.269 389.821 631.053 386.922 625.345C384.075 619.586 382.651 611.642 382.651 601.513C382.651 600.793 382.651 600.073 382.651 599.353L382.806 579.917C382.806 575.238 383.661 571.15 385.369 567.654C387.077 564.157 389.303 560.635 392.047 557.087C381.642 549.529 373.851 545.441 368.674 544.824C366.707 547.755 365.698 551.226 365.646 555.236C365.646 559.247 365.543 563.926 365.336 569.273L364.481 597.965C364.481 598.53 364.481 599.096 364.481 599.662C364.481 608.968 366.94 614.419 371.858 616.013L353.688 637.994C350.893 634.498 347.735 631.181 344.215 628.045C340.695 624.908 337.382 622.029 334.276 619.406C335.829 617.607 337.356 614.779 338.857 610.922C340.359 607.066 341.135 603.21 341.187 599.353L343.905 551.611C339.401 548.269 335.907 546.598 333.422 546.598C332.801 546.598 332.231 546.701 331.714 546.906C329.281 547.986 324.337 552.1 316.883 559.247L317.892 561.021C321.775 568.219 323.716 574.184 323.716 578.914C323.716 580.2 323.561 581.408 323.25 582.539C321.852 587.733 316.935 595.78 308.497 606.68C313.363 610.177 320.144 612.902 328.841 614.856Z" fill="black"/>
</svg>
