<?xml version="1.0" encoding="utf-8"?>
<!-- Generator: Adobe Illustrator 25.2.0, SVG Export Plug-In . SVG Version: 6.00 Build 0)  -->
<svg version="1.1" id="Layer_1" xmlns="http://www.w3.org/2000/svg" xmlns:xlink="http://www.w3.org/1999/xlink" x="0px" y="0px"
	 viewBox="0 0 458.7 458.7" style="enable-background:new 0 0 458.7 458.7;" xml:space="preserve">
<style type="text/css">
	.st0{fill:#FFFFFF;}
</style>
<path class="st0" d="M455.7,93.5h-88.4h-3v3v9.6v3h3h6.1c7.1,0,13.6,3.7,17.2,9.8c3.6,6.1,3.8,13.6,0.4,19.8l-98.3,180.4L248,212.4
	l42.2-77.4c8.7-16,25.5-26,43.7-26h2h3v-3v-9.6v-3h-3h-88.4h-3v3v9.6v3h3h6.1c7.1,0,13.6,3.7,17.2,9.8c3.6,6.1,3.8,13.6,0.4,19.8
	l-30.6,56.1l-27.3-65c-2-4.7-1.5-9.9,1.3-14.1s7.4-6.7,12.5-6.7h7h3v-3v-9.6v-3h-3H128.5h-3v3v9.6v3h3h1.5
	c20.9,0,39.5,12.4,47.6,31.7l40.3,96l-44.9,82.4L93.5,129.9c-2-4.7-1.5-9.9,1.3-14.1s7.4-6.7,12.5-6.7h10.7h3v-3v-9.6v-3h-3H3H0v3
	v9.6v3h3h7.1c20.9,0,39.5,12.4,47.6,31.7L149.2,359c1.6,3.8,5.3,6.3,9.5,6.3c3.8,0,7.2-2,9-5.3l11.9-21.9l45.6-83.6L269.1,359
	c1.6,3.8,5.3,6.3,9.5,6.3c3.8,0,7.2-2,9-5.3l11.9-21.9L410,135.1c8.7-16,25.5-26,43.7-26h2h3v-3v-9.6v-3L455.7,93.5L455.7,93.5
	L455.7,93.5z"/>
</svg>
