<?xml version="1.0" encoding="utf-8"?>
<!-- Generator: Adobe Illustrator 25.2.0, SVG Export Plug-In . SVG Version: 6.00 Build 0)  -->
<svg version="1.1" id="Layer_1" xmlns="http://www.w3.org/2000/svg" xmlns:xlink="http://www.w3.org/1999/xlink" x="0px" y="0px"
	 viewBox="0 0 354.3 354.3" style="enable-background:new 0 0 354.3 354.3;" xml:space="preserve">
<style type="text/css">
	.st0{fill:#FFFFFF;}
</style>
<g>
	<path class="st0" d="M122.9,239.4c-33.5-14.1-68.2-28.7-96.6-50.7C16.2,180.8,7.4,172.4,0,163.4v105.7c2.6-0.3,5.3-0.5,8.1-0.5
		c34.9,0,63.1,28.3,63.1,63.1c0,8-1.5,15.5-4.2,22.6h109.4c10-3.2,19.1-7.6,25.9-13.7c5.7-5.2,12.3-13.5,12.3-32.3
		C214.6,281,185.3,265.6,122.9,239.4z"/>
	<path class="st0" d="M317.6,0h-37.3c1.7,1.7,3.2,3.3,4.5,4.7c14.3,11.6,23.4,29.2,23.4,49c0,34.9-28.3,63.1-63.1,63.1
		c-34.9,0-63.1-28.3-63.1-63.1c0-5.4,0.7-10.7,2-15.7c-15.2-10.1-32.8-18.3-49-18.3c-13.3,0-34.8,3.9-51.8,14.9
		C67.2,44.9,60,58.1,60,77.4c0,33.3,31.4,50.2,98.1,78.3c32.1,13.5,65.3,27.5,92.2,47.9c36.6,27.8,55.1,63,55.1,104.7
		c0,16.4-2.4,31.8-7.1,46h19.3c20.2,0,36.6-16.4,36.6-36.6v-281C354.3,16.4,337.9,0,317.6,0z"/>
</g>
</svg>
