<?xml version="1.0" encoding="utf-8"?>
<!-- Generator: Adobe Illustrator 25.2.0, SVG Export Plug-In . SVG Version: 6.00 Build 0)  -->
<svg version="1.1" id="Layer_1" xmlns="http://www.w3.org/2000/svg" xmlns:xlink="http://www.w3.org/1999/xlink" x="0px" y="0px"
	 viewBox="0 0 396 396" style="enable-background:new 0 0 396 396;" xml:space="preserve">
<style type="text/css">
	.st0{fill:#FFFFFF;}
</style>
<path class="st0" d="M322.3,39.5C288.3,14,243.5,0,196.2,0C149,0,104.6,14.3,71.3,40.4C36.3,67.8,17,105,17,145
	c0,37.1,5.9,65.8,34.5,98.8c3.4,4,9.5,4.3,13.3,0.7l28.2-26.8c3.5-3.4,3.8-8.9,0.7-12.6c-17.4-20.5-19.5-35.5-19.5-60.1
	c0-48.4,54.7-87.8,122-87.8c35,0,67.7,10,91.9,28.1c21.7,16.2,33.7,37.1,33.7,58.6c0,20.7-4.6,49-26.4,66.5
	c-20.5,16.5-53.3,20.9-92.4,12.4v-105c0-5.1-4.1-9.2-9.2-9.2H153c-5.1,0-9.2,4.1-9.2,9.2V332c-0.3,2.2-1.6,3.5-2.2,3.9
	c-1.6,1.2-2.9,1-3.4,0.9l-33.8-6.9c-5-1-9.8,2.2-10.8,7.2l-8.1,39.9c-1,5,2.2,9.8,7.2,10.8l33.8,6.9c4.2,0.8,8.4,1.3,12.5,1.3
	c13.9,0,27.5-4.6,38.8-13.3c15-11.6,24.2-29,25.2-48l0-0.8v-52.8c12.6,2.1,24.8,3.2,36.5,3.2c36.1,0,67.7-9.9,91.7-29.2
	c31.3-25.1,47.8-63.5,47.8-111.1C378.9,103.9,358.8,66.8,322.3,39.5z"/>
</svg>
