<?xml version="1.0" encoding="utf-8"?>
<!-- Generator: Adobe Illustrator 25.2.0, SVG Export Plug-In . SVG Version: 6.00 Build 0)  -->
<svg version="1.1" id="Layer_1" xmlns="http://www.w3.org/2000/svg" xmlns:xlink="http://www.w3.org/1999/xlink" x="0px" y="0px"
	 viewBox="0 0 347.1 347.1" style="enable-background:new 0 0 347.1 347.1;" xml:space="preserve">
<style type="text/css">
	.st0{fill:#FFFFFF;}
</style>
<path class="st0" d="M226.9,173.5l69.4-92.2c16.9-22.4,12.4-54.2-10-71.1c-22.4-16.9-54.2-12.4-71.1,10L142,117.5V50.8
	C142,22.7,119.3,0,91.3,0S40.5,22.7,40.5,50.8v245.5c0,28,22.7,50.8,50.8,50.8s50.8-22.7,50.8-50.8v-66.7l73.2,97.2
	c10,13.3,25.2,20.2,40.6,20.2c10.6,0,21.3-3.3,30.5-10.2c22.4-16.9,26.9-48.7,10-71.1L226.9,173.5z"/>
</svg>
