<?xml version="1.0" encoding="utf-8"?>
<!-- Generator: Adobe Illustrator 25.2.3, SVG Export Plug-In . SVG Version: 6.00 Build 0)  -->
<svg version="1.1" id="Layer_1" xmlns="http://www.w3.org/2000/svg" xmlns:xlink="http://www.w3.org/1999/xlink" x="0px" y="0px"
	 viewBox="0 0 551 551" style="enable-background:new 0 0 551 551;" xml:space="preserve">
<style type="text/css">
	.st0{fill:#FFFFFF;}
</style>
<g>
	<path class="st0" d="M369.5,43H181.6C105.1,43,43,105.1,43,181.6v187.9C43,445.9,105.1,508,181.6,508h187.9
		c76.4,0,138.6-62.1,138.6-138.6V181.6C508,105.1,445.9,43,369.5,43z M461.3,369.5c0,50.6-41.1,91.7-91.7,91.7H181.6
		c-50.6,0-91.7-41.1-91.7-91.7V181.6c0-50.6,41.1-91.7,91.7-91.7h187.9c50.6,0,91.7,41.1,91.7,91.7L461.3,369.5L461.3,369.5z"/>
	<path class="st0" d="M275.5,155.2c-66.3,0-120.3,53.9-120.3,120.3s53.9,120.3,120.3,120.3s120.3-53.9,120.3-120.3
		S341.8,155.2,275.5,155.2z M275.5,349c-40.6,0-73.5-32.9-73.5-73.5s32.9-73.5,73.5-73.5s73.5,32.9,73.5,73.5S316.1,349,275.5,349z"
		/>
	<circle class="st0" cx="396" cy="156.2" r="28.8"/>
</g>
</svg>
