<?xml version="1.0" encoding="utf-8"?>
<!-- Generator: Adobe Illustrator 25.2.0, SVG Export Plug-In . SVG Version: 6.00 Build 0)  -->
<svg version="1.1" id="Layer_1" xmlns="http://www.w3.org/2000/svg" xmlns:xlink="http://www.w3.org/1999/xlink" x="0px" y="0px"
	 viewBox="0 0 439.6 439.6" style="enable-background:new 0 0 439.6 439.6;" xml:space="preserve">
<style type="text/css">
	.st0{fill:#FFFFFF;}
</style>
<path class="st0" d="M426.1,193.5v-3.8v-71H289.2h-3.3l-13.3,66.9v-55.9h-81.4v37.4h-22.7v14.9c-0.4-0.5-0.8-0.9-1.2-1.4
	c-8.2-8.9-19.5-13.5-32.5-13.5c-11.1,0-21.4,2.7-30.8,8v-56.4H0V184h16.8v66.3H0v65.4h281.9v-14.9c1.6,1.2,3.3,2.4,5.1,3.4
	c18.3,11.2,41.1,16.9,67.7,16.9c11.9,0,30.8-3.7,48.1-14.1c20.6-12.4,33-30.6,35.8-52.5C441.8,229.1,437.4,208.1,426.1,193.5z"/>
<g>
	<polygon class="st0" points="267.3,264.9 258,264.9 258,181.5 183.2,181.5 183.2,217.7 200,217.7 200,264.9 183.2,264.9 183.2,301 
		267.3,301 	"/>
	<rect x="205.9" y="144.1" class="st0" width="52.1" height="30.3"/>
	<path class="st0" d="M167.8,230.3c0,0,3.6-48.8-33-48.8c-24.3,0-38.5,16.9-45.4,28.2v-76.5H14.6v36.2h16.8v95.5H14.6V301h84.1
		v-36.2h-9.2V248c0,0-2.1-31.3,13-31.3c6,0,8.4,5.1,8.4,9.5c0,12.7,0,38.7,0,38.7h-8.4V301h76.9v-36.2h-11.6L167.8,230.3
		L167.8,230.3z"/>
</g>
<path class="st0" d="M372.8,185.3c-18.7,0-32.4,4.8-41.8,10l3.2-16.3h77.2v-45.8h-68.1H300h-2.1l-16.8,84.5l44.1,6.3
	c0,0,7.1-7.4,18.1-7.4s14.3,16.7,12.6,29.2c-1.6,12.3-8,23.1-20.6,23.5c-5.9,0.2-9.7-2.9-12.2-6.2c1.6-3.4,2.5-7.2,2.5-11.1
	c0-14.4-11.7-26.1-26.1-26.1s-25.7,11.7-26.1,26.1c-0.3,11.2,2.3,28.2,21.1,39.7c20.7,12.7,44.6,14.7,60.1,14.7
	c20.7,0,64.3-14.1,69.4-53.9C429.1,213,414,185.3,372.8,185.3z"/>
</svg>
