<?xml version="1.0" encoding="utf-8"?>
<!-- Generator: Adobe Illustrator 25.2.3, SVG Export Plug-In . SVG Version: 6.00 Build 0)  -->
<svg version="1.1" id="Layer_1" xmlns="http://www.w3.org/2000/svg" xmlns:xlink="http://www.w3.org/1999/xlink" x="0px" y="0px"
	 viewBox="0 0 408.8 408.8" style="enable-background:new 0 0 408.8 408.8;" xml:space="preserve">
<style type="text/css">
	.st0{fill:none;stroke:#FFFFFF;stroke-width:20;stroke-miterlimit:10;}
	.st1{fill:#281B1B;}
	.st2{fill:none;stroke:#FFFFFF;stroke-width:10;stroke-miterlimit:10;}
</style>
<path class="st0" d="M322.3,43H86.5C62.5,43,43,62.5,43,86.5v235.8c0,24,19.5,43.5,43.5,43.5h116.3l0.2-115.4h-30
	c-3.9,0-7-3.2-7.1-7l-0.2-37.2c0-3.9,3.2-7.1,7.1-7.1h29.9v-35.9c0-41.7,25.4-64.4,62.6-64.4h30.5c3.9,0,7.1,3.2,7.1,7.1v31.4
	c0,3.9-3.2,7.1-7.1,7.1h-18.7c-20.2,0-24.2,9.6-24.2,23.7v31.1h44.5c4.3,0,7.5,3.7,7,7.9l-4.4,37.2c-0.4,3.6-3.5,6.2-7,6.2h-39.9
	l-0.2,115.4h69.2c24,0,43.5-19.5,43.5-43.5V86.5C365.8,62.5,346.3,43,322.3,43z"/>
<g>
	<path class="st1" d="M338.2,68.3"/>
	<path class="st1" d="M143.8,68.3"/>
	<path class="st1" d="M338.2,365.9L338.2,365.9c-0.2,0-0.3,0-0.5,0H338.2z"/>
	<path class="st2" d="M293.6,250.5c3.6,0,6.6-2.7,7-6.2l4.4-37.2c0.5-4.2-2.8-7.9-7-7.9h-44.5v-31.1c0-14.1,3.9-23.7,24.2-23.7h18.7
		c3.9,0,7.1-3.2,7.1-7.1v-31.4c0-3.9-3.2-7.1-7.1-7.1H266c-37.2,0-62.6,22.7-62.6,64.4v35.9h-29.9c-3.9,0-7.1,3.2-7.1,7.1l0.2,37.2
		c0.1,3.9,3.2,7,7.1,7h30l-0.2,115.4h50.1l0.2-115.4H293.6z"/>
</g>
</svg>
