<?xml version="1.0" encoding="utf-8"?>
<!-- Generator: Adobe Illustrator 25.2.3, SVG Export Plug-In . SVG Version: 6.00 Build 0)  -->
<svg version="1.1" xmlns="http://www.w3.org/2000/svg" xmlns:xlink="http://www.w3.org/1999/xlink" x="0px" y="0px"
	 viewBox="0 0 461 461" style="enable-background:new 0 0 461 461;" xml:space="preserve">
<style type="text/css">
	.st0{fill:#FFFFFF;stroke:#FFFFFF;stroke-width:6;stroke-miterlimit:10;}
</style>
<g id="Layer_1">
</g>
<g id="Capa_1">
	<g>
		<g>
			<path class="st0" d="M291.6,289.8c39.3-61.6,34.3-53.9,35.5-55.5c14.3-20.2,21.9-43.9,21.9-68.6C348.9,100,295.7,46,230,46
				c-65.5,0-118.9,53.9-118.9,119.6c0,24.7,7.7,49.1,22.5,69.5l34.8,54.7c-37.2,5.7-100.6,22.8-100.6,60.3
				c0,13.7,8.9,33.2,51.5,48.4c29.7,10.6,69,16.5,110.7,16.5c77.9,0,162.2-22,162.2-64.9C392.2,312.6,328.9,295.5,291.6,289.8z
				 M151.6,223.3c-0.1-0.2-0.2-0.4-0.4-0.5c-12.3-16.9-18.5-36.9-18.5-57.1c0-54.1,43.5-98,97.3-98c53.6,0,97.3,44,97.3,98
				c0,20.2-6.1,39.5-17.8,56c-1,1.4,4.4-7.1-79.5,124.6L151.6,223.3z M230,393.4c-85,0-140.5-25-140.5-43.2
				c0-12.3,28.5-32.4,91.7-40.3l39.7,62.3c2,3.1,5.4,5,9.1,5c3.7,0,7.1-1.9,9.1-5l39.7-62.3c63.2,7.9,91.7,28,91.7,40.3
				C370.5,368.2,315.5,393.4,230,393.4z"/>
		</g>
	</g>
	<g>
		<g>
			<path class="st0" d="M230,111.6c-29.8,0-54.1,24.2-54.1,54.1s24.2,54.1,54.1,54.1s54.1-24.2,54.1-54.1S259.8,111.6,230,111.6z
				 M230,198.1c-17.9,0-32.4-14.5-32.4-32.4s14.5-32.4,32.4-32.4s32.4,14.5,32.4,32.4S247.9,198.1,230,198.1z"/>
		</g>
	</g>
</g>
</svg>
