<svg height="512pt" viewBox="0 -55 512.00151 512" width="512pt" xmlns="http://www.w3.org/2000/svg"><path d="m178.28125 206.398438-141.554688-15.488282s-9.027343 128.457032 174.753907 128.457032 174.753906-128.457032 174.753906-128.457032l-141.554687 15.488282c-22.066407 2.414062-44.332032 2.414062-66.398438 0zm0 0" fill="#ff899f"/><path d="m234.507812 207.335938c-18.734374 1.421874-37.539062 1.109374-56.226562-.9375l-141.554688-15.488282s-7.21875 102.886719 122.992188 124.503906c-16.457031-31.382812-2.640625-72.449218 33.113281-85.96875 27.125-10.257812 41.675781-22.109374 41.675781-22.109374zm0 0" fill="#ff5f7f"/><path d="m392.410156 205.9375c21.410156-3.207031 30.582032-29.109375 15.738282-44.863281-41.566407-44.109375-63.28125-104.476563-119.328126-104.476563-26.324218 0-46.300781 6.347656-61.0625 14.40625-10.148437 5.535156-22.40625 5.535156-32.554687 0-14.761719-8.058594-34.738281-14.40625-61.0625-14.40625-56.046875 0-77.757813 60.367188-119.324219 104.476563-14.847656 15.753906-5.675781 41.65625 15.734375 44.863281 41.40625 6.199219 98.925781 8.183594 150.796875-13.75 19.300782-8.164062 40.96875-8.164062 60.269532 0 51.871093 21.933594 109.390624 19.953125 150.792968 13.75zm0 0" fill="#ffb3c2"/><path d="m134.140625 56.597656c-56.046875 0-77.757813 60.367188-119.324219 104.476563-14.847656 15.753906-5.675781 41.65625 15.734375 44.863281 12.316407 1.84375 26.050781 3.316406 40.644531 3.894531 19.054688-11.957031 44.484376-34.375 50.75-71.101562 8.824219-51.765625 42.550782-71.785157 52.183594-76.519531-11.296875-3.429688-24.554687-5.613282-39.988281-5.613282zm0 0" fill="#ff899f"/><path d="m376.570312 74.539062-25.695312 153.960938 112 18.695312 33.03125-197.929687zm0 0" fill="#fd5c6f"/><path d="m376.570312 74.539062-25.695312 153.960938 40.246094 6.71875c2.742187-18.160156 5.507812-36.296875 7.90625-51.59375 3.195312-20.414062 18.464844-36.824219 38.582031-41.5625 25.878906-6.09375 40.992187-24.136719 49.316406-38.976562l8.980469-53.824219zm0 0" fill="#f6334c"/><path d="m463.050781 98.457031c29.648438-21.171875 41.734375-55.074219 26.992188-75.722656-14.746094-20.652344-50.734375-20.230469-80.386719.941406s-41.738281 55.074219-26.992188 75.722657c14.742188 20.652343 50.734376 20.230468 80.386719-.941407zm0 0" fill="#ff8a98"/><path d="m474.699219 307.101562-154.464844-25.777343 11.390625-68.257813c3.105469-18.601562 20.703125-31.164062 39.304688-28.058594l87.101562 14.535157c18.601562 3.105469 31.164062 20.703125 28.058594 39.304687zm0 0" fill="#91d4f2"/><path d="m387.753906 221.320312c2.421875-14.496093 13.125-25.53125 26.457032-29.089843l-43.28125-7.222657c-18.601563-3.105468-36.199219 9.457032-39.304688 28.058594l-11.390625 68.257813 55.945313 9.335937zm0 0" fill="#59c2e8"/><path d="m454.472656 393.40625-143.136718-23.890625c-19.195313-3.203125-32.15625-21.359375-28.953126-40.554687l8.984376-53.824219c3.203124-19.195313 21.359374-32.15625 40.554687-28.953125l143.136719 23.886718c19.195312 3.207032 32.15625 21.363282 28.953125 40.554688l-8.984375 53.828125c-3.203125 19.195313-21.359375 32.15625-40.554688 28.953125zm0 0" fill="#6a829a"/><path d="m335.996094 339.269531 9.425781-56.472656c2.496094-14.957031 13.65625-26.304687 27.480469-29.773437l-40.980469-6.839844c-19.195313-3.203125-37.351563 9.757812-40.554687 28.953125l-8.984376 53.828125c-3.203124 19.191406 9.757813 37.347656 28.953126 40.554687l40.984374 6.839844c-11.953124-7.773437-18.820312-22.128906-16.324218-37.089844zm0 0" fill="#516980"/><path d="m504.039062 279.996094c-3.980468-5.574219-9.125-10.007813-15.03125-13.074219l4.480469-26.839844c2.578125-15.457031-3.753906-30.375-15.234375-39.496093l24.460938-146.5625c2.707031-13.355469.46875-25.785157-6.585938-35.664063-8.601562-12.042969-23.09375-18.574219-40.792968-18.3515625-16.699219.1953125-34.476563 6.4257815-50.054688 17.5468755-15.574219 11.121093-27.242188 25.910156-32.847656 41.640624-1.757813 4.929688-6.835938 35.527344-6.835938 35.527344-20.273437-25.316406-42.828125-45.621094-76.78125-45.621094-24.273437 0-46.023437 5.152344-64.65625 15.320313-7.941406 4.335937-17.421875 4.335937-25.363281 0-18.628906-10.167969-40.382813-15.320313-64.65625-15.320313-34.378906 0-56.261719 20.773438-73.132813 41.097657-2.648437 3.1875-2.207031 7.914062.976563 10.558593 3.1875 2.644532 7.917969 2.207032 10.5625-.976562 21.039063-25.34375 38.882813-35.683594 61.59375-35.683594 21.734375 0 41.070313 4.539063 57.46875 13.492188 12.441406 6.789062 27.296875 6.785156 39.734375 0 16.402344-8.953125 35.738281-13.492188 57.472656-13.492188 32.144532 0 51.742188 21.835938 73.414063 50.808594l-10.769531 64.515625c-10.847657 3.847656-19.851563 12.109375-24.472657 22.964844-30.566406-1.144531-58.285156-6.886719-82.457031-17.105469-21.3125-9.015625-44.792969-9.015625-66.109375 0-50.835937 21.496094-107.871094 19.066406-146.765625 13.242188-7.308594-1.097657-13.117188-5.917969-15.535156-12.898438-2.378906-6.871094-.828125-14.125 4.148437-19.40625 12.277344-13.03125 22.726563-27.25 32.835938-41.003906l.632812-.863282c2.453125-3.335937 1.734375-8.03125-1.601562-10.484374-3.335938-2.453126-8.03125-1.734376-10.484375 1.601562l-.632813.863281c-9.839843 13.390625-20.015625 27.238281-31.667969 39.601563-8.871093 9.417968-11.640624 22.351562-7.402343 34.597656 4.210937 12.171875 15.433593 21.078125 29.089843 23.058594 3.136719 17.320312 11.703126 43.757812 34.941407 66.570312 31.574219 30.992188 80.527343 46.710938 145.496093 46.710938 23.59375 0 45.296876-2.121094 64.699219-6.296875 0 0-12.167969 47.636719 33.921875 56.339843l143.136719 23.890626c29.871094 4.316406 45.703125-14.246094 49.1875-35.117188l8.984375-53.824219c1.882812-11.261719-.734375-22.578125-7.367188-31.867187zm-136.980468-102.910156 11.765625-70.480469c8.613281 10.023437 48.558593 34.15625 102.203125-13.746094l-16.761719 100.453125c-1.625-.480469-95.515625-16.152344-97.207031-16.226562zm46.941406-147.324219c12.808594-9.757813 52.59375-23.074219 69.921875-2.6875 17.328125 20.382812-5.453125 52.414062-25.246094 65.257812-13.511719 8.765625-52.808593 24.355469-69.921875 2.6875-9.539062-12.078125-9.996094-38.421875 25.246094-65.257812zm-175.304688 169.332031c.222657.097656-54.65625.097656-54.429687 0 17.550781-7.417969 36.878906-7.417969 54.429687 0zm45.273438 74.808594-5.121094 30.675781c-19.769531 4.839844-42.410156 7.292969-67.367187 7.292969-124.757813 0-156.757813-60.5-164.757813-96.320313 11.632813 1.21875 48.902344 5.40625 101.519532-4.894531 0 0 32.433593 5.050781 63.238281 5.050781 30.804687 0 63.175781-5.042969 63.175781-5.042969 15.328125 3.5625 31.585938 5.757813 48.671875 6.566407l-3.578125 21.457031c-17.785156 2.699219-32.664062 16.53125-35.78125 35.214844zm212.648438 35.492187-8.984376 53.824219c-2.519531 15.085938-16.832031 25.308594-31.921874 22.792969l-143.140626-23.890625c-15.085937-2.519532-25.308593-16.839844-22.792968-31.925782l8.984375-53.824218c2.519531-15.085938 16.832031-25.308594 31.925781-22.792969l97.730469 16.3125c4.082031.679687 7.949219-2.078125 8.632812-6.164063.683594-4.085937-2.078125-7.949218-6.164062-8.628906l-96-16.023437 4.136719-24.777344c2.417968-14.492187 16.179687-24.3125 30.671874-21.894531l87.101563 14.535156c14.492187 2.417969 24.316406 16.179688 21.898437 30.671875l-4.136718 24.773437-12.476563-2.082031c-4.089843-.683593-7.949219 2.078125-8.632812 6.164063-.683594 4.085937 2.078125 7.949218 6.164062 8.628906l14.210938 2.375c22.082031 4.308594 24.011719 24.617188 22.792969 31.925781zm0 0"/></svg>