<svg id="Capa_1" enable-background="new 0 0 512 512" height="512" viewBox="0 0 512 512" width="512" xmlns="http://www.w3.org/2000/svg"><g><path d="m346 271h-30-30l-30 30v40.137c0 7.017.172 13.517.41 19.863l29.59 30h30 30l29.59-30c.238-6.346.41-12.847.41-19.863v-40.137z" fill="#ffeb95"/><path d="m375.59 361c.238-6.346.41-12.847.41-19.863v-40.137l-30-30h-30v120h30z" fill="#ff9f00"/><path d="m451 121c-24.901 0-45 20.099-45 45v45l30 30h15 15l30-30v-45c0-24.901-20.099-45-45-45z" fill="#ffeb95"/><path d="m496 211v-45c0-24.901-20.099-45-45-45v120h15z" fill="#ff9f00"/><path d="m196 181h-30-30l-30 30v41.309c0 6.237.458 12.457.573 18.691l29.427 30h30 30l29.427-30c.115-6.235.573-12.455.573-18.691v-41.309z" fill="#ffeb95"/><path d="m225.427 271c.115-6.235.573-12.455.573-18.691v-41.309l-30-30h-30v120h30z" fill="#ff9f00"/><path d="m314.55 99.569c-22.471-47.402-85.649-99.569-148.55-99.569s-126.079 52.167-148.55 99.569c-2.725 5.742-1.538 12.554 2.944 17.036l85.606 94.395h60 60l85.605-94.395c4.483-4.482 5.67-11.293 2.945-17.036z" fill="#9b786f"/><path d="m311.606 116.605c4.482-4.482 5.669-11.294 2.944-17.036-22.471-47.402-85.649-99.569-148.55-99.569v211h60z" fill="#5a344b"/><path d="m166 271h-59.427c1.417 77.031 11.18 154.854 29.881 229.633 1.67 6.68 7.661 11.367 14.546 11.367h15 15c6.885 0 12.876-4.688 14.546-11.367 18.701-74.779 28.464-152.602 29.881-229.633z" fill="#5a5a5a"/><path d="m195.546 500.633c18.701-74.779 28.464-152.602 29.881-229.633h-59.427v241h15c6.885 0 12.876-4.687 14.546-11.367z" fill="#292929"/><path d="m464.887 9.331c-2.3-5.64-8.093-8.459-13.887-8.459s-11.587 2.82-13.887 8.459c-7.294 17.857-31.113 78.564-31.113 96.669 0 24.814 20.186 45 45 45s45-20.186 45-45c0-18.105-23.818-78.812-31.113-96.669z" fill="#9b786f"/><path d="m496 106c0-18.105-23.818-78.813-31.113-96.669-2.3-5.64-8.093-8.459-13.887-8.459v150.128c24.815 0 45-20.186 45-45z" fill="#5a344b"/><path d="m451 211h-45c0 12.299.601 301 45 301s45-288.701 45-301z" fill="#5a5a5a"/><path d="m496 211h-45v301c44.4 0 45-288.701 45-301z" fill="#292929"/><g><path d="m256.41 361c1.946 51.91 11.845 85.181 30.366 140.746 2.037 6.123 7.764 10.254 14.224 10.254h15 15c6.46 0 12.188-4.131 14.224-10.254 18.521-55.565 28.42-88.836 30.366-140.746h-59.59z" fill="#5a5a5a"/><path d="m316 181c-33.091 0-60 26.909-60 60v60h60 60v-60c0-33.091-26.909-60-60-60z" fill="#9b786f"/></g><path d="m376 241c0-33.091-26.909-60-60-60v120h60z" fill="#5a344b"/><path d="m345.224 501.746c18.521-55.565 28.42-88.836 30.366-140.746h-59.59v151h15c6.46 0 12.188-4.131 14.224-10.254z" fill="#292929"/></g></svg>