<?xml version="1.0" encoding="iso-8859-1"?>
<!-- Generator: Adobe Illustrator 19.0.0, SVG Export Plug-In . SVG Version: 6.00 Build 0)  -->
<svg xmlns="http://www.w3.org/2000/svg" xmlns:xlink="http://www.w3.org/1999/xlink" version="1.1" id="Capa_1" x="0px" y="0px" viewBox="0 0 512 512" style="enable-background:new 0 0 512 512;" xml:space="preserve" width="512" height="512">
<g>
	<path style="fill:#606572;" d="M261.049,445.316h-62.53c-71.238,0-128.987-57.749-128.987-128.987V167.752   C69.532,79.247,141.279,7.5,229.783,7.5h0c88.505,0,160.252,71.747,160.252,160.252v148.577   C390.036,387.566,332.286,445.316,261.049,445.316z"/>
	<path style="fill:#3B4254;" d="M229.784,7.5L229.784,7.5c-4.213,0-8.386,0.165-12.517,0.484   c82.655,6.386,147.735,75.476,147.735,159.768v148.577c0,71.238-57.75,128.987-128.987,128.987h25.034   c71.238,0,128.987-57.749,128.987-128.987V167.752C390.036,79.247,318.288,7.5,229.784,7.5z"/>
	<path style="fill:#F9C295;" d="M367.04,466.939H92.068l2.319-36.789c1.723-27.301,20.951-50.329,47.513-56.889l39.958-9.874   c1.977-0.486,3.358-2.253,3.358-4.286v-89.437h89.128v89.548c0,2.033,1.392,3.799,3.358,4.285l39.506,9.764   c26.562,6.56,45.79,29.588,47.513,56.889L367.04,466.939z"/>
	<path style="fill:#E8A26A;" d="M364.72,430.15c-1.723-27.301-20.951-50.329-47.513-56.889l-39.506-9.764   c-1.966-0.486-3.357-2.252-3.357-4.285v-89.548h-22.667v89.548c0,2.033,1.392,3.799,3.358,4.285l39.506,9.764   c26.562,6.56,45.79,29.588,47.513,56.889l2.319,36.789h22.667L364.72,430.15z"/>
	<path style="fill:#E8A26A;" d="M185.216,344.428c14.99,8.091,30.478,12.32,44.568,12.32c14.088,0,29.573-4.229,44.561-12.318   v-74.765h-89.128V344.428z"/>
	<path style="fill:#F9C295;" d="M344.713,222.037c-13.831,70.905-71.134,111.711-114.929,111.711   c-41.25,0-94.499-36.2-112.088-99.671c78.393-11.164,144.476-83.847,161.014-126.026   C278.71,108.051,278.71,200.934,344.713,222.037z"/>
	<path style="fill:#E8A26A;" d="M314.761,204.288c-3.718,77.558-52.68,124.532-92.183,129.09c2.434,0.236,4.841,0.37,7.205,0.37   c43.795,0,101.098-40.806,114.929-111.711C332.659,218.183,322.814,211.928,314.761,204.288z"/>
	<g>
		<path style="fill:#FEE9A1;" d="M362.956,41.849c-5.444,20.047-13.015,27.617-33.062,33.062c-4.155,1.129-4.155,7.038,0,8.166    c20.047,5.444,27.617,13.015,33.062,33.062c1.128,4.155,7.038,4.155,8.166,0c5.444-20.047,13.015-27.617,33.062-33.062    c4.155-1.128,4.155-7.038,0-8.166c-20.047-5.445-27.617-13.015-33.062-33.062C369.994,37.694,364.085,37.694,362.956,41.849z"/>
	</g>
	<g>
		<path style="fill:#FD7BA2;" d="M396.535,362.086l29.031,79.762c4.175,11.471,16.859,17.386,28.33,13.211h0    c11.471-4.175,17.386-16.859,13.211-28.33l-29.031-79.762c-1.396-3.837-5.639-5.815-9.475-4.418l-27.648,10.063    C397.116,354.008,395.138,358.25,396.535,362.086z"/>
		<path style="fill:#E9488E;" d="M467.106,426.729l-29.031-79.762c-1.396-3.837-5.638-5.815-9.475-4.418l-14.42,5.249    c2.237-0.814,5.183,1.636,6.579,5.472l29.031,79.762c3.491,9.591,2.625,19.024-1.659,23.288c1.925-0.158,3.861-0.567,5.764-1.26    l0,0C465.367,450.883,471.281,438.199,467.106,426.729z"/>
		<path style="fill:#FEE9A1;" d="M399.189,357.07l-52.309-48.342c-10.023-9.263-6.687-25.849,6.138-30.517l64.478-23.468    c12.824-4.668,26.041,5.894,24.318,19.432l-8.997,70.656L399.189,357.07z"/>
		<path style="fill:#FDCA67;" d="M417.496,254.742l-16.342,5.948c10.256-3.732,21.816,7.433,21.268,20.542l-2.86,68.422    l13.255-4.824l8.997-70.656C443.538,260.636,430.321,250.074,417.496,254.742z"/>
	</g>
	<g>
		<path style="fill:#FF7870;" d="M119.493,324.425v71.697H53.44V294.015c0-1.235,0.279-2.374,0.848-3.367    c4.105-7.097,21.824-4.53,39.59,5.728C109.15,305.193,119.493,316.82,119.493,324.425z"/>
		<path style="fill:#D7352E;" d="M97.356,298.49v97.632h22.137v-71.697C119.493,317.413,110.697,306.984,97.356,298.49z"/>
		<path style="fill:#78BAF6;" d="M119.558,396.122H53.374c-5.429,0-9.829,4.401-9.829,9.829v88.72c0,5.428,4.401,9.829,9.829,9.829    h66.184c5.428,0,9.829-4.401,9.829-9.829v-88.72C129.387,400.523,124.987,396.122,119.558,396.122z"/>
		<path style="fill:#1885DA;" d="M119.558,396.122H97.422c5.428,0,9.829,4.401,9.829,9.83v88.72c0,5.428-4.401,9.829-9.829,9.829    h22.137c5.428,0,9.829-4.401,9.829-9.829v-88.72C129.387,400.522,124.987,396.122,119.558,396.122z"/>
		<path style="fill:#FF9794;" d="M119.493,324.425c0,1.248-0.279,2.386-0.86,3.379c-4.093,7.097-21.824,4.53-39.59-5.728    C63.77,313.259,53.44,301.62,53.44,294.015c0-1.235,0.279-2.374,0.848-3.367c4.105-7.097,21.824-4.53,39.59,5.728    C109.15,305.193,119.493,316.82,119.493,324.425z"/>
	</g>
	<g>
		<path d="M378.347,370.568c-3.65-1.954-8.197-0.582-10.153,3.069c-3.177,5.929-6.852,11.573-10.954,16.881    c-9.406-11.89-22.661-20.693-38.235-24.54l-37.159-9.182v-30.938c11.613-6.821,22.658-15.738,32.439-26.41    c2.799-3.054,2.592-7.798-0.462-10.597c-3.053-2.798-7.796-2.592-10.597,0.462c-20.88,22.782-49.021,36.935-73.442,36.935    c-13.778,0-27.043-3.74-39.285-10.14c-0.978-0.971-2.223-1.669-3.614-1.985c-27.368-15.731-49.189-44.661-59.469-74.094    c42.286-8.368,76.846-32.373,98.922-51.689c18.948-16.579,35.739-36.041,47.368-54.457c6.636,39.756,25.165,77.732,62.294,92.958    c-3.295,13.794-8.456,26.804-15.378,38.752c-2.077,3.584-0.854,8.173,2.729,10.249c3.585,2.077,8.173,0.854,10.249-2.729    c7.491-12.93,13.104-26.965,16.746-41.816c3.586,0.805,7.271,1.423,11.064,1.831c4.126,0.451,7.816-2.537,8.259-6.655    s-2.537-7.816-6.655-8.259c-6.876-0.739-13.321-2.233-19.329-4.476c-0.005-0.002-0.01-0.004-0.015-0.005    c-0.853-0.319-1.696-0.652-2.531-1.001c-0.006-0.002-0.011-0.005-0.017-0.007c-23.959-10.012-38.258-31.471-46.468-56.214    c-0.042-0.126-0.084-0.252-0.126-0.379c-8.17-24.849-8.312-47.835-8.312-48.073c0-3.604-2.567-6.704-6.111-7.374    c-3.551-0.671-7.06,1.275-8.376,4.632c-17.455,44.51-83.363,111.124-155.089,121.339c-0.056,0.008-0.11,0.023-0.165,0.033    c-6.227,0.871-12.602,1.36-19.117,1.36c-4.142,0-7.5,3.357-7.5,7.5s3.358,7.5,7.5,7.5c5.03,0,10.022-0.265,14.97-0.764    c11.382,35.614,32.029,58.285,47.779,71.228c5.637,4.632,11.547,8.739,17.611,12.286v30.892l-37.623,9.293    c-4.55,1.126-8.925,2.681-13.1,4.647v-46.202c0-12.984-15.819-26.723-29.364-34.543c-9.399-5.427-19.199-9.085-27.594-10.301    c-14.456-2.09-20.139,3.683-22.251,7.335c-1.223,2.13-1.843,4.519-1.843,7.099v96.305c-5.84,2.79-9.895,8.738-9.895,15.63v35.1    c0,4.143,3.358,7.5,7.5,7.5s7.5-3.357,7.5-7.5v-7.776h70.84v61.396c0,1.285-1.045,2.33-2.33,2.33h-66.18    c-1.285,0-2.33-1.045-2.33-2.33v-23.62c0-4.143-3.358-7.5-7.5-7.5s-7.5,3.357-7.5,7.5v23.62c0,9.556,7.774,17.33,17.33,17.33    h66.18c9.556,0,17.33-7.774,17.33-17.33V474.44h230.15c2.071,0,4.05-0.856,5.468-2.366s2.147-3.539,2.018-5.605l-2.32-36.79    c-0.574-9.118-2.874-17.777-6.587-25.65c6.045-7.19,11.354-15.004,15.803-23.307C383.372,377.07,381.998,372.524,378.347,370.568z     M111.993,388.62H60.94l0.001-70.217c4.54,3.929,9.585,7.416,14.351,10.167c10.277,5.934,25.02,11.85,36.701,10.564V388.62z     M111.936,323.953c-2.985,1.089-14.234,0.236-29.143-8.373c-14.478-8.358-21.158-17.554-21.799-21.078    C73.882,289.801,110.151,313.473,111.936,323.953z M51.045,418.273V405.95c0-1.285,1.045-2.33,2.33-2.33    c71.382,0.002,65.815,0.002,66.118,0.002c0.013,0,0.026-0.002,0.039-0.002h0.024c1.285,0,2.33,1.045,2.33,2.33v12.323H51.045z     M136.885,459.44v-33.628c0-0.013,0.002-0.025,0.002-0.039s-0.002-0.025-0.002-0.039V405.95c0-6.892-4.053-12.838-9.893-15.629    v-2.555c5.115-3.309,10.714-5.744,16.701-7.226l39.961-9.87c5.335-1.318,9.061-6.077,9.061-11.571v-25.813    c12.437,5.18,25.105,7.961,37.068,7.961c12.137,0,24.743-2.762,37.061-7.89v25.852c0,5.485,3.721,10.242,9.062,11.571l39.5,9.76    c14.832,3.664,26.993,13.039,34.331,25.528c0.193,0.428,0.428,0.84,0.704,1.231c3.872,6.998,6.258,14.915,6.788,23.322    l1.817,28.818H136.885z"/>
		<path d="M69.535,265.55c4.142,0,7.5-3.357,7.5-7.5v-90.3C77.035,83.523,145.559,15,229.785,15    c40.796,0,79.153,15.891,108.006,44.744c1.016,1.015,2.013,2.051,3,3.095c-3.296,1.814-7.447,3.363-12.861,4.833    c-5.177,1.406-8.654,5.957-8.654,11.323s3.478,9.917,8.656,11.323c17.565,4.766,23.019,10.219,27.787,27.793    c1.407,5.169,5.957,8.642,11.321,8.642c3.485,0,6.619-1.472,8.779-3.919c4.455,14.461,6.716,29.5,6.716,44.916v66.8    c0,4.143,3.357,7.5,7.5,7.5s7.5-3.357,7.5-7.5v-66.8c0-22.476-4.364-44.234-12.965-64.742c4.13-6.11,10.224-9.607,21.581-12.69    c0.001-0.001,0.003-0.001,0.004-0.002c5.17-1.407,8.643-5.957,8.643-11.321s-3.473-9.914-8.648-11.323    c-17.565-4.767-23.019-10.22-27.785-27.788c-1.406-5.177-5.957-8.654-11.323-8.654s-9.917,3.478-11.323,8.656    c-1.366,5.036-2.807,8.986-4.471,12.177c-0.939-0.986-1.886-1.964-2.848-2.926C316.712,17.45,274.587,0,229.785,0    c-92.498,0-167.75,75.252-167.75,167.75v90.3C62.035,262.192,65.393,265.55,69.535,265.55z M367.044,53.458    c5.122,12.893,12.612,20.39,25.49,25.517c-9.774,3.834-17.526,9.501-23.014,20.047c-0.016,0.032-0.032,0.065-0.049,0.097    c-0.008,0.015-0.016,0.03-0.023,0.046c-0.851,1.649-1.655,3.427-2.417,5.357c-5.128-12.9-12.627-20.396-25.526-25.522    c6.613-2.615,11.612-5.762,15.632-9.766c0.027-0.026,0.051-0.055,0.077-0.082c0.035-0.037,0.069-0.073,0.104-0.11    C361.304,65.018,364.443,60.032,367.044,53.458z"/>
		<path d="M474.154,424.163l-29.031-79.762c-0.834-2.292-2.189-4.295-3.94-5.894l8.07-63.387c1.144-8.973-2.393-17.702-9.46-23.349    c-7.066-5.647-16.36-7.173-24.862-4.078l-18.625,6.779c-0.019,0.007-0.039,0.01-0.057,0.017l-27.115,9.869    c-0.018,0.006-0.034,0.016-0.052,0.022l-18.628,6.78c-8.5,3.095-14.64,10.236-16.424,19.104    c-1.783,8.869,1.118,17.829,7.762,23.969l46.926,43.368c-0.314,2.35-0.064,4.756,0.77,7.048l8.826,24.248    c0.001,0.004,0.002,0.007,0.003,0.011c0.001,0.002,0.002,0.004,0.003,0.006l20.199,55.496    c8.942,24.575,43.478,26.342,54.647,2.387C476.507,439.633,476.859,431.594,474.154,424.163z M404.846,362.992l27.445-9.989    l5,13.739l-27.445,9.989L404.846,362.992z M348.735,293.225c0.755-3.754,3.251-6.657,6.849-7.967l5.555-2.022    c0.721,6.412,3.134,13.498,6.905,19.476l8.459,13.413c1.426,2.262,3.861,3.5,6.351,3.5c1.367,0,2.752-0.374,3.994-1.157    c3.503-2.21,4.553-6.841,2.343-10.345l-8.459-13.414c-4.146-6.572-5.127-13.954-4.768-16.869l23.719-8.633    c2.149,2.002,6.143,8.288,7.191,15.988l2.142,15.712c0.561,4.104,4.359,6.979,8.444,6.419c4.104-0.56,6.978-4.341,6.419-8.444    l-2.142-15.712c-0.955-7.004-3.661-13.983-7.23-19.358c2.844-0.385,9.269-5.64,15.922-0.322c2.991,2.39,4.429,5.938,3.944,9.736    l-7.912,62.143c-0.142,0.047-0.285,0.081-0.426,0.132l-27.647,10.063c-0.141,0.051-0.273,0.118-0.412,0.173l-46.005-42.517    C349.158,300.621,347.98,296.979,348.735,293.225z M440.164,447.523c-3.535-1.648-6.217-4.575-7.551-8.241l-17.636-48.455    l27.445-9.989l17.637,48.456C464.533,441.586,451.83,452.962,440.164,447.523z"/>
	</g>
</g>















</svg>
