<svg id="Capa_1" enable-background="new 0 0 512 512" height="512" viewBox="0 0 512 512" width="512" xmlns="http://www.w3.org/2000/svg"><g><g><g><path clip-rule="evenodd" d="m258.279 379.54h85.699c30.105 0 54.509-24.385 54.509-54.465s-24.405-54.465-54.509-54.465h10.166c2.363 0 4.686.167 6.97.459.335-4.186.511-8.417.511-12.689v-91.126c.001-86.849-70.461-157.254-157.381-157.254-86.92 0-157.382 70.405-157.382 157.254v91.126c0 4.272.177 8.503.511 12.689 2.284-.292 4.607-.459 6.97-.459h10.166c-30.104.001-54.509 24.385-54.509 54.465s24.405 54.465 54.509 54.465h86.789" fill="#d1a19e" fill-rule="evenodd"/></g><g><g><g><path d="m314.316 185.857c-60.791 0-110.072-10.363-110.072-71.104 0 60.741-49.281 71.104-110.072 71.104v37.079c0 53.252 37.878 97.661 88.182 107.804v48.801h-43.79l69.314 61.117 68.963-61.117h-50.707v-48.801c50.303-10.143 88.182-54.552 88.182-107.804z" fill="#ffdcd5"/></g></g></g><g><g><g><path clip-rule="evenodd" d="m433.202 388.428h68.798v113.572h-68.798z" fill="#ffe6b4" fill-rule="evenodd"/></g></g><g><g><path clip-rule="evenodd" d="m441.119 345.179h52.964v43.249h-52.964z" fill="#faf7f5" fill-rule="evenodd"/></g></g><g><g><path clip-rule="evenodd" d="m451.104 273.626c-6.08 2.758-9.985 8.817-9.985 15.493v56.06h52.964v-91.049z" fill="#ff9eb1" fill-rule="evenodd"/></g></g></g><g><g><path d="m340.384 502v-84.211c0-21.124-17.125-38.249-38.249-38.249h-25.294l-138.181 122.46" fill="#ccf5fc"/></g></g><g><g><path d="m106.352 379.54c-21.124 0-38.249 17.125-38.249 38.249v84.211h70.557l69.218-61.343-69.314-61.117z" fill="#ccf5fc"/></g></g><g><g><g><path clip-rule="evenodd" d="m204.243 60.859c-60.791 0-110.072 49.241-110.072 109.982v15.015c60.791 0 110.072-10.363 110.072-71.104 0 60.742 49.281 71.104 110.072 71.104v-15.015c.001-60.741-49.28-109.982-110.072-109.982z" fill="#c68a86" fill-rule="evenodd"/></g></g></g></g><g><g><g><path d="m293.06 512c-4.059 0-7.798-2.554-9.291-6.322-1.54-3.883-.444-8.437 2.697-11.195 3.273-2.874 8.174-3.256 11.87-.97 3.562 2.203 5.403 6.581 4.478 10.668-1.02 4.508-5.124 7.819-9.754 7.819z"/></g></g><path d="m371.416 266.736c.14-2.803.21-5.599.21-8.356v-91.126c0-92.224-75.087-167.254-167.383-167.254-92.295 0-167.382 75.03-167.382 167.254v91.126c0 2.758.071 5.554.21 8.356-21.887 10.323-37.071 32.593-37.071 58.339 0 35.546 28.939 64.465 64.509 64.465h2.75c-5.758 7.946-9.156 17.708-9.156 28.249v84.211c0 5.523 4.477 10 10 10h179.566c5.523 0 10-4.477 10-10s-4.477-10-10-10h-82.649l115.613-102.46h21.5c15.577 0 28.249 12.672 28.249 28.249v84.211c0 5.523 4.477 10 10 10s10-4.477 10-10v-84.211c0-10.541-3.398-20.303-9.156-28.249h2.75c35.571 0 64.51-28.919 64.51-64.465.001-25.746-15.183-48.016-37.07-58.339zm-293.313 225.264v-74.211c0-15.577 12.673-28.249 28.25-28.249h28.432l57.995 51.136-57.913 51.324zm106.227-171.063c-46.447-9.365-80.159-50.581-80.159-98.001v-27.183c32.727-.708 55.308-5.035 72.385-13.765 12.156-6.214 21.397-14.751 27.688-25.542 6.29 10.791 15.532 19.327 27.687 25.542 17.077 8.73 39.658 13.058 72.385 13.765v27.183c0 47.421-33.711 88.637-80.158 98.001-4.667.941-8.023 5.042-8.023 9.803v48.801c0 5.523 4.477 10 10 10h24.346l-42.619 37.77-37.936-33.449-4.901-4.321h17.329c5.523 0 10-4.477 10-10v-48.801c0-4.761-3.357-8.863-8.024-9.803zm119.985-145.187c-29.29-.65-49.046-4.294-63.281-11.571-18.278-9.345-26.791-25.05-26.791-49.426 0-5.523-4.477-10-10-10s-10 4.477-10 10c0 24.376-8.513 40.082-26.792 49.426-14.235 7.277-33.991 10.921-63.281 11.571v-4.909c0-55.13 44.892-99.982 100.072-99.982s100.072 44.852 100.072 99.982v4.909zm39.663 193.79h-107.844v-30.906c51.562-14.161 88.182-61.561 88.182-115.699v-52.094c0-66.159-53.864-119.982-120.072-119.982s-120.073 53.824-120.073 119.982v52.094c0 54.138 36.62 101.538 88.182 115.699v30.906h-107.844c-24.542 0-44.509-19.947-44.509-44.465s19.967-44.465 44.509-44.465c5.523 0 10-4.477 10-10s-4.477-10-10-10h-7.631c-.012-.746-.018-1.49-.018-2.23v-91.126c.001-81.196 66.117-147.254 147.384-147.254s147.382 66.058 147.382 147.254v91.126c0 .74-.006 1.484-.017 2.23h-7.631c-5.523 0-10 4.477-10 10s4.477 10 10 10c24.543 0 44.51 19.947 44.51 44.465s-19.967 44.465-44.51 44.465z"/><path d="m504.083 378.646v-124.516c0-3.398-1.726-6.564-4.583-8.406-2.856-1.841-6.453-2.104-9.548-.701l-42.979 19.496c-9.631 4.369-15.854 14.025-15.854 24.601v89.526c-4.523.958-7.917 4.974-7.917 9.782v113.572c0 5.523 4.477 10 10 10h68.798c5.523 0 10-4.477 10-10v-113.572c0-4.808-3.394-8.824-7.917-9.782zm-52.964-23.467h32.963v23.249h-32.963zm0-66.059c0-2.746 1.616-5.252 4.116-6.387l28.848-13.085v65.532h-32.963v-46.06zm40.881 202.88h-48.798v-93.572h48.798z"/><g><g><g><path d="m204.244 294.979c-6.805 0-13.61-2.588-18.791-7.764-3.907-3.904-3.909-10.235-.006-14.143 3.904-3.906 10.235-3.909 14.143-.006 2.566 2.564 6.742 2.564 9.309 0 3.907-3.903 10.238-3.902 14.143.006 3.903 3.907 3.901 10.239-.006 14.143-5.182 5.177-11.987 7.764-18.792 7.764z"/></g></g></g><g><g><g><g><path d="m252.309 241.925c-.181 0-.362-.005-.544-.015-2.689-.146-5.206-1.371-6.979-3.397l-7.268-8.299c-3.639-4.155-3.22-10.473.935-14.111 4.155-3.639 10.473-3.22 14.111.935l.523.598 11.667-10.712c4.068-3.735 10.394-3.466 14.129.603 3.735 4.068 3.465 10.394-.603 14.129l-19.208 17.636c-1.85 1.698-4.265 2.633-6.763 2.633z"/></g></g></g><g><g><g><path d="m156.178 241.925c-2.498 0-4.913-.936-6.763-2.634l-19.208-17.636c-4.068-3.735-4.338-10.062-.603-14.129 3.737-4.068 10.062-4.337 14.129-.603l11.667 10.712.523-.598c3.639-4.155 9.956-4.574 14.111-.935s4.573 9.957.935 14.111l-7.268 8.299c-1.774 2.026-4.291 3.25-6.979 3.397-.181.011-.363.016-.544.016z"/></g></g></g></g></g></g></svg>