<svg id="Capa_1" enable-background="new 0 0 512 512" height="512" viewBox="0 0 512 512" width="512" xmlns="http://www.w3.org/2000/svg" xmlns:xlink="http://www.w3.org/1999/xlink"><linearGradient id="SVGID_1_" gradientUnits="userSpaceOnUse" x1="0" x2="512" y1="252.822" y2="252.822"><stop offset="0" stop-color="#d2deff" stop-opacity="0"/><stop offset="1" stop-color="#b7c5ff"/></linearGradient><g><path d="m20.337 130.334c-23.967 39.398-26.493 107.613-8.937 150.256 15.377 37.351 45.966 72.41 86.12 76.801 14.766 1.615 29.858-1.024 44.472 1.638 50.258 9.152 68.952 71.09 108.01 104.014 27.183 22.913 64.898 31.022 100.174 26.607 35.276-4.414 68.302-20.363 97.376-40.824 22.957-16.157 44.436-36.022 55.764-61.707 23.744-53.839-4.19-118.501-47.587-158.239-13.516-12.377-28.581-23.294-39.875-37.727-11.293-14.434-18.48-33.695-13.099-51.214 4.293-13.977 15.849-24.812 20.227-38.763 5.958-18.984-3.035-40.28-17.802-53.616-14.767-13.335-34.308-20.039-53.666-24.64-81.103-19.281-258.823-11.525-331.177 107.414z" fill="url(#SVGID_1_)"/><g><g><g><path d="m350.232 497.161h-188.464c-16.568 0-30-13.431-30-30v-380.678c0-16.569 13.432-30 30-30h188.464c16.569 0 30 13.431 30 30v380.678c0 16.568-13.431 30-30 30z" fill="#2626bc" opacity=".1"/><path d="m350.232 473.161h-188.464c-16.568 0-30-13.431-30-30v-380.678c0-16.569 13.432-30 30-30h188.464c16.569 0 30 13.431 30 30v380.678c0 16.568-13.431 30-30 30z" fill="#fff"/><path d="m131.77 75.392h248.46v354.86h-248.46z" fill="#fff"/><path d="m131.77 75.392h248.46v121.026h-248.46z" fill="#6583fe"/><g><g><path d="m268.024 410.722h-82.206c-5.523 0-10-4.477-10-10v-161.633c0-5.523 4.477-10 10-10h82.206c5.523 0 10 4.477 10 10v161.633c0 5.523-4.477 10-10 10z" fill="#6583fe"/><path d="m319.127 410.722h-82.206c-5.523 0-10-4.477-10-10v-161.633c0-5.523 4.477-10 10-10h82.206c5.523 0 10 4.477 10 10v161.633c0 5.523-4.477 10-10 10z" fill="#6583fe"/><g><path d="m226.921 405.722c-2.761 0-5-2.239-5-5v-161.633c0-2.761 2.239-5 5-5s5 2.239 5 5v161.632c0 2.762-2.239 5.001-5 5.001z" fill="#2626bc"/></g><path d="m380.23 239.092v161.63c0 5.52-4.48 10-10 10h-82.21c-5.52 0-10-4.48-10-10v-161.63c0-5.53 4.48-10 10-10h82.21c5.52 0 10 4.47 10 10z" fill="#6583fe"/><g><path d="m278.02 405.722c-2.761 0-5-2.239-5-5v-161.63c0-2.761 2.239-5 5-5s5 2.239 5 5v161.63c0 2.761-2.239 5-5 5z" fill="#2626bc"/></g></g><g fill="#2626bc"><path d="m205.181 243.986h-8.681c-2.761 0-5 2.239-5 5s2.239 5 5 5h8.681c2.761 0 5-2.239 5-5s-2.239-5-5-5z"/><path d="m255.862 243.986h-8.681c-2.761 0-5 2.239-5 5s2.239 5 5 5h8.681c2.761 0 5-2.239 5-5s-2.239-5-5-5z"/><g><path d="m380.23 334.902v10h-56.86c-2.76 0-5-2.24-5-5s2.24-5 5-5z"/><g><path d="m380.23 373.762v10h-56.86c-2.76 0-5-2.24-5-5s2.24-5 5-5z"/><path d="m380.23 354.332v10h-56.86c-2.76 0-5-2.24-5-5s2.24-5 5-5z"/></g></g></g></g><path d="m350.232 478.161h-188.464c-19.299 0-35-15.701-35-35v-380.678c0-19.299 15.701-35 35-35h188.464c19.299 0 35 15.701 35 35v380.678c0 19.299-15.701 35-35 35zm-188.464-440.678c-13.785 0-25 11.215-25 25v380.678c0 13.785 11.215 25 25 25h188.464c13.785 0 25-11.215 25-25v-380.678c0-13.785-11.215-25-25-25z" fill="#2626bc"/><g><path d="m273.483 59.853h-34.966c-2.761 0-5-2.239-5-5s2.239-5 5-5h34.966c2.761 0 5 2.239 5 5s-2.239 5-5 5z" fill="#2626bc"/></g><path d="m301.815 54.851c0 2.762-2.239 5.002-5.002 5.002-2.762 0-5.002-2.239-5.002-5.002 0-2.762 2.239-5.002 5.002-5.002 2.763.001 5.002 2.24 5.002 5.002z" fill="#2626bc"/></g><g><circle cx="324.168" cy="138.188" fill="#fff" r="33.651"/><path d="m340.784 139.326c0-9.16-7.46-16.61-16.62-16.61s-16.61 7.45-16.61 16.61c0 4.52 1.82 8.62 4.75 11.62-2.93 2.99-4.75 7.09-4.75 11.61v4.9c3.07 1.74 6.43 3.02 10 3.73v-8.63c0-3.65 2.97-6.61 6.61-6.61 3.65 0 6.62 2.96 6.62 6.61v8.63c3.57-.71 6.93-1.99 10-3.73v-4.9c0-4.52-1.82-8.62-4.76-11.61 2.94-3 4.76-7.1 4.76-11.62zm-16.62 6.62c-3.64 0-6.61-2.97-6.61-6.62 0-3.64 2.97-6.61 6.61-6.61 3.65 0 6.62 2.97 6.62 6.61 0 3.65-2.97 6.62-6.62 6.62z" fill="#2626bc"/></g><g><path d="m166.387 96.208h51.511c4.601 0 8.329 3.729 8.329 8.329s-3.729 8.329-8.329 8.329h-51.511c-4.6 0-8.329-3.729-8.329-8.329s3.728-8.329 8.329-8.329z" fill="#fff"/></g><g><g><path d="m228.738 169.448h-65.681c-2.761 0-5 2.239-5 5s2.239 5 5 5h65.681c2.761 0 5-2.239 5-5s-2.238-5-5-5z" fill="#2626bc"/></g><g><path d="m228.738 150.02h-65.681c-2.761 0-5 2.239-5 5s2.239 5 5 5h65.681c2.761 0 5-2.239 5-5s-2.238-5-5-5z" fill="#2626bc"/></g><g><path d="m174.738 124.716h-11.681c-2.761 0-5 2.239-5 5s2.239 5 5 5h11.681c2.761 0 5-2.239 5-5s-2.238-5-5-5z" fill="#2626bc"/></g></g><g><g><path d="m322.365 253.151h-5.332c-6.508 0-11.803-5.295-11.803-11.803v-16.457c0-6.508 5.295-11.803 11.803-11.803h5.332c6.508 0 11.803 5.295 11.803 11.803v16.457c0 6.508-5.295 11.803-11.803 11.803zm-5.332-30.062c-.994 0-1.803.809-1.803 1.803v16.457c0 .994.809 1.803 1.803 1.803h5.332c.994 0 1.803-.809 1.803-1.803v-16.457c0-.994-.809-1.803-1.803-1.803z" fill="#2626bc"/></g><g><path d="m351.181 253.151c-2.762 0-5-2.239-5-5v-25.062h-.444c-2.762 0-5-2.239-5-5s2.238-5 5-5h5.444c2.762 0 5 2.239 5 5v30.062c0 2.761-2.238 5-5 5z" fill="#2626bc"/></g></g><circle cx="349.107" cy="115.868" fill="#2626bc" r="5.002"/><g><ellipse cx="183.572" cy="364.332" fill="#fff" rx="28.297" ry="28.297" transform="matrix(.707 -.707 .707 .707 -203.855 236.515)"/><g><path d="m183.572 397.628c-18.36 0-33.297-14.937-33.297-33.297s14.937-33.296 33.297-33.296 33.297 14.936 33.297 33.296-14.937 33.297-33.297 33.297zm0-56.593c-12.846 0-23.297 10.451-23.297 23.296s10.451 23.297 23.297 23.297 23.297-10.451 23.297-23.297-10.452-23.296-23.297-23.296z" fill="#2626bc"/></g><g><path d="m188.589 379.374c1.499 0 2.98-.671 3.965-1.949 1.685-2.189 1.276-5.328-.912-7.013l-7.897-6.08 7.897-6.08c2.188-1.685 2.596-4.824.912-7.013-1.685-2.186-4.826-2.594-7.012-.911l-13.042 10.042c-1.229.946-1.95 2.41-1.95 3.962s.72 3.016 1.95 3.962l13.043 10.042c.908.699 1.981 1.038 3.046 1.038z" fill="#2626bc"/></g></g></g><g fill="#6583fe"><path d="m67.738 223.939c-7.88 0-14.292-6.411-14.292-14.291s6.411-14.292 14.292-14.292 14.291 6.411 14.291 14.292-6.411 14.291-14.291 14.291zm0-18.583c-2.366 0-4.292 1.925-4.292 4.292 0 2.366 1.925 4.291 4.292 4.291 2.366 0 4.291-1.925 4.291-4.291 0-2.367-1.925-4.292-4.291-4.292z"/><path d="m451.522 183.739c-7.88 0-14.291-6.411-14.291-14.292 0-7.88 6.411-14.292 14.291-14.292s14.292 6.411 14.292 14.292-6.411 14.292-14.292 14.292zm0-18.583c-2.366 0-4.291 1.925-4.291 4.292s1.925 4.292 4.291 4.292 4.292-1.925 4.292-4.292-1.925-4.292-4.292-4.292z"/><path d="m432.94 406.92c-7.88 0-14.292-6.411-14.292-14.292 0-7.88 6.411-14.291 14.292-14.291 7.88 0 14.291 6.411 14.291 14.291 0 7.881-6.411 14.292-14.291 14.292zm0-18.583c-2.366 0-4.292 1.925-4.292 4.291s1.925 4.292 4.292 4.292c2.366 0 4.291-1.925 4.291-4.292 0-2.366-1.925-4.291-4.291-4.291z"/><path d="m426.648 151.716c-2.761 0-5-2.239-5-5 0-3.309-2.691-6-6-6-2.761 0-5-2.239-5-5s2.239-5 5-5c3.309 0 6-2.691 6-6 0-2.761 2.239-5 5-5s5 2.239 5 5c0 3.309 2.691 6 6 6 2.761 0 5 2.239 5 5s-2.239 5-5 5c-3.309 0-6 2.691-6 6 0 2.761-2.238 5-5 5z"/><path d="m88.029 269.986c-2.761 0-5-2.239-5-5 0-3.309-2.691-6-6-6-2.761 0-5-2.239-5-5s2.239-5 5-5c3.309 0 6-2.691 6-6 0-2.761 2.239-5 5-5s5 2.239 5 5c0 3.309 2.691 6 6 6 2.761 0 5 2.239 5 5s-2.239 5-5 5c-3.309 0-6 2.691-6 6 0 2.761-2.239 5-5 5z"/></g></g><path d="m131.77 425.251h247.544v10h-247.544z" fill="#2626bc"/></g></svg>