<svg id="Capa_1" enable-background="new 0 0 512 512" height="512" viewBox="0 0 512 512" width="512" xmlns="http://www.w3.org/2000/svg" xmlns:xlink="http://www.w3.org/1999/xlink"><linearGradient id="SVGID_1_" gradientUnits="userSpaceOnUse" x1="27.58" x2="504.532" y1="379.929" y2="104.561"><stop offset="0" stop-color="#d2deff" stop-opacity="0"/><stop offset="1" stop-color="#b7c5ff"/></linearGradient><g><path d="m4.896 314.759c17.448 172.871 292.417 167.142 420.803 136.265 82.47-19.834 87.596-59.472 86.106-144.001-.96-54.486 3.443-198.725-32.004-244.123-54.448-69.733-103.228-25.998-170.656-3.235-86.488 29.197-120.189-22.932-202.476-21.38-120.641 2.278-110.778 187.252-101.773 276.474z" fill="url(#SVGID_1_)"/><g><g><g><path d="m350.232 490.839h-188.464c-16.568 0-30-13.431-30-30v-380.678c0-16.568 13.432-30 30-30h188.464c16.569 0 30 13.431 30 30v380.678c0 16.568-13.431 30-30 30z" fill="#2626bc" opacity=".1"/><path d="m350.232 466.839h-188.464c-16.568 0-30-13.431-30-30v-380.678c0-16.569 13.432-30 30-30h188.464c16.569 0 30 13.431 30 30v380.678c0 16.568-13.431 30-30 30z" fill="#6583fe"/><path d="m131.77 69.07h248.46v354.86h-248.46z" fill="#fff"/><path d="m380.23 228.829v195.101h-248.46v-195.101c0-16.568 13.432-30 30-30h188.46c16.568 0 30 13.431 30 30z" fill="#fff"/><g><path d="m380.23 233.829c-2.761 0-5-2.239-5-5 0-13.785-11.215-25-25-25h-188.46c-13.785 0-25 11.215-25 25 0 2.761-2.239 5-5 5s-5-2.239-5-5c0-19.299 15.701-35 35-35h188.46c19.299 0 35 15.701 35 35 0 2.761-2.239 5-5 5z" fill="#2626bc"/></g><g fill="#6583fe"><path d="m313.976 325.531h-182.208v-46.176h182.208c5.523 0 10 4.477 10 10v26.176c0 5.523-4.477 10-10 10z"/><path d="m313.976 390.853h-182.208v-46.176h182.208c5.523 0 10 4.477 10 10v26.176c0 5.522-4.477 10-10 10z"/></g><path d="m380.232 251.383h-165.356c-5.523 0-10-4.477-10-10v-85.109c0-5.523 4.477-10 10-10h165.356z" fill="#6583fe"/><path d="m350.232 471.839h-188.464c-19.299 0-35-15.701-35-35v-380.678c0-19.299 15.701-35 35-35h188.464c19.299 0 35 15.701 35 35v380.678c0 19.299-15.701 35-35 35zm-188.464-440.678c-13.785 0-25 11.215-25 25v380.678c0 13.785 11.215 25 25 25h188.464c13.785 0 25-11.215 25-25v-380.678c0-13.785-11.215-25-25-25z" fill="#2626bc"/><g><path d="m273.483 53.531h-34.966c-2.761 0-5-2.239-5-5s2.239-5 5-5h34.966c2.761 0 5 2.239 5 5s-2.239 5-5 5z" fill="#2626bc"/></g><path d="m301.815 48.529c0 2.762-2.239 5.002-5.002 5.002-2.762 0-5.002-2.239-5.002-5.002 0-2.762 2.239-5.002 5.002-5.002 2.763.001 5.002 2.24 5.002 5.002z" fill="#2626bc"/></g><g fill="#2626bc"><path d="m189.82 97.177h-23.68c-2.761 0-5 2.239-5 5s2.239 5 5 5h23.681c2.761 0 5-2.239 5-5-.001-2.762-2.239-5-5.001-5z"/><g><path d="m204.82 288.378h-41.68c-2.761 0-5 2.239-5 5s2.239 5 5 5h41.681c2.761 0 5-2.239 5-5-.001-2.762-2.239-5-5.001-5z"/><path d="m352.627 220.577h-101.68c-2.761 0-5 2.239-5 5s2.239 5 5 5h101.681c2.761 0 5-2.239 5-5-.001-2.761-2.24-5-5.001-5z"/><path d="m234.82 306.379h-71.68c-2.761 0-5 2.239-5 5s2.239 5 5 5h71.681c2.761 0 5-2.239 5-5s-2.239-5-5.001-5z"/></g><g><path d="m204.82 353.764h-41.68c-2.761 0-5 2.239-5 5s2.239 5 5 5h41.681c2.761 0 5-2.239 5-5s-2.239-5-5.001-5z"/><path d="m234.82 371.766h-71.68c-2.761 0-5 2.239-5 5s2.239 5 5 5h71.681c2.761 0 5-2.239 5-5s-2.239-5-5.001-5z"/></g><path d="m255.82 117.449h-89.68c-2.761 0-5 2.239-5 5s2.239 5 5 5h89.681c2.761 0 5-2.239 5-5-.001-2.761-2.239-5-5.001-5z"/><g><circle cx="300.184" cy="311.379" r="5.002"/><circle cx="283.807" cy="311.379" r="5.002"/></g></g><g><ellipse cx="323.976" cy="161.1" fill="#fff" rx="33.651" ry="33.651" transform="matrix(.997 -.072 .072 .997 -10.685 23.567)"/><g><path d="m323.976 199.751c-21.312 0-38.651-17.339-38.651-38.651s17.339-38.651 38.651-38.651 38.651 17.339 38.651 38.651-17.338 38.651-38.651 38.651zm0-67.302c-15.798 0-28.651 12.853-28.651 28.651s12.852 28.651 28.651 28.651c15.798 0 28.651-12.853 28.651-28.651s-12.853-28.651-28.651-28.651z" fill="#2626bc"/></g><path d="m340.593 162.238c0-9.16-7.46-16.61-16.62-16.61s-16.61 7.45-16.61 16.61c0 4.52 1.82 8.62 4.75 11.62-2.93 2.99-4.75 7.09-4.75 11.61v4.9c3.07 1.74 6.43 3.02 10 3.73v-8.63c0-3.65 2.97-6.61 6.61-6.61 3.65 0 6.62 2.96 6.62 6.61v8.63c3.57-.71 6.93-1.99 10-3.73v-4.9c0-4.52-1.82-8.62-4.76-11.61 2.94-3 4.76-7.1 4.76-11.62zm-16.62 6.62c-3.64 0-6.61-2.97-6.61-6.62 0-3.64 2.97-6.61 6.61-6.61 3.65 0 6.62 2.97 6.62 6.61 0 3.65-2.97 6.62-6.62 6.62z" fill="#2626bc"/></g><g fill="#2626bc"><path d="m245.947 163.856c0 2.762-2.239 5.002-5.002 5.002-2.762 0-5.002-2.239-5.002-5.002 0-2.762 2.239-5.002 5.002-5.002 2.762 0 5.002 2.24 5.002 5.002z"/><circle cx="224.568" cy="163.856" r="5.002"/></g></g><g fill="#6583fe"><path d="m421.986 255.732c-7.88 0-14.292-6.411-14.292-14.292s6.411-14.292 14.292-14.292c7.88 0 14.292 6.411 14.292 14.292s-6.412 14.292-14.292 14.292zm0-18.583c-2.366 0-4.292 1.925-4.292 4.292s1.925 4.292 4.292 4.292c2.366 0 4.292-1.925 4.292-4.292s-1.926-4.292-4.292-4.292z"/><path d="m65.431 339.822c-7.88 0-14.292-6.411-14.292-14.292 0-7.88 6.411-14.292 14.292-14.292 7.88 0 14.291 6.411 14.291 14.292.001 7.881-6.411 14.292-14.291 14.292zm0-18.583c-2.366 0-4.292 1.925-4.292 4.292 0 2.366 1.925 4.292 4.292 4.292 2.366 0 4.291-1.925 4.291-4.292.001-2.367-1.925-4.292-4.291-4.292z"/><path d="m94.622 382.056c-7.88 0-14.292-6.411-14.292-14.292 0-7.88 6.411-14.291 14.292-14.291s14.291 6.411 14.291 14.291c0 7.881-6.411 14.292-14.291 14.292zm0-18.583c-2.366 0-4.292 1.925-4.292 4.291s1.925 4.292 4.292 4.292c2.366 0 4.291-1.925 4.291-4.292 0-2.366-1.925-4.291-4.291-4.291z"/><path d="m85.33 133.115c-2.761 0-5-2.239-5-5 0-3.309-2.691-6-6-6-2.761 0-5-2.239-5-5s2.239-5 5-5c3.309 0 6-2.692 6-6 0-2.761 2.239-5 5-5s5 2.239 5 5c0 3.309 2.691 6 6 6 2.761 0 5 2.239 5 5s-2.239 5-5 5c-3.309 0-6 2.691-6 6 0 2.761-2.239 5-5 5z"/><path d="m437.785 309.378c-2.761 0-5-2.239-5-5 0-3.309-2.691-6-6-6-2.761 0-5-2.239-5-5s2.239-5 5-5c3.309 0 6-2.691 6-6 0-2.761 2.239-5 5-5s5 2.239 5 5c0 3.309 2.691 6 6 6 2.761 0 5 2.239 5 5s-2.239 5-5 5c-3.309 0-6 2.691-6 6 0 2.761-2.239 5-5 5z"/></g></g></g></svg>