<svg id="Capa_1" enable-background="new 0 0 512 512" height="512" viewBox="0 0 512 512" width="512" xmlns="http://www.w3.org/2000/svg" xmlns:xlink="http://www.w3.org/1999/xlink"><linearGradient id="SVGID_1_" gradientUnits="userSpaceOnUse" x1="0" x2="512" y1="256" y2="256"><stop offset="0" stop-color="#d2deff" stop-opacity="0"/><stop offset="1" stop-color="#b7c5ff"/></linearGradient><g><path d="m451.798 43.963c-160.556-97.869-410.51-8.611-439.594 61.948-38.908 94.394 26.578 110.528 38.743 187.874 9.761 62.061-51.182 121.495-16.394 176.282 37.882 59.663 163.465 44.681 211.198 16.447 87.376-51.682 43.309-112.012 84.684-187.299 39.407-71.707 116.244-42.625 160.961-99.99 42.5-54.52 14.311-122.401-39.598-155.262z" fill="url(#SVGID_1_)"/><g><g><g><g><path d="m455.47 452.133h-398.94c-8.284 0-15-6.716-15-15v-314.266c0-8.284 6.716-15 15-15h398.94c8.284 0 15 6.716 15 15v314.266c0 8.285-6.715 15-15 15z" fill="#2626bc" opacity=".1"/><path d="m455.47 428.133h-398.94c-8.284 0-15-6.716-15-15v-314.266c0-8.284 6.716-15 15-15h398.94c8.284 0 15 6.716 15 15v314.266c0 8.285-6.715 15-15 15z" fill="#fff"/><path d="m470.47 153.18v-54.313c0-8.284-6.716-15-15-15h-398.94c-8.284 0-15 6.716-15 15v54.313z" fill="#6583fe"/><path d="m455.47 433.133h-398.94c-11.028 0-20-8.972-20-20v-314.266c0-11.028 8.972-20 20-20h398.94c11.028 0 20 8.972 20 20v314.266c0 11.028-8.972 20-20 20zm-398.94-344.266c-5.514 0-10 4.486-10 10v314.266c0 5.514 4.486 10 10 10h398.94c5.514 0 10-4.486 10-10v-314.266c0-5.514-4.486-10-10-10z" fill="#2626bc"/></g><g><g fill="#fff"><circle cx="85.623" cy="120.768" r="10.901"/><circle cx="120.424" cy="120.768" r="10.901"/><circle cx="155.224" cy="120.768" r="10.901"/></g><path d="m432.277 133.015h-136.158v-24.495h136.158c2.761 0 5 2.239 5 5v14.496c0 2.761-2.238 4.999-5 4.999z" fill="#fff"/><path d="m296.789 108.831c-5.286-5.286-13.887-5.286-19.173 0s-5.286 13.887 0 19.173c4.037 4.037 10.003 4.98 14.953 2.852l4.348 4.348c1.952 1.952 5.119 1.952 7.071 0 1.953-1.952 1.953-5.119 0-7.071l-4.348-4.348c2.129-4.951 1.186-10.917-2.851-14.954zm-12.102 7.071c1.387-1.387 3.644-1.387 5.031 0s1.387 3.644 0 5.031-3.644 1.387-5.031 0-1.387-3.644 0-5.031z" fill="#2626bc"/></g></g><path d="m432.277 394.361h-352.554c-2.761 0-5-2.239-5-5v-206.722c0-2.761 2.239-5 5-5h352.555c2.761 0 5 2.239 5 5v206.721c-.001 2.762-2.239 5.001-5.001 5.001z" fill="#6583fe"/><g><path d="m420.378 207.142-3.174-3.174 3.174-3.174c1.952-1.952 1.952-5.119 0-7.071-1.953-1.952-5.119-1.952-7.071 0l-3.174 3.174-3.174-3.174c-1.953-1.952-5.119-1.952-7.071 0-1.953 1.952-1.953 5.119 0 7.071l3.174 3.174-3.174 3.174c-1.953 1.952-1.953 5.118 0 7.071 1.952 1.953 5.119 1.953 7.071 0l3.174-3.174 3.174 3.174c1.953 1.952 5.119 1.952 7.071 0 1.953-1.952 1.953-5.118 0-7.071z" fill="#2626bc"/></g><g><path d="m296.566 253.625-31.951-54.207c-3.868-6.563-13.361-6.563-17.23 0l-31.951 54.207c-3.929 6.666.877 15.078 8.615 15.078h63.902c7.738-.001 12.544-8.412 8.615-15.078z" fill="#fff"/><g><g><path d="m256 242.759c-2.761 0-5-2.239-5-5v-20.081c0-2.761 2.239-5 5-5s5 2.239 5 5v20.081c0 2.761-2.239 5-5 5z" fill="#2626bc"/></g><circle cx="256" cy="253.06" fill="#2626bc" r="5"/></g></g><g><g><path d="m136.16 363.466h239.68c2.761 0 5 2.239 5 5s-2.239 5-5 5h-239.68c-2.761 0-5-2.239-5-5s2.238-5 5-5z" fill="#2626bc"/></g><g><path d="m155.66 343.009h200.68c2.761 0 5 2.239 5 5s-2.239 5-5 5h-200.68c-2.761 0-5-2.239-5-5s2.238-5 5-5z" fill="#2626bc"/></g><g><path d="m155.66 290.646h200.68c2.761 0 5 2.239 5 5s-2.239 5-5 5h-200.68c-2.761 0-5-2.239-5-5 0-2.762 2.238-5 5-5z" fill="#2626bc"/></g><g fill="#2626bc"><path d="m187.769 311.102h-32.11c-2.761 0-5 2.238-5 5 0 2.761 2.239 5 5 5h32.11c2.761 0 5-2.239 5-5 0-2.761-2.238-5-5-5z"/><path d="m211.915 316.102c0 2.761 2.239 5 5 5h139.425c2.761 0 5-2.239 5-5 0-2.762-2.239-5-5-5h-139.425c-2.761 0-5 2.239-5 5z"/></g></g></g><g fill="#6583fe"><path d="m211.915 62.279c-7.88 0-14.291-6.411-14.291-14.291 0-7.881 6.411-14.292 14.291-14.292s14.292 6.411 14.292 14.292c0 7.88-6.411 14.291-14.292 14.291zm0-18.583c-2.366 0-4.291 1.926-4.291 4.292s1.925 4.291 4.291 4.291 4.292-1.925 4.292-4.291-1.925-4.292-4.292-4.292z"/><path d="m164.18 51.522c-2.761 0-5-2.238-5-5 0-3.309-2.691-6-6-6-2.761 0-5-2.238-5-5s2.239-5 5-5c3.309 0 6-2.691 6-6 0-2.762 2.239-5 5-5s5 2.238 5 5c0 3.309 2.691 6 6 6 2.761 0 5 2.238 5 5s-2.239 5-5 5c-3.309 0-6 2.691-6 6 0 2.761-2.239 5-5 5z"/><path d="m312.848 481.24c-7.88 0-14.292-6.411-14.292-14.292 0-7.88 6.411-14.291 14.292-14.291 7.88 0 14.291 6.411 14.291 14.291 0 7.881-6.411 14.292-14.291 14.292zm0-18.583c-2.366 0-4.292 1.925-4.292 4.291s1.925 4.292 4.292 4.292c2.366 0 4.291-1.926 4.291-4.292s-1.925-4.291-4.291-4.291z"/><path d="m360.785 473.657c-2.761 0-5-2.238-5-5 0-3.309-2.691-6-6-6-2.761 0-5-2.238-5-5s2.239-5 5-5c3.309 0 6-2.691 6-6 0-2.762 2.239-5 5-5s5 2.238 5 5c0 3.309 2.691 6 6 6 2.761 0 5 2.238 5 5s-2.239 5-5 5c-3.309 0-6 2.691-6 6 0 2.762-2.239 5-5 5z"/><path d="m80.723 476.657c-2.761 0-5-2.238-5-5 0-3.309-2.691-6-6-6-2.761 0-5-2.238-5-5s2.239-5 5-5c3.309 0 6-2.691 6-6 0-2.762 2.239-5 5-5s5 2.238 5 5c0 3.309 2.691 6 6 6 2.761 0 5 2.238 5 5s-2.239 5-5 5c-3.309 0-6 2.691-6 6 0 2.762-2.239 5-5 5z"/></g></g></g></svg>