<svg id="Capa_1" enable-background="new 0 0 512 512" height="512" viewBox="0 0 512 512" width="512" xmlns="http://www.w3.org/2000/svg" xmlns:xlink="http://www.w3.org/1999/xlink"><linearGradient id="SVGID_1_" gradientUnits="userSpaceOnUse" x1="23.821" x2="459.531" y1="344.999" y2="93.441"><stop offset="0" stop-color="#d2deff" stop-opacity="0"/><stop offset="1" stop-color="#b7c5ff"/></linearGradient><g><path d="m16.074 304.61c18.727 64.003 72.707 194.564 163.922 182.845 91.486-11.755 55.758-129.725 139.508-145.894 36.867-7.118 61.857 56.689 98.806 54.704 47.588-2.557 71.81-49.663 85.108-89.264 28.197-83.968-14.029-226.352-112.858-251.011-86.245-21.519-96.332 83.855-171.322 53.248-42.149-17.203-37.938-68.576-89.272-78.942-155.299-31.36-138.811 189.15-113.892 274.314z" fill="url(#SVGID_1_)"/><g><g><g><g><g><path d="m455.47 453.863h-398.94c-8.284 0-15-6.716-15-15v-314.266c0-8.284 6.716-15 15-15h398.94c8.284 0 15 6.716 15 15v314.266c0 8.285-6.715 15-15 15z" fill="#2626bc" opacity=".1"/><path d="m470.47 100.6v314.26c0 8.29-6.72 15-15 15h-398.94c-8.28 0-15-6.71-15-15v-314.26c0-8.29 6.72-15 15-15h398.94c8.28 0 15 6.71 15 15z" fill="#fff"/><path d="m470.47 204.33v210.53c0 8.29-6.72 15-15 15h-376.33c16.25-26.78 50.57-64.05 115.32-62.96 100.8 1.69 55.75-134.02 145.85-124.45 86.97 9.25 71.09-54.45 130.16-38.12z" fill="#fff"/><g><path d="m455.47 434.86h-376.33c-1.806 0-3.471-.974-4.357-2.547-.886-1.574-.854-3.503.083-5.047 10.889-17.946 24.672-32.579 40.964-43.492 22.418-15.015 48.902-22.396 78.714-21.873 47.903.792 60.058-30.624 72.93-63.896 12.482-32.262 25.404-65.628 73.364-60.527 43.771 4.652 59.889-9.85 74.108-22.646 13.567-12.211 26.383-23.744 56.856-15.321 2.168.6 3.668 2.571 3.668 4.819v210.53c0 11.028-8.972 20-20 20zm-367.119-10h367.119c5.514 0 10-4.486 10-10v-206.643c-22.469-5.181-31.531 2.974-43.835 14.047-14.991 13.492-33.647 30.287-81.854 25.157-40.358-4.292-50.842 22.812-62.981 54.192-12.758 32.977-27.2 70.301-80.474 70.302-.645 0-1.294-.005-1.951-.017-.908-.015-1.814-.022-2.71-.022-53.69.001-85.352 27.169-103.314 52.984z" fill="#2626bc"/></g><g fill="#6583fe"><path d="m175.51 429.863h-96.638v-86.506c0-2.761 2.239-5 5-5h86.638c2.761 0 5 2.239 5 5z"/><path d="m304.319 429.863h-96.638v-86.506c0-2.761 2.238-5 5-5h86.638c2.762 0 5 2.239 5 5z"/><path d="m433.128 429.863h-96.638v-86.506c0-2.761 2.239-5 5-5h86.638c2.761 0 5 2.239 5 5z"/></g><path d="m470.47 154.91v-54.313c0-8.284-6.716-15-15-15h-398.94c-8.284 0-15 6.716-15 15v54.313z" fill="#fff"/><path d="m455.47 434.863h-398.94c-11.028 0-20-8.972-20-20v-314.266c0-11.028 8.972-20 20-20h398.94c11.028 0 20 8.972 20 20v314.266c0 11.028-8.972 20-20 20zm-398.94-344.266c-5.514 0-10 4.486-10 10v314.266c0 5.514 4.486 10 10 10h398.94c5.514 0 10-4.486 10-10v-314.266c0-5.514-4.486-10-10-10z" fill="#2626bc"/></g><g><g fill="#6583fe"><circle cx="85.623" cy="122.498" r="10.901"/><circle cx="120.424" cy="122.498" r="10.901"/><circle cx="155.224" cy="122.498" r="10.901"/></g><path d="m432.278 134.745h-136.159v-24.495h136.159c2.761 0 5 2.239 5 5v14.496c0 2.761-2.239 4.999-5 4.999z" fill="#6583fe"/><path d="m296.789 110.561c-5.286-5.286-13.887-5.286-19.173 0s-5.286 13.887 0 19.173c4.037 4.037 10.003 4.98 14.953 2.852l4.348 4.348c1.953 1.952 5.119 1.952 7.071 0 1.953-1.952 1.953-5.119 0-7.071l-4.348-4.348c2.129-4.951 1.186-10.917-2.851-14.954zm-12.102 7.071c1.387-1.387 3.644-1.387 5.031 0s1.387 3.644 0 5.031-3.644 1.387-5.031 0-1.387-3.644 0-5.031z" fill="#2626bc"/></g></g></g><g><g><ellipse cx="127.191" cy="369.848" fill="#fff" rx="11.262" ry="11.262" transform="matrix(.16 -.987 .987 .16 -258.255 436.153)"/><g><path d="m146.531 395.126h-38.681c-2.761 0-5 2.239-5 5s2.239 5 5 5h38.681c2.761 0 5-2.239 5-5s-2.238-5-5-5z" fill="#2626bc"/></g></g><g><ellipse cx="256" cy="369.848" fill="#fff" rx="11.262" ry="11.262" transform="matrix(.16 -.987 .987 .16 -150.079 563.299)"/><g><path d="m275.34 395.126h-38.68c-2.761 0-5 2.239-5 5s2.239 5 5 5h38.681c2.761 0 5-2.239 5-5-.001-2.761-2.239-5-5.001-5z" fill="#2626bc"/></g></g><g><ellipse cx="384.809" cy="369.848" fill="#fff" rx="11.262" ry="11.262" transform="matrix(.16 -.987 .987 .16 -41.903 690.445)"/><g><path d="m404.149 395.126h-38.681c-2.761 0-5 2.239-5 5s2.239 5 5 5h38.681c2.761 0 5-2.239 5-5s-2.238-5-5-5z" fill="#2626bc"/></g></g></g><g><path d="m236.852 314.751h-137.111c-5.523 0-10-4.477-10-10v-5.81c0-5.523 4.477-10 10-10h137.11c5.523 0 10 4.477 10 10v5.81c.001 5.523-4.476 10-9.999 10z" fill="#6583fe"/><g><g><path d="m199.422 254.857h-104.681c-2.761 0-5 2.239-5 5s2.239 5 5 5h104.681c2.761 0 5-2.239 5-5s-2.239-5-5-5z" fill="#2626bc"/></g><g><path d="m175.422 235.43h-80.681c-2.761 0-5 2.239-5 5s2.239 5 5 5h80.681c2.761 0 5-2.239 5-5s-2.239-5-5-5z" fill="#2626bc"/></g><g><path d="m106.422 212.084h-11.681c-2.761 0-5 2.239-5 5s2.239 5 5 5h11.681c2.761 0 5-2.239 5-5s-2.239-5-5-5z" fill="#2626bc"/></g><g><path d="m166.422 178.001h-71.681c-2.761 0-5 2.239-5 5s2.239 5 5 5h71.681c2.761 0 5-2.239 5-5 0-2.762-2.239-5-5-5z" fill="#2626bc"/></g></g></g><circle cx="360.469" cy="246.571" fill="#6583fe" r="47.058"/><g fill="#2626bc"><ellipse cx="373.702" cy="276.632" rx="5.002" ry="5.002" transform="matrix(.16 -.987 .987 .16 40.781 601.197)"/><path d="m396.79 281.634c-2.762 0-5.002-2.239-5.002-5.002 0-2.762 2.239-5.002 5.002-5.002 2.762 0 5.002 2.239 5.002 5.002-.001 2.762-2.24 5.002-5.002 5.002z"/><path d="m419.878 281.634c-2.762 0-5.002-2.239-5.002-5.002 0-2.762 2.239-5.002 5.002-5.002 2.762 0 5.002 2.239 5.002 5.002-.001 2.762-2.24 5.002-5.002 5.002z"/><path d="m385.246 263.051c-2.762 0-5.002-2.239-5.002-5.002 0-2.762 2.239-5.002 5.002-5.002 2.762 0 5.002 2.239 5.002 5.002-.001 2.762-2.24 5.002-5.002 5.002z"/><path d="m408.334 263.051c-2.762 0-5.002-2.239-5.002-5.002 0-2.762 2.239-5.002 5.002-5.002s5.002 2.239 5.002 5.002c-.001 2.762-2.24 5.002-5.002 5.002z"/><path d="m385.246 300.217c-2.762 0-5.002-2.239-5.002-5.002 0-2.762 2.239-5.002 5.002-5.002 2.762 0 5.002 2.239 5.002 5.002-.001 2.762-2.24 5.002-5.002 5.002z"/><path d="m408.334 300.217c-2.762 0-5.002-2.239-5.002-5.002 0-2.762 2.239-5.002 5.002-5.002s5.002 2.239 5.002 5.002c-.001 2.762-2.24 5.002-5.002 5.002z"/></g></g><g fill="#6583fe"><path d="m448.525 59.892c-7.88 0-14.292-6.411-14.292-14.292 0-7.88 6.411-14.291 14.292-14.291s14.291 6.411 14.291 14.291c0 7.881-6.411 14.292-14.291 14.292zm0-18.583c-2.366 0-4.292 1.925-4.292 4.291s1.925 4.292 4.292 4.292c2.366 0 4.292-1.926 4.292-4.292-.001-2.366-1.926-4.291-4.292-4.291z"/><path d="m100.582 491.734c-7.88 0-14.291-6.411-14.291-14.291 0-7.881 6.411-14.292 14.291-14.292s14.292 6.411 14.292 14.292c-.001 7.88-6.412 14.291-14.292 14.291zm0-18.583c-2.366 0-4.291 1.926-4.291 4.292s1.925 4.291 4.291 4.291 4.292-1.925 4.292-4.291c-.001-2.366-1.926-4.292-4.292-4.292z"/><path d="m149.81 491.734c-7.88 0-14.292-6.411-14.292-14.291 0-7.881 6.411-14.292 14.292-14.292 7.88 0 14.292 6.411 14.292 14.292 0 7.88-6.412 14.291-14.292 14.291zm0-18.583c-2.366 0-4.292 1.926-4.292 4.292s1.925 4.291 4.292 4.291c2.366 0 4.292-1.925 4.292-4.291s-1.926-4.292-4.292-4.292z"/><path d="m242.387 52.266c-2.761 0-5-2.238-5-5 0-3.309-2.691-6-6-6-2.761 0-5-2.238-5-5s2.239-5 5-5c3.309 0 6-2.691 6-6 0-2.762 2.239-5 5-5s5 2.238 5 5c0 3.309 2.691 6 6 6 2.761 0 5 2.238 5 5s-2.239 5-5 5c-3.309 0-6 2.691-6 6 0 2.762-2.239 5-5 5z"/><path d="m288.34 64.557c-2.761 0-5-2.238-5-5 0-3.308-2.691-6-6-6-2.761 0-5-2.238-5-5s2.239-5 5-5c3.309 0 6-2.691 6-6 0-2.762 2.239-5 5-5s5 2.238 5 5c0 3.309 2.691 6 6 6 2.761 0 5 2.238 5 5s-2.239 5-5 5c-3.309 0-6 2.692-6 6 0 2.762-2.239 5-5 5z"/></g></g><path d="m470.47 159.91h-428.94c-2.761 0-5-2.238-5-5s2.239-5 5-5h428.94c2.761 0 5 2.238 5 5s-2.239 5-5 5z" fill="#2626bc"/></g></svg>