<svg id="Capa_1" enable-background="new 0 0 512 512" height="512" viewBox="0 0 512 512" width="512" xmlns="http://www.w3.org/2000/svg" xmlns:xlink="http://www.w3.org/1999/xlink"><linearGradient id="SVGID_1_" gradientUnits="userSpaceOnUse" x1="68.572" x2="395.005" y1="423.621" y2="34.593"><stop offset="0" stop-color="#d2deff" stop-opacity="0"/><stop offset="1" stop-color="#b7c5ff"/></linearGradient><g><path d="m16.074 295.943c18.727 64.003 72.707 194.564 163.922 182.845 91.486-11.755 55.758-129.725 139.508-145.894 36.867-7.118 61.857 56.689 98.806 54.704 47.588-2.557 71.81-49.663 85.108-89.264 28.197-83.968-14.029-226.352-112.858-251.012-86.245-21.519-96.333 83.855-171.322 53.248-42.149-17.203-37.938-68.576-89.272-78.942-155.299-31.359-138.811 189.15-113.892 274.315z" fill="url(#SVGID_1_)"/><g><g><g><path d="m350.232 493.402h-188.464c-16.568 0-30-13.432-30-30v-380.679c0-16.568 13.432-30 30-30h188.464c16.568 0 30 13.431 30 30v380.678c0 16.569-13.431 30.001-30 30.001z" fill="#2626bc" opacity=".1"/><path d="m350.232 469.402h-188.464c-16.568 0-30-13.432-30-30v-380.679c0-16.569 13.432-30 30-30h188.464c16.568 0 30 13.431 30 30v380.678c0 16.569-13.431 30.001-30 30.001z" fill="#6583fe"/><path d="m131.77 71.633h248.46v354.86h-248.46z" fill="#fff"/><path d="m131.77 355.243h248.46v71.25h-248.46z" fill="#fff"/><path d="m217.467 346.796h162.765v22.219h-162.765z" fill="#2626bc"/><path d="m131.768 346.796h97.587v22.219h-97.587z" fill="#6583fe"/><path d="m350.232 474.401h-188.464c-19.299 0-35-15.701-35-35v-380.677c0-19.299 15.701-35 35-35h188.464c19.299 0 35 15.701 35 35v380.678c0 19.298-15.701 34.999-35 34.999zm-188.464-440.677c-13.785 0-25 11.215-25 25v380.678c0 13.785 11.215 25 25 25h188.464c13.785 0 25-11.215 25-25v-380.678c0-13.785-11.215-25-25-25z" fill="#2626bc"/><g><path d="m273.483 56.094h-34.966c-2.761 0-5-2.239-5-5s2.239-5 5-5h34.966c2.761 0 5 2.239 5 5s-2.239 5-5 5z" fill="#2626bc"/></g><circle cx="296.813" cy="51.092" fill="#2626bc" r="5.002"/></g><g><circle cx="256" cy="199.664" fill="#6583fe" r="75.176"/><ellipse cx="240.743" cy="201.349" fill="#fff" rx="41.278" ry="41.278" transform="matrix(.707 -.707 .707 .707 -71.864 229.205)"/><path d="m293.76 253.452c-1.4 1.39-2.67 2.88-3.82 4.44-.72-5.22-1.61-10.25-2.67-15.09 8.04-1.57 15.44-5.84 20.91-12.2 6.78-7.88 9.96-18.25 8.71-28.43-.31-2.57-2.56-4.45-5.11-4.39-3.22.09-6.4.62-9.45 1.55-6.65 2.01-12.71 5.91-17.35 11.31-2.08 2.42-3.82 5.07-5.19 7.87-2.13-5.16-4.53-10-7.19-14.48 6.11-4.1 10.71-10.17 12.95-17.27 2.82-8.93 1.66-18.66-3.17-26.69-1.3-2.17-4.01-3.02-6.32-1.99-8.56 3.81-15.09 11.11-17.9 20.03-.65 2.04-1.08 4.12-1.31 6.22-2.32-2.15-4.75-4.14-7.3-5.96-2.24-1.61-5.36-1.09-6.97 1.15-1.61 2.25-1.09 5.37 1.15 6.98 3.94 2.81 7.48 6.01 10.67 9.51-2.33-.3-4.71-.36-7.09-.14-9.31.83-17.85 5.64-23.41 13.19-1.5 2.03-1.24 4.86.59 6.6 6.1 5.77 14.16 8.95 22.47 8.95.97 0 1.95-.04 2.92-.13 6.79-.61 13.16-3.34 18.26-7.69 2.98 6.26 5.36 12.88 7.25 19.66-4.53-1.68-9.41-2.37-14.32-1.94-4.66.42-9.12 1.83-13.12 4.08-3.99 2.26-7.51 5.34-10.29 9.12-1.5 2.03-1.25 4.86.59 6.59.25.23.5.46.75.68 6 5.35 13.75 8.28 21.72 8.28.97 0 1.94-.05 2.92-.13 5.84-.53 11.37-2.61 16.05-5.95.65 4.49 1.14 8.95 1.49 13.33 15.16-5.38 28.08-15.5 36.98-28.57-9.17.9-17.81 4.92-24.4 11.51zm-44.77-38.93c-4.82.43-9.62-.7-13.71-3.15 3.59-3.15 8.11-5.11 12.92-5.54 4.82-.44 9.62.69 13.71 3.15-3.59 3.14-8.1 5.1-12.92 5.54zm18.84-19.34c-1.52-4.52-1.6-9.45-.14-14.06s4.35-8.6 8.19-11.43c1.52 4.52 1.59 9.44.13 14.06-1.45 4.61-4.34 8.6-8.18 11.43zm-5.09 57.99c-3.4.3-6.79-.17-9.93-1.34-1.31-.48-2.57-1.09-3.77-1.81 3.59-3.15 8.1-5.11 12.92-5.55 2.36-.21 4.71-.05 6.98.47 2.36.52 4.64 1.43 6.73 2.69-3.59 3.14-8.11 5.1-12.93 5.54zm23.51-22.07c.7-5.08 2.87-9.94 6.31-13.94 1.67-1.95 3.6-3.63 5.7-5.01 2.7-1.77 5.69-3.04 8.83-3.75-.4 5.7-2.66 11.23-6.49 15.68-3.84 4.46-8.96 7.51-14.54 8.76.04-.58.1-1.16.19-1.74z" fill="#2626bc"/></g><g fill="#6583fe"><ellipse cx="175.963" cy="111.72" rx="18.583" ry="18.583" transform="matrix(.228 -.974 .974 .228 27.075 257.586)"/><ellipse cx="336.037" cy="111.72" rx="18.583" ry="18.583" transform="matrix(.707 -.707 .707 .707 19.425 270.336)"/></g><g><path d="m220.74 297.41h70.52c2.762 0 5 2.239 5 5s-2.238 5-5 5h-70.52c-2.762 0-5-2.239-5-5 0-2.762 2.239-5 5-5z" fill="#2626bc"/></g><g><path d="m235.74 315.429h40.52c2.762 0 5 2.239 5 5s-2.238 5-5 5h-40.52c-2.762 0-5-2.239-5-5s2.239-5 5-5z" fill="#2626bc"/></g><g><g><g><path d="m172.715 392.761h19.52c2.762 0 5 2.239 5 5s-2.238 5-5 5h-19.52c-2.762 0-5-2.239-5-5s2.238-5 5-5z" fill="#2626bc"/></g></g><g><g><path d="m221.732 392.761h19.519c2.762 0 5 2.239 5 5s-2.238 5-5 5h-19.519c-2.762 0-5-2.239-5-5s2.238-5 5-5z" fill="#2626bc"/></g></g><g><g><path d="m270.749 392.761h19.52c2.762 0 5 2.239 5 5s-2.238 5-5 5h-19.52c-2.762 0-5-2.239-5-5s2.238-5 5-5z" fill="#2626bc"/></g></g><g><g><path d="m319.765 392.761h19.52c2.762 0 5 2.239 5 5s-2.238 5-5 5h-19.52c-2.762 0-5-2.239-5-5s2.239-5 5-5z" fill="#2626bc"/></g></g></g><g fill="#6583fe"><ellipse cx="182.231" cy="310.676" rx="14.078" ry="14.078" transform="matrix(.231 -.973 .973 .231 -162.153 416.161)"/><ellipse cx="329.769" cy="310.676" rx="14.078" ry="14.078" transform="matrix(.707 -.707 .707 .707 -123.094 324.177)"/></g></g><g fill="#6583fe"><path d="m91.496 381.609c-7.88 0-14.291-6.411-14.291-14.291s6.411-14.292 14.291-14.292 14.292 6.411 14.292 14.292-6.412 14.291-14.292 14.291zm0-18.583c-2.366 0-4.291 1.925-4.291 4.292 0 2.366 1.925 4.291 4.291 4.291s4.292-1.925 4.292-4.291c-.001-2.367-1.926-4.292-4.292-4.292z"/><path d="m430.701 229.322c-7.88 0-14.291-6.411-14.291-14.291s6.411-14.292 14.291-14.292c7.881 0 14.292 6.411 14.292 14.292 0 7.88-6.411 14.291-14.292 14.291zm0-18.583c-2.366 0-4.291 1.925-4.291 4.292 0 2.366 1.925 4.291 4.291 4.291s4.292-1.925 4.292-4.291c0-2.367-1.926-4.292-4.292-4.292z"/><path d="m82.204 332.495c-2.761 0-5-2.239-5-5 0-3.309-2.691-6-6-6-2.761 0-5-2.239-5-5s2.239-5 5-5c3.309 0 6-2.691 6-6 0-2.761 2.239-5 5-5s5 2.239 5 5c0 3.309 2.691 6 6 6 2.761 0 5 2.239 5 5s-2.239 5-5 5c-3.309 0-6 2.691-6 6 0 2.761-2.239 5-5 5z"/><path d="m416.41 190.368c-2.762 0-5-2.239-5-5 0-3.309-2.691-6-6-6-2.762 0-5-2.239-5-5s2.238-5 5-5c3.309 0 6-2.691 6-6 0-2.761 2.238-5 5-5s5 2.239 5 5c0 3.309 2.691 6 6 6 2.762 0 5 2.239 5 5s-2.238 5-5 5c-3.309 0-6 2.691-6 6 0 2.761-2.238 5-5 5z"/><path d="m432.41 308.512c-2.762 0-5-2.239-5-5 0-3.309-2.691-6-6-6-2.762 0-5-2.239-5-5s2.238-5 5-5c3.309 0 6-2.691 6-6 0-2.761 2.238-5 5-5s5 2.239 5 5c0 3.309 2.691 6 6 6 2.762 0 5 2.239 5 5s-2.238 5-5 5c-3.309 0-6 2.691-6 6 0 2.761-2.238 5-5 5z"/></g></g></g></svg>