<svg id="Capa_1" enable-background="new 0 0 512 512" height="512" viewBox="0 0 512 512" width="512" xmlns="http://www.w3.org/2000/svg" xmlns:xlink="http://www.w3.org/1999/xlink"><linearGradient id="SVGID_1_" gradientTransform="matrix(1 0 0 -1 0 513.276)" gradientUnits="userSpaceOnUse" x1="8.753" x2="524.203" y1="112.115" y2="409.709"><stop offset="0" stop-color="#d2deff" stop-opacity="0"/><stop offset="1" stop-color="#b7c5ff"/></linearGradient><g><path d="m418.3 2.5c-55.7-9.5-178.3 12.2-200 105-14.4 61.7-14 112.1-50.4 113-21.7.6-33-44.3-62.9-48-39-4.8-66.1 27.7-83.1 57.1-37.2 64.8-25.6 174.9 23.4 228.6 118.5 130.1 259.2-6 319.4-112.3 38.6-68.2 125.6-123.4 143.8-200.2 15.1-64.3-18.6-131-90.2-143.2z" fill="url(#SVGID_1_)"/><g><g><g><path d="m350.2 500.3h-188.4c-16.6 0-30-13.4-30-30v-380.6c0-16.6 13.4-30 30-30h188.5c16.6 0 30 13.4 30 30v380.7c-.1 16.5-13.5 29.9-30.1 29.9z" fill="#2626bc" opacity=".1"/><path d="m350.2 476.3h-188.4c-16.6 0-30-13.4-30-30v-380.6c0-16.6 13.4-30 30-30h188.5c16.6 0 30 13.4 30 30v380.7c-.1 16.5-13.5 29.9-30.1 29.9z" fill="#6583fe"/><path d="m131.8 78.6h248.5v354.9h-248.5z" fill="#fff"/><path d="m332.8 129.5c0 92.1-74.7 166.8-166.8 166.8-11.8 0-23.2-1.2-34.3-3.5v-215.2h192.8c5.4 16.3 8.3 33.8 8.3 51.9z" fill="#6583fe"/><path d="m350.2 481.3h-188.4c-19.3 0-35-15.7-35-35v-380.6c0-19.3 15.7-35 35-35h188.5c19.3 0 35 15.7 35 35v380.7c-.1 19.2-15.8 34.9-35.1 34.9zm-188.4-440.6c-13.8 0-25 11.2-25 25v380.7c0 13.8 11.2 25 25 25h188.5c13.8 0 25-11.2 25-25v-380.7c0-13.8-11.2-25-25-25-.1 0-188.5 0-188.5 0z" fill="#2626bc"/><g><path d="m273.5 63h-35c-2.8 0-5-2.2-5-5s2.2-5 5-5h35c2.8 0 5 2.2 5 5s-2.3 5-5 5z" fill="#2626bc"/></g><circle cx="296.8" cy="58" fill="#2626bc" r="5"/></g><path d="m314.3 399.1h-116.6c-2.8 0-5-2.2-5-5v-14.4c0-2.8 2.2-5 5-5h116.7c2.8 0 5 2.2 5 5v14.4c-.1 2.7-2.3 5-5.1 5z" fill="#6583fe"/><path d="m350.5 78.6c-14.6 37.9-51.4 64.7-94.5 64.7s-79.8-26.9-94.5-64.7z" fill="#fff"/><g><g><path d="m321.4 173.7v71.3c0 2.8-2.2 5-5 5h-120.8c-2.8 0-5-2.2-5-5v-71.3c0-2.8 2.2-5 5-5h120.8c2.7 0 5 2.2 5 5z" fill="#fff"/><g><path d="m316.4 255h-120.8c-5.5 0-10-4.5-10-10v-71.3c0-5.5 4.5-10 10-10h120.8c5.5 0 10 4.5 10 10v71.3c0 5.5-4.5 10-10 10zm0-81.4h-120.8v71.4h120.8z" fill="#2626bc"/></g><g fill="#2626bc"><path d="m219.5 228.8h-11.7c-2.8 0-5 2.2-5 5s2.2 5 5 5h11.7c2.8 0 5-2.2 5-5s-2.2-5-5-5z"/><path d="m258.5 211.6h-50.7c-2.8 0-5 2.2-5 5s2.2 5 5 5h50.7c2.8 0 5-2.2 5-5s-2.2-5-5-5z"/><path d="m251.8 228.8h-11.7c-2.8 0-5 2.2-5 5s2.2 5 5 5h11.7c2.8 0 5-2.2 5-5s-2.2-5-5-5z"/><path d="m284.1 228.8h-11.7c-2.8 0-5 2.2-5 5s2.2 5 5 5h11.7c2.8 0 5-2.2 5-5s-2.2-5-5-5z"/></g></g><g><g><g><ellipse cx="324.8" cy="253" fill="#6583fe" rx="28.3" ry="28.3"/><g><path d="m319.8 268c-1.5 0-3-.7-4-1.9-1.7-2.2-1.3-5.3.9-7l7.9-6.1-7.9-6.1c-2.2-1.7-2.6-4.8-.9-7s4.8-2.6 7-.9l13 10c1.2.9 2 2.4 2 4s-.7 3-2 4l-13 10c-.9.7-2 1-3 1z" fill="#2626bc"/></g></g></g><g><g><ellipse cx="187.2" cy="165.6" fill="#fff" rx="28.3" ry="28.3"/><g><path d="m192.2 180.7c1.5 0 3-.7 4-1.9 1.7-2.2 1.3-5.3-.9-7l-7.9-6.1 7.9-6.1c2.2-1.7 2.6-4.8.9-7s-4.8-2.6-7-.9l-13 10c-1.2.9-1.9 2.4-1.9 4s.7 3 1.9 4l13 10c.9.6 2 1 3 1z" fill="#2626bc"/></g></g></g></g></g><g fill="#2626bc"><g><path d="m352.6 114.8h-23.6c-2.8 0-5 2.2-5 5s2.2 5 5 5h23.7c2.8 0 5-2.2 5-5s-2.3-5-5.1-5z"/><path d="m352.6 97.1h-23.6c-2.8 0-5 2.2-5 5s2.2 5 5 5h23.7c2.8 0 5-2.2 5-5s-2.3-5-5.1-5z"/></g><g><path d="m300.8 338.4h-89.7c-2.8 0-5 2.2-5 5s2.2 5 5 5h89.7c2.8 0 5-2.2 5-5s-2.2-5-5-5z"/><path d="m290.3 318.9h-68.7c-2.8 0-5 2.2-5 5s2.2 5 5 5h68.7c2.8 0 5-2.2 5-5 0-2.7-2.2-5-5-5z"/><path d="m261.8 295.6h-11.7c-2.8 0-5 2.2-5 5s2.2 5 5 5h11.7c2.8 0 5-2.2 5-5s-2.2-5-5-5z"/></g></g></g><g fill="#6583fe"><path d="m72.8 319.9c-7.9 0-14.3-6.4-14.3-14.3s6.4-14.3 14.3-14.3 14.3 6.4 14.3 14.3-6.4 14.3-14.3 14.3zm0-18.6c-2.4 0-4.3 1.9-4.3 4.3s1.9 4.3 4.3 4.3 4.3-1.9 4.3-4.3-1.9-4.3-4.3-4.3z"/><path d="m428.2 367.3c-7.9 0-14.3-6.4-14.3-14.3s6.4-14.3 14.3-14.3 14.3 6.4 14.3 14.3-6.5 14.3-14.3 14.3zm0-18.6c-2.4 0-4.3 1.9-4.3 4.3s1.9 4.3 4.3 4.3 4.3-1.9 4.3-4.3-2-4.3-4.3-4.3z"/><path d="m94.8 142.4c-2.8 0-5-2.2-5-5 0-3.3-2.7-6-6-6-2.8 0-5-2.2-5-5s2.2-5 5-5c3.3 0 6-2.7 6-6 0-2.8 2.2-5 5-5s5 2.2 5 5c0 3.3 2.7 6 6 6 2.8 0 5 2.2 5 5s-2.2 5-5 5c-3.3 0-6 2.7-6 6 0 2.7-2.2 5-5 5z"/><path d="m426.5 113.1c-2.8 0-5-2.2-5-5 0-3.3-2.7-6-6-6-2.8 0-5-2.2-5-5s2.2-5 5-5c3.3 0 6-2.7 6-6 0-2.8 2.2-5 5-5s5 2.2 5 5c0 3.3 2.7 6 6 6 2.8 0 5 2.2 5 5s-2.2 5-5 5c-3.3 0-6 2.7-6 6 0 2.7-2.3 5-5 5z"/><path d="m94.8 374c-2.8 0-5-2.2-5-5 0-3.3-2.7-6-6-6-2.8 0-5-2.2-5-5s2.2-5 5-5c3.3 0 6-2.7 6-6 0-2.8 2.2-5 5-5s5 2.2 5 5c0 3.3 2.7 6 6 6 2.8 0 5 2.2 5 5s-2.2 5-5 5c-3.3 0-6 2.7-6 6 0 2.8-2.2 5-5 5z"/></g></g></g></svg>