<svg id="Capa_1" enable-background="new 0 0 512 512" height="512" viewBox="0 0 512 512" width="512" xmlns="http://www.w3.org/2000/svg" xmlns:xlink="http://www.w3.org/1999/xlink"><linearGradient id="SVGID_1_" gradientUnits="userSpaceOnUse" x1="23.821" x2="459.531" y1="336.331" y2="84.774"><stop offset="0" stop-color="#d2deff" stop-opacity="0"/><stop offset="1" stop-color="#b7c5ff"/></linearGradient><g><path d="m16.074 295.943c18.727 64.003 72.707 194.564 163.922 182.845 91.486-11.755 55.758-129.725 139.508-145.894 36.867-7.118 61.857 56.689 98.806 54.704 47.588-2.557 71.81-49.663 85.108-89.264 28.197-83.968-14.029-226.352-112.858-251.012-86.245-21.519-96.333 83.855-171.322 53.248-42.149-17.203-37.938-68.576-89.272-78.942-155.299-31.359-138.811 189.15-113.892 274.315z" fill="url(#SVGID_1_)"/><g><g><g><g><path d="m350.232 493.402h-188.464c-16.568 0-30-13.432-30-30v-380.679c0-16.568 13.432-30 30-30h188.464c16.568 0 30 13.431 30 30v380.678c0 16.569-13.431 30.001-30 30.001z" fill="#2626bc" opacity=".1"/><path d="m350.232 469.402h-188.464c-16.568 0-30-13.432-30-30v-380.679c0-16.569 13.432-30 30-30h188.464c16.568 0 30 13.431 30 30v380.678c0 16.569-13.431 30.001-30 30.001z" fill="#6583fe"/><path d="m131.77 71.632h248.46v354.86h-248.46z" fill="#fff"/><g><path d="m309.84 93.061h-107.68c-2.761 0-5 2.239-5 5s2.239 5 5 5h107.68c2.761 0 5-2.239 5-5s-2.238-5-5-5z" fill="#2626bc"/></g><g><g><path d="m239.225 191.403h-50.943c-5.523 0-10-4.477-10-10v-47.011c0-5.523 4.477-10 10-10h50.943c5.523 0 10 4.477 10 10v47.011c0 5.523-4.477 10-10 10z" fill="#6583fe"/><g fill="#2626bc"><path d="m228.594 170.507h-20.681c-2.761 0-5 2.239-5 5s2.239 5 5 5h20.681c2.761 0 5-2.239 5-5s-2.239-5-5-5z"/><path d="m228.594 154.177h-5.681c-2.761 0-5 2.239-5 5s2.239 5 5 5h5.681c2.761 0 5-2.239 5-5s-2.239-5-5-5z"/></g></g><g><path d="m324.144 191.122h-50.943c-5.523 0-10-4.477-10-10v-47.012c0-5.523 4.477-10 10-10h50.943c5.523 0 10 4.477 10 10v47.011c0 5.523-4.477 10.001-10 10.001z" fill="#6583fe"/><g fill="#2626bc"><path d="m313.513 170.226h-20.681c-2.761 0-5 2.239-5 5s2.239 5 5 5h20.681c2.761 0 5-2.239 5-5 0-2.762-2.239-5-5-5z"/><path d="m313.513 153.895h-5.681c-2.761 0-5 2.239-5 5s2.239 5 5 5h5.681c2.761 0 5-2.239 5-5s-2.239-5-5-5z"/></g></g><g><path d="m379.948 124.111v67.01h-21.55c-5.52 0-10-4.48-10-10v-47.01c0-5.52 4.48-10 10-10z" fill="#6583fe"/></g></g><path d="m131.77 426.492v-184.74c0-13.8 11.19-25 25-25h198.46c13.81 0 25 11.2 25 25v184.74z" fill="#fff"/><path d="m350.232 23.724h-188.464c-19.299 0-35 15.701-35 35v380.678c0 19.299 15.701 35 35 35h188.464c19.299 0 35-15.701 35-35v-380.678c0-19.299-15.701-35-35-35zm-188.464 10h188.464c13.785 0 25 11.215 25 25v160.694c-5.312-4.762-12.323-7.665-20.002-7.665h-198.46c-7.679 0-14.69 2.903-20.002 7.665v-160.694c0-13.786 11.215-25 25-25zm188.464 430.677h-188.464c-13.785 0-25-11.215-25-25v-197.63c0-.007.002-.013.002-.019 0-11.028 8.972-20 20-20h198.46c11.028 0 20 8.972 20 20 0 .006.002.012.002.019v197.63c0 13.785-11.214 25-25 25z" fill="#2626bc"/><g><path d="m273.483 56.094h-34.966c-2.761 0-5-2.239-5-5s2.239-5 5-5h34.966c2.761 0 5 2.239 5 5s-2.239 5-5 5z" fill="#2626bc"/></g><circle cx="296.813" cy="51.092" fill="#2626bc" r="5.002"/></g></g><g><g fill="#2626bc"><path d="m234.594 249.062h-20.681c-2.761 0-5 2.239-5 5s2.239 5 5 5h20.681c2.761 0 5-2.239 5-5s-2.239-5-5-5z"/><path d="m336.594 269.335h-122.681c-2.761 0-5 2.239-5 5s2.239 5 5 5h122.681c2.761 0 5-2.239 5-5s-2.239-5-5-5z"/></g><path d="m184.926 279.335h-20.272c-2.761 0-5-2.239-5-5v-20.272c0-2.761 2.239-5 5-5h20.272c2.761 0 5 2.239 5 5v20.272c0 2.761-2.239 5-5 5z" fill="#6583fe"/></g><g><g fill="#2626bc"><path d="m234.594 311.006h-20.681c-2.761 0-5 2.239-5 5s2.239 5 5 5h20.681c2.761 0 5-2.239 5-5 0-2.762-2.239-5-5-5z"/><path d="m336.594 331.278h-122.681c-2.761 0-5 2.239-5 5s2.239 5 5 5h122.681c2.761 0 5-2.239 5-5s-2.239-5-5-5z"/></g><path d="m184.926 341.278h-20.272c-2.761 0-5-2.238-5-5v-20.272c0-2.761 2.239-5 5-5h20.272c2.761 0 5 2.239 5 5v20.272c0 2.761-2.239 5-5 5z" fill="#6583fe"/></g><g><g fill="#2626bc"><path d="m234.594 372.949h-20.681c-2.761 0-5 2.239-5 5s2.239 5 5 5h20.681c2.761 0 5-2.239 5-5 0-2.762-2.239-5-5-5z"/><path d="m336.594 393.221h-122.681c-2.761 0-5 2.239-5 5s2.239 5 5 5h122.681c2.761 0 5-2.239 5-5s-2.239-5-5-5z"/></g><path d="m184.926 403.221h-20.272c-2.761 0-5-2.239-5-5v-20.272c0-2.762 2.239-5 5-5h20.272c2.761 0 5 2.238 5 5v20.272c0 2.761-2.239 5-5 5z" fill="#6583fe"/></g></g><g fill="#6583fe"><path d="m418.336 397.24c-7.88 0-14.291-6.411-14.291-14.292 0-7.88 6.411-14.292 14.291-14.292s14.291 6.411 14.291 14.292-6.411 14.292-14.291 14.292zm0-18.583c-2.366 0-4.291 1.925-4.291 4.292s1.925 4.292 4.291 4.292 4.291-1.925 4.291-4.292-1.925-4.292-4.291-4.292z"/><path d="m82.919 184.409c-2.761 0-5-2.239-5-5 0-3.309-2.691-6-6-6-2.761 0-5-2.239-5-5s2.239-5 5-5c3.309 0 6-2.691 6-6 0-2.761 2.239-5 5-5s5 2.239 5 5c0 3.309 2.691 6 6 6 2.761 0 5 2.239 5 5s-2.239 5-5 5c-3.309 0-6 2.691-6 6 0 2.761-2.239 5-5 5z"/><path d="m432.652 442.493c-2.762 0-5-2.239-5-5 0-3.309-2.691-6-6-6-2.762 0-5-2.239-5-5s2.238-5 5-5c3.309 0 6-2.691 6-6 0-2.761 2.238-5 5-5s5 2.239 5 5c0 3.309 2.691 6 6 6 2.762 0 5 2.239 5 5s-2.238 5-5 5c-3.309 0-6 2.691-6 6 0 2.761-2.238 5-5 5z"/><path d="m443.652 150.622c-2.762 0-5-2.239-5-5 0-3.309-2.691-6-6-6-2.762 0-5-2.239-5-5s2.238-5 5-5c3.309 0 6-2.691 6-6 0-2.761 2.238-5 5-5s5 2.239 5 5c0 3.309 2.691 6 6 6 2.762 0 5 2.239 5 5s-2.238 5-5 5c-3.309 0-6 2.691-6 6 0 2.761-2.238 5-5 5z"/><path d="m72.627 233.706c-2.761 0-5-2.239-5-5 0-3.309-2.691-6-6-6-2.761 0-5-2.239-5-5s2.239-5 5-5c3.309 0 6-2.691 6-6 0-2.761 2.239-5 5-5s5 2.239 5 5c0 3.309 2.691 6 6 6 2.761 0 5 2.239 5 5s-2.239 5-5 5c-3.309 0-6 2.691-6 6 0 2.761-2.238 5-5 5z"/></g></g></g></svg>