<svg id="Capa_1" enable-background="new 0 0 512 512" height="512" viewBox="0 0 512 512" width="512" xmlns="http://www.w3.org/2000/svg" xmlns:xlink="http://www.w3.org/1999/xlink"><linearGradient id="SVGID_1_" gradientUnits="userSpaceOnUse" x1="8.753" x2="524.203" y1="401.161" y2="103.566"><stop offset="0" stop-color="#d2deff" stop-opacity="0"/><stop offset="1" stop-color="#b7c5ff"/></linearGradient><g><path d="m418.32 2.5c-55.666-9.521-178.298 12.183-200.004 105.016-14.432 61.722-14.007 112.075-50.427 113.02-21.67.562-32.97-44.31-62.889-48.001-39.047-4.817-66.145 27.695-83.057 57.138-37.205 64.772-25.571 174.918 23.354 228.632 118.488 130.086 259.197-5.952 319.358-112.309 38.585-68.213 125.637-123.352 143.767-200.248 15.177-64.375-18.503-131.002-90.102-143.248z" fill="url(#SVGID_1_)"/><g><g><path d="m350.232 500.339h-188.464c-16.569 0-30-13.432-30-30v-380.678c0-16.568 13.431-30 30-30h188.464c16.569 0 30 13.431 30 30v380.678c0 16.569-13.431 30-30 30z" fill="#2626bc" opacity=".1"/><path d="m350.232 476.339h-188.464c-16.569 0-30-13.432-30-30v-380.678c0-16.568 13.431-30 30-30h188.464c16.569 0 30 13.431 30 30v380.678c0 16.569-13.431 30-30 30z" fill="#fff"/><path d="m131.77 78.57h248.46v354.86h-248.46z" fill="#fff"/><path d="m380.232 260.807h-96.361c-2.761 0-5-2.239-5-5v-125.493c0-2.761 2.239-5 5-5h96.361z" fill="#6583fe"/><g><path d="m303.92 366.24v67.19h-10v-67.19c0-2.76 2.24-5 5-5s5 2.24 5 5z" fill="#2626bc"/></g><g><path d="m303.92 221.882v85.19h-10v-85.19c0-2.76 2.24-5 5-5s5 2.24 5 5z" fill="#2626bc"/></g><g><g><path d="m380.232 417.354h-96.361c-2.761 0-5-2.238-5-5v-125.493c0-2.761 2.239-5 5-5h96.361z" fill="#6583fe"/></g><g><path d="m380.232 104.259h-96.361c-2.761 0-5-2.239-5-5v-20.692h101.361z" fill="#6583fe"/></g></g><path d="m350.232 481.339h-188.464c-19.299 0-35-15.701-35-35v-380.678c0-19.299 15.701-35 35-35h188.464c19.299 0 35 15.701 35 35v380.678c0 19.299-15.701 35-35 35zm-188.464-440.678c-13.785 0-25 11.215-25 25v380.678c0 13.785 11.215 25 25 25h188.464c13.785 0 25-11.215 25-25v-380.678c0-13.785-11.215-25-25-25z" fill="#2626bc"/><g><path d="m273.483 63.031h-34.966c-2.761 0-5-2.239-5-5s2.239-5 5-5h34.966c2.761 0 5 2.239 5 5 0 2.762-2.239 5-5 5z" fill="#2626bc"/></g><path d="m301.815 58.03c0 2.762-2.239 5.002-5.002 5.002-2.762 0-5.002-2.239-5.002-5.002 0-2.762 2.239-5.002 5.002-5.002s5.002 2.239 5.002 5.002z" fill="#2626bc"/><g fill="#6583fe"><path d="m260.06 78.57v100.49c0 2.76-2.24 5-5 5h-91.36c-2.76 0-5-2.24-5-5v-100.49z"/><path d="m255.062 338.724h-91.361c-2.761 0-5-2.238-5-5v-125.493c0-2.761 2.239-5 5-5h91.361c2.761 0 5 2.239 5 5v125.493c0 2.761-2.238 5-5 5z"/><path d="m260.062 433.433h-101.361v-70.538c0-2.762 2.239-5 5-5h91.361c2.761 0 5 2.238 5 5z"/><path d="m158.701 408.899h101.362v24.533h-101.362z"/><circle cx="168.499" cy="326.197" r="19.39"/></g><g><path d="m168.5 350.586c-13.449 0-24.39-10.941-24.39-24.39s10.941-24.39 24.39-24.39 24.39 10.941 24.39 24.39c-.001 13.45-10.942 24.39-24.39 24.39zm0-38.779c-7.935 0-14.39 6.455-14.39 14.39s6.455 14.39 14.39 14.39 14.39-6.455 14.39-14.39c-.001-7.935-6.456-14.39-14.39-14.39z" fill="#2626bc"/></g><ellipse cx="302.883" cy="195.221" fill="#2626bc" rx="8.963" ry="8.963" transform="matrix(.16 -.987 .987 .16 61.666 462.922)"/><g><path d="m173.41 255.807v-76.52c0-2.762 2.239-5 5-5s5 2.238 5 5v76.52c0 2.762-2.239 5-5 5s-5-2.239-5-5z" fill="#2626bc"/></g><g><g><path d="m301.163 306.023h40.52c2.762 0 5 2.239 5 5s-2.238 5-5 5h-40.52c-2.762 0-5-2.239-5-5s2.238-5 5-5z" fill="#2626bc"/></g><g><path d="m301.163 323.197h25.52c2.762 0 5 2.239 5 5s-2.238 5-5 5h-25.52c-2.762 0-5-2.239-5-5 0-2.762 2.238-5 5-5z" fill="#2626bc"/></g></g><g><g><path d="m298.92 142.8h40.52c2.762 0 5 2.239 5 5s-2.238 5-5 5h-40.52c-2.762 0-5-2.239-5-5s2.238-5 5-5z" fill="#2626bc"/></g><g><path d="m298.92 159.974h25.52c2.762 0 5 2.239 5 5s-2.238 5-5 5h-25.52c-2.762 0-5-2.239-5-5s2.238-5 5-5z" fill="#2626bc"/></g></g><path d="m255.84 102.81c-2.85-2.85-6.42-4.87-10.7-6.06-9.28-2.58-19.2-2.53-28.61-.61-7.81 1.6-16.45 4.54-21.2 11.39-6.05 8.75-.49 22.19 10.61 22.19 13.78 0 19.2-17.76 7.3-25.13 3.24-1.29 9.4-3.09 15.5-1.17 4.76 1.48 8.02 5.92 8.03 10.9v13.97c0 3.21-1.52 5.74-4.55 7.58-12.53 7.61-30.09 8.2-39.74 20.31-4.8 6.03-5.54 14.87-2.78 22 .89 2.3 2.09 4.25 3.54 5.88h37.46c2.42-2.07 4.56-4.63 6.43-7.65.07 2.95.71 5.5 1.92 7.65h16.01c2.76 0 5-2.24 5-5v-69.89c-.99-2.41-2.39-4.53-4.22-6.36zm-19.07 62.68c-3.45 4.87-6.51 7.68-11.59 8.76-3.62.77-11.58-.5-11.58-9.06 0-8.23 9.45-12.13 14.08-15.1 4.63-2.85 7.66-5.46 9.09-7.84z" fill="#2626bc"/></g><g fill="#6583fe"><path d="m429.796 194.55c-7.88 0-14.292-6.411-14.292-14.292s6.411-14.291 14.292-14.291 14.291 6.411 14.291 14.291-6.411 14.292-14.291 14.292zm0-18.583c-2.366 0-4.292 1.925-4.292 4.291s1.925 4.292 4.292 4.292c2.366 0 4.291-1.925 4.291-4.292 0-2.366-1.925-4.291-4.291-4.291z"/><path d="m418.213 337.724c-7.88 0-14.292-6.411-14.292-14.292 0-7.88 6.411-14.292 14.292-14.292s14.292 6.411 14.292 14.292c-.001 7.88-6.412 14.292-14.292 14.292zm0-18.583c-2.366 0-4.292 1.925-4.292 4.292 0 2.366 1.925 4.292 4.292 4.292 2.366 0 4.292-1.925 4.292-4.292-.001-2.367-1.926-4.292-4.292-4.292z"/><path d="m94.981 325.315c-7.88 0-14.292-6.411-14.292-14.291s6.411-14.292 14.292-14.292c7.88 0 14.291 6.411 14.291 14.292.001 7.879-6.411 14.291-14.291 14.291zm0-18.583c-2.366 0-4.292 1.925-4.292 4.292s1.925 4.291 4.292 4.291c2.366 0 4.291-1.925 4.291-4.291s-1.925-4.292-4.291-4.292z"/><path d="m421.504 249.728c-2.761 0-5-2.239-5-5 0-3.309-2.691-6-6-6-2.761 0-5-2.239-5-5s2.239-5 5-5c3.309 0 6-2.692 6-6 0-2.761 2.239-5 5-5s5 2.239 5 5c0 3.308 2.691 6 6 6 2.761 0 5 2.239 5 5s-2.239 5-5 5c-3.309 0-6 2.691-6 6 0 2.761-2.238 5-5 5z"/><path d="m89.981 160.314c-2.761 0-5-2.239-5-5 0-3.309-2.691-6-6-6-2.761 0-5-2.239-5-5s2.239-5 5-5c3.309 0 6-2.691 6-6 0-2.761 2.239-5 5-5s5 2.239 5 5c0 3.309 2.691 6 6 6 2.761 0 5 2.239 5 5s-2.239 5-5 5c-3.309 0-6 2.691-6 6 0 2.761-2.239 5-5 5z"/></g><path d="m330.536 368.448c0-9.16-7.453-16.613-16.613-16.613-9.161 0-16.613 7.453-16.613 16.613 0 4.518 1.818 8.615 4.754 11.613-2.936 2.998-4.754 7.095-4.754 11.613 0 2.761 2.239 5 5 5s5-2.239 5-5c0-3.647 2.967-6.613 6.613-6.613 3.647 0 6.613 2.967 6.613 6.613 0 2.761 2.239 5 5 5s5-2.239 5-5c0-4.518-1.818-8.615-4.754-11.613 2.936-2.997 4.754-7.095 4.754-11.613zm-16.614-6.613c3.647 0 6.613 2.966 6.613 6.613 0 3.646-2.967 6.613-6.613 6.613s-6.613-2.967-6.613-6.613 2.967-6.613 6.613-6.613z" fill="#2626bc"/></g><g><path d="m131.77 73.57h248.46v10h-248.46z" fill="#2626bc"/></g><g><path d="m131.77 428.43h248.46v10h-248.46z" fill="#2626bc"/></g><g><path d="m158.701 403.899h101.359v10h-101.359z" fill="#2626bc"/></g></g></svg>