<svg id="Capa_1" enable-background="new 0 0 512 512" height="512" viewBox="0 0 512 512" width="512" xmlns="http://www.w3.org/2000/svg" xmlns:xlink="http://www.w3.org/1999/xlink"><linearGradient id="SVGID_1_" gradientUnits="userSpaceOnUse" x1="0" x2="512" y1="256" y2="256"><stop offset="0" stop-color="#d2deff" stop-opacity="0"/><stop offset="1" stop-color="#b7c5ff"/></linearGradient><g><path d="m451.798 43.963c-160.556-97.869-410.51-8.611-439.594 61.949-38.908 94.393 26.578 110.528 38.743 187.874 9.761 62.06-51.182 121.495-16.394 176.282 37.882 59.663 163.465 44.681 211.198 16.447 87.376-51.682 43.309-112.012 84.684-187.299 39.408-71.707 116.244-42.625 160.961-99.99 42.5-54.521 14.31-122.402-39.598-155.263z" fill="url(#SVGID_1_)"/><g><g><g><g><path d="m455.47 452.133h-398.94c-8.284 0-15-6.716-15-15v-314.266c0-8.284 6.716-15 15-15h398.94c8.284 0 15 6.716 15 15v314.266c0 8.285-6.715 15-15 15z" fill="#2626bc" opacity=".1"/><path d="m455.47 428.133h-398.94c-8.284 0-15-6.716-15-15v-314.266c0-8.284 6.716-15 15-15h398.94c8.284 0 15 6.716 15 15v314.266c0 8.285-6.715 15-15 15z" fill="#fff"/><path d="m470.47 153.18v-54.313c0-8.284-6.716-15-15-15h-398.94c-8.284 0-15 6.716-15 15v54.313z" fill="#6583fe"/><path d="m455.47 433.133h-398.94c-11.028 0-20-8.972-20-20v-314.266c0-11.028 8.972-20 20-20h398.94c11.028 0 20 8.972 20 20v314.266c0 11.028-8.972 20-20 20zm-398.94-344.266c-5.514 0-10 4.486-10 10v314.266c0 5.514 4.486 10 10 10h398.94c5.514 0 10-4.486 10-10v-314.266c0-5.514-4.486-10-10-10z" fill="#2626bc"/></g><g><g fill="#fff"><circle cx="85.623" cy="120.768" r="10.901"/><circle cx="120.424" cy="120.768" r="10.901"/><circle cx="155.224" cy="120.768" r="10.901"/></g><path d="m432.277 133.015h-136.158v-24.495h136.158c2.761 0 5 2.239 5 5v14.496c0 2.761-2.238 4.999-5 4.999z" fill="#fff"/><path d="m296.789 108.831c-5.286-5.286-13.887-5.286-19.173 0s-5.286 13.887 0 19.173c4.037 4.037 10.003 4.98 14.953 2.852l4.348 4.348c1.952 1.952 5.119 1.952 7.071 0 1.953-1.952 1.953-5.119 0-7.071l-4.348-4.348c2.129-4.951 1.186-10.917-2.851-14.954zm-12.102 7.071c1.387-1.387 3.644-1.387 5.031 0s1.387 3.644 0 5.031-3.644 1.387-5.031 0-1.387-3.644 0-5.031z" fill="#2626bc"/></g></g><g fill="#2626bc"><path d="m434.655 401.035h-6c-2.761 0-5-2.238-5-5s2.239-5 5-5h1v-1c0-2.762 2.239-5 5-5s5 2.238 5 5v6c0 2.762-2.239 5-5 5z"/><path d="m395.676 401.035h-11.64c-2.761 0-5-2.238-5-5s2.239-5 5-5h11.64c2.761 0 5 2.238 5 5s-2.239 5-5 5zm-44.619 0h-11.64c-2.761 0-5-2.238-5-5s2.239-5 5-5h11.64c2.761 0 5 2.238 5 5s-2.239 5-5 5zm-44.618 0h-11.64c-2.761 0-5-2.238-5-5s2.239-5 5-5h11.64c2.761 0 5 2.238 5 5s-2.239 5-5 5zm-44.619 0h-11.64c-2.761 0-5-2.238-5-5s2.239-5 5-5h11.64c2.761 0 5 2.238 5 5s-2.239 5-5 5zm-44.619 0h-11.64c-2.761 0-5-2.238-5-5s2.239-5 5-5h11.64c2.761 0 5 2.238 5 5s-2.239 5-5 5zm-44.618 0h-11.64c-2.761 0-5-2.238-5-5s2.239-5 5-5h11.64c2.761 0 5 2.238 5 5s-2.239 5-5 5zm-44.619 0h-11.64c-2.761 0-5-2.238-5-5s2.239-5 5-5h11.64c2.761 0 5 2.238 5 5s-2.239 5-5 5z"/><path d="m83.345 401.035h-6c-2.761 0-5-2.238-5-5v-6c0-2.762 2.239-5 5-5s5 2.238 5 5v1h1c2.761 0 5 2.238 5 5s-2.239 5-5 5z"/><path d="m77.345 362.644c-2.761 0-5-2.238-5-5v-11.433c0-2.762 2.239-5 5-5s5 2.238 5 5v11.433c0 2.761-2.239 5-5 5zm0-43.825c-2.761 0-5-2.238-5-5v-11.433c0-2.762 2.239-5 5-5s5 2.238 5 5v11.433c0 2.762-2.239 5-5 5zm0-43.824c-2.761 0-5-2.238-5-5v-11.433c0-2.762 2.239-5 5-5s5 2.238 5 5v11.433c0 2.762-2.239 5-5 5zm0-43.824c-2.761 0-5-2.238-5-5v-11.433c0-2.762 2.239-5 5-5s5 2.238 5 5v11.433c0 2.762-2.239 5-5 5z"/><path d="m77.345 187.347c-2.761 0-5-2.238-5-5v-6c0-2.762 2.239-5 5-5h6c2.761 0 5 2.238 5 5s-2.239 5-5 5h-1v1c0 2.761-2.239 5-5 5z"/><path d="m395.676 181.347h-11.64c-2.761 0-5-2.238-5-5s2.239-5 5-5h11.64c2.761 0 5 2.238 5 5s-2.239 5-5 5zm-44.619 0h-11.64c-2.761 0-5-2.238-5-5s2.239-5 5-5h11.64c2.761 0 5 2.238 5 5s-2.239 5-5 5zm-44.618 0h-11.64c-2.761 0-5-2.238-5-5s2.239-5 5-5h11.64c2.761 0 5 2.238 5 5s-2.239 5-5 5zm-44.619 0h-11.64c-2.761 0-5-2.238-5-5s2.239-5 5-5h11.64c2.761 0 5 2.238 5 5s-2.239 5-5 5zm-44.619 0h-11.64c-2.761 0-5-2.238-5-5s2.239-5 5-5h11.64c2.761 0 5 2.238 5 5s-2.239 5-5 5zm-44.618 0h-11.64c-2.761 0-5-2.238-5-5s2.239-5 5-5h11.64c2.761 0 5 2.238 5 5s-2.239 5-5 5zm-44.619 0h-11.64c-2.761 0-5-2.238-5-5s2.239-5 5-5h11.64c2.761 0 5 2.238 5 5s-2.239 5-5 5z"/><path d="m434.655 187.347c-2.761 0-5-2.238-5-5v-1h-1c-2.761 0-5-2.238-5-5s2.239-5 5-5h6c2.761 0 5 2.238 5 5v6c0 2.761-2.239 5-5 5z"/><path d="m434.655 362.644c-2.761 0-5-2.238-5-5v-11.433c0-2.762 2.239-5 5-5s5 2.238 5 5v11.433c0 2.761-2.239 5-5 5zm0-43.825c-2.761 0-5-2.238-5-5v-11.433c0-2.762 2.239-5 5-5s5 2.238 5 5v11.433c0 2.762-2.239 5-5 5zm0-43.824c-2.761 0-5-2.238-5-5v-11.433c0-2.762 2.239-5 5-5s5 2.238 5 5v11.433c0 2.762-2.239 5-5 5zm0-43.824c-2.761 0-5-2.238-5-5v-11.433c0-2.762 2.239-5 5-5s5 2.238 5 5v11.433c0 2.762-2.239 5-5 5z"/></g><path d="m115.158 377.791c-1.68 0-3.32-.847-4.264-2.382-1.446-2.353-.712-5.432 1.641-6.879l10.222-6.285c2.352-1.446 5.432-.711 6.878 1.641 1.446 2.353.712 5.432-1.641 6.879l-10.222 6.285c-.817.502-1.721.741-2.614.741zm39.185-24.093c-1.68 0-3.32-.847-4.264-2.382-1.446-2.353-.712-5.433 1.641-6.879l10.223-6.285c2.353-1.446 5.432-.711 6.878 1.641 1.446 2.353.712 5.433-1.641 6.879l-10.223 6.285c-.816.502-1.721.741-2.614.741zm39.186-24.093c-1.68 0-3.32-.847-4.264-2.382-1.446-2.353-.712-5.432 1.641-6.879l10.222-6.285c2.352-1.446 5.432-.711 6.878 1.641 1.446 2.353.712 5.432-1.641 6.879l-10.222 6.285c-.816.501-1.721.741-2.614.741zm39.186-24.093c-1.68 0-3.32-.847-4.264-2.382-1.446-2.353-.712-5.433 1.641-6.879l10.223-6.285c2.352-1.446 5.431-.711 6.878 1.641 1.446 2.353.712 5.433-1.641 6.879l-10.223 6.285c-.817.502-1.721.741-2.614.741zm39.186-24.093c-1.68 0-3.32-.847-4.264-2.382-1.446-2.353-.712-5.432 1.641-6.879l10.222-6.285c2.352-1.446 5.432-.711 6.878 1.641 1.446 2.353.712 5.432-1.641 6.879l-10.222 6.285c-.817.502-1.721.741-2.614.741zm39.185-24.094c-1.68 0-3.32-.847-4.264-2.382-1.446-2.353-.712-5.432 1.641-6.879l10.222-6.285c2.352-1.445 5.432-.711 6.878 1.641 1.446 2.353.712 5.432-1.641 6.879l-10.222 6.285c-.816.502-1.721.741-2.614.741zm39.186-24.093c-1.68 0-3.32-.847-4.264-2.382-1.446-2.353-.712-5.433 1.641-6.879l10.223-6.285c2.353-1.446 5.432-.711 6.878 1.641 1.446 2.353.712 5.433-1.641 6.879l-10.223 6.285c-.817.502-1.721.741-2.614.741zm39.186-24.092c-1.68 0-3.32-.847-4.264-2.382-1.446-2.352-.712-5.432 1.64-6.878l10.045-6.177c2.353-1.448 5.432-.711 6.878 1.64 1.446 2.352.712 5.432-1.64 6.878l-10.045 6.177c-.817.502-1.721.742-2.614.742z" fill="#2626bc"/><path d="m139.208 212.986h-4.488v-4.488c0-2.761-2.239-5-5-5s-5 2.239-5 5v4.488h-4.489c-2.761 0-5 2.239-5 5s2.239 5 5 5h4.489v4.489c0 2.761 2.239 5 5 5s5-2.239 5-5v-4.489h4.488c2.761 0 5-2.239 5-5s-2.239-5-5-5z" fill="#6583fe"/><g><g><path d="m179.912 258.282h-59.681c-2.761 0-5-2.239-5-5s2.239-5 5-5h59.681c2.761 0 5 2.239 5 5s-2.239 5-5 5z" fill="#2626bc"/></g><g><path d="m140.912 275.739h-20.681c-2.761 0-5-2.239-5-5s2.239-5 5-5h20.681c2.761 0 5 2.239 5 5s-2.239 5-5 5z" fill="#2626bc"/></g><g><path d="m140.912 319.102h-20.681c-2.761 0-5-2.239-5-5s2.239-5 5-5h20.681c2.761 0 5 2.239 5 5 0 2.762-2.239 5-5 5z" fill="#2626bc"/></g><g><path d="m140.912 301.646h-20.681c-2.761 0-5-2.239-5-5s2.239-5 5-5h20.681c2.761 0 5 2.239 5 5s-2.239 5-5 5z" fill="#2626bc"/></g></g><g><ellipse cx="375.43" cy="330.297" fill="#6583fe" rx="33.651" ry="33.651" transform="matrix(.227 -.974 .974 .227 -31.314 621.163)"/><path d="m392.04 331.44c0-9.16-7.45-16.62-16.61-16.62s-16.61 7.46-16.61 16.62c0 4.51 1.81 8.61 4.75 11.61-2.94 3-4.75 7.1-4.75 11.61v4.91c3.06 1.74 6.43 3.02 10 3.73v-8.64c0-3.64 2.96-6.61 6.61-6.61s6.61 2.97 6.61 6.61v8.64c3.57-.71 6.93-1.99 10-3.73v-4.91c0-4.51-1.82-8.61-4.75-11.61 2.93-3 4.75-7.1 4.75-11.61zm-16.61 6.61c-3.65 0-6.61-2.97-6.61-6.61 0-3.65 2.96-6.62 6.61-6.62s6.61 2.97 6.61 6.62c0 3.64-2.96 6.61-6.61 6.61z" fill="#2626bc"/></g><g><path d="m266.04 352.622h59.681c2.761 0 5 2.239 5 5s-2.239 5-5 5h-59.681c-2.761 0-5-2.239-5-5s2.239-5 5-5z" fill="#2626bc"/></g><g><path d="m305.04 335.165h20.681c2.761 0 5 2.239 5 5s-2.239 5-5 5h-20.681c-2.761 0-5-2.239-5-5s2.239-5 5-5z" fill="#2626bc"/></g></g><g fill="#6583fe"><path d="m418.372 482.421c-7.88 0-14.292-6.411-14.292-14.291 0-7.881 6.411-14.292 14.292-14.292 7.88 0 14.292 6.411 14.292 14.292 0 7.88-6.412 14.291-14.292 14.291zm0-18.583c-2.366 0-4.292 1.926-4.292 4.292s1.925 4.291 4.292 4.291c2.366 0 4.292-1.925 4.292-4.291s-1.926-4.292-4.292-4.292z"/><path d="m358.93 482.421c-7.88 0-14.292-6.411-14.292-14.291 0-7.881 6.411-14.292 14.292-14.292 7.88 0 14.291 6.411 14.291 14.292.001 7.88-6.411 14.291-14.291 14.291zm0-18.583c-2.366 0-4.292 1.926-4.292 4.292s1.925 4.291 4.292 4.291c2.366 0 4.291-1.925 4.291-4.291s-1.925-4.292-4.291-4.292z"/><path d="m201.036 64.162c-7.88 0-14.292-6.411-14.292-14.292 0-7.88 6.411-14.291 14.292-14.291 7.88 0 14.291 6.411 14.291 14.291.001 7.881-6.41 14.292-14.291 14.292zm0-18.583c-2.366 0-4.292 1.925-4.292 4.291s1.925 4.292 4.292 4.292c2.366 0 4.291-1.926 4.291-4.292s-1.925-4.291-4.291-4.291z"/><path d="m128.92 65.87c-2.761 0-5-2.238-5-5 0-3.309-2.691-6-6-6-2.761 0-5-2.238-5-5s2.239-5 5-5c3.309 0 6-2.691 6-6 0-2.762 2.239-5 5-5s5 2.238 5 5c0 3.309 2.691 6 6 6 2.761 0 5 2.238 5 5s-2.239 5-5 5c-3.309 0-6 2.691-6 6 0 2.762-2.239 5-5 5z"/><path d="m315.381 65.87c-2.761 0-5-2.238-5-5 0-3.309-2.691-6-6-6-2.761 0-5-2.238-5-5s2.239-5 5-5c3.309 0 6-2.691 6-6 0-2.762 2.239-5 5-5s5 2.238 5 5c0 3.309 2.691 6 6 6 2.761 0 5 2.238 5 5s-2.239 5-5 5c-3.309 0-6 2.691-6 6 0 2.762-2.239 5-5 5z"/></g></g></g></svg>