<svg id="Capa_1" enable-background="new 0 0 512 512" height="512" viewBox="0 0 512 512" width="512" xmlns="http://www.w3.org/2000/svg" xmlns:xlink="http://www.w3.org/1999/xlink"><linearGradient id="SVGID_1_" gradientUnits="userSpaceOnUse" x1="0" x2="512" y1="256" y2="256"><stop offset="0" stop-color="#d2deff" stop-opacity="0"/><stop offset="1" stop-color="#b7c5ff"/></linearGradient><g><g><path d="m418.32 2.5c-55.666-9.521-178.298 12.183-200.004 105.016-14.432 61.722-14.007 112.075-50.427 113.02-21.67.562-32.97-44.31-62.889-48.001-39.047-4.817-66.145 27.695-83.057 57.138-37.205 64.772-25.571 174.918 23.354 228.632 118.488 130.086 259.197-5.952 319.358-112.309 38.585-68.213 125.637-123.352 143.767-200.248 15.177-64.375-18.503-131.002-90.102-143.248z" fill="url(#SVGID_1_)"/><g><g><path d="m350.232 500.339h-188.464c-16.569 0-30-13.432-30-30v-380.678c0-16.568 13.431-30 30-30h188.464c16.569 0 30 13.431 30 30v380.678c0 16.569-13.431 30-30 30z" fill="#2626bc" opacity=".1"/><path d="m350.232 476.339h-188.464c-16.569 0-30-13.432-30-30v-380.678c0-16.568 13.431-30 30-30h188.464c16.569 0 30 13.431 30 30v380.678c0 16.569-13.431 30-30 30z" fill="#6583fe"/><path d="m131.77 78.57h248.46v354.86h-248.46z" fill="#fff"/><path d="m131.77 78.57h248.46v265.25h-248.46z" fill="#fff"/><g fill="#2626bc"><path d="m352.644 114.808h-20.681c-2.761 0-5 2.239-5 5s2.239 5 5 5h20.681c2.761 0 5-2.239 5-5s-2.238-5-5-5z"/><path d="m352.644 97.052h-20.681c-2.761 0-5 2.239-5 5s2.239 5 5 5h20.681c2.761 0 5-2.239 5-5s-2.238-5-5-5z"/></g><g fill="#6583fe"><path d="m380.23 236.6v107.22h-196.91c21.5-31.36 78.14-93.17 196.91-107.22z"/><path d="m380.23 236.6v107.22h-196.91c21.5-31.36 78.14-93.17 196.91-107.22z"/><path d="m380.23 260.63v83.19h-104.63c15.4-28.48 46.64-68.55 104.63-83.19z"/></g><g><path d="m275.596 348.821c-.803 0-1.618-.194-2.374-.603-2.429-1.313-3.333-4.347-2.02-6.776 16.696-30.876 48.951-70.801 107.804-85.659 2.682-.675 5.396.946 6.072 3.624s-.946 5.396-3.624 6.072c-55.332 13.969-85.713 51.606-101.456 80.72-.904 1.672-2.625 2.622-4.402 2.622z" fill="#2626bc"/></g><path d="m350.232 481.339h-188.464c-19.299 0-35-15.701-35-35v-380.678c0-19.299 15.701-35 35-35h188.464c19.299 0 35 15.701 35 35v380.678c0 19.299-15.701 35-35 35zm-188.464-440.678c-13.785 0-25 11.215-25 25v380.678c0 13.785 11.215 25 25 25h188.464c13.785 0 25-11.215 25-25v-380.678c0-13.785-11.215-25-25-25z" fill="#2626bc"/><g><path d="m273.483 63.031h-34.966c-2.761 0-5-2.239-5-5s2.239-5 5-5h34.966c2.761 0 5 2.239 5 5 0 2.762-2.239 5-5 5z" fill="#2626bc"/></g><path d="m301.815 58.03c0 2.762-2.239 5.002-5.002 5.002-2.762 0-5.002-2.239-5.002-5.002 0-2.762 2.239-5.002 5.002-5.002s5.002 2.239 5.002 5.002z" fill="#2626bc"/></g></g><g><circle cx="256" cy="324.442" fill="#fff" r="33.651"/><g><path d="m256 363.093c-21.312 0-38.651-17.339-38.651-38.651s17.339-38.651 38.651-38.651 38.651 17.339 38.651 38.651-17.339 38.651-38.651 38.651zm0-67.302c-15.798 0-28.651 12.853-28.651 28.651s12.853 28.651 28.651 28.651 28.651-12.853 28.651-28.651-12.853-28.651-28.651-28.651z" fill="#2626bc"/></g><path d="m272.617 325.58c0-9.16-7.46-16.61-16.62-16.61s-16.61 7.45-16.61 16.61c0 4.52 1.82 8.62 4.75 11.62-2.93 2.99-4.75 7.09-4.75 11.61v4.9c3.07 1.74 6.43 3.02 10 3.73v-8.63c0-3.65 2.97-6.61 6.61-6.61 3.65 0 6.62 2.96 6.62 6.61v8.63c3.57-.71 6.93-1.99 10-3.73v-4.9c0-4.52-1.82-8.62-4.76-11.61 2.94-3 4.76-7.1 4.76-11.62zm-16.62 6.62c-3.64 0-6.61-2.97-6.61-6.62 0-3.64 2.97-6.61 6.61-6.61 3.65 0 6.62 2.97 6.62 6.61 0 3.65-2.97 6.62-6.62 6.62z" fill="#2626bc"/></g><g fill="#2626bc"><g><path d="m220.616 376.49h-35.681c-2.761 0-5 2.239-5 5s2.239 5 5 5h35.681c2.761 0 5-2.239 5-5s-2.239-5-5-5z"/><path d="m231.116 397.387h-56.681c-2.761 0-5 2.239-5 5s2.239 5 5 5h56.681c2.761 0 5-2.239 5-5s-2.239-5-5-5z"/></g><g><path d="m327.065 376.49h-35.681c-2.761 0-5 2.239-5 5s2.239 5 5 5h35.681c2.761 0 5-2.239 5-5s-2.239-5-5-5z"/><path d="m337.565 397.387h-56.681c-2.761 0-5 2.239-5 5s2.239 5 5 5h56.681c2.761 0 5-2.239 5-5s-2.239-5-5-5z"/></g></g></g><g fill="#6583fe"><path d="m431.277 378.182c-7.88 0-14.292-6.411-14.292-14.292 0-7.88 6.411-14.292 14.292-14.292 7.88 0 14.292 6.411 14.292 14.292s-6.411 14.292-14.292 14.292zm0-18.583c-2.366 0-4.292 1.925-4.292 4.292s1.925 4.292 4.292 4.292c2.366 0 4.292-1.925 4.292-4.292s-1.925-4.292-4.292-4.292z"/><path d="m74.723 427.181c-7.88 0-14.292-6.411-14.292-14.291s6.411-14.292 14.292-14.292c7.88 0 14.291 6.411 14.291 14.292 0 7.88-6.411 14.291-14.291 14.291zm0-18.583c-2.366 0-4.292 1.925-4.292 4.292 0 2.366 1.925 4.291 4.292 4.291 2.366 0 4.291-1.925 4.291-4.291 0-2.367-1.925-4.292-4.291-4.292z"/><path d="m437.785 318.878c-2.761 0-5-2.239-5-5 0-3.309-2.691-6-6-6-2.761 0-5-2.239-5-5s2.239-5 5-5c3.309 0 6-2.691 6-6 0-2.761 2.239-5 5-5s5 2.239 5 5c0 3.309 2.691 6 6 6 2.761 0 5 2.239 5 5s-2.239 5-5 5c-3.309 0-6 2.691-6 6 0 2.761-2.239 5-5 5z"/><path d="m74.723 130.808c-2.761 0-5-2.239-5-5 0-3.309-2.692-6-6-6-2.761 0-5-2.239-5-5s2.239-5 5-5c3.308 0 6-2.692 6-6 0-2.761 2.239-5 5-5s5 2.239 5 5c0 3.309 2.691 6 6 6 2.761 0 5 2.239 5 5s-2.239 5-5 5c-3.309 0-6 2.691-6 6 0 2.761-2.239 5-5 5z"/><path d="m96.524 182.065c-2.761 0-5-2.239-5-5 0-3.309-2.691-6-6-6-2.761 0-5-2.239-5-5s2.239-5 5-5c3.309 0 6-2.691 6-6 0-2.761 2.239-5 5-5s5 2.239 5 5c0 3.309 2.691 6 6 6 2.761 0 5 2.239 5 5s-2.239 5-5 5c-3.309 0-6 2.691-6 6 0 2.761-2.239 5-5 5z"/></g></g></svg>