<svg id="Capa_1" enable-background="new 0 0 512 512" height="512" viewBox="0 0 512 512" width="512" xmlns="http://www.w3.org/2000/svg" xmlns:xlink="http://www.w3.org/1999/xlink"><linearGradient id="SVGID_1_" gradientUnits="userSpaceOnUse" x1="-21.409" x2="490.399" y1="373.272" y2="77.779"><stop offset="0" stop-color="#d2deff" stop-opacity="0"/><stop offset="1" stop-color="#b7c5ff"/></linearGradient><g><path d="m451.798 43.963c-160.556-97.869-410.51-8.611-439.594 61.949-38.908 94.393 26.578 110.528 38.743 187.874 9.761 62.06-51.182 121.494-16.394 176.282 37.882 59.663 163.465 44.681 211.198 16.447 87.376-51.682 43.309-112.012 84.684-187.299 39.407-71.707 116.244-42.625 160.961-99.99 42.5-54.521 14.311-122.402-39.598-155.263z" fill="url(#SVGID_1_)"/><g><g><g><path d="m350.232 500.339h-188.464c-16.568 0-30-13.431-30-30v-380.678c0-16.568 13.432-30 30-30h188.464c16.569 0 30 13.432 30 30v380.678c0 16.569-13.431 30-30 30z" fill="#2626bc" opacity=".1"/><path d="m350.232 476.339h-188.464c-16.568 0-30-13.431-30-30v-380.678c0-16.569 13.432-30 30-30h188.464c16.569 0 30 13.432 30 30v380.678c0 16.569-13.431 30-30 30z" fill="#6583fe"/><path d="m131.77 78.57h248.46v354.86h-248.46z" fill="#fff"/><path d="m350.232 481.339h-188.464c-19.299 0-35-15.701-35-35v-380.678c0-19.299 15.701-35 35-35h188.464c19.299 0 35 15.701 35 35v380.678c0 19.299-15.701 35-35 35zm-188.464-440.678c-13.785 0-25 11.215-25 25v380.678c0 13.785 11.215 25 25 25h188.464c13.785 0 25-11.215 25-25v-380.678c0-13.785-11.215-25-25-25z" fill="#2626bc"/><g><path d="m273.483 63.031h-34.966c-2.761 0-5-2.239-5-5s2.239-5 5-5h34.966c2.761 0 5 2.239 5 5 0 2.762-2.239 5-5 5z" fill="#2626bc"/></g><path d="m301.815 58.03c0 2.762-2.239 5.002-5.002 5.002-2.762 0-5.002-2.239-5.002-5.002 0-2.762 2.239-5.002 5.002-5.002s5.002 2.239 5.002 5.002z" fill="#2626bc"/></g><path d="m356.24 113.94v319.49h-200.48v-319.49c0-5.52 4.48-10 10-10h180.48c5.52 0 10 4.48 10 10z" fill="#6583fe"/><path d="m356.24 182.26v215.71c-56.25-3.82-100.68-50.64-100.68-107.85 0-57.22 44.43-104.04 100.68-107.86z" fill="#fff"/><g><g fill="#fff"><path d="m314.871 249.538c-.419-1.495-2.172-2.179-3.473-1.332-2.402 1.561-4.527 2.341-6.377 2.341-2.156 0-3.605-.827-4.35-2.486-.746-1.654-1.118-4.474-1.118-8.451v-62.974c0-9.112-.622-16.321-1.864-21.626-1.243-5.302-3.69-9.776-7.333-13.423-3.977-3.977-8.949-6.793-14.915-8.451-12.955-3.601-26.79-3.522-39.909-.844-10.893 2.223-22.951 6.324-29.567 15.883-8.447 12.203-.683 30.947 14.789 30.948 19.227.001 26.78-24.766 10.187-35.044 4.514-1.81 13.106-4.311 21.626-1.643 6.627 2.075 11.175 8.261 11.191 15.205v.104 19.389c0 4.474-2.113 7.997-6.338 10.565-17.478 10.619-41.969 11.433-55.432 28.337-6.694 8.404-7.722 20.738-3.885 30.672 4.903 12.696 16.617 17.675 29.612 17.675 16.071 0 28.252-6.711 36.54-20.134.163 6.133 2.069 11.023 5.717 14.666 3.644 3.647 10.025 5.468 19.14 5.468 10.172 0 18.869-2.734 26.086-8.204.763-.578 1.098-1.563.839-2.485zm-51.115-20.533c-4.809 6.797-9.08 10.717-16.157 12.224-5.061 1.078-16.157-.696-16.157-12.643 0-11.476 13.174-16.906 19.637-21.05 6.463-3.977 10.689-7.62 12.678-10.937v32.406z"/><path d="m220.752 179.121c19.226.001 26.78-24.766 10.187-35.044 4.514-1.81 13.106-4.311 21.626-1.643 5.496 1.721 9.552 6.272 10.789 11.735l18.557-18.557c-2.012-.996-4.158-1.835-6.472-2.478-12.955-3.601-26.79-3.522-39.909-.844-10.893 2.223-22.951 6.324-29.567 15.883-8.447 12.203-.683 30.947 14.789 30.948z"/><path d="m314.871 249.538c-.419-1.495-2.172-2.179-3.473-1.332-2.402 1.561-4.527 2.341-6.377 2.341-2.156 0-3.605-.827-4.35-2.486-.746-1.654-1.118-4.474-1.118-8.451v-62.974c0-.007 0-.013 0-.02l-35.794 35.794v16.596c-4.809 6.797-9.08 10.717-16.157 12.224-2.73.581-7.213.329-10.766-1.897l-22.829 22.829c4.201 1.525 8.866 2.22 13.709 2.22 16.071 0 28.252-6.712 36.54-20.135.163 6.133 2.07 11.023 5.717 14.666 3.644 3.647 10.025 5.468 19.14 5.468 10.172 0 18.869-2.734 26.086-8.204.763-.578 1.098-1.563.839-2.485z"/><path d="m316.035 253.693-1.165-4.155c-.419-1.495-2.172-2.179-3.473-1.332-2.402 1.561-4.527 2.341-6.377 2.341-2.156 0-3.605-.827-4.35-2.486-.746-1.654-1.118-4.474-1.118-8.451v-17.486c-11.021 10.708-21.94 21.518-32.818 32.37.855 1.634 1.928 3.112 3.238 4.42 3.644 3.647 10.025 5.468 19.14 5.468 10.172 0 18.869-2.734 26.086-8.204.761-.579 1.096-1.564.837-2.485z"/></g><g><g><g><path d="m312.488 140.561v-7.966c0-2.761 2.239-5 5-5s5 2.239 5 5v7.966c0 2.761-2.239 5-5 5s-5-2.239-5-5z" fill="#2626bc"/></g><g><path d="m327.288 140.561v-7.966c0-2.761 2.239-5 5-5s5 2.239 5 5v7.966c0 2.761-2.239 5-5 5s-5-2.239-5-5z" fill="#2626bc"/></g></g><g><g><path d="m174.712 140.561v-7.966c0-2.761 2.239-5 5-5s5 2.239 5 5v7.966c0 2.761-2.239 5-5 5s-5-2.239-5-5z" fill="#2626bc"/></g><g><path d="m189.512 140.561v-7.966c0-2.761 2.239-5 5-5s5 2.239 5 5v7.966c0 2.761-2.239 5-5 5-2.762 0-5-2.239-5-5z" fill="#2626bc"/></g></g></g></g><path d="m231.974 332.641h-76.209v-47.302h76.209c2.761 0 5 2.239 5 5v37.302c0 2.761-2.238 5-5 5z" fill="#fff"/><path d="m325.853 319.126h-97.232c-5.494 0-9.949-4.454-9.949-9.949 0-5.494 4.454-9.948 9.949-9.948h97.232c5.494 0 9.948 4.454 9.948 9.948.001 5.495-4.453 9.949-9.948 9.949z" fill="#6583fe"/><g><path d="m325.853 324.126h-97.232c-8.243 0-14.948-6.706-14.948-14.948 0-8.243 6.706-14.948 14.948-14.948h97.232c8.243 0 14.949 6.706 14.949 14.948s-6.706 14.948-14.949 14.948zm-97.232-19.897c-2.729 0-4.948 2.22-4.948 4.948 0 2.729 2.22 4.948 4.948 4.948h97.232c2.729 0 4.949-2.22 4.949-4.948s-2.22-4.948-4.949-4.948z" fill="#2626bc"/></g><g fill="#2626bc"><path d="m197.71 303.99h-8.681c-2.761 0-5 2.239-5 5s2.239 5 5 5h8.681c2.761 0 5-2.239 5-5s-2.239-5-5-5z"/><g><path d="m327.84 348.013h-143.68c-2.761 0-5 2.239-5 5s2.239 5 5 5h143.68c2.761 0 5-2.239 5-5s-2.238-5-5-5z"/><g><path d="m327.84 386.868h-143.68c-2.761 0-5 2.239-5 5s2.239 5 5 5h143.68c2.761 0 5-2.239 5-5s-2.238-5-5-5z"/><path d="m327.84 367.441h-143.68c-2.761 0-5 2.239-5 5s2.239 5 5 5h143.68c2.761 0 5-2.239 5-5s-2.238-5-5-5z"/></g></g></g></g><g fill="#6583fe"><path d="m423.648 299.63c-7.88 0-14.292-6.411-14.292-14.292 0-7.88 6.411-14.292 14.292-14.292 7.88 0 14.292 6.411 14.292 14.292s-6.411 14.292-14.292 14.292zm0-18.583c-2.366 0-4.292 1.925-4.292 4.292 0 2.366 1.925 4.292 4.292 4.292s4.292-1.925 4.292-4.292-1.925-4.292-4.292-4.292z"/><path d="m88.029 132.788c-7.88 0-14.292-6.411-14.292-14.291s6.411-14.291 14.292-14.291 14.291 6.411 14.291 14.291-6.41 14.291-14.291 14.291zm0-18.583c-2.366 0-4.292 1.925-4.292 4.291s1.925 4.292 4.292 4.292c2.366 0 4.291-1.925 4.291-4.292.001-2.366-1.924-4.291-4.291-4.291z"/><path d="m67.738 172.458c-2.761 0-5-2.239-5-5 0-3.309-2.691-6-6-6-2.761 0-5-2.239-5-5s2.239-5 5-5c3.309 0 6-2.691 6-6 0-2.761 2.239-5 5-5s5 2.239 5 5c0 3.309 2.691 6 6 6 2.761 0 5 2.239 5 5s-2.239 5-5 5c-3.309 0-6 2.691-6 6 0 2.761-2.239 5-5 5z"/><path d="m423.648 235.049c-2.761 0-5-2.239-5-5 0-3.309-2.691-6-6-6-2.761 0-5-2.239-5-5s2.239-5 5-5c3.309 0 6-2.691 6-6 0-2.761 2.239-5 5-5s5 2.239 5 5c0 3.309 2.691 6 6 6 2.761 0 5 2.239 5 5s-2.239 5-5 5c-3.309 0-6 2.691-6 6 0 2.761-2.238 5-5 5z"/><path d="m442.231 356.145c-2.761 0-5-2.239-5-5 0-3.309-2.691-6-6-6-2.761 0-5-2.239-5-5s2.239-5 5-5c3.309 0 6-2.691 6-6 0-2.761 2.239-5 5-5s5 2.239 5 5c0 3.309 2.691 6 6 6 2.761 0 5 2.239 5 5s-2.239 5-5 5c-3.309 0-6 2.691-6 6 0 2.761-2.238 5-5 5z"/></g></g><g fill="#2626bc"><path d="m356.24 438.43h-200.48c-2.761 0-5-2.239-5-5v-319.49c0-8.271 6.729-15 15-15h180.48c8.271 0 15 6.729 15 15v319.49c0 2.761-2.239 5-5 5zm-195.48-10h190.48v-314.49c0-2.757-2.243-5-5-5h-180.48c-2.757 0-5 2.243-5 5z"/><path d="m289.111 269.381c-10.598 0-18.016-2.268-22.678-6.934-1.971-1.968-3.541-4.22-4.705-6.742-8.718 9.084-20.117 13.676-34.015 13.676-16.905 0-29.078-7.413-34.276-20.874-4.703-12.177-2.883-26.147 4.638-35.589 9.25-11.614 22.705-16.213 35.717-20.662 7.633-2.609 14.842-5.074 21.03-8.833 3.487-2.119 3.935-4.475 3.935-6.292v-19.491c-.011-4.725-3.171-9.02-7.685-10.434-3.499-1.096-7.081-1.11-10.261-.661 4.064 5.695 5.378 12.897 3.336 20.069-2.98 10.471-12.382 17.506-23.394 17.506 0 0 0 0-.001 0-8.588-.001-16.169-4.683-20.278-12.526-4.398-8.393-3.856-18.703 1.379-26.268 8.14-11.761 22.548-15.869 32.678-17.936 14.681-2.997 29.291-2.676 42.248.926 6.78 1.884 12.537 5.159 17.111 9.733 4.298 4.303 7.213 9.624 8.666 15.817 1.343 5.738 1.996 13.185 1.996 22.768v62.974c0 3.479.314 5.189.52 5.936.432-.013 1.56-.205 3.6-1.531 1.932-1.256 4.377-1.52 6.539-.706 2.174.819 3.847 2.643 4.474 4.879v.001l1.165 4.155c.817 2.916-.216 5.985-2.632 7.818-8.072 6.12-17.864 9.221-29.107 9.221zm-20.305-42.024.445 16.757c.129 4.848 1.52 8.532 4.252 11.261 2.619 2.622 8.015 4.006 15.607 4.006 6.854 0 12.812-1.323 18.054-4.024-.724.126-1.438.189-2.145.189-4.11 0-7.358-1.981-8.911-5.435-1.062-2.355-1.559-5.694-1.559-10.502v-62.974c0-8.683-.583-15.576-1.732-20.486-1.035-4.413-2.999-8.022-6.002-11.029-3.385-3.385-7.545-5.73-12.716-7.167-10.651-2.96-22.648-3.394-34.857-1.275 4.465-.65 9.624-.641 14.816.985 8.769 2.746 14.675 10.77 14.697 19.965v19.504c0 .509-.02 1.01-.06 1.504l.06-.1v48.902zm-7.666-36.116c-.363.25-.738.494-1.126.729-7.116 4.323-15.184 7.082-22.987 9.749-12.188 4.167-23.701 8.103-31.13 17.43-5.269 6.614-6.527 16.964-3.132 25.756 4.621 11.965 16.118 14.476 24.948 14.476 14.345 0 24.906-5.809 32.286-17.761l1.182-1.914c-3.388 3.083-7.33 5.304-12.54 6.413-4.537.965-11.275.192-16.103-3.715-2.781-2.251-6.096-6.475-6.096-13.817 0-12.533 11.202-19.001 18.615-23.281 1.229-.71 2.391-1.38 3.323-1.978 7.235-4.453 10.016-7.51 11.088-9.299zm48.917 59.647c.001.004.002.007.003.011zm-51.301-42.45c-1.523 1.101-3.207 2.219-5.057 3.357-1.05.674-2.309 1.401-3.643 2.171-7.449 4.301-13.615 8.37-13.615 14.621 0 2.767.781 4.745 2.387 6.044 2.39 1.935 6.008 2.074 7.729 1.708 4.832-1.029 8.036-3.342 12.199-8.954zm-23.603-70.958c-12.614 2.754-20.604 7.073-25.079 13.539-3.144 4.542-3.436 10.797-.744 15.935 2.387 4.555 6.55 7.167 11.421 7.167 8.017.001 12.432-5.518 13.777-10.244 1.368-4.806.452-11.415-6.223-15.549l-8.411-5.209 9.183-3.682c1.587-.637 3.662-1.362 6.076-1.957z"/></g></g></svg>