<svg id="Capa_1" enable-background="new 0 0 512 512" height="512" viewBox="0 0 512 512" width="512" xmlns="http://www.w3.org/2000/svg" xmlns:xlink="http://www.w3.org/1999/xlink"><linearGradient id="SVGID_1_" gradientUnits="userSpaceOnUse" x1="0" x2="512" y1="246.5" y2="246.5"><stop offset="0" stop-color="#d2deff" stop-opacity="0"/><stop offset="1" stop-color="#b7c5ff"/></linearGradient><g><path d="m4.896 314.759c17.448 172.871 292.417 167.142 420.803 136.265 82.47-19.834 87.596-59.472 86.106-144.001-.96-54.486 3.443-198.725-32.004-244.123-54.448-69.733-103.228-25.998-170.656-3.235-86.488 29.197-120.189-22.932-202.476-21.38-120.641 2.278-110.778 187.252-101.773 276.474z" fill="url(#SVGID_1_)"/><g><g><g><path d="m350.232 490.839h-188.464c-16.568 0-30-13.432-30-30v-380.678c0-16.569 13.432-30 30-30h188.464c16.569 0 30 13.431 30 30v380.678c0 16.568-13.431 30-30 30z" fill="#2626bc" opacity=".1"/><path d="m350.232 466.839h-188.464c-16.568 0-30-13.432-30-30v-380.678c0-16.569 13.432-30 30-30h188.464c16.569 0 30 13.431 30 30v380.678c0 16.568-13.431 30-30 30z" fill="#6583fe"/><path d="m131.77 69.07h248.46v354.86h-248.46z" fill="#fff"/><path d="m380.23 69.07v154.74c0 13.8-11.19 25-25 25h-198.46c-13.81 0-25-11.2-25-25v-154.74z" fill="#fff"/><g><path d="m250.44 69.07c-15.45 43.9-57.33 75.45-106.45 75.45-4.13 0-8.21-.22-12.22-.66v70.26c4.04.26 8.11.4 12.22.4 88.01 0 161.69-62.5 178.98-145.45z" fill="#6583fe"/></g><g><path d="m355.23 253.81h-198.461c-16.542 0-30-13.458-30-30v-154.74c0-2.761 2.238-5 5-5h248.461c2.762 0 5 2.239 5 5v154.74c0 16.542-13.458 30-30 30zm-218.461-179.74v149.74c0 11.028 8.972 20 20 20h198.461c11.028 0 20-8.972 20-20v-149.74z" fill="#2626bc"/></g><path d="m350.232 471.839h-188.464c-19.299 0-35-15.701-35-35v-380.678c0-19.299 15.701-35 35-35h188.465c19.299 0 35 15.701 35 35v380.678c-.001 19.299-15.702 35-35.001 35zm-188.464-440.678c-13.785 0-25 11.215-25 25v380.678c0 13.785 11.215 25 25 25h188.465c13.785 0 25-11.215 25-25v-380.678c0-13.785-11.215-25-25-25z" fill="#2626bc"/><g><path d="m273.483 53.531h-34.966c-2.761 0-5-2.239-5-5s2.239-5 5-5h34.966c2.761 0 5 2.239 5 5s-2.239 5-5 5z" fill="#2626bc"/></g><path d="m301.815 48.529c0 2.762-2.239 5.002-5.002 5.002-2.762 0-5.002-2.239-5.002-5.002 0-2.762 2.239-5.002 5.002-5.002 2.763.001 5.002 2.24 5.002 5.002z" fill="#2626bc"/></g><g><g><path d="m290.782 334.872h-119.681c-2.761 0-5 2.239-5 5s2.239 5 5 5h119.681c2.761 0 5-2.239 5-5s-2.239-5-5-5z" fill="#2626bc"/></g><g><path d="m251.782 315.444h-80.681c-2.761 0-5 2.239-5 5s2.239 5 5 5h80.681c2.761 0 5-2.239 5-5s-2.239-5-5-5z" fill="#2626bc"/></g><g><path d="m182.782 292.099h-11.681c-2.761 0-5 2.239-5 5s2.239 5 5 5h11.681c2.761 0 5-2.239 5-5s-2.239-5-5-5z" fill="#2626bc"/></g><g><path d="m182.782 371.314h-11.681c-2.761 0-5 2.239-5 5s2.239 5 5 5h11.681c2.761 0 5-2.239 5-5s-2.239-5-5-5z" fill="#2626bc"/></g><g><path d="m182.782 391.587h-11.681c-2.761 0-5 2.239-5 5s2.239 5 5 5h11.681c2.761 0 5-2.239 5-5 0-2.762-2.239-5-5-5z" fill="#2626bc"/></g></g><g><ellipse cx="199.752" cy="236.849" fill="#6583fe" rx="33.651" ry="33.651" transform="matrix(.924 -.383 .383 .924 -75.433 94.471)"/><g><path d="m199.753 275.5c-21.312 0-38.651-17.339-38.651-38.651s17.339-38.651 38.651-38.651 38.65 17.339 38.65 38.651-17.339 38.651-38.65 38.651zm0-67.302c-15.799 0-28.651 12.853-28.651 28.651s12.853 28.651 28.651 28.651 28.65-12.852 28.65-28.651c0-15.798-12.852-28.651-28.65-28.651z" fill="#2626bc"/></g><path d="m216.369 237.987c0-9.16-7.46-16.61-16.62-16.61s-16.61 7.45-16.61 16.61c0 4.52 1.82 8.62 4.75 11.62-2.93 2.99-4.75 7.09-4.75 11.61v4.9c3.07 1.74 6.43 3.02 10 3.73v-8.63c0-3.65 2.97-6.61 6.61-6.61 3.65 0 6.62 2.96 6.62 6.61v8.63c3.57-.71 6.93-1.99 10-3.73v-4.9c0-4.52-1.82-8.62-4.76-11.61 2.94-3 4.76-7.1 4.76-11.62zm-16.62 6.62c-3.64 0-6.61-2.97-6.61-6.62 0-3.64 2.97-6.61 6.61-6.61 3.65 0 6.62 2.97 6.62 6.61 0 3.65-2.97 6.62-6.62 6.62z" fill="#2626bc"/></g><g><path d="m295.782 168.901c-17.429 0-31.607-14.179-31.607-31.607s14.179-31.607 31.607-31.607c17.429 0 31.607 14.179 31.607 31.607.001 17.429-14.178 31.607-31.607 31.607zm0-53.214c-11.914 0-21.607 9.693-21.607 21.607s9.693 21.607 21.607 21.607 21.607-9.693 21.607-21.607c.001-11.914-9.693-21.607-21.607-21.607z" fill="#2626bc"/></g><ellipse cx="331.078" cy="382.75" fill="#6583fe" rx="22.218" ry="22.218" transform="matrix(.16 -.987 .987 .16 -99.763 648.243)"/><path d="m339.918 377.75h-3.84v-3.84c0-2.761-2.239-5-5-5s-5 2.239-5 5v3.84h-3.84c-2.761 0-5 2.239-5 5s2.239 5 5 5h3.84v3.84c0 2.761 2.239 5 5 5s5-2.239 5-5v-3.84h3.84c2.761 0 5-2.239 5-5s-2.239-5-5-5z" fill="#2626bc"/></g><g fill="#6583fe"><path d="m93.204 311.39c-7.88 0-14.291-6.411-14.291-14.292s6.411-14.291 14.291-14.291c7.881 0 14.292 6.411 14.292 14.291s-6.411 14.292-14.292 14.292zm0-18.583c-2.366 0-4.291 1.925-4.291 4.291s1.925 4.292 4.291 4.292 4.292-1.925 4.292-4.292c0-2.365-1.926-4.291-4.292-4.291z"/><path d="m422.665 83.361c-7.881 0-14.292-6.411-14.292-14.292 0-7.88 6.411-14.291 14.292-14.291 7.88 0 14.291 6.411 14.291 14.291 0 7.881-6.411 14.292-14.291 14.292zm0-18.582c-2.366 0-4.292 1.925-4.292 4.291s1.926 4.292 4.292 4.292 4.291-1.925 4.291-4.292-1.925-4.291-4.291-4.291z"/><path d="m444.665 416.588c-2.762 0-5-2.239-5-5 0-3.309-2.691-6-6-6-2.762 0-5-2.239-5-5s2.238-5 5-5c3.309 0 6-2.691 6-6 0-2.761 2.238-5 5-5s5 2.239 5 5c0 3.309 2.691 6 6 6 2.762 0 5 2.239 5 5s-2.238 5-5 5c-3.309 0-6 2.691-6 6 0 2.761-2.238 5-5 5z"/><path d="m82.204 131.687c-2.762 0-5-2.239-5-5 0-3.309-2.691-6-6-6-2.762 0-5-2.239-5-5s2.238-5 5-5c3.309 0 6-2.691 6-6 0-2.761 2.238-5 5-5s5 2.239 5 5c0 3.309 2.691 6 6 6 2.762 0 5 2.239 5 5s-2.238 5-5 5c-3.309 0-6 2.691-6 6 0 2.761-2.238 5-5 5z"/><path d="m422.665 375.658c-2.762 0-5-2.239-5-5 0-3.309-2.691-6-6-6-2.762 0-5-2.239-5-5s2.238-5 5-5c3.309 0 6-2.691 6-6 0-2.761 2.238-5 5-5s5 2.239 5 5c0 3.309 2.691 6 6 6 2.762 0 5 2.239 5 5s-2.238 5-5 5c-3.309 0-6 2.691-6 6 0 2.761-2.238 5-5 5z"/></g></g></g></svg>