<svg id="Capa_1" enable-background="new 0 0 512 512" height="512" viewBox="0 0 512 512" width="512" xmlns="http://www.w3.org/2000/svg" xmlns:xlink="http://www.w3.org/1999/xlink"><linearGradient id="SVGID_1_" gradientUnits="userSpaceOnUse" x1="96.524" x2="444.685" y1="444.199" y2="29.276"><stop offset="0" stop-color="#d2deff" stop-opacity="0"/><stop offset="1" stop-color="#b7c5ff"/></linearGradient><g><path d="m4.896 314.759c17.448 172.871 292.417 167.142 420.803 136.265 82.47-19.834 87.596-59.472 86.106-144.001-.96-54.486 3.443-198.725-32.004-244.123-54.448-69.733-103.228-25.998-170.656-3.235-86.488 29.197-120.189-22.932-202.476-21.38-120.641 2.278-110.778 187.252-101.773 276.474z" fill="url(#SVGID_1_)"/><g><g><g><path d="m350.232 490.839h-188.464c-16.568 0-30-13.432-30-30v-380.678c0-16.569 13.432-30 30-30h188.464c16.569 0 30 13.431 30 30v380.678c0 16.568-13.431 30-30 30z" fill="#2626bc" opacity=".1"/><path d="m350.232 466.839h-188.464c-16.568 0-30-13.432-30-30v-380.678c0-16.569 13.432-30 30-30h188.464c16.569 0 30 13.431 30 30v380.678c0 16.568-13.431 30-30 30z" fill="#fff"/><path d="m131.77 69.07h248.46v354.86h-248.46z" fill="#fff"/><path d="m380.23 363.62v60.31h-248.46v-93.72z" fill="#6583fe"/><path d="m380.23 69.07v24.73l-248.46 48.02v-72.75z" fill="#6583fe"/><path d="m350.232 471.839h-188.464c-19.299 0-35-15.701-35-35v-380.678c0-19.299 15.701-35 35-35h188.465c19.299 0 35 15.701 35 35v380.678c-.001 19.299-15.702 35-35.001 35zm-188.464-440.678c-13.785 0-25 11.215-25 25v380.678c0 13.785 11.215 25 25 25h188.465c13.785 0 25-11.215 25-25v-380.678c0-13.785-11.215-25-25-25z" fill="#2626bc"/><g><path d="m273.483 53.531h-34.966c-2.761 0-5-2.239-5-5s2.239-5 5-5h34.966c2.761 0 5 2.239 5 5s-2.239 5-5 5z" fill="#2626bc"/></g><path d="m301.815 48.529c0 2.762-2.239 5.002-5.002 5.002-2.762 0-5.002-2.239-5.002-5.002 0-2.762 2.239-5.002 5.002-5.002 2.763.001 5.002 2.24 5.002 5.002z" fill="#2626bc"/></g><g fill="#6583fe"><path d="m319.052 265.804h-126.104c-10.662 0-19.305-8.643-19.305-19.305 0-10.662 8.643-19.305 19.305-19.305h126.103c10.662 0 19.305 8.643 19.305 19.305 0 10.662-8.643 19.305-19.304 19.305z"/><path d="m319.052 319.152h-126.104c-10.662 0-19.305-8.643-19.305-19.305 0-10.662 8.643-19.305 19.305-19.305h126.103c10.662 0 19.305 8.643 19.305 19.305 0 10.662-8.643 19.305-19.304 19.305z"/><path d="m238.33 400.199h-59.687c-2.761 0-5-2.239-5-5v-14.431c0-2.761 2.239-5 5-5h59.687c2.761 0 5 2.239 5 5v14.431c0 2.761-2.238 5-5 5z"/></g><g><g><path d="m246.857 189.578h-65.681c-2.761 0-5 2.239-5 5s2.239 5 5 5h65.681c2.761 0 5-2.239 5-5s-2.238-5-5-5z" fill="#2626bc"/></g><g><path d="m271.486 197.836 10.54-21.535c1.626-3.322-.793-7.198-4.491-7.198-1.909 0-3.652 1.087-4.491 2.802l-10.54 21.535c-1.626 3.322.793 7.198 4.491 7.198 1.909 0 3.651-1.087 4.491-2.802z" fill="#2626bc"/></g><g><path d="m246.857 170.15h-65.681c-2.761 0-5 2.239-5 5s2.239 5 5 5h65.681c2.761 0 5-2.239 5-5s-2.238-5-5-5z" fill="#2626bc"/></g><g><path d="m192.857 146.805h-11.681c-2.761 0-5 2.239-5 5s2.239 5 5 5h11.681c2.761 0 5-2.239 5-5s-2.238-5-5-5z" fill="#2626bc"/></g></g></g><g fill="#6583fe"><path d="m438.17 344.501c-7.881 0-14.292-6.411-14.292-14.292 0-7.88 6.411-14.291 14.292-14.291 7.88 0 14.291 6.411 14.291 14.291 0 7.881-6.411 14.292-14.291 14.292zm0-18.583c-2.366 0-4.292 1.925-4.292 4.291s1.926 4.292 4.292 4.292 4.291-1.925 4.291-4.292c0-2.365-1.925-4.291-4.291-4.291z"/><path d="m72.913 379.269c-7.881 0-14.292-6.411-14.292-14.292 0-7.88 6.411-14.292 14.292-14.292 7.88 0 14.291 6.411 14.291 14.292s-6.411 14.292-14.291 14.292zm0-18.583c-2.366 0-4.292 1.925-4.292 4.292 0 2.366 1.926 4.292 4.292 4.292s4.291-1.925 4.291-4.292c0-2.366-1.925-4.292-4.291-4.292z"/><path d="m88.288 338.21c-7.88 0-14.291-6.411-14.291-14.291s6.411-14.292 14.291-14.292c7.881 0 14.292 6.411 14.292 14.292 0 7.88-6.411 14.291-14.292 14.291zm0-18.583c-2.366 0-4.291 1.925-4.291 4.292 0 2.366 1.925 4.291 4.291 4.291s4.292-1.925 4.292-4.291c0-2.367-1.926-4.292-4.292-4.292z"/><path d="m427.17 393.07c-2.762 0-5-2.239-5-5 0-3.309-2.691-6-6-6-2.762 0-5-2.239-5-5s2.238-5 5-5c3.309 0 6-2.691 6-6 0-2.761 2.238-5 5-5s5 2.239 5 5c0 3.309 2.691 6 6 6 2.762 0 5 2.239 5 5s-2.238 5-5 5c-3.309 0-6 2.691-6 6 0 2.761-2.238 5-5 5z"/><path d="m80.288 162.805c-2.762 0-5-2.239-5-5 0-3.309-2.691-6-6-6-2.762 0-5-2.239-5-5s2.238-5 5-5c3.309 0 6-2.691 6-6 0-2.761 2.238-5 5-5s5 2.239 5 5c0 3.309 2.691 6 6 6 2.762 0 5 2.239 5 5s-2.238 5-5 5c-3.309 0-6 2.691-6 6 0 2.761-2.238 5-5 5z"/></g></g><path d="m268.308 125.794h-81.957c-5.619 0-10.175-4.555-10.175-10.175 0-5.619 4.555-10.175 10.175-10.175h81.957c5.619 0 10.175 4.555 10.175 10.175 0 5.62-4.555 10.175-10.175 10.175z" fill="#fff"/><path d="m268.309 130.794h-81.957c-8.367 0-15.175-6.808-15.175-15.175s6.808-15.174 15.175-15.174h81.957c8.367 0 15.174 6.807 15.174 15.174s-6.807 15.175-15.174 15.175zm-81.957-20.349c-2.854 0-5.175 2.321-5.175 5.174 0 2.854 2.321 5.175 5.175 5.175h81.957c2.852 0 5.174-2.321 5.174-5.175 0-2.853-2.321-5.174-5.174-5.174z" fill="#2626bc"/></g></svg>