<svg id="Capa_1" enable-background="new 0 0 512 512" height="512" viewBox="0 0 512 512" width="512" xmlns="http://www.w3.org/2000/svg" xmlns:xlink="http://www.w3.org/1999/xlink"><linearGradient id="SVGID_1_" gradientUnits="userSpaceOnUse" x1="23.821" x2="459.531" y1="348.776" y2="97.218"><stop offset="0" stop-color="#d2deff" stop-opacity="0"/><stop offset="1" stop-color="#b7c5ff"/></linearGradient><g><path d="m16.074 308.387c18.727 64.003 72.707 194.564 163.922 182.845 91.486-11.755 55.758-129.725 139.508-145.894 36.867-7.118 61.857 56.689 98.806 54.704 47.588-2.557 71.81-49.663 85.108-89.264 28.197-83.968-14.029-226.352-112.858-251.012-86.245-21.519-96.332 83.855-171.322 53.248-42.149-17.203-37.938-68.576-89.272-78.942-155.299-31.359-138.811 189.151-113.892 274.315z" fill="url(#SVGID_1_)"/><g><g><path d="m175.829 52.029c-2.761 0-5-2.238-5-5 0-3.309-2.691-6-6-6-2.761 0-5-2.238-5-5s2.239-5 5-5c3.309 0 6-2.691 6-6 0-2.762 2.239-5 5-5s5 2.238 5 5c0 3.309 2.691 6 6 6 2.761 0 5 2.238 5 5s-2.239 5-5 5c-3.309 0-6 2.691-6 6 0 2.761-2.239 5-5 5z" fill="#6583fe"/><path d="m418.373 68.029c-2.761 0-5-2.238-5-5 0-3.309-2.692-6-6.001-6-2.761 0-5-2.238-5-5s2.239-5 5-5c3.309 0 6.001-2.691 6.001-6 0-2.762 2.239-5 5-5s5 2.238 5 5c0 3.309 2.691 6 5.999 6 2.761 0 5 2.238 5 5s-2.239 5-5 5c-3.308 0-5.999 2.691-5.999 6 0 2.761-2.239 5-5 5z" fill="#6583fe"/><g><g><g><path d="m455.47 457.64h-398.94c-8.284 0-15-6.716-15-15v-314.266c0-8.284 6.716-15 15-15h398.94c8.284 0 15 6.716 15 15v314.266c0 8.285-6.715 15-15 15z" fill="#2626bc" opacity=".1"/><path d="m455.47 433.64h-398.94c-8.284 0-15-6.716-15-15v-314.266c0-8.284 6.716-15 15-15h398.94c8.284 0 15 6.716 15 15v314.266c0 8.285-6.715 15-15 15z" fill="#fff"/><g><path d="m41.53 158.687h428.94v137.48h-428.94z" fill="#fff"/></g><path d="m244.07 252.377c0 15.25-2.31 29.96-6.61 43.79h-195.93v-137.48h168.97c20.97 25.48 33.57 58.11 33.57 93.69z" fill="#6583fe"/><path d="m470.47 158.687v-54.313c0-8.284-6.716-15-15-15h-398.94c-8.284 0-15 6.716-15 15v54.313z" fill="#6583fe"/><path d="m455.47 438.64h-398.94c-11.028 0-20-8.972-20-20v-314.266c0-11.028 8.972-20 20-20h398.94c11.028 0 20 8.972 20 20v314.266c0 11.028-8.972 20-20 20zm-398.94-344.266c-5.514 0-10 4.486-10 10v314.266c0 5.514 4.486 10 10 10h398.94c5.514 0 10-4.486 10-10v-314.266c0-5.514-4.486-10-10-10z" fill="#2626bc"/></g><g><g fill="#fff"><circle cx="85.623" cy="126.275" r="10.901"/><circle cx="120.424" cy="126.275" r="10.901"/><circle cx="155.224" cy="126.275" r="10.901"/></g><path d="m432.277 138.523h-136.158v-24.496h136.158c2.761 0 5 2.239 5 5v14.496c0 2.761-2.238 5-5 5z" fill="#fff"/><path d="m296.789 114.339c-5.286-5.286-13.887-5.286-19.173 0s-5.286 13.887 0 19.173c4.037 4.037 10.003 4.98 14.953 2.852l4.348 4.348c1.953 1.952 5.119 1.952 7.071 0s1.952-5.119 0-7.071l-4.348-4.348c2.129-4.951 1.186-10.918-2.851-14.954zm-12.102 7.071c1.387-1.387 3.644-1.387 5.031 0s1.387 3.644 0 5.031-3.644 1.387-5.031 0c-1.387-1.388-1.387-3.644 0-5.031z" fill="#2626bc"/></g></g><g><g><ellipse cx="130.682" cy="342.645" fill="#6583fe" rx="33.651" ry="33.651" transform="matrix(.987 -.162 .162 .987 -53.743 25.674)"/><path d="m118.821 355.399c-2.93 3-4.75 7.1-4.75 11.61v4.91c3.07 1.74 6.43 3.02 10 3.73v-8.64c0-3.64 2.96-6.61 6.61-6.61s6.61 2.97 6.61 6.61v8.64c3.57-.71 6.94-1.99 10-3.73v-4.91c0-4.51-1.81-8.61-4.75-11.61 2.94-3 4.75-7.1 4.75-11.61 0-9.16-7.45-16.62-16.61-16.62s-16.61 7.46-16.61 16.62c0 4.51 1.82 8.61 4.75 11.61zm5.25-11.61c0-3.65 2.96-6.62 6.61-6.62s6.61 2.97 6.61 6.62c0 3.64-2.96 6.61-6.61 6.61s-6.61-2.97-6.61-6.61z" fill="#2626bc"/></g><g><path d="m300.071 364.971h-119.681c-2.761 0-5 2.239-5 5s2.239 5 5 5h119.681c2.761 0 5-2.239 5-5 0-2.762-2.239-5-5-5z" fill="#2626bc"/></g><g><path d="m414.97 394.76h-234.58c-2.761 0-5 2.239-5 5s2.239 5 5 5h234.58c2.761 0 5-2.239 5-5s-2.239-5-5-5z" fill="#2626bc"/></g><g><path d="m261.071 345.543h-80.681c-2.761 0-5 2.239-5 5s2.239 5 5 5h80.681c2.761 0 5-2.239 5-5s-2.239-5-5-5z" fill="#2626bc"/></g><g><path d="m192.071 322.198h-11.681c-2.761 0-5 2.239-5 5s2.239 5 5 5h11.681c2.761 0 5-2.239 5-5s-2.239-5-5-5z" fill="#2626bc"/></g></g><g><g><g><ellipse cx="381.319" cy="210.468" fill="#6583fe" rx="33.651" ry="33.651" transform="matrix(.921 -.391 .391 .921 -51.92 165.69)"/><path d="m397.929 211.611c0-9.16-7.45-16.62-16.61-16.62s-16.61 7.46-16.61 16.62c0 4.51 1.81 8.61 4.75 11.61-2.94 3-4.75 7.1-4.75 11.61v4.91c3.06 1.74 6.43 3.02 10 3.73v-8.64c0-3.64 2.96-6.61 6.61-6.61s6.61 2.97 6.61 6.61v8.64c3.57-.71 6.93-1.99 10-3.73v-4.91c0-4.51-1.82-8.61-4.75-11.61 2.93-3 4.75-7.1 4.75-11.61zm-16.61 6.61c-3.65 0-6.61-2.97-6.61-6.61 0-3.65 2.96-6.62 6.61-6.62s6.61 2.97 6.61 6.62c0 3.64-2.96 6.61-6.61 6.61z" fill="#2626bc"/></g><g><path d="m241.929 232.793h89.681c2.761 0 5 2.239 5 5s-2.239 5-5 5h-89.681c-2.761 0-5-2.239-5-5s2.239-5 5-5z" fill="#2626bc"/></g><g><path d="m102.03 262.583h229.58c2.761 0 5 2.239 5 5s-2.239 5-5 5h-229.58c-2.761 0-5-2.239-5-5s2.239-5 5-5z" fill="#2626bc"/></g><g><path d="m280.929 213.084h50.681c2.761 0 5 2.239 5 5s-2.239 5-5 5h-50.681c-2.761 0-5-2.239-5-5s2.239-5 5-5z" fill="#2626bc"/></g></g><g><path d="m331.61 192.739h-11.681c-2.761 0-5 2.239-5 5s2.239 5 5 5h11.681c2.761 0 5-2.239 5-5 0-2.762-2.239-5-5-5z" fill="#2626bc"/></g></g><g><path d="m414.97 267.583c0 2.762-2.239 5.002-5.002 5.002-2.762 0-5.002-2.239-5.002-5.002 0-2.762 2.239-5.002 5.002-5.002 2.762 0 5.002 2.239 5.002 5.002z" fill="#2626bc"/></g><g><path d="m107.034 399.868c0 2.762-2.239 5.002-5.002 5.002-2.762 0-5.002-2.239-5.002-5.002 0-2.762 2.239-5.002 5.002-5.002s5.002 2.24 5.002 5.002z" fill="#2626bc"/></g></g><g fill="#6583fe"><path d="m312.848 486.747c-7.88 0-14.292-6.411-14.292-14.292 0-7.88 6.411-14.291 14.292-14.291 7.88 0 14.292 6.411 14.292 14.291-.001 7.881-6.412 14.292-14.292 14.292zm0-18.583c-2.366 0-4.292 1.925-4.292 4.291s1.925 4.292 4.292 4.292c2.366 0 4.292-1.926 4.292-4.292-.001-2.366-1.926-4.291-4.292-4.291z"/><path d="m130.681 66.32c-7.88 0-14.292-6.411-14.292-14.291 0-7.881 6.411-14.292 14.292-14.292 7.88 0 14.292 6.411 14.292 14.292 0 7.88-6.411 14.291-14.292 14.291zm0-18.583c-2.366 0-4.292 1.926-4.292 4.292s1.925 4.291 4.292 4.291c2.366 0 4.292-1.925 4.292-4.291s-1.926-4.292-4.292-4.292z"/><path d="m374.709 488.455c-2.761 0-5-2.238-5-5 0-3.309-2.691-6-6-6-2.761 0-5-2.238-5-5s2.239-5 5-5c3.309 0 6-2.691 6-6 0-2.762 2.239-5 5-5s5 2.238 5 5c0 3.309 2.691 6 6 6 2.761 0 5 2.238 5 5s-2.239 5-5 5c-3.309 0-6 2.691-6 6 0 2.762-2.239 5-5 5z"/></g></g><path d="m183.475 158.687c0 30.043-24.354 54.397-54.397 54.397s-54.398-24.354-54.398-54.397z" fill="#fff"/></g><path d="m470.47 301.167h-428.94c-2.761 0-5-2.238-5-5s2.239-5 5-5h428.94c2.761 0 5 2.238 5 5s-2.239 5-5 5z" fill="#2626bc"/></g></svg>