<svg id="Capa_1" enable-background="new 0 0 512 512" height="512" viewBox="0 0 512 512" width="512" xmlns="http://www.w3.org/2000/svg" xmlns:xlink="http://www.w3.org/1999/xlink"><linearGradient id="SVGID_1_" gradientUnits="userSpaceOnUse" x1="68.572" x2="395.005" y1="433.566" y2="44.537"><stop offset="0" stop-color="#d2deff" stop-opacity="0"/><stop offset="1" stop-color="#b7c5ff"/></linearGradient><g><path d="m16.074 305.887c18.727 64.003 72.707 194.564 163.922 182.845 91.486-11.755 55.758-129.725 139.508-145.894 36.867-7.118 61.857 56.689 98.806 54.704 47.588-2.557 71.81-49.663 85.108-89.264 28.197-83.968-14.029-226.352-112.859-251.012-86.245-21.519-96.332 83.855-171.322 53.248-42.149-17.203-37.938-68.576-89.272-78.942-155.298-31.359-138.81 189.151-113.891 274.315z" fill="url(#SVGID_1_)"/><g><g><g><g><path d="m455.47 455.14h-398.94c-8.284 0-15-6.716-15-15v-314.266c0-8.284 6.716-15 15-15h398.94c8.284 0 15 6.716 15 15v314.266c0 8.285-6.715 15-15 15z" fill="#2626bc" opacity=".1"/><path d="m455.47 431.14h-398.94c-8.284 0-15-6.716-15-15v-314.266c0-8.284 6.716-15 15-15h398.94c8.284 0 15 6.716 15 15v314.266c0 8.285-6.715 15-15 15z" fill="#fff"/><path d="m41.53 239.625h428.941v70.953h-428.941z" fill="#6583fe"/><path d="m470.47 156.187v-54.313c0-8.284-6.716-15-15-15h-398.94c-8.284 0-15 6.716-15 15v54.313z" fill="#6583fe"/><path d="m455.471 436.14h-398.942c-11.028 0-20-8.972-20-20v-314.266c0-11.028 8.972-20 20-20h398.941c11.028 0 20 8.972 20 20v314.266c.001 11.028-8.971 20-19.999 20zm-398.942-344.266c-5.514 0-10 4.486-10 10v314.266c0 5.514 4.486 10 10 10h398.941c5.514 0 10-4.486 10-10v-314.266c0-5.514-4.486-10-10-10z" fill="#2626bc"/></g><g><g fill="#fff"><circle cx="85.623" cy="123.775" r="10.901"/><circle cx="120.424" cy="123.775" r="10.901"/><circle cx="155.224" cy="123.775" r="10.901"/></g><path d="m432.278 136.023h-136.159v-24.496h136.159c2.761 0 5 2.239 5 5v14.496c0 2.761-2.239 5-5 5z" fill="#fff"/><path d="m296.789 111.839c-5.286-5.286-13.887-5.286-19.173 0s-5.286 13.887 0 19.173c4.037 4.037 10.003 4.98 14.953 2.852l4.348 4.348c1.953 1.952 5.119 1.952 7.071 0 1.953-1.952 1.953-5.119 0-7.071l-4.348-4.348c2.129-4.951 1.186-10.918-2.851-14.954zm-12.102 7.071c1.387-1.387 3.644-1.387 5.031 0s1.387 3.644 0 5.031-3.644 1.387-5.031 0c-1.387-1.388-1.387-3.644 0-5.031z" fill="#2626bc"/></g></g><g><g><g><path d="m191.445 340.246h-59.681c-2.761 0-5-2.239-5-5s2.239-5 5-5h59.681c2.761 0 5 2.239 5 5s-2.239 5-5 5z" fill="#2626bc"/></g><g><path d="m152.445 357.703h-20.681c-2.761 0-5-2.239-5-5s2.239-5 5-5h20.681c2.761 0 5 2.239 5 5s-2.239 5-5 5z" fill="#2626bc"/></g></g><g><path d="m375.236 310.578h-238.472c-5.523 0-10-4.477-10-10v-50.953c0-5.523 4.477-10 10-10h238.472c5.523 0 10 4.477 10 10v50.953c0 5.523-4.477 10-10 10z" fill="#fff"/><g><path d="m375.236 315.578h-238.472c-8.271 0-15-6.729-15-15v-50.952c0-8.271 6.728-15 15-15h238.473c8.271 0 15 6.729 15 15v50.952c-.001 8.271-6.729 15-15.001 15zm-238.472-70.953c-2.757 0-5 2.243-5 5v50.952c0 2.757 2.243 5 5 5h238.473c2.757 0 5-2.243 5-5v-50.952c0-2.757-2.243-5-5-5z" fill="#2626bc"/></g><g><g><path d="m196.316 280.397-5.295-5.295 5.295-5.295c1.952-1.952 1.952-5.119 0-7.071-1.952-1.953-5.119-1.953-7.071 0l-5.295 5.295-5.295-5.295c-1.952-1.953-5.118-1.953-7.071 0-1.952 1.952-1.952 5.119 0 7.071l5.295 5.295-5.295 5.295c-1.952 1.952-1.952 5.119 0 7.071 1.952 1.953 5.119 1.953 7.071 0l5.295-5.295 5.295 5.295c1.952 1.953 5.119 1.953 7.071 0 1.953-1.953 1.953-5.119 0-7.071z" fill="#2626bc"/></g><g><path d="m244.35 280.397-5.295-5.295 5.295-5.295c1.952-1.952 1.952-5.119 0-7.071-1.952-1.953-5.119-1.953-7.071 0l-5.295 5.295-5.295-5.295c-1.952-1.953-5.119-1.953-7.071 0-1.952 1.952-1.952 5.119 0 7.071l5.295 5.295-5.295 5.295c-1.952 1.952-1.952 5.119 0 7.071 1.952 1.953 5.118 1.953 7.071 0l5.295-5.295 5.295 5.295c1.952 1.953 5.119 1.953 7.071 0s1.952-5.119 0-7.071z" fill="#2626bc"/></g><g><path d="m292.383 280.397-5.295-5.295 5.295-5.295c1.952-1.952 1.952-5.119 0-7.071-1.952-1.953-5.118-1.953-7.071 0l-5.295 5.295-5.295-5.295c-1.953-1.953-5.119-1.953-7.071 0-1.952 1.952-1.952 5.119 0 7.071l5.295 5.295-5.295 5.295c-1.952 1.952-1.952 5.119 0 7.071 1.953 1.953 5.119 1.953 7.071 0l5.295-5.295 5.295 5.295c1.953 1.953 5.119 1.953 7.071 0s1.952-5.119 0-7.071z" fill="#2626bc"/></g><g><path d="m340.416 280.397-5.295-5.295 5.295-5.295c1.953-1.952 1.953-5.119 0-7.071-1.952-1.953-5.119-1.953-7.071 0l-5.295 5.295-5.295-5.295c-1.952-1.953-5.119-1.953-7.071 0-1.952 1.952-1.952 5.119 0 7.071l5.295 5.295-5.295 5.295c-1.952 1.952-1.952 5.119 0 7.071 1.953 1.953 5.119 1.953 7.071 0l5.295-5.295 5.295 5.295c1.952 1.953 5.119 1.953 7.071 0 1.953-1.953 1.953-5.119 0-7.071z" fill="#2626bc"/></g></g></g></g><g><g><path d="m196.16 208.284h119.68c2.761 0 5 2.239 5 5s-2.239 5-5 5h-119.68c-2.761 0-5-2.239-5-5 0-2.762 2.238-5 5-5z" fill="#2626bc"/></g><g><path d="m215.66 187.827h80.681c2.761 0 5 2.239 5 5s-2.239 5-5 5h-80.681c-2.761 0-5-2.239-5-5s2.238-5 5-5z" fill="#2626bc"/></g></g><g><g><path d="m169.747 398.26h-20.681c-2.761 0-5-2.239-5-5s2.239-5 5-5h20.681c2.761 0 5 2.239 5 5s-2.239 5-5 5z" fill="#2626bc"/></g><g><path d="m234.143 398.26h-20.681c-2.761 0-5-2.239-5-5s2.239-5 5-5h20.681c2.761 0 5 2.239 5 5s-2.239 5-5 5z" fill="#2626bc"/></g><g><path d="m298.538 398.26h-20.681c-2.761 0-5-2.239-5-5s2.239-5 5-5h20.681c2.761 0 5 2.239 5 5s-2.239 5-5 5z" fill="#2626bc"/></g><g><path d="m362.934 398.26h-20.681c-2.761 0-5-2.239-5-5s2.239-5 5-5h20.681c2.761 0 5 2.239 5 5s-2.239 5-5 5z" fill="#2626bc"/></g></g></g><g fill="#6583fe"><path d="m211.915 65.287c-7.88 0-14.291-6.411-14.291-14.291 0-7.881 6.411-14.292 14.291-14.292 7.881 0 14.292 6.411 14.292 14.292 0 7.879-6.411 14.291-14.292 14.291zm0-18.583c-2.366 0-4.291 1.926-4.291 4.292s1.925 4.291 4.291 4.291 4.292-1.925 4.292-4.291-1.926-4.292-4.292-4.292z"/><path d="m120.424 487.626c-7.88 0-14.291-6.411-14.291-14.292 0-7.88 6.411-14.291 14.291-14.291s14.291 6.411 14.291 14.291c0 7.881-6.411 14.292-14.291 14.292zm0-18.583c-2.366 0-4.291 1.925-4.291 4.291s1.925 4.292 4.291 4.292 4.291-1.926 4.291-4.292-1.925-4.291-4.291-4.291z"/><path d="m164.18 54.529c-2.762 0-5-2.238-5-5 0-3.309-2.691-6-6-6-2.762 0-5-2.238-5-5s2.238-5 5-5c3.309 0 6-2.691 6-6 0-2.762 2.238-5 5-5s5 2.238 5 5c0 3.309 2.691 6 6 6 2.762 0 5 2.238 5 5s-2.238 5-5 5c-3.309 0-6 2.691-6 6 0 2.761-2.239 5-5 5z"/><path d="m320.277 489.334c-2.762 0-5-2.238-5-5 0-3.309-2.691-6-6-6-2.762 0-5-2.238-5-5s2.238-5 5-5c3.309 0 6-2.691 6-6 0-2.762 2.238-5 5-5s5 2.238 5 5c0 3.309 2.691 6 6 6 2.762 0 5 2.238 5 5s-2.238 5-5 5c-3.309 0-6 2.691-6 6 0 2.762-2.238 5-5 5z"/><path d="m367.934 482.141c-2.762 0-5-2.238-5-5 0-3.309-2.691-6-6-6-2.762 0-5-2.238-5-5s2.238-5 5-5c3.309 0 6-2.692 6-6.001 0-2.762 2.238-5 5-5s5 2.238 5 5c0 3.309 2.691 6.001 6 6.001 2.762 0 5 2.238 5 5s-2.238 5-5 5c-3.309 0-6 2.691-6 6 0 2.762-2.239 5-5 5z"/></g></g></g></svg>