<svg xmlns="http://www.w3.org/2000/svg" version="1.1" xmlns:xlink="http://www.w3.org/1999/xlink" width="1000" height="1000"><style>
    #light-icon {
      display: inline;
    }
    #dark-icon {
      display: none;
    }

    @media (prefers-color-scheme: dark) {
      #light-icon {
        display: none;
      }
      #dark-icon {
        display: inline;
      }
    }
  </style><g id="light-icon"><svg xmlns="http://www.w3.org/2000/svg" version="1.1" xmlns:xlink="http://www.w3.org/1999/xlink" width="1000" height="1000"><g><g transform="matrix(1,0,0,1,0,0)"><svg xmlns="http://www.w3.org/2000/svg" version="1.1" xmlns:xlink="http://www.w3.org/1999/xlink" width="1000" height="1000"><svg id="Calque_1" data-name="Calque 1" xmlns="http://www.w3.org/2000/svg" viewBox="0 0 1000 1000">
  <defs>
    <style>
      .cls-1 {
        fill: #e02f38;
      }

      .cls-2 {
        fill: #231f20;
      }

      .cls-3 {
        fill: #2d4b41;
      }

      .cls-4 {
        fill: #87a75f;
      }

      .cls-5 {
        fill: #044a27;
      }

      .cls-6 {
        isolation: isolate;
      }

      .cls-7 {
        fill: none;
        stroke: #231f20;
        stroke-miterlimit: 10;
        stroke-width: .25px;
      }

      .cls-8 {
        fill: #a4bf7d;
      }
    </style>
  </defs>
  <path class="cls-2" d="M500,12.95C230.43,12.95,11.12,231.18,11.12,499.43c0,150.09,68.69,284.49,176.39,373.79v-8.06C83.43,776.98,17.23,645.79,17.23,499.43,17.23,234.55,233.8,19.05,500,19.05s482.78,215.49,482.78,480.38c0,156.92-76.02,296.5-193.34,384.22v7.53c120.85-88.66,199.44-231.22,199.44-391.75,0-268.24-219.31-486.48-488.88-486.48Z"></path>
  <g>
    <g class="cls-6">
      <g class="cls-6">
        <path class="cls-2" d="M292.45,811.16c0,5.13-1.4,7.7-4.2,7.7-1.51,0-2.78-.62-3.79-1.85-1.03-1.23-2.13-2.81-3.31-4.73l-48.28-75.64c-.54-.64-1.03-.96-1.45-.96-.32,0-.48.75-.48,2.24v53.1c0,4.91.27,8.61.8,11.11.54,2.51,1.72,4.19,3.55,5.04,1.08.53,2.15.85,3.23.96,1.07.11,2.04.19,2.91.24.86.06,1.56.27,2.1.64.54.37.81,1.04.81,2,0,2.34-1.4,3.52-4.2,3.52-1.19,0-2.8-.16-4.84-.48s-4.52-.48-7.43-.48-5.28.16-7.1.48c-1.83.32-3.23.48-4.2.48-2.37,0-3.55-1.17-3.55-3.52,0-.85.16-1.47.49-1.84.32-.37.81-.61,1.45-.72.65-.11,1.4-.21,2.26-.32.86-.11,1.83-.37,2.91-.8,1.83-.64,3.01-2.24,3.55-4.8.54-2.56.81-6.4.81-11.51v-58.06c0-3.52-.19-6.29-.57-8.32-.38-2.03-1.32-3.41-2.83-4.16-.75-.32-1.54-.5-2.34-.55-.81-.05-1.56-.13-2.26-.24-.7-.1-1.27-.35-1.7-.72-.43-.38-.64-1.04-.64-2,0-2.34,1.02-3.52,3.07-3.52.43,0,1.83.11,4.2.32s5.92.32,10.66.32c2.8,0,5.09-.05,6.86-.16,1.78-.11,2.99-.16,3.63-.16,1.29,0,2.21.18,2.75.56.54.38,1.24,1.2,2.1,2.47l35.69,54.86c.65.96,1.18,1.44,1.62,1.44.86,0,1.29-.75,1.29-2.24v-34.07c0-4.91-.3-8.59-.89-11.04-.59-2.45-1.8-4.1-3.63-4.96-1.18-.53-2.32-.85-3.39-.96-1.08-.1-2.02-.21-2.83-.32s-1.45-.35-1.94-.72c-.49-.37-.73-1.04-.73-2,0-2.34,1.34-3.52,4.04-3.52,1.51,0,2.83.14,3.96.41,1.13.27,2.07.4,2.83.4.21,0,.78.03,1.7.08s2.23.08,3.96.08c1.83,0,3.17-.02,4.04-.08.86-.05,1.4-.08,1.61-.08.54,0,1.29-.13,2.26-.4s2.1-.41,3.39-.41c2.37,0,3.55,1.17,3.55,3.52,0,.86-.16,1.44-.48,1.76-.32.32-.78.56-1.37.72-.59.16-1.35.29-2.26.39-.92.11-1.91.38-2.99.8-1.83.64-3.02,2.24-3.55,4.81-.54,2.56-.81,6.39-.81,11.51v74.37Z"></path>
      </g>
      <g class="cls-6">
        <path class="cls-2" d="M363.51,795.56c0,3.11.18,5.35.56,6.75.38,1.39,1.26,2.09,2.66,2.09.97,0,1.86-.43,2.66-1.29.81-.85,1.48-1.28,2.02-1.28.32,0,.73.27,1.21.8.49.54.73,1.23.73,2.09,0,.97-.48,2.17-1.45,3.61-.97,1.45-2.29,2.84-3.96,4.18-1.67,1.34-3.55,2.49-5.66,3.46-2.1.96-4.29,1.44-6.56,1.44-2.81,0-4.94-.94-6.4-2.81-1.46-1.87-3-4.95-4.61-9.24h-.65c-4.43,4.07-8.48,7.12-12.15,9.16-3.67,2.03-6.86,3.05-9.55,3.05-4.1,0-7.35-1.53-9.72-4.59-2.38-3.06-3.56-7.01-3.56-11.83,0-2.9.4-5.45,1.21-7.66.81-2.2,2.04-4.24,3.71-6.12,1.67-1.88,3.74-3.65,6.22-5.32,2.48-1.66,5.38-3.4,8.72-5.23l12.92-7.09c1.07-.64,1.61-1.99,1.61-4.02v-10.31c0-6.23-1.61-9.34-4.84-9.34-1.19,0-2.21.32-3.07.97-.86.64-1.64,1.47-2.34,2.49-.7,1.02-1.4,2.23-2.1,3.62-.7,1.4-1.43,2.84-2.18,4.34-3.23,6.32-8.08,9.48-14.54,9.48-3.23,0-4.84-1.55-4.84-4.66,0-2.35.83-4.87,2.5-7.55,1.67-2.68,3.88-5.08,6.62-7.2,2.75-2.13,5.95-3.9,9.61-5.31,3.66-1.41,7.48-2.11,11.46-2.11,7.47,0,13.29,1.66,17.47,4.98s6.27,8.04,6.27,14.14v36.32ZM342.51,776.28c-.43,0-.92.21-1.45.64l-4.52,2.89c-6.68,4.39-10.01,9.38-10.01,14.95,0,2.78.67,5.04,2.02,6.75,1.34,1.71,3.15,2.57,5.41,2.57,3.01,0,5.35-1.13,7.03-3.37,1.67-2.25,2.5-5.68,2.5-10.28v-12.21c0-1.29-.32-1.93-.97-1.93Z"></path>
      </g>
      <g class="cls-6">
        <path class="cls-2" d="M404.36,740.92c0,1.5.59,2.25,1.78,2.25h10.33c1.07,0,1.72.18,1.94.56.21.38.32.99.32,1.85v2.41c0,1.18-.11,2.04-.32,2.58-.22.54-.86.8-1.94.8h-10.33c-1.19,0-1.78.75-1.78,2.25l-.49,33.1v2.89c0,5.47.3,9.48.89,12.05.59,2.57,1.75,3.86,3.47,3.86.75,0,1.53-.21,2.34-.64s1.59-.91,2.34-1.45c.75-.53,1.42-1.01,2.02-1.44.59-.43,1.1-.64,1.54-.64.54,0,1.13.35,1.77,1.04.65.7.97,1.37.97,2.01,0,1.07-.59,2.35-1.78,3.86-1.19,1.5-2.75,2.95-4.68,4.34-1.94,1.39-4.15,2.57-6.62,3.54-2.48.96-5.01,1.44-7.59,1.44-5.49,0-9.31-1.74-11.46-5.22-2.16-3.48-3.23-8.81-3.23-15.99v-5.94l.65-34.55c0-1.5-.11-2.71-.32-3.61-.22-.91-.86-1.37-1.94-1.37h-2.91c-2.48,0-3.71-.85-3.71-2.57,0-.96.4-1.82,1.21-2.57s1.86-1.53,3.15-2.33c1.29-.8,2.8-1.79,4.52-2.97,1.72-1.18,3.5-2.74,5.33-4.66,1.51-1.61,2.83-3.16,3.96-4.66,1.13-1.5,2.15-2.86,3.07-4.1.91-1.23,1.75-2.19,2.5-2.89s1.56-1.04,2.42-1.04c1.18,0,1.91.38,2.18,1.12.27.75.41,1.82.41,3.21v13.5Z"></path>
      </g>
      <g class="cls-6">
        <path class="cls-2" d="M451.51,789.77c0,11.89,3.17,17.84,9.53,17.84,4.31,0,7.13-1.69,8.48-5.06,1.34-3.37,2.02-8.06,2.02-14.06v-30.05c0-2.25-.11-4.02-.32-5.3-.21-1.29-.92-2.3-2.1-3.05-.75-.43-1.56-.7-2.42-.8-.86-.11-1.67-.21-2.42-.32-.75-.11-1.37-.38-1.86-.8-.49-.42-.73-1.23-.73-2.41s.21-1.96.65-2.33c.43-.38,1.07-.56,1.94-.56.43,0,1.62.11,3.55.32s4.67.32,8.2.32c3.95,0,6.97-.14,9.05-.41,2.08-.26,3.39-.4,3.92-.4,1.17,0,1.9.35,2.16,1.04.27.7.4,2.17.4,4.42v48.69c0,1.61.11,2.92.32,3.93.21,1.02.81,1.85,1.78,2.49.65.43,1.34.7,2.1.8s1.45.24,2.1.4c.64.16,1.18.41,1.61.73s.65.91.65,1.76c0,1.5-.59,2.49-1.78,2.97-1.19.48-3.12,1.04-5.81,1.69-5.37,1.4-9.08,2.65-11.12,3.77-2.04,1.13-3.27,1.69-3.7,1.69-.97,0-1.64-.32-2.02-.96-.38-.64-.67-1.66-.89-3.06l-.64-6.27-.81-.16c-2.79,3.54-6.01,6.24-9.66,8.11-3.65,1.88-7.36,2.81-11.11,2.81-4.84,0-8.65-.75-11.44-2.25-2.79-1.5-4.91-3.64-6.36-6.43s-2.36-6.13-2.74-10.05-.56-8.22-.56-12.94v-27.48c0-2.35-.11-4.15-.32-5.38-.22-1.23-.86-2.22-1.94-2.97-.65-.43-1.32-.67-2.02-.73-.7-.05-1.37-.16-2.02-.32-.64-.16-1.19-.46-1.61-.89-.43-.42-.65-1.17-.65-2.25,0-1.18.21-1.96.65-2.33.43-.38,1.13-.56,2.1-.56.86,0,2.15.08,3.88.24,1.72.16,3.98.24,6.78.24,3.77,0,6.7-.14,8.8-.41,2.1-.26,3.42-.4,3.96-.4,1.18,0,1.88.27,2.1.8.21.54.32,1.66.32,3.37v42.9Z"></path>
      </g>
      <g class="cls-6">
        <path class="cls-2" d="M533.22,748.96c0,1.07.17,1.61.49,1.61s.75-.32,1.29-.97l1.45-1.93c3.55-4.5,7.43-6.75,11.63-6.75,3.45,0,6.25,1.13,8.4,3.37,2.15,2.25,3.23,5.2,3.23,8.84,0,4.07-.97,7.21-2.91,9.4s-4.36,3.29-7.27,3.29c-1.93,0-3.53-.48-4.76-1.44-1.24-.97-2.29-2.01-3.15-3.14s-1.64-2.17-2.34-3.14c-.7-.96-1.42-1.44-2.18-1.44-2.15,0-3.23,2.68-3.23,8.03v34.44c0,2.35.14,4.14.4,5.37.27,1.23,1,2.22,2.18,2.96.75.54,1.56.83,2.42.88.86.05,1.65.13,2.35.24.69.11,1.29.35,1.78.72.48.38.73,1.14.73,2.33,0,1.92-.6,2.88-1.78,2.88-.87,0-2.8-.18-5.82-.56-3.02-.38-7.11-.57-12.27-.57s-9.21.19-12.11.57c-2.91.38-4.74.56-5.49.56s-1.35-.27-1.78-.8c-.43-.54-.65-1.23-.65-2.09,0-1.07.21-1.79.65-2.16.43-.38.97-.64,1.61-.8.65-.16,1.35-.26,2.1-.32.75-.05,1.51-.24,2.27-.56,1.5-.75,2.44-1.73,2.83-2.96.37-1.23.56-3.13.56-5.69v-32.39c0-.54-.02-1.07-.08-1.6-.05-.54-.08-1.17-.08-1.93,0-1.5-.22-2.7-.65-3.61-.44-.91-1.29-1.58-2.58-2.01-1.62-.42-2.97-.69-4.04-.8-1.08-.11-1.62-.91-1.62-2.4,0-.97.27-1.71.81-2.25.54-.53,1.29-.96,2.26-1.28.97-.32,2.12-.67,3.47-1.04s2.83-.94,4.45-1.69c2.25-1.06,4.17-2.19,5.73-3.36,1.56-1.17,2.9-2.3,4.04-3.37s2.1-1.95,2.91-2.65c.8-.69,1.59-1.04,2.34-1.04,1.19,0,1.88.38,2.1,1.13s.32,1.72.32,2.89v7.23Z"></path>
      </g>
      <g class="cls-6">
        <path class="cls-2" d="M586.35,770.81c-1.72,0-2.59.96-2.59,2.89v4.18c0,4.29.54,8.17,1.62,11.65,1.07,3.48,2.58,6.46,4.52,8.92s4.25,4.36,6.94,5.71c2.69,1.34,5.6,2,8.73,2,2.58,0,4.76-.42,6.53-1.28s3.31-1.79,4.6-2.81c1.29-1.01,2.37-1.96,3.23-2.81.86-.85,1.67-1.28,2.42-1.28.64,0,1.22.27,1.69.8.49.54.73,1.23.73,2.09,0,.97-.7,2.38-2.1,4.26-1.4,1.88-3.36,3.73-5.89,5.54-2.53,1.82-5.54,3.43-9.04,4.82-3.5,1.39-7.35,2.09-11.55,2.09-4.84,0-9.34-.94-13.49-2.81-4.14-1.87-7.69-4.52-10.65-7.95-2.96-3.43-5.28-7.52-6.95-12.29-1.67-4.76-2.5-9.99-2.5-15.67s.86-11.06,2.59-15.83c1.72-4.76,4.11-8.84,7.18-12.21s6.75-6,11.06-7.88c4.3-1.87,9.1-2.81,14.37-2.81,4.2,0,7.97.7,11.3,2.09,3.33,1.4,6.19,3.3,8.56,5.71,2.37,2.41,4.17,5.17,5.41,8.28s1.86,6.37,1.86,9.8c0,1.82-.47,3.08-1.37,3.78-.92.7-2.4,1.04-4.45,1.04h-32.78ZM604.12,762.71c2.04-1.11,3.06-3.16,3.06-6.13,0-3.18-.89-5.73-2.66-7.64-1.77-1.91-4.01-2.87-6.7-2.87-3.12,0-5.9,1.19-8.32,3.58s-3.9,5.92-4.44,10.59l-.33,2.71v.32c0,.74.59,1.11,1.78,1.11h8.4c4.09,0,7.15-.56,9.21-1.68Z"></path>
      </g>
      <g class="cls-6">
        <path class="cls-2" d="M717.8,751.04c-1.07.43-1.61,1.02-1.61,1.77,0,.21.1.54.32.97l12.76,19.12c.54.86,1.02,1.29,1.45,1.29.65,0,1.4-.59,2.26-1.77l2.59-3.7c1.07-1.6,1.61-3.59,1.61-5.94s-1.45-3.96-4.35-4.5c-1.41-.21-2.65-.37-3.72-.48-1.07-.1-1.61-.96-1.61-2.57,0-1.82,1.13-2.73,3.39-2.73.54,0,2.18.14,4.92.4,2.75.27,6.7.41,11.87.41,2.47,0,4.47-.08,5.98-.24,1.5-.16,2.68-.24,3.55-.24,1.61,0,2.42.75,2.42,2.25,0,1.07-.47,1.79-1.37,2.17-.92.38-2.18.97-3.8,1.77-1.62.8-3.5,2.06-5.65,3.77-2.15,1.72-4.47,4.34-6.95,7.88l-5.49,8.19c-.76,1.07-1.13,1.82-1.13,2.25,0,.64.26,1.39.8,2.25l8.08,12.53c2.58,3.96,4.89,6.83,6.94,8.6,2.04,1.77,3.79,3.06,5.25,3.86,1.45.8,2.56,1.37,3.31,1.69.75.32,1.13.97,1.13,1.93,0,1.71-1.35,2.57-4.04,2.57-1.83,0-3.93-.11-6.3-.32-2.37-.21-5.07-.32-8.07-.32-1.84,0-3.45.05-4.85.16s-2.69.16-3.88.16c-2.48,0-4.26-.64-5.33-1.93-1.08-1.29-2.37-3.16-3.88-5.63l-1.78-3.05c-1.08-1.71-1.78-2.57-2.1-2.57s-1.03.43-2.1,1.29l-3.39,3.05c-2.05,1.82-3.98,3.48-5.81,4.98-1.83,1.5-3.71,2.79-5.66,3.86-1.93,1.07-4.01,1.9-6.21,2.49-2.21.58-4.71.88-7.51.88-6.89,0-12.46-2.62-16.71-7.88-4.25-5.25-6.38-12.32-6.38-21.21,0-6.43,1.56-11.86,4.68-16.31,3.12-4.45,7.92-8.22,14.38-11.33l3.06-1.45c1.4-.64,2.1-1.34,2.1-2.09,0-.21-.27-.97-.81-2.25l-2.25-4.66c-1.3-2.47-2.53-5.01-3.72-7.64-1.18-2.62-1.78-5.65-1.78-9.08s.67-6.43,2.02-9.32c1.34-2.89,3.23-5.35,5.65-7.39,2.43-2.03,5.33-3.64,8.72-4.82,3.39-1.18,7.13-1.77,11.22-1.77,8.07,0,14.43,1.72,19.05,5.15s6.95,8.19,6.95,14.3c0,4.92-1.13,8.81-3.39,11.65-2.26,2.84-5.92,5.44-10.98,7.79l-3.88,1.76ZM695.68,763.42c-.44,0-.86.21-1.29.64l-2.1,1.76c-1.72,1.5-3.06,3.37-4.03,5.63-.97,2.25-1.45,4.82-1.45,7.71s.45,5.9,1.37,8.68c.91,2.78,2.15,5.22,3.71,7.31,1.56,2.09,3.39,3.75,5.49,4.98,2.1,1.23,4.28,1.85,6.54,1.85,1.94,0,3.65-.27,5.17-.8,1.5-.54,3.01-1.45,4.52-2.73l2.42-2.09c.21-.1.35-.32.41-.64.05-.32.08-.64.08-.96,0-.75-.17-1.29-.49-1.61l-19.05-29.08c-.32-.43-.75-.64-1.29-.64ZM702.46,726.78c0,1.82.38,3.86,1.13,6.11.76,2.25,1.67,4.33,2.75,6.27,1.08,1.93,2.1,3.54,3.07,4.82.97,1.29,1.72,1.93,2.26,1.93.75,0,1.59-.27,2.5-.8s1.78-1.31,2.58-2.33c.81-1.01,1.48-2.25,2.02-3.7.54-1.44.8-3.08.8-4.9,0-2.57-.32-4.9-.97-6.99-.64-2.09-1.45-3.91-2.42-5.47-.97-1.55-2.07-2.73-3.31-3.54-1.24-.8-2.4-1.2-3.47-1.2-4.63,0-6.95,3.27-6.95,9.8Z"></path>
      </g>
    </g>
    <g class="cls-6">
      <g class="cls-6">
        <path class="cls-2" d="M287.93,905.58c-.64-.21-1.08-.32-1.29-.32-.65,0-.97.75-.97,2.25v30.37c0,2.35.4,4.13,1.21,5.3.81,1.18,2.18,1.93,4.12,2.25,1.83.32,3.15.59,3.96.8s1.21.96,1.21,2.25c0,2.46-1.03,3.7-3.07,3.7-.75,0-2.58-.21-5.49-.64s-7.11-.64-12.6-.64-9.69.21-12.59.64-4.74.64-5.49.64c-2.04,0-3.07-1.18-3.07-3.54,0-1.18.35-1.93,1.05-2.25.7-.32,1.91-.64,3.63-.97,2.15-.43,3.63-1.13,4.44-2.09.81-.96,1.21-2.83,1.21-5.62v-72.79c0-2.35-.32-4.1-.97-5.22-.65-1.12-1.88-1.9-3.71-2.33-1.83-.42-3.23-.78-4.2-1.04-.97-.26-1.45-1.1-1.45-2.49,0-2.46,1.78-3.69,5.33-3.69,1.18,0,2.66.08,4.44.24s3.9.24,6.38.24c5.81,0,10.96-.1,15.42-.32,4.47-.21,8.26-.32,11.38-.32,10.12,0,17.76,2.49,22.93,7.47,5.17,4.98,7.75,12.13,7.75,21.45,0,4.72-.67,9.03-2.02,12.94-1.35,3.91-3.09,7.26-5.25,10.04-2.16,2.79-4.66,4.96-7.51,6.51-2.86,1.56-5.73,2.33-8.64,2.33-2.69,0-5.27-.54-7.75-1.61l-8.4-3.54ZM286.23,898.11c.7,1.77,2.72,2.65,6.06,2.65,4.09,0,7.35-1.82,9.77-5.47,2.42-3.64,3.63-8.84,3.63-15.58,0-3.64-.38-6.88-1.13-9.72-.75-2.84-1.78-5.22-3.07-7.15-1.29-1.93-2.78-3.4-4.44-4.42-1.67-1.02-3.37-1.53-5.09-1.53-2.91,0-4.77,1.04-5.57,3.13-.81,2.09-1.21,5.22-1.21,9.4v21.37c0,3.11.35,5.54,1.05,7.31Z"></path>
      </g>
      <g class="cls-6">
        <path class="cls-2" d="M375.78,932.74c0,3.11.18,5.35.56,6.75.38,1.39,1.26,2.09,2.66,2.09.97,0,1.86-.43,2.66-1.29.81-.85,1.48-1.28,2.02-1.28.32,0,.73.27,1.21.8.49.54.73,1.23.73,2.09,0,.97-.48,2.17-1.45,3.61-.97,1.45-2.29,2.84-3.96,4.18-1.67,1.34-3.55,2.49-5.66,3.46-2.1.96-4.29,1.44-6.56,1.44-2.81,0-4.94-.94-6.4-2.81-1.46-1.87-3-4.95-4.61-9.24h-.65c-4.43,4.07-8.48,7.12-12.15,9.16-3.67,2.03-6.86,3.05-9.55,3.05-4.1,0-7.35-1.53-9.72-4.59-2.38-3.06-3.56-7.01-3.56-11.83,0-2.9.4-5.45,1.21-7.66.81-2.2,2.04-4.24,3.71-6.12,1.67-1.88,3.74-3.65,6.22-5.32,2.48-1.66,5.38-3.4,8.72-5.23l12.92-7.09c1.07-.64,1.61-1.99,1.61-4.02v-10.31c0-6.23-1.61-9.34-4.84-9.34-1.19,0-2.21.32-3.07.97-.86.64-1.64,1.47-2.34,2.49-.7,1.02-1.4,2.23-2.1,3.62-.7,1.4-1.43,2.84-2.18,4.34-3.23,6.32-8.08,9.48-14.54,9.48-3.23,0-4.84-1.55-4.84-4.66,0-2.35.83-4.87,2.5-7.55,1.67-2.68,3.88-5.08,6.62-7.2,2.75-2.13,5.95-3.9,9.61-5.31,3.66-1.41,7.48-2.11,11.46-2.11,7.47,0,13.29,1.66,17.47,4.98s6.27,8.04,6.27,14.14v36.32ZM354.78,913.45c-.43,0-.92.21-1.45.64l-4.52,2.89c-6.68,4.39-10.01,9.38-10.01,14.95,0,2.78.67,5.04,2.02,6.75,1.34,1.71,3.15,2.57,5.41,2.57,3.01,0,5.35-1.13,7.03-3.37,1.67-2.25,2.5-5.68,2.5-10.28v-12.21c0-1.29-.32-1.93-.97-1.93Z"></path>
      </g>
      <g class="cls-6">
        <path class="cls-2" d="M428.26,945.11c-4.52,11.67-7.65,20.46-9.37,26.35-1.72,5.89-2.75,9.21-3.07,9.96-.97,2.25-2.18,3.75-3.63,4.5s-3.69,1.13-6.7,1.13c-3.77,0-6.25-.67-7.43-2.01-1.19-1.34-1.78-3.83-1.78-7.48,0-3.43.49-5.94,1.45-7.55.97-1.61,2.85-2.41,5.65-2.41.97,0,1.88.03,2.75.08.86.05,1.67.08,2.42.08,1.29,0,2.47-.35,3.55-1.04,1.07-.7,1.96-1.58,2.66-2.65.7-1.07,1.23-2.28,1.61-3.61.38-1.34.57-2.6.57-3.77,0-1.4-.22-2.87-.65-4.42-.43-1.55-1.02-3.24-1.78-5.06l-21.47-54.31c-.86-2.14-1.89-3.64-3.07-4.5-1.19-.85-2.34-1.47-3.47-1.85-1.13-.37-2.1-.72-2.91-1.04-.81-.32-1.21-1.12-1.21-2.41,0-1.82.97-2.73,2.91-2.73.75,0,2.31.13,4.68.4,2.37.27,5.65.4,9.85.4,5.92,0,10.5-.1,13.72-.32,3.23-.21,5.11-.32,5.65-.32,1.08,0,1.91.13,2.5.4.59.27.89.94.89,2.01,0,1.4-.43,2.28-1.29,2.65-.86.38-1.83.64-2.91.8-1.08.16-2.05.43-2.91.8s-1.29,1.2-1.29,2.49c0,.64.59,2.63,1.78,5.94l11.3,31.17c.32.75.7,1.13,1.13,1.13s.81-.48,1.13-1.45l9.04-25.39c.86-2.15,1.42-3.99,1.7-5.54.27-1.55.4-2.76.4-3.62,0-1.82-.51-3.05-1.53-3.7-1.03-.64-2.18-1.12-3.47-1.44s-2.45-.67-3.47-1.04-1.53-1.26-1.53-2.65c0-1.18.21-1.96.64-2.33s1.13-.56,2.1-.56c.64,0,1.91.14,3.79.4,1.88.27,4.44.41,7.67.41,3.01,0,5.54-.08,7.59-.24,2.04-.16,3.6-.24,4.68-.24.86,0,1.48.13,1.86.4.38.27.56.94.56,2.01,0,.86-.13,1.5-.4,1.93-.27.43-.62.75-1.05.97-.43.21-.92.38-1.45.48s-1.02.21-1.45.32c-3.12,1.18-5.81,4.55-8.08,10.12l-18.89,48.37Z"></path>
      </g>
      <g class="cls-6">
        <path class="cls-2" d="M495.84,878.1c2.85.54,5.3,1.23,7.35,2.09,1.51.54,2.42,1.18,2.75,1.93.32.75.48,1.93.48,3.54,0,1.82-.03,3.37-.08,4.66-.06,1.28-.08,2.3-.08,3.05,0,2.57-.92,3.86-2.75,3.86-1.19,0-2.24-.75-3.15-2.25-.92-1.5-1.97-3.15-3.15-4.98-1.19-1.82-2.61-3.48-4.28-4.98-1.67-1.5-3.79-2.25-6.38-2.25-3.12,0-5.6.78-7.43,2.33-1.83,1.56-2.75,3.51-2.75,5.87,0,1.6.4,2.95,1.21,4.01.81,1.07,1.88,2.07,3.23,2.97,1.34.91,2.99,1.79,4.92,2.65s4.04,1.76,6.3,2.73c3.01,1.29,5.65,2.68,7.91,4.18,2.26,1.5,4.14,3.16,5.65,4.98,1.51,1.82,2.66,3.94,3.48,6.35.8,2.41,1.2,5.17,1.2,8.28,0,4.07-.7,7.79-2.1,11.17-1.4,3.37-3.42,6.27-6.05,8.68s-5.79,4.31-9.45,5.71c-3.66,1.39-7.75,2.09-12.27,2.09-6.25,0-11.28-1.02-15.1-3.05s-5.73-4.6-5.73-7.71c0-5.78.21-9.93.65-12.45.43-2.52,1.24-3.77,2.42-3.77.86,0,1.54.3,2.02.88.48.59.94,1.4,1.37,2.41.43,1.02.89,2.23,1.37,3.62.49,1.4,1.16,2.89,2.02,4.5,3.34,6.43,7.97,9.64,13.89,9.64,3.45,0,6.3-1.01,8.56-3.04,2.26-2.03,3.39-4.42,3.39-7.2,0-1.71-.22-3.14-.65-4.32s-1.13-2.24-2.1-3.2c-.97-.95-2.21-1.86-3.71-2.72-1.51-.85-3.29-1.76-5.33-2.72-3.12-1.6-6.08-3.09-8.88-4.48s-5.25-2.96-7.35-4.72c-2.1-1.76-3.77-3.83-5.01-6.24-1.24-2.4-1.86-5.47-1.86-9.2,0-7.04,2.37-12.74,7.11-17.12,4.73-4.38,11.25-6.56,19.54-6.56,3.01,0,5.95.27,8.8.8Z"></path>
      </g>
      <g class="cls-6">
        <path class="cls-2" d="M572.14,932.74c0,3.11.19,5.35.57,6.75.38,1.39,1.26,2.09,2.66,2.09.97,0,1.86-.43,2.66-1.29.8-.85,1.48-1.28,2.02-1.28.32,0,.73.27,1.2.8.49.54.73,1.23.73,2.09,0,.97-.48,2.17-1.45,3.61-.97,1.45-2.29,2.84-3.96,4.18-1.67,1.34-3.55,2.49-5.66,3.46-2.1.96-4.29,1.44-6.56,1.44-2.8,0-4.94-.94-6.4-2.81-1.46-1.87-3-4.95-4.61-9.24h-.65c-4.42,4.07-8.48,7.12-12.15,9.16-3.67,2.03-6.86,3.05-9.55,3.05-4.1,0-7.35-1.53-9.72-4.59-2.38-3.06-3.57-7.01-3.57-11.83,0-2.9.41-5.45,1.22-7.66.8-2.2,2.04-4.24,3.71-6.12s3.74-3.65,6.22-5.32c2.47-1.66,5.38-3.4,8.72-5.23l12.92-7.09c1.07-.64,1.62-1.99,1.62-4.02v-10.31c0-6.23-1.62-9.34-4.85-9.34-1.19,0-2.21.32-3.07.97-.86.64-1.64,1.47-2.34,2.49-.7,1.02-1.4,2.23-2.1,3.62-.7,1.4-1.43,2.84-2.18,4.34-3.23,6.32-8.07,9.48-14.54,9.48-3.23,0-4.84-1.55-4.84-4.66,0-2.35.83-4.87,2.5-7.55,1.66-2.68,3.88-5.08,6.62-7.2,2.74-2.13,5.95-3.9,9.61-5.31,3.65-1.41,7.48-2.11,11.46-2.11,7.48,0,13.3,1.66,17.47,4.98s6.27,8.04,6.27,14.14v36.32ZM551.15,913.45c-.44,0-.91.21-1.45.64l-4.53,2.89c-6.68,4.39-10.01,9.38-10.01,14.95,0,2.78.67,5.04,2.02,6.75s3.15,2.57,5.41,2.57c3.01,0,5.35-1.13,7.02-3.37,1.67-2.25,2.5-5.68,2.5-10.28v-12.21c0-1.29-.32-1.93-.97-1.93Z"></path>
      </g>
      <g class="cls-6">
        <path class="cls-2" d="M647.07,883.08c.21,0,.45-.02.73-.08.26-.05.56-.08.89-.08,1.83,0,3.04.43,3.63,1.29.6.86.89,3.05.89,6.59,0,.86-.7,1.28-2.1,1.28-.64,0-1.19-.02-1.62-.08s-.75-.08-.97-.08c-1.4,0-3.07.16-5.01.48,1.94,4.07,2.91,8.09,2.91,12.05,0,7.61-2.69,13.74-8.07,18.4-5.39,4.66-12.76,6.99-22.13,6.99-.54,0-1.13-.02-1.78-.08-.64-.05-1.29-.08-1.93-.08-1.51,0-2.64.35-3.39,1.05-.76.7-1.13,1.58-1.13,2.65,0,1.5,1.05,2.52,3.15,3.05,2.1.54,5.19.91,9.28,1.13,5.06.21,9.55.67,13.48,1.37,3.93.7,7.24,1.82,9.93,3.37,2.69,1.56,4.73,3.62,6.14,6.19,1.4,2.57,2.1,5.84,2.1,9.8,0,3.64-.92,7.2-2.75,10.68-1.83,3.48-4.44,6.56-7.83,9.24-3.4,2.68-7.43,4.82-12.11,6.43-4.69,1.61-9.83,2.41-15.42,2.41-4.53,0-8.62-.54-12.28-1.61-3.67-1.07-6.78-2.49-9.37-4.26-2.59-1.77-4.58-3.8-5.97-6.11-1.4-2.31-2.1-4.69-2.1-7.15s.64-4.47,1.93-6.02c1.3-1.56,3.07-3.14,5.33-4.75l5.82-4.17c1.29-.75,1.93-1.34,1.93-1.77,0-.54-.27-1.07-.8-1.6l-2.58-2.74c-4.74-4.92-7.11-8.41-7.11-10.45,0-1.17.51-2.03,1.54-2.57,1.01-.54,2.39-1.23,4.11-2.09l6.46-3.05c1.18-.54,1.78-.91,1.78-1.13,0-.32-.44-.8-1.3-1.45l-2.42-1.76c-3.66-2.68-6.43-5.54-8.31-8.6-1.88-3.05-2.83-7.09-2.83-12.13,0-3.64.69-7.07,2.1-10.28,1.4-3.21,3.36-6.03,5.89-8.44s5.54-4.31,9.04-5.71c3.5-1.39,7.35-2.09,11.55-2.09s7.8.4,10.49,1.2,5.44,1.96,8.24,3.45c.86.43,1.67.86,2.42,1.29s1.88.64,3.39.64c.33,0,.62-.02.89-.08.26-.05.56-.08.88-.08l4.36-.48ZM634.96,961.91c-1.07-1.23-2.58-2.12-4.52-2.65s-4.23-.86-6.86-.97c-2.64-.11-5.57-.21-8.8-.32-1.72,0-3.26-.24-4.6-.72-1.35-.48-2.5-.99-3.48-1.53-.97-.54-1.75-1.02-2.34-1.45-.6-.43-1.05-.64-1.37-.64-.65,0-1.56,1.05-2.75,3.14-1.19,2.09-1.78,4.53-1.78,7.31,0,5.04,1.72,9.13,5.17,12.29s8.13,4.74,14.05,4.74,10.42-1.39,13.81-4.17c3.39-2.79,5.09-6.06,5.09-9.8,0-2.25-.54-3.99-1.62-5.22ZM609.2,887.82c-2.1,3.59-3.15,8.6-3.15,15.02s1.05,11.46,3.15,15.11,4.77,5.46,7.99,5.46,5.73-1.79,7.83-5.38c2.1-3.59,3.15-8.65,3.15-15.18s-1.05-11.57-3.15-15.1c-2.1-3.54-4.72-5.31-7.83-5.31s-5.9,1.79-7.99,5.38Z"></path>
      </g>
      <g class="cls-6">
        <path class="cls-2" d="M681.15,907.99c-1.73,0-2.59.96-2.59,2.89v4.18c0,4.29.54,8.17,1.62,11.65,1.08,3.48,2.58,6.46,4.53,8.92,1.93,2.46,4.24,4.36,6.94,5.71,2.69,1.34,5.6,2,8.72,2,2.58,0,4.76-.42,6.54-1.28s3.31-1.79,4.6-2.81c1.29-1.01,2.36-1.96,3.23-2.81.86-.85,1.66-1.28,2.42-1.28.64,0,1.21.27,1.69.8.49.54.73,1.23.73,2.09,0,.97-.7,2.38-2.1,4.26-1.4,1.88-3.36,3.73-5.89,5.54-2.53,1.82-5.55,3.43-9.05,4.82-3.49,1.39-7.35,2.09-11.54,2.09-4.85,0-9.34-.94-13.49-2.81-4.14-1.87-7.7-4.52-10.66-7.95-2.96-3.43-5.27-7.52-6.94-12.29-1.67-4.76-2.5-9.99-2.5-15.67s.86-11.06,2.59-15.83c1.72-4.76,4.11-8.84,7.18-12.21,3.07-3.37,6.76-6,11.07-7.88,4.3-1.87,9.1-2.81,14.37-2.81,4.2,0,7.97.7,11.3,2.09,3.34,1.4,6.19,3.3,8.56,5.71s4.17,5.17,5.41,8.28c1.23,3.11,1.85,6.37,1.85,9.8,0,1.82-.46,3.08-1.37,3.78-.92.7-2.4,1.04-4.44,1.04h-32.78ZM698.91,899.89c2.04-1.11,3.07-3.16,3.07-6.13,0-3.18-.89-5.73-2.67-7.64-1.77-1.91-4.01-2.87-6.7-2.87-3.12,0-5.89,1.19-8.31,3.58s-3.91,5.92-4.44,10.59l-.33,2.71v.32c0,.74.6,1.11,1.78,1.11h8.4c4.09,0,7.16-.56,9.21-1.68Z"></path>
      </g>
    </g>
  </g>
  <g>
    <path class="cls-8" d="M703.3,662.97s19.46,7.85,20.51,24.59c0,0-15.78-8.37-20.51-24.59"></path>
    <path class="cls-8" d="M726.17,685.2s-2.89-26.42-14.73-37.94v-11.51s11.57,7.06,14.73,32.44v-28.26s-9.46-8.89-6.05-24.59l8.15,7.59v52.33s3.94-17.79,5.53-27.21c0,0,8.68-18.83,14.46-19.88,0,0-3.94,21.45-9.2,25.64,0,0-8.41,21.19-8.15,31.39h-4.73Z"></path>
    <path class="cls-8" d="M735.9,685.2s2.89-24.33,18.4-29.3c0,0-8.15,24.07-18.4,29.3"></path>
    <path class="cls-8" d="M812.58,690.7s4.55-36.62,8.5-40.42v-14.26s-7.63-32.7,1.84-45c0,0,11.57,15.96,4.21,44.21l-11.31,55.46h-3.24Z"></path>
    <path class="cls-8" d="M816.87,695.15s6.84-32.7,11.04-37.41c0,0,17.35-50.49,14.72-66.71,0,0-9.46-21.98-1.05-40.03,0,0,19.19,18.84,7.89,40.03l-3.16,20.54,22.08-33.88,1.58-34.53s2.36-10.99,9.2-10.99c0,0,7.97,11.05-3.94,32.18l11.57-18.58s7.63-31.13,20.51-34.27c0,0-1.58,25.63-15.51,34.27l-20.24,35.84s29.44-27.99,42.33-18.83c0,0-6.57,18.57-31.81,18.05,0,0-26.56,18.57-36.28,45.26,0,0,27.08-35.58,51-27.47,0,0-5.52,16.22-39.17,22.77,0,0-34.49,34.94-37.48,73.93l-3.27-.16Z"></path>
    <path class="cls-8" d="M826.95,698.02s18.23-54.07,36.1-60.35c0,0-30.49,49.88-30.85,57.21,0,0,42.06-62.09,65.9-57.21,0,0-64.85,50.58-64.15,61.75l-7.01-1.4Z"></path>
    <path class="cls-8" d="M845.18,693.14s12.97-17.09,30.85-16.39c0,0-25.12,19.75-30.85,16.39"></path>
    <path class="cls-5" d="M773.38,693.52s4.98-47.37-14.11-77.93l2.91-1.65s13.48,22.09,11.79,38.03c0,0,14.08-49.86,11.86-81.79l3.94,3.03s-.76,39.22-3.32,49.2c0,0-8.92,37.01-7.81,71.12h-5.26Z"></path>
    <path class="cls-8" d="M732.3,596.05l15.15,1.65,3.53-15.69s14.11,9.36,11.2,31.94l-2.91,1.65s-22.96-7.16-26.97-19.54"></path>
    <path class="cls-1" d="M728.56,579.53h11.06s10.65,5.55,9.24,11.86l-1.42,6.31-10.57-1.15-8.3-7.93v-9.08Z"></path>
    <path class="cls-1" d="M763.97,494.2s-22.96-15.69-26.56,14.32c0,0-15.77,20.09,7.19,23.94,0,0-16.32,20.37,9.68,27.8,0,0,14.66,23.4,29.6,4.68,0,0,6.64,21.75,31.81,1.1,0,0,26.28-3.03,10.51-24.77,0,0,39-2.75,19.09-31.38,0,0-4.15-28.9-26.84-15.42,0,0,8.58-26.15-18.81-22.57,0,0-11.62-9.21-17.98-.34,0,0-23.79-4.35-17.7,22.63"></path>
    <path class="cls-2" d="M801.59,523.94c0,6.23-5.07,11.27-11.33,11.27s-11.32-5.04-11.32-11.27,5.07-11.27,11.32-11.27,11.33,5.05,11.33,11.27"></path>
    <path class="cls-7" d="M801.59,523.94c0,6.23-5.07,11.27-11.33,11.27s-11.32-5.04-11.32-11.27,5.07-11.27,11.32-11.27,11.33,5.05,11.33,11.27Z"></path>
  </g>
  <path class="cls-2" d="M785.73,563.68l-1.5-.29,5.26-28.15,1.5.29-5.26,28.15ZM802.54,543.58l-5.77-10.35,1.34-.74,5.77,10.35-1.34.74ZM780.39,541.93l-1.34-.74,4.39-7.94,1.34.74-4.39,7.94ZM793.92,541.93l-2.09-6.54,1.45-.47,2.09,6.54-1.45.47ZM770.56,541.86l-1.01-1.14,11.35-10.03,1.01,1.14-11.35,10.03ZM821.4,540.61l-21.55-10.25.66-1.38,21.55,10.25-.66,1.38ZM746.62,533.8l-.25-1.5,32.27-5.29.25,1.5-32.27,5.29ZM801.48,527.34l-.17-1.51,13.56-1.51.17,1.51-13.56,1.51ZM778.77,524.75h-11.77v-1.53h9.63l-4.7-.77.25-1.5,5.91.97-14.75-6.32.6-1.41,15.13,6.48-.56,1.31.39.07-.2,1.17h.07v1.53ZM801.91,522.79l-.41-1.47,11.87-3.3.41,1.47-11.87,3.3ZM779.09,519.6l-2.07-1.37.85-1.28,2.07,1.37-.85,1.28ZM800.39,518.31l-1.1-1.06,5.57-5.75,1.1,1.06-5.57,5.75ZM799.55,516.38l-1.13-1.03,19.42-21.3,1.13,1.03-19.42,21.3ZM781.12,516.33l-15.95-21.02,1.22-.92,15.95,21.02-1.22.92ZM797.54,514.95l-1.42-.57,4.31-10.61,1.42.57-4.31,10.61ZM784.31,513.65l-1.18-4.74,1.48-.37,1.18,4.74-1.48.37ZM787.41,512.96l-5.25-9.42,1.34-.74,5.25,9.42-1.34.74ZM791,512.59h-1.53v-12.65h1.53v12.65Z"></path>
  <g>
    <path class="cls-3" d="M287.97,692.47s22.03-8.62,33.33-15.93c0,0,9.6-5.06,38.98-10.12,0,0,108.46-11.47,73.44-93.15,0,0-19.21-80.13-106.2-68.53l11.3-5.46s-32.95-14.8-54.99-3.94l6.59-7.31-19.77-7.68,31.45,4.31-6.78-12.56s14.12,14.8,49.33,16.68l-3.77-8.43s5.84,7.12,15.82,8.99c0,0,16.95.93,23.91,6.75,0,0-16.9-19.46-24.29-42.38,0,0-10.43-40.23-41.73-40.23l3.91-2.59s-34.33-12.97-64.33,0c0,0,.44-8.65,21.3-10.38,0,0-24.34-1.3-39.99-10.81l26.95,2.59s-6.95-7.78-5.65-13.84c0,0,6.51,13.41,29.55,17.3,0,0,27.38,1.29,35.2,6.05,0,0-5.65-20.32-11.73-23.35l1.13-2.84s4.14.74,14.12,18.74c0,0,12.99,17.24,19.21,20.05,0,0-4.47-48.33-42.81-83.82l38.58,41.77,2.43-19.8s14.68,89.22,32,105.81l1.28-84.25s2.89,34.79,5.78,38.93l9.62-19.79-3.21,27.77,4.16-.63s-29.51,43.72,40.42,97.97c0,0,5.79-55.24,46.99-78.85,0,0,76.61-62.96,15.97-96.69l6.4-3.37-33.14-26.23s40.67,14.24,47.45,33.73c0,0-24.48-71.58-120.89-72.33l6.78-6s-26.36-12.37-42.93-16.49l-16.95-.75,13.56-3-36.53-22.11-10.54-.74,3.77-2.25-26.36-14.99,30.88,10.87v-10.12s4.14,11.99,33.52,24.73l-.38-17.24s-2.26,25.86,42.56,37.48v-5.24s1.89,10.87,72.69,27.36c0,0-7.16-21.36-29.38-22.48l.76-4.13,11.67,2.25-24.1-28.49s-11.82-13.38-13.18-13.86l4.14-.75-13.55-43.1-8.66-11.99,8.66,4.87,1.5-12,21.84,63.71s15.07,26.23,27.87,32.6c0,0,22.59,25.86,24.1,33.73l13.94,11.62s-14.69-38.6-15.07-56.59l-9.79-6.75,10.17,3v-28.11l-8.28-14.24,9.04,7.12,2.48-29.61-7.38-18.74,9.41,11.25,4.52-32.61,1.13,42.35,13.18-17.62s-25.61,56.21-7.53,101.94c0,0,13.94-43.47,32.39-60.34,0,0-50.84,56.97-1.51,118.8,0,0-10.54-49.47,5.65-67.83,0,0-8.66,36.35.75,59.58,0,0,2.26-10.49,8.66-14.99,0,0-9.04,38.97,0,48.72,0,0,26.74,60.71-12.05,101.18,0,0,50.84-47.22,38.41-80.95,0,0,9.04,15.37,4.9,25.49,0,0,32.01-29.61,22.59-61.09,0,0,7.91,8.24,6.03,23.24,0,0,33.89-52.84,2.64-109.8l6.78,4.87s-5.27-68.21-9.04-73.46c0,0,5.27,5.25,9.41,30.35l7.53-8.61s-4.52,34.1,1.13,55.84c0,0,10.92,33.73,6.78,58.46l22.97-24.36s7.91-32.23,13.56-40.1l-3.39,29.23s16.19-11.25,23.72-26.23l-1.51,11.99s15.45-7.87,29-7.12c0,0-53.47,20.24-60.26,44.6,0,0,6.03-5.25,16.95-3.75,0,0-28.62,6.75-40.29,43.1,0,0-41.43,79.08-67.79,101.56,0,0,63.27-1.12,78.71-52.09,0,0,2.26,22.48-13.94,36.36,0,0,42.56-7.12,56.49-52.09l1.13,10.87,21.84-27.36-13.18,26.98,4.9-1.12-40.67,44.97,32.77,1.12s24.1-13.49,24.48-21.73c0,0,.75,9.37-12.43,20.98h13.93s14.31-7.12,21.84-7.12l-12.43,8.25,13.18,1.5-45.57,5.24,10.92,9.37s-16.95-6.75-25.61-5.24h-24.1l11.3,13.86s-19.21-14.99-25.61-11.99l-33.89,7.12,23.35,12.37-13.18-2.25v4.6s-22.97-20.89-65.15,0c0,0-99.8,49.44-29.75,140.85,0,0,41.42,61.45,83.6,68.93,0,0,32.39-3.21,62.52,19.68l29.37,10.11-10.54,7.67-70.05-17.78,15.06,17.78s-82.85-23.48-98.67-51.09l34.65,51.09-39.92,1.7s-18.83-10.48-24.1-25.95l-18.61,25.45-43.91-1.2s54.23-39.73,38.41-92.94c0,0,8.28,52.26-31.64,75.16l-30.89,19.48-45.94-.95s52.72-21.54,49.71-27.64c0,0-38.41,20.05-79.84,17.1l-40.68,11.49h-14.31l7.53-6.95Z"></path>
    <path class="cls-4" d="M554.04,183.55s-40.11,19.68-29.38,55.65l13.78-24.18-5.59,21.64s34.74-18.83,21.18-53.12"></path>
    <path class="cls-4" d="M569.29,230.49s-38.69,13.77-31.35,50.31l17.23-22.77-16.39,26.7s42.09-13.21,30.51-54.25"></path>
    <path class="cls-4" d="M558.84,290.92s-31.17,32.26,1.98,60.43l2.54-33.44,3.39,31.2s29.57-27.56-7.91-58.18"></path>
    <path class="cls-4" d="M586.8,257.61s-29.38,29.09,3.67,57.48v-30.35l4.52,30.35s25.13-32.33-8.19-57.48"></path>
    <path class="cls-4" d="M576.63,174.84s-20.62,37.1,16.67,50.31l-5.37-20.24,13.84,23.89s9.6-40.19-25.14-53.96"></path>
    <path class="cls-4" d="M605.44,102.88s-46.61,30.63-11.01,59.3l4.52-34,1.41,29.79s24.29-26.98,5.09-55.09"></path>
    <path class="cls-4" d="M655.44,125.09s-52.44,5.9-42.6,56.78l20.68-28.39-17.53,31.2s47.36-14.62,39.45-59.58"></path>
    <path class="cls-4" d="M637.36,195.92s-28.25,14.62-16.1,39.91l9.88-19.96-5.65,32.32s25.86-23.77,11.86-52.28"></path>
    <path class="cls-4" d="M681.14,170.9s-42.65,18.55-21.75,59.58l11.58-25.85-6.5,28.39s37.28-30.64,16.67-62.12"></path>
    <path class="cls-4" d="M726.61,188.33s-35.31-4.21-41.24,40.48l23.16-20.29-21.18,28.16s40.96-8.43,39.26-48.35"></path>
    <path class="cls-4" d="M765.03,233.02s-33.61-21.08-54.8,6.75h24.01l-24.01,5.62s31.92,21.64,54.8-12.37"></path>
    <path class="cls-4" d="M663.63,278.55s28.81-36.26,70.61-2.25c0,0-30.13,34.38-69.29,6.93l37.09-5.43-38.41.74Z"></path>
    <path class="cls-4" d="M654.31,313.4s-40.11,24.73-22.31,60.43l13.84-28.67-8.75,33.17s39.54-20.52,17.23-64.93"></path>
    <path class="cls-4" d="M687.92,306.38s-30.51,21.64-9.6,49.75l5.65-28.95,1.13,18.69s18.93-16.73,2.83-39.49"></path>
    <path class="cls-4" d="M742.15,300.47s-38.69-3.09-40.39,38.22l23.72-19.14-23.72,28.42s43.22-5.62,40.39-47.5"></path>
    <path class="cls-4" d="M696.11,364.84s29.09-28.67,57.62-7.03c0,0-25.14,30.35-57.62,13.21l28.81-8.02-28.81,1.84Z"></path>
    <path class="cls-4" d="M733.96,404.19s16.67-37.38,57.06-13.77c0,0-22.03,32.89-54.8,19.11l26.27-12.93-28.53,7.59Z"></path>
    <path class="cls-4" d="M728.59,423.86s35.96-16.3,55.12,20.24c0,0-37.61,12.93-53.71-15.18l26.15,6.18-27.56-11.25Z"></path>
    <path class="cls-4" d="M745.16,470.8s-6.6-38.84-48.21-40.41l22.79,22.8-22.79-17.99s-2.44,44.04,48.21,35.6"></path>
    <path class="cls-4" d="M663.06,438.76s38.69,4.5,32.48,49.75c0,0-41.52-3.38-42.09-49.75l25.7,26.98-16.1-26.98Z"></path>
    <path class="cls-4" d="M624.27,448.13l18.46,22.39-13-11.2s4.24,32.42,27.4,37.69c0,0,13.94-44.86-32.86-48.89"></path>
    <path class="cls-4" d="M611.09,450.48v25.95l-5.09-25.95s-28.24,28.62,11.86,54.27c0,0,24.86-37.21-6.78-54.27"></path>
    <path class="cls-4" d="M327.51,504.74s-38.41-5.27-41.05,39.7c0,0,42.93.37,45.95-35.6l-22.97,12.74,18.08-16.84Z"></path>
    <path class="cls-4" d="M281.94,498.72s-8.28,32.61-57.62,23.24c0,0,11.67-39.73,57.62-30.35l-28.81,15.31,28.81-8.19Z"></path>
    <path class="cls-4" d="M265.37,473.61s-18.83-29.6-52.35-13.12c0,0,24.1,36.36,52.35,18.36l-26.17-7.49,26.17,2.25Z"></path>
    <path class="cls-4" d="M290.23,472.11s-33.82-3-32.77-41.6c0,0,33.14,4.23,39.92,38.28l-19.97-13.29,12.81,16.61Z"></path>
    <path class="cls-4" d="M336.55,479.98s-23.72-4.5-23.72-31.86c0,0,31.26,5.06,28.62,28.11l-14.23-12.18,9.33,15.93Z"></path>
    <path class="cls-4" d="M312.82,419.27h-15.44l13.56-7.12s-22.97-7.12-36.53,12.74c0,0,29.75,18.36,38.41-5.62"></path>
    <path class="cls-4" d="M250.31,406.9l-24.48,11.25,24.48-5.62s-14.31,32.98-56.11,11.24c0,0,20.71-31.85,56.11-16.86"></path>
    <path class="cls-4" d="M229.59,388.92s-29.38,11.99-46.32-24.36c0,0,39.46-11.14,48.58,19.49l-24.29-7.35,22.03,12.22Z"></path>
    <path class="cls-4" d="M252.19,379.17s-33.14-9.37-27.12-47.97c0,0,39.5,5.62,32.37,43.47l-16.12-20.98,10.87,25.48Z"></path>
    <path class="cls-4" d="M306.42,376.7s-35.78.98-36.53-41.37c0,0,39.3,5.73,40.3,34.48l-21.84-13.79,18.08,20.68Z"></path>
    <path class="cls-4" d="M297.38,326.71s-33.72,4.5-39.08-39.73c0,0,46.62-3.11,44.36,39.85l-22.14-19.95,16.87,19.82Z"></path>
    <path class="cls-4" d="M336.17,346.94s-29.75-26.61-12.05-53.22c0,0,37.66,25.49,19.58,54.72l-10.15-21.61,2.62,20.11Z"></path>
    <path class="cls-4" d="M372.7,373.55s-22.59-26.61,0-56.59c0,0,26.74,23.24,6.03,52.47l-4.1-27.74-1.92,31.86Z"></path>
    <path class="cls-4" d="M390.4,387.42s-7.16-36.73,29.75-43.85c0,0,13.18,34.15-25.61,47.24l11.54-26.26-15.68,22.86Z"></path>
    <path class="cls-4" d="M393.79,417.04s17.7-29.25,47.83-8.63c0,0-21.47,27.21-44.82,12.86l20.9-8.02-23.91,3.79Z"></path>
    <path class="cls-4" d="M493.21,345.87s-9.79,28.83-57.62,21.32c0,0,16.57-49.48,59.88-29.62l-29.94,13.08,27.68-4.79Z"></path>
    <path class="cls-4" d="M468.74,313.21s-44.82,22.48-71.56-2.63c0,0,37.27-41.58,71.56-2.25l-35.78-1.39,35.78,6.26Z"></path>
    <path class="cls-4" d="M348.61,293.73s12.79-32.23,45.18-22.86l-22.59,12.37,22.59-4.87s-5.62,23.61-45.18,15.37"></path>
    <path class="cls-4" d="M345.21,246.51s-33.14-20.61-58.75,25.86c0,0,36.53,13.8,55.36-15.21l-28.62,1.64,32.01-12.3Z"></path>
    <path class="cls-4" d="M306.04,222.15s-38.03-17.73-60.63,19.8c0,0,39.92,20.18,60.63-12l-27.87,3.13,27.87-10.93Z"></path>
    <path class="cls-4" d="M282.32,205.29s-24.1,10.49-43.31-25.11c0,0,29.52-12.91,45.57,18.74l-22.78-5.24,20.53,11.62Z"></path>
    <path class="cls-4" d="M312.45,209.41s-34.27-13.86-27.87-50.96c0,0,41.8,6,31.26,46.84l-15.17-21.36,11.78,25.48Z"></path>
    <path class="cls-4" d="M346.72,213.15s-33.14-21.73-8.66-61.84c0,0,34.65,26.23,13.94,61.84l-8.17-29.23,2.9,29.23Z"></path>
    <path class="cls-4" d="M385.88,244.26s-19.21-4.31-16.2-32.89c0,0,27.12,10.02,24.1,32.89l-14.31-16.44,6.4,16.44Z"></path>
    <path class="cls-4" d="M436.72,249.51l-16.57-7.55,14.31,3.77s-6.11-21.58-34.27-17.91c0,0,8.49,24.22,35.78,25.81l.75-4.12Z"></path>
    <path class="cls-4" d="M406.97,209.41s-34.54,2.63-37.61-41.97c0,0,39.49,4.87,39.49,36.73l-19.74-13.49,17.86,18.74Z"></path>
    <path class="cls-4" d="M389.11,154.32s-37.88,3-49.18-36.35c0,0,41.43-5.62,47.08,28.85l-17.64-7.12,19.74,14.62Z"></path>
    <path class="cls-4" d="M395.67,89.86s31.83,23.34,10.92,52.84l-8.28-29.23.37,30.73s-25.23-27.74-3.01-54.34"></path>
    <path class="cls-4" d="M460.07,224.77s-28.25-1.5-30.13-33.73c0,0,35.02,0,35.02,28.86l-15.82-11.99,10.92,16.86Z"></path>
    <path class="cls-4" d="M462.71,184.67s-46.7-3.84-35.4-52.14c0,0,43.31,3.79,41.05,48.02l-21.36-21.95,15.71,26.07Z"></path>
    <path class="cls-4" d="M468.44,140.08s-42.26-16.12-27.58-64.08c0,0,43.03,18.28,32.39,58.46l-16.9-26.42,12.09,32.04Z"></path>
    <path class="cls-4" d="M486.81,117.63s-19.21-31.89,19.58-55.87c0,0,18.89,34.85-12.17,55.27l2.85-27.34-10.26,27.94Z"></path>
    <path class="cls-4" d="M507.52,132.54s-3.77-28.44,35.02-42.67c0,0,7.46,46.74-36.9,54.34l18.69-26.58-16.81,14.91Z"></path>
    <path class="cls-4" d="M500.37,215.78s-15.82-26.61,10.17-48.35c0,0,12.05,22.95-4.9,34.52v-17.28l-5.27,31.1Z"></path>
    <path class="cls-4" d="M524.33,177.18s-3.25-39.73,40.81-47.59c0,0,12.05,41.6-39.92,59.58l20.33-34.29-21.22,22.3Z"></path>
  </g>
</svg></svg></g></g></svg></g><g id="dark-icon"><svg xmlns="http://www.w3.org/2000/svg" version="1.1" xmlns:xlink="http://www.w3.org/1999/xlink" width="1000" height="1000"><g clip-path="url(#SvgjsClipPath1011)"><rect width="1000" height="1000" fill="#ffffff"></rect><g transform="matrix(0.7,0,0,0.7,150,150)"><svg xmlns="http://www.w3.org/2000/svg" version="1.1" xmlns:xlink="http://www.w3.org/1999/xlink" width="1000" height="1000"><svg id="Calque_1" data-name="Calque 1" xmlns="http://www.w3.org/2000/svg" viewBox="0 0 1000 1000">
  <defs>
    <style>
      .cls-1 {
        fill: #e02f38;
      }

      .cls-2 {
        fill: #231f20;
      }

      .cls-3 {
        fill: #2d4b41;
      }

      .cls-4 {
        fill: #87a75f;
      }

      .cls-5 {
        fill: #044a27;
      }

      .cls-6 {
        isolation: isolate;
      }

      .cls-7 {
        fill: none;
        stroke: #231f20;
        stroke-miterlimit: 10;
        stroke-width: .25px;
      }

      .cls-8 {
        fill: #a4bf7d;
      }
    </style>
  <clipPath id="SvgjsClipPath1011"><rect width="1000" height="1000" x="0" y="0" rx="350" ry="350"></rect></clipPath></defs>
  <path class="cls-2" d="M500,12.95C230.43,12.95,11.12,231.18,11.12,499.43c0,150.09,68.69,284.49,176.39,373.79v-8.06C83.43,776.98,17.23,645.79,17.23,499.43,17.23,234.55,233.8,19.05,500,19.05s482.78,215.49,482.78,480.38c0,156.92-76.02,296.5-193.34,384.22v7.53c120.85-88.66,199.44-231.22,199.44-391.75,0-268.24-219.31-486.48-488.88-486.48Z"></path>
  <g>
    <g class="cls-6">
      <g class="cls-6">
        <path class="cls-2" d="M292.45,811.16c0,5.13-1.4,7.7-4.2,7.7-1.51,0-2.78-.62-3.79-1.85-1.03-1.23-2.13-2.81-3.31-4.73l-48.28-75.64c-.54-.64-1.03-.96-1.45-.96-.32,0-.48.75-.48,2.24v53.1c0,4.91.27,8.61.8,11.11.54,2.51,1.72,4.19,3.55,5.04,1.08.53,2.15.85,3.23.96,1.07.11,2.04.19,2.91.24.86.06,1.56.27,2.1.64.54.37.81,1.04.81,2,0,2.34-1.4,3.52-4.2,3.52-1.19,0-2.8-.16-4.84-.48s-4.52-.48-7.43-.48-5.28.16-7.1.48c-1.83.32-3.23.48-4.2.48-2.37,0-3.55-1.17-3.55-3.52,0-.85.16-1.47.49-1.84.32-.37.81-.61,1.45-.72.65-.11,1.4-.21,2.26-.32.86-.11,1.83-.37,2.91-.8,1.83-.64,3.01-2.24,3.55-4.8.54-2.56.81-6.4.81-11.51v-58.06c0-3.52-.19-6.29-.57-8.32-.38-2.03-1.32-3.41-2.83-4.16-.75-.32-1.54-.5-2.34-.55-.81-.05-1.56-.13-2.26-.24-.7-.1-1.27-.35-1.7-.72-.43-.38-.64-1.04-.64-2,0-2.34,1.02-3.52,3.07-3.52.43,0,1.83.11,4.2.32s5.92.32,10.66.32c2.8,0,5.09-.05,6.86-.16,1.78-.11,2.99-.16,3.63-.16,1.29,0,2.21.18,2.75.56.54.38,1.24,1.2,2.1,2.47l35.69,54.86c.65.96,1.18,1.44,1.62,1.44.86,0,1.29-.75,1.29-2.24v-34.07c0-4.91-.3-8.59-.89-11.04-.59-2.45-1.8-4.1-3.63-4.96-1.18-.53-2.32-.85-3.39-.96-1.08-.1-2.02-.21-2.83-.32s-1.45-.35-1.94-.72c-.49-.37-.73-1.04-.73-2,0-2.34,1.34-3.52,4.04-3.52,1.51,0,2.83.14,3.96.41,1.13.27,2.07.4,2.83.4.21,0,.78.03,1.7.08s2.23.08,3.96.08c1.83,0,3.17-.02,4.04-.08.86-.05,1.4-.08,1.61-.08.54,0,1.29-.13,2.26-.4s2.1-.41,3.39-.41c2.37,0,3.55,1.17,3.55,3.52,0,.86-.16,1.44-.48,1.76-.32.32-.78.56-1.37.72-.59.16-1.35.29-2.26.39-.92.11-1.91.38-2.99.8-1.83.64-3.02,2.24-3.55,4.81-.54,2.56-.81,6.39-.81,11.51v74.37Z"></path>
      </g>
      <g class="cls-6">
        <path class="cls-2" d="M363.51,795.56c0,3.11.18,5.35.56,6.75.38,1.39,1.26,2.09,2.66,2.09.97,0,1.86-.43,2.66-1.29.81-.85,1.48-1.28,2.02-1.28.32,0,.73.27,1.21.8.49.54.73,1.23.73,2.09,0,.97-.48,2.17-1.45,3.61-.97,1.45-2.29,2.84-3.96,4.18-1.67,1.34-3.55,2.49-5.66,3.46-2.1.96-4.29,1.44-6.56,1.44-2.81,0-4.94-.94-6.4-2.81-1.46-1.87-3-4.95-4.61-9.24h-.65c-4.43,4.07-8.48,7.12-12.15,9.16-3.67,2.03-6.86,3.05-9.55,3.05-4.1,0-7.35-1.53-9.72-4.59-2.38-3.06-3.56-7.01-3.56-11.83,0-2.9.4-5.45,1.21-7.66.81-2.2,2.04-4.24,3.71-6.12,1.67-1.88,3.74-3.65,6.22-5.32,2.48-1.66,5.38-3.4,8.72-5.23l12.92-7.09c1.07-.64,1.61-1.99,1.61-4.02v-10.31c0-6.23-1.61-9.34-4.84-9.34-1.19,0-2.21.32-3.07.97-.86.64-1.64,1.47-2.34,2.49-.7,1.02-1.4,2.23-2.1,3.62-.7,1.4-1.43,2.84-2.18,4.34-3.23,6.32-8.08,9.48-14.54,9.48-3.23,0-4.84-1.55-4.84-4.66,0-2.35.83-4.87,2.5-7.55,1.67-2.68,3.88-5.08,6.62-7.2,2.75-2.13,5.95-3.9,9.61-5.31,3.66-1.41,7.48-2.11,11.46-2.11,7.47,0,13.29,1.66,17.47,4.98s6.27,8.04,6.27,14.14v36.32ZM342.51,776.28c-.43,0-.92.21-1.45.64l-4.52,2.89c-6.68,4.39-10.01,9.38-10.01,14.95,0,2.78.67,5.04,2.02,6.75,1.34,1.71,3.15,2.57,5.41,2.57,3.01,0,5.35-1.13,7.03-3.37,1.67-2.25,2.5-5.68,2.5-10.28v-12.21c0-1.29-.32-1.93-.97-1.93Z"></path>
      </g>
      <g class="cls-6">
        <path class="cls-2" d="M404.36,740.92c0,1.5.59,2.25,1.78,2.25h10.33c1.07,0,1.72.18,1.94.56.21.38.32.99.32,1.85v2.41c0,1.18-.11,2.04-.32,2.58-.22.54-.86.8-1.94.8h-10.33c-1.19,0-1.78.75-1.78,2.25l-.49,33.1v2.89c0,5.47.3,9.48.89,12.05.59,2.57,1.75,3.86,3.47,3.86.75,0,1.53-.21,2.34-.64s1.59-.91,2.34-1.45c.75-.53,1.42-1.01,2.02-1.44.59-.43,1.1-.64,1.54-.64.54,0,1.13.35,1.77,1.04.65.7.97,1.37.97,2.01,0,1.07-.59,2.35-1.78,3.86-1.19,1.5-2.75,2.95-4.68,4.34-1.94,1.39-4.15,2.57-6.62,3.54-2.48.96-5.01,1.44-7.59,1.44-5.49,0-9.31-1.74-11.46-5.22-2.16-3.48-3.23-8.81-3.23-15.99v-5.94l.65-34.55c0-1.5-.11-2.71-.32-3.61-.22-.91-.86-1.37-1.94-1.37h-2.91c-2.48,0-3.71-.85-3.71-2.57,0-.96.4-1.82,1.21-2.57s1.86-1.53,3.15-2.33c1.29-.8,2.8-1.79,4.52-2.97,1.72-1.18,3.5-2.74,5.33-4.66,1.51-1.61,2.83-3.16,3.96-4.66,1.13-1.5,2.15-2.86,3.07-4.1.91-1.23,1.75-2.19,2.5-2.89s1.56-1.04,2.42-1.04c1.18,0,1.91.38,2.18,1.12.27.75.41,1.82.41,3.21v13.5Z"></path>
      </g>
      <g class="cls-6">
        <path class="cls-2" d="M451.51,789.77c0,11.89,3.17,17.84,9.53,17.84,4.31,0,7.13-1.69,8.48-5.06,1.34-3.37,2.02-8.06,2.02-14.06v-30.05c0-2.25-.11-4.02-.32-5.3-.21-1.29-.92-2.3-2.1-3.05-.75-.43-1.56-.7-2.42-.8-.86-.11-1.67-.21-2.42-.32-.75-.11-1.37-.38-1.86-.8-.49-.42-.73-1.23-.73-2.41s.21-1.96.65-2.33c.43-.38,1.07-.56,1.94-.56.43,0,1.62.11,3.55.32s4.67.32,8.2.32c3.95,0,6.97-.14,9.05-.41,2.08-.26,3.39-.4,3.92-.4,1.17,0,1.9.35,2.16,1.04.27.7.4,2.17.4,4.42v48.69c0,1.61.11,2.92.32,3.93.21,1.02.81,1.85,1.78,2.49.65.43,1.34.7,2.1.8s1.45.24,2.1.4c.64.16,1.18.41,1.61.73s.65.91.65,1.76c0,1.5-.59,2.49-1.78,2.97-1.19.48-3.12,1.04-5.81,1.69-5.37,1.4-9.08,2.65-11.12,3.77-2.04,1.13-3.27,1.69-3.7,1.69-.97,0-1.64-.32-2.02-.96-.38-.64-.67-1.66-.89-3.06l-.64-6.27-.81-.16c-2.79,3.54-6.01,6.24-9.66,8.11-3.65,1.88-7.36,2.81-11.11,2.81-4.84,0-8.65-.75-11.44-2.25-2.79-1.5-4.91-3.64-6.36-6.43s-2.36-6.13-2.74-10.05-.56-8.22-.56-12.94v-27.48c0-2.35-.11-4.15-.32-5.38-.22-1.23-.86-2.22-1.94-2.97-.65-.43-1.32-.67-2.02-.73-.7-.05-1.37-.16-2.02-.32-.64-.16-1.19-.46-1.61-.89-.43-.42-.65-1.17-.65-2.25,0-1.18.21-1.96.65-2.33.43-.38,1.13-.56,2.1-.56.86,0,2.15.08,3.88.24,1.72.16,3.98.24,6.78.24,3.77,0,6.7-.14,8.8-.41,2.1-.26,3.42-.4,3.96-.4,1.18,0,1.88.27,2.1.8.21.54.32,1.66.32,3.37v42.9Z"></path>
      </g>
      <g class="cls-6">
        <path class="cls-2" d="M533.22,748.96c0,1.07.17,1.61.49,1.61s.75-.32,1.29-.97l1.45-1.93c3.55-4.5,7.43-6.75,11.63-6.75,3.45,0,6.25,1.13,8.4,3.37,2.15,2.25,3.23,5.2,3.23,8.84,0,4.07-.97,7.21-2.91,9.4s-4.36,3.29-7.27,3.29c-1.93,0-3.53-.48-4.76-1.44-1.24-.97-2.29-2.01-3.15-3.14s-1.64-2.17-2.34-3.14c-.7-.96-1.42-1.44-2.18-1.44-2.15,0-3.23,2.68-3.23,8.03v34.44c0,2.35.14,4.14.4,5.37.27,1.23,1,2.22,2.18,2.96.75.54,1.56.83,2.42.88.86.05,1.65.13,2.35.24.69.11,1.29.35,1.78.72.48.38.73,1.14.73,2.33,0,1.92-.6,2.88-1.78,2.88-.87,0-2.8-.18-5.82-.56-3.02-.38-7.11-.57-12.27-.57s-9.21.19-12.11.57c-2.91.38-4.74.56-5.49.56s-1.35-.27-1.78-.8c-.43-.54-.65-1.23-.65-2.09,0-1.07.21-1.79.65-2.16.43-.38.97-.64,1.61-.8.65-.16,1.35-.26,2.1-.32.75-.05,1.51-.24,2.27-.56,1.5-.75,2.44-1.73,2.83-2.96.37-1.23.56-3.13.56-5.69v-32.39c0-.54-.02-1.07-.08-1.6-.05-.54-.08-1.17-.08-1.93,0-1.5-.22-2.7-.65-3.61-.44-.91-1.29-1.58-2.58-2.01-1.62-.42-2.97-.69-4.04-.8-1.08-.11-1.62-.91-1.62-2.4,0-.97.27-1.71.81-2.25.54-.53,1.29-.96,2.26-1.28.97-.32,2.12-.67,3.47-1.04s2.83-.94,4.45-1.69c2.25-1.06,4.17-2.19,5.73-3.36,1.56-1.17,2.9-2.3,4.04-3.37s2.1-1.95,2.91-2.65c.8-.69,1.59-1.04,2.34-1.04,1.19,0,1.88.38,2.1,1.13s.32,1.72.32,2.89v7.23Z"></path>
      </g>
      <g class="cls-6">
        <path class="cls-2" d="M586.35,770.81c-1.72,0-2.59.96-2.59,2.89v4.18c0,4.29.54,8.17,1.62,11.65,1.07,3.48,2.58,6.46,4.52,8.92s4.25,4.36,6.94,5.71c2.69,1.34,5.6,2,8.73,2,2.58,0,4.76-.42,6.53-1.28s3.31-1.79,4.6-2.81c1.29-1.01,2.37-1.96,3.23-2.81.86-.85,1.67-1.28,2.42-1.28.64,0,1.22.27,1.69.8.49.54.73,1.23.73,2.09,0,.97-.7,2.38-2.1,4.26-1.4,1.88-3.36,3.73-5.89,5.54-2.53,1.82-5.54,3.43-9.04,4.82-3.5,1.39-7.35,2.09-11.55,2.09-4.84,0-9.34-.94-13.49-2.81-4.14-1.87-7.69-4.52-10.65-7.95-2.96-3.43-5.28-7.52-6.95-12.29-1.67-4.76-2.5-9.99-2.5-15.67s.86-11.06,2.59-15.83c1.72-4.76,4.11-8.84,7.18-12.21s6.75-6,11.06-7.88c4.3-1.87,9.1-2.81,14.37-2.81,4.2,0,7.97.7,11.3,2.09,3.33,1.4,6.19,3.3,8.56,5.71,2.37,2.41,4.17,5.17,5.41,8.28s1.86,6.37,1.86,9.8c0,1.82-.47,3.08-1.37,3.78-.92.7-2.4,1.04-4.45,1.04h-32.78ZM604.12,762.71c2.04-1.11,3.06-3.16,3.06-6.13,0-3.18-.89-5.73-2.66-7.64-1.77-1.91-4.01-2.87-6.7-2.87-3.12,0-5.9,1.19-8.32,3.58s-3.9,5.92-4.44,10.59l-.33,2.71v.32c0,.74.59,1.11,1.78,1.11h8.4c4.09,0,7.15-.56,9.21-1.68Z"></path>
      </g>
      <g class="cls-6">
        <path class="cls-2" d="M717.8,751.04c-1.07.43-1.61,1.02-1.61,1.77,0,.21.1.54.32.97l12.76,19.12c.54.86,1.02,1.29,1.45,1.29.65,0,1.4-.59,2.26-1.77l2.59-3.7c1.07-1.6,1.61-3.59,1.61-5.94s-1.45-3.96-4.35-4.5c-1.41-.21-2.65-.37-3.72-.48-1.07-.1-1.61-.96-1.61-2.57,0-1.82,1.13-2.73,3.39-2.73.54,0,2.18.14,4.92.4,2.75.27,6.7.41,11.87.41,2.47,0,4.47-.08,5.98-.24,1.5-.16,2.68-.24,3.55-.24,1.61,0,2.42.75,2.42,2.25,0,1.07-.47,1.79-1.37,2.17-.92.38-2.18.97-3.8,1.77-1.62.8-3.5,2.06-5.65,3.77-2.15,1.72-4.47,4.34-6.95,7.88l-5.49,8.19c-.76,1.07-1.13,1.82-1.13,2.25,0,.64.26,1.39.8,2.25l8.08,12.53c2.58,3.96,4.89,6.83,6.94,8.6,2.04,1.77,3.79,3.06,5.25,3.86,1.45.8,2.56,1.37,3.31,1.69.75.32,1.13.97,1.13,1.93,0,1.71-1.35,2.57-4.04,2.57-1.83,0-3.93-.11-6.3-.32-2.37-.21-5.07-.32-8.07-.32-1.84,0-3.45.05-4.85.16s-2.69.16-3.88.16c-2.48,0-4.26-.64-5.33-1.93-1.08-1.29-2.37-3.16-3.88-5.63l-1.78-3.05c-1.08-1.71-1.78-2.57-2.1-2.57s-1.03.43-2.1,1.29l-3.39,3.05c-2.05,1.82-3.98,3.48-5.81,4.98-1.83,1.5-3.71,2.79-5.66,3.86-1.93,1.07-4.01,1.9-6.21,2.49-2.21.58-4.71.88-7.51.88-6.89,0-12.46-2.62-16.71-7.88-4.25-5.25-6.38-12.32-6.38-21.21,0-6.43,1.56-11.86,4.68-16.31,3.12-4.45,7.92-8.22,14.38-11.33l3.06-1.45c1.4-.64,2.1-1.34,2.1-2.09,0-.21-.27-.97-.81-2.25l-2.25-4.66c-1.3-2.47-2.53-5.01-3.72-7.64-1.18-2.62-1.78-5.65-1.78-9.08s.67-6.43,2.02-9.32c1.34-2.89,3.23-5.35,5.65-7.39,2.43-2.03,5.33-3.64,8.72-4.82,3.39-1.18,7.13-1.77,11.22-1.77,8.07,0,14.43,1.72,19.05,5.15s6.95,8.19,6.95,14.3c0,4.92-1.13,8.81-3.39,11.65-2.26,2.84-5.92,5.44-10.98,7.79l-3.88,1.76ZM695.68,763.42c-.44,0-.86.21-1.29.64l-2.1,1.76c-1.72,1.5-3.06,3.37-4.03,5.63-.97,2.25-1.45,4.82-1.45,7.71s.45,5.9,1.37,8.68c.91,2.78,2.15,5.22,3.71,7.31,1.56,2.09,3.39,3.75,5.49,4.98,2.1,1.23,4.28,1.85,6.54,1.85,1.94,0,3.65-.27,5.17-.8,1.5-.54,3.01-1.45,4.52-2.73l2.42-2.09c.21-.1.35-.32.41-.64.05-.32.08-.64.08-.96,0-.75-.17-1.29-.49-1.61l-19.05-29.08c-.32-.43-.75-.64-1.29-.64ZM702.46,726.78c0,1.82.38,3.86,1.13,6.11.76,2.25,1.67,4.33,2.75,6.27,1.08,1.93,2.1,3.54,3.07,4.82.97,1.29,1.72,1.93,2.26,1.93.75,0,1.59-.27,2.5-.8s1.78-1.31,2.58-2.33c.81-1.01,1.48-2.25,2.02-3.7.54-1.44.8-3.08.8-4.9,0-2.57-.32-4.9-.97-6.99-.64-2.09-1.45-3.91-2.42-5.47-.97-1.55-2.07-2.73-3.31-3.54-1.24-.8-2.4-1.2-3.47-1.2-4.63,0-6.95,3.27-6.95,9.8Z"></path>
      </g>
    </g>
    <g class="cls-6">
      <g class="cls-6">
        <path class="cls-2" d="M287.93,905.58c-.64-.21-1.08-.32-1.29-.32-.65,0-.97.75-.97,2.25v30.37c0,2.35.4,4.13,1.21,5.3.81,1.18,2.18,1.93,4.12,2.25,1.83.32,3.15.59,3.96.8s1.21.96,1.21,2.25c0,2.46-1.03,3.7-3.07,3.7-.75,0-2.58-.21-5.49-.64s-7.11-.64-12.6-.64-9.69.21-12.59.64-4.74.64-5.49.64c-2.04,0-3.07-1.18-3.07-3.54,0-1.18.35-1.93,1.05-2.25.7-.32,1.91-.64,3.63-.97,2.15-.43,3.63-1.13,4.44-2.09.81-.96,1.21-2.83,1.21-5.62v-72.79c0-2.35-.32-4.1-.97-5.22-.65-1.12-1.88-1.9-3.71-2.33-1.83-.42-3.23-.78-4.2-1.04-.97-.26-1.45-1.1-1.45-2.49,0-2.46,1.78-3.69,5.33-3.69,1.18,0,2.66.08,4.44.24s3.9.24,6.38.24c5.81,0,10.96-.1,15.42-.32,4.47-.21,8.26-.32,11.38-.32,10.12,0,17.76,2.49,22.93,7.47,5.17,4.98,7.75,12.13,7.75,21.45,0,4.72-.67,9.03-2.02,12.94-1.35,3.91-3.09,7.26-5.25,10.04-2.16,2.79-4.66,4.96-7.51,6.51-2.86,1.56-5.73,2.33-8.64,2.33-2.69,0-5.27-.54-7.75-1.61l-8.4-3.54ZM286.23,898.11c.7,1.77,2.72,2.65,6.06,2.65,4.09,0,7.35-1.82,9.77-5.47,2.42-3.64,3.63-8.84,3.63-15.58,0-3.64-.38-6.88-1.13-9.72-.75-2.84-1.78-5.22-3.07-7.15-1.29-1.93-2.78-3.4-4.44-4.42-1.67-1.02-3.37-1.53-5.09-1.53-2.91,0-4.77,1.04-5.57,3.13-.81,2.09-1.21,5.22-1.21,9.4v21.37c0,3.11.35,5.54,1.05,7.31Z"></path>
      </g>
      <g class="cls-6">
        <path class="cls-2" d="M375.78,932.74c0,3.11.18,5.35.56,6.75.38,1.39,1.26,2.09,2.66,2.09.97,0,1.86-.43,2.66-1.29.81-.85,1.48-1.28,2.02-1.28.32,0,.73.27,1.21.8.49.54.73,1.23.73,2.09,0,.97-.48,2.17-1.45,3.61-.97,1.45-2.29,2.84-3.96,4.18-1.67,1.34-3.55,2.49-5.66,3.46-2.1.96-4.29,1.44-6.56,1.44-2.81,0-4.94-.94-6.4-2.81-1.46-1.87-3-4.95-4.61-9.24h-.65c-4.43,4.07-8.48,7.12-12.15,9.16-3.67,2.03-6.86,3.05-9.55,3.05-4.1,0-7.35-1.53-9.72-4.59-2.38-3.06-3.56-7.01-3.56-11.83,0-2.9.4-5.45,1.21-7.66.81-2.2,2.04-4.24,3.71-6.12,1.67-1.88,3.74-3.65,6.22-5.32,2.48-1.66,5.38-3.4,8.72-5.23l12.92-7.09c1.07-.64,1.61-1.99,1.61-4.02v-10.31c0-6.23-1.61-9.34-4.84-9.34-1.19,0-2.21.32-3.07.97-.86.64-1.64,1.47-2.34,2.49-.7,1.02-1.4,2.23-2.1,3.62-.7,1.4-1.43,2.84-2.18,4.34-3.23,6.32-8.08,9.48-14.54,9.48-3.23,0-4.84-1.55-4.84-4.66,0-2.35.83-4.87,2.5-7.55,1.67-2.68,3.88-5.08,6.62-7.2,2.75-2.13,5.95-3.9,9.61-5.31,3.66-1.41,7.48-2.11,11.46-2.11,7.47,0,13.29,1.66,17.47,4.98s6.27,8.04,6.27,14.14v36.32ZM354.78,913.45c-.43,0-.92.21-1.45.64l-4.52,2.89c-6.68,4.39-10.01,9.38-10.01,14.95,0,2.78.67,5.04,2.02,6.75,1.34,1.71,3.15,2.57,5.41,2.57,3.01,0,5.35-1.13,7.03-3.37,1.67-2.25,2.5-5.68,2.5-10.28v-12.21c0-1.29-.32-1.93-.97-1.93Z"></path>
      </g>
      <g class="cls-6">
        <path class="cls-2" d="M428.26,945.11c-4.52,11.67-7.65,20.46-9.37,26.35-1.72,5.89-2.75,9.21-3.07,9.96-.97,2.25-2.18,3.75-3.63,4.5s-3.69,1.13-6.7,1.13c-3.77,0-6.25-.67-7.43-2.01-1.19-1.34-1.78-3.83-1.78-7.48,0-3.43.49-5.94,1.45-7.55.97-1.61,2.85-2.41,5.65-2.41.97,0,1.88.03,2.75.08.86.05,1.67.08,2.42.08,1.29,0,2.47-.35,3.55-1.04,1.07-.7,1.96-1.58,2.66-2.65.7-1.07,1.23-2.28,1.61-3.61.38-1.34.57-2.6.57-3.77,0-1.4-.22-2.87-.65-4.42-.43-1.55-1.02-3.24-1.78-5.06l-21.47-54.31c-.86-2.14-1.89-3.64-3.07-4.5-1.19-.85-2.34-1.47-3.47-1.85-1.13-.37-2.1-.72-2.91-1.04-.81-.32-1.21-1.12-1.21-2.41,0-1.82.97-2.73,2.91-2.73.75,0,2.31.13,4.68.4,2.37.27,5.65.4,9.85.4,5.92,0,10.5-.1,13.72-.32,3.23-.21,5.11-.32,5.65-.32,1.08,0,1.91.13,2.5.4.59.27.89.94.89,2.01,0,1.4-.43,2.28-1.29,2.65-.86.38-1.83.64-2.91.8-1.08.16-2.05.43-2.91.8s-1.29,1.2-1.29,2.49c0,.64.59,2.63,1.78,5.94l11.3,31.17c.32.75.7,1.13,1.13,1.13s.81-.48,1.13-1.45l9.04-25.39c.86-2.15,1.42-3.99,1.7-5.54.27-1.55.4-2.76.4-3.62,0-1.82-.51-3.05-1.53-3.7-1.03-.64-2.18-1.12-3.47-1.44s-2.45-.67-3.47-1.04-1.53-1.26-1.53-2.65c0-1.18.21-1.96.64-2.33s1.13-.56,2.1-.56c.64,0,1.91.14,3.79.4,1.88.27,4.44.41,7.67.41,3.01,0,5.54-.08,7.59-.24,2.04-.16,3.6-.24,4.68-.24.86,0,1.48.13,1.86.4.38.27.56.94.56,2.01,0,.86-.13,1.5-.4,1.93-.27.43-.62.75-1.05.97-.43.21-.92.38-1.45.48s-1.02.21-1.45.32c-3.12,1.18-5.81,4.55-8.08,10.12l-18.89,48.37Z"></path>
      </g>
      <g class="cls-6">
        <path class="cls-2" d="M495.84,878.1c2.85.54,5.3,1.23,7.35,2.09,1.51.54,2.42,1.18,2.75,1.93.32.75.48,1.93.48,3.54,0,1.82-.03,3.37-.08,4.66-.06,1.28-.08,2.3-.08,3.05,0,2.57-.92,3.86-2.75,3.86-1.19,0-2.24-.75-3.15-2.25-.92-1.5-1.97-3.15-3.15-4.98-1.19-1.82-2.61-3.48-4.28-4.98-1.67-1.5-3.79-2.25-6.38-2.25-3.12,0-5.6.78-7.43,2.33-1.83,1.56-2.75,3.51-2.75,5.87,0,1.6.4,2.95,1.21,4.01.81,1.07,1.88,2.07,3.23,2.97,1.34.91,2.99,1.79,4.92,2.65s4.04,1.76,6.3,2.73c3.01,1.29,5.65,2.68,7.91,4.18,2.26,1.5,4.14,3.16,5.65,4.98,1.51,1.82,2.66,3.94,3.48,6.35.8,2.41,1.2,5.17,1.2,8.28,0,4.07-.7,7.79-2.1,11.17-1.4,3.37-3.42,6.27-6.05,8.68s-5.79,4.31-9.45,5.71c-3.66,1.39-7.75,2.09-12.27,2.09-6.25,0-11.28-1.02-15.1-3.05s-5.73-4.6-5.73-7.71c0-5.78.21-9.93.65-12.45.43-2.52,1.24-3.77,2.42-3.77.86,0,1.54.3,2.02.88.48.59.94,1.4,1.37,2.41.43,1.02.89,2.23,1.37,3.62.49,1.4,1.16,2.89,2.02,4.5,3.34,6.43,7.97,9.64,13.89,9.64,3.45,0,6.3-1.01,8.56-3.04,2.26-2.03,3.39-4.42,3.39-7.2,0-1.71-.22-3.14-.65-4.32s-1.13-2.24-2.1-3.2c-.97-.95-2.21-1.86-3.71-2.72-1.51-.85-3.29-1.76-5.33-2.72-3.12-1.6-6.08-3.09-8.88-4.48s-5.25-2.96-7.35-4.72c-2.1-1.76-3.77-3.83-5.01-6.24-1.24-2.4-1.86-5.47-1.86-9.2,0-7.04,2.37-12.74,7.11-17.12,4.73-4.38,11.25-6.56,19.54-6.56,3.01,0,5.95.27,8.8.8Z"></path>
      </g>
      <g class="cls-6">
        <path class="cls-2" d="M572.14,932.74c0,3.11.19,5.35.57,6.75.38,1.39,1.26,2.09,2.66,2.09.97,0,1.86-.43,2.66-1.29.8-.85,1.48-1.28,2.02-1.28.32,0,.73.27,1.2.8.49.54.73,1.23.73,2.09,0,.97-.48,2.17-1.45,3.61-.97,1.45-2.29,2.84-3.96,4.18-1.67,1.34-3.55,2.49-5.66,3.46-2.1.96-4.29,1.44-6.56,1.44-2.8,0-4.94-.94-6.4-2.81-1.46-1.87-3-4.95-4.61-9.24h-.65c-4.42,4.07-8.48,7.12-12.15,9.16-3.67,2.03-6.86,3.05-9.55,3.05-4.1,0-7.35-1.53-9.72-4.59-2.38-3.06-3.57-7.01-3.57-11.83,0-2.9.41-5.45,1.22-7.66.8-2.2,2.04-4.24,3.71-6.12s3.74-3.65,6.22-5.32c2.47-1.66,5.38-3.4,8.72-5.23l12.92-7.09c1.07-.64,1.62-1.99,1.62-4.02v-10.31c0-6.23-1.62-9.34-4.85-9.34-1.19,0-2.21.32-3.07.97-.86.64-1.64,1.47-2.34,2.49-.7,1.02-1.4,2.23-2.1,3.62-.7,1.4-1.43,2.84-2.18,4.34-3.23,6.32-8.07,9.48-14.54,9.48-3.23,0-4.84-1.55-4.84-4.66,0-2.35.83-4.87,2.5-7.55,1.66-2.68,3.88-5.08,6.62-7.2,2.74-2.13,5.95-3.9,9.61-5.31,3.65-1.41,7.48-2.11,11.46-2.11,7.48,0,13.3,1.66,17.47,4.98s6.27,8.04,6.27,14.14v36.32ZM551.15,913.45c-.44,0-.91.21-1.45.64l-4.53,2.89c-6.68,4.39-10.01,9.38-10.01,14.95,0,2.78.67,5.04,2.02,6.75s3.15,2.57,5.41,2.57c3.01,0,5.35-1.13,7.02-3.37,1.67-2.25,2.5-5.68,2.5-10.28v-12.21c0-1.29-.32-1.93-.97-1.93Z"></path>
      </g>
      <g class="cls-6">
        <path class="cls-2" d="M647.07,883.08c.21,0,.45-.02.73-.08.26-.05.56-.08.89-.08,1.83,0,3.04.43,3.63,1.29.6.86.89,3.05.89,6.59,0,.86-.7,1.28-2.1,1.28-.64,0-1.19-.02-1.62-.08s-.75-.08-.97-.08c-1.4,0-3.07.16-5.01.48,1.94,4.07,2.91,8.09,2.91,12.05,0,7.61-2.69,13.74-8.07,18.4-5.39,4.66-12.76,6.99-22.13,6.99-.54,0-1.13-.02-1.78-.08-.64-.05-1.29-.08-1.93-.08-1.51,0-2.64.35-3.39,1.05-.76.7-1.13,1.58-1.13,2.65,0,1.5,1.05,2.52,3.15,3.05,2.1.54,5.19.91,9.28,1.13,5.06.21,9.55.67,13.48,1.37,3.93.7,7.24,1.82,9.93,3.37,2.69,1.56,4.73,3.62,6.14,6.19,1.4,2.57,2.1,5.84,2.1,9.8,0,3.64-.92,7.2-2.75,10.68-1.83,3.48-4.44,6.56-7.83,9.24-3.4,2.68-7.43,4.82-12.11,6.43-4.69,1.61-9.83,2.41-15.42,2.41-4.53,0-8.62-.54-12.28-1.61-3.67-1.07-6.78-2.49-9.37-4.26-2.59-1.77-4.58-3.8-5.97-6.11-1.4-2.31-2.1-4.69-2.1-7.15s.64-4.47,1.93-6.02c1.3-1.56,3.07-3.14,5.33-4.75l5.82-4.17c1.29-.75,1.93-1.34,1.93-1.77,0-.54-.27-1.07-.8-1.6l-2.58-2.74c-4.74-4.92-7.11-8.41-7.11-10.45,0-1.17.51-2.03,1.54-2.57,1.01-.54,2.39-1.23,4.11-2.09l6.46-3.05c1.18-.54,1.78-.91,1.78-1.13,0-.32-.44-.8-1.3-1.45l-2.42-1.76c-3.66-2.68-6.43-5.54-8.31-8.6-1.88-3.05-2.83-7.09-2.83-12.13,0-3.64.69-7.07,2.1-10.28,1.4-3.21,3.36-6.03,5.89-8.44s5.54-4.31,9.04-5.71c3.5-1.39,7.35-2.09,11.55-2.09s7.8.4,10.49,1.2,5.44,1.96,8.24,3.45c.86.43,1.67.86,2.42,1.29s1.88.64,3.39.64c.33,0,.62-.02.89-.08.26-.05.56-.08.88-.08l4.36-.48ZM634.96,961.91c-1.07-1.23-2.58-2.12-4.52-2.65s-4.23-.86-6.86-.97c-2.64-.11-5.57-.21-8.8-.32-1.72,0-3.26-.24-4.6-.72-1.35-.48-2.5-.99-3.48-1.53-.97-.54-1.75-1.02-2.34-1.45-.6-.43-1.05-.64-1.37-.64-.65,0-1.56,1.05-2.75,3.14-1.19,2.09-1.78,4.53-1.78,7.31,0,5.04,1.72,9.13,5.17,12.29s8.13,4.74,14.05,4.74,10.42-1.39,13.81-4.17c3.39-2.79,5.09-6.06,5.09-9.8,0-2.25-.54-3.99-1.62-5.22ZM609.2,887.82c-2.1,3.59-3.15,8.6-3.15,15.02s1.05,11.46,3.15,15.11,4.77,5.46,7.99,5.46,5.73-1.79,7.83-5.38c2.1-3.59,3.15-8.65,3.15-15.18s-1.05-11.57-3.15-15.1c-2.1-3.54-4.72-5.31-7.83-5.31s-5.9,1.79-7.99,5.38Z"></path>
      </g>
      <g class="cls-6">
        <path class="cls-2" d="M681.15,907.99c-1.73,0-2.59.96-2.59,2.89v4.18c0,4.29.54,8.17,1.62,11.65,1.08,3.48,2.58,6.46,4.53,8.92,1.93,2.46,4.24,4.36,6.94,5.71,2.69,1.34,5.6,2,8.72,2,2.58,0,4.76-.42,6.54-1.28s3.31-1.79,4.6-2.81c1.29-1.01,2.36-1.96,3.23-2.81.86-.85,1.66-1.28,2.42-1.28.64,0,1.21.27,1.69.8.49.54.73,1.23.73,2.09,0,.97-.7,2.38-2.1,4.26-1.4,1.88-3.36,3.73-5.89,5.54-2.53,1.82-5.55,3.43-9.05,4.82-3.49,1.39-7.35,2.09-11.54,2.09-4.85,0-9.34-.94-13.49-2.81-4.14-1.87-7.7-4.52-10.66-7.95-2.96-3.43-5.27-7.52-6.94-12.29-1.67-4.76-2.5-9.99-2.5-15.67s.86-11.06,2.59-15.83c1.72-4.76,4.11-8.84,7.18-12.21,3.07-3.37,6.76-6,11.07-7.88,4.3-1.87,9.1-2.81,14.37-2.81,4.2,0,7.97.7,11.3,2.09,3.34,1.4,6.19,3.3,8.56,5.71s4.17,5.17,5.41,8.28c1.23,3.11,1.85,6.37,1.85,9.8,0,1.82-.46,3.08-1.37,3.78-.92.7-2.4,1.04-4.44,1.04h-32.78ZM698.91,899.89c2.04-1.11,3.07-3.16,3.07-6.13,0-3.18-.89-5.73-2.67-7.64-1.77-1.91-4.01-2.87-6.7-2.87-3.12,0-5.89,1.19-8.31,3.58s-3.91,5.92-4.44,10.59l-.33,2.71v.32c0,.74.6,1.11,1.78,1.11h8.4c4.09,0,7.16-.56,9.21-1.68Z"></path>
      </g>
    </g>
  </g>
  <g>
    <path class="cls-8" d="M703.3,662.97s19.46,7.85,20.51,24.59c0,0-15.78-8.37-20.51-24.59"></path>
    <path class="cls-8" d="M726.17,685.2s-2.89-26.42-14.73-37.94v-11.51s11.57,7.06,14.73,32.44v-28.26s-9.46-8.89-6.05-24.59l8.15,7.59v52.33s3.94-17.79,5.53-27.21c0,0,8.68-18.83,14.46-19.88,0,0-3.94,21.45-9.2,25.64,0,0-8.41,21.19-8.15,31.39h-4.73Z"></path>
    <path class="cls-8" d="M735.9,685.2s2.89-24.33,18.4-29.3c0,0-8.15,24.07-18.4,29.3"></path>
    <path class="cls-8" d="M812.58,690.7s4.55-36.62,8.5-40.42v-14.26s-7.63-32.7,1.84-45c0,0,11.57,15.96,4.21,44.21l-11.31,55.46h-3.24Z"></path>
    <path class="cls-8" d="M816.87,695.15s6.84-32.7,11.04-37.41c0,0,17.35-50.49,14.72-66.71,0,0-9.46-21.98-1.05-40.03,0,0,19.19,18.84,7.89,40.03l-3.16,20.54,22.08-33.88,1.58-34.53s2.36-10.99,9.2-10.99c0,0,7.97,11.05-3.94,32.18l11.57-18.58s7.63-31.13,20.51-34.27c0,0-1.58,25.63-15.51,34.27l-20.24,35.84s29.44-27.99,42.33-18.83c0,0-6.57,18.57-31.81,18.05,0,0-26.56,18.57-36.28,45.26,0,0,27.08-35.58,51-27.47,0,0-5.52,16.22-39.17,22.77,0,0-34.49,34.94-37.48,73.93l-3.27-.16Z"></path>
    <path class="cls-8" d="M826.95,698.02s18.23-54.07,36.1-60.35c0,0-30.49,49.88-30.85,57.21,0,0,42.06-62.09,65.9-57.21,0,0-64.85,50.58-64.15,61.75l-7.01-1.4Z"></path>
    <path class="cls-8" d="M845.18,693.14s12.97-17.09,30.85-16.39c0,0-25.12,19.75-30.85,16.39"></path>
    <path class="cls-5" d="M773.38,693.52s4.98-47.37-14.11-77.93l2.91-1.65s13.48,22.09,11.79,38.03c0,0,14.08-49.86,11.86-81.79l3.94,3.03s-.76,39.22-3.32,49.2c0,0-8.92,37.01-7.81,71.12h-5.26Z"></path>
    <path class="cls-8" d="M732.3,596.05l15.15,1.65,3.53-15.69s14.11,9.36,11.2,31.94l-2.91,1.65s-22.96-7.16-26.97-19.54"></path>
    <path class="cls-1" d="M728.56,579.53h11.06s10.65,5.55,9.24,11.86l-1.42,6.31-10.57-1.15-8.3-7.93v-9.08Z"></path>
    <path class="cls-1" d="M763.97,494.2s-22.96-15.69-26.56,14.32c0,0-15.77,20.09,7.19,23.94,0,0-16.32,20.37,9.68,27.8,0,0,14.66,23.4,29.6,4.68,0,0,6.64,21.75,31.81,1.1,0,0,26.28-3.03,10.51-24.77,0,0,39-2.75,19.09-31.38,0,0-4.15-28.9-26.84-15.42,0,0,8.58-26.15-18.81-22.57,0,0-11.62-9.21-17.98-.34,0,0-23.79-4.35-17.7,22.63"></path>
    <path class="cls-2" d="M801.59,523.94c0,6.23-5.07,11.27-11.33,11.27s-11.32-5.04-11.32-11.27,5.07-11.27,11.32-11.27,11.33,5.05,11.33,11.27"></path>
    <path class="cls-7" d="M801.59,523.94c0,6.23-5.07,11.27-11.33,11.27s-11.32-5.04-11.32-11.27,5.07-11.27,11.32-11.27,11.33,5.05,11.33,11.27Z"></path>
  </g>
  <path class="cls-2" d="M785.73,563.68l-1.5-.29,5.26-28.15,1.5.29-5.26,28.15ZM802.54,543.58l-5.77-10.35,1.34-.74,5.77,10.35-1.34.74ZM780.39,541.93l-1.34-.74,4.39-7.94,1.34.74-4.39,7.94ZM793.92,541.93l-2.09-6.54,1.45-.47,2.09,6.54-1.45.47ZM770.56,541.86l-1.01-1.14,11.35-10.03,1.01,1.14-11.35,10.03ZM821.4,540.61l-21.55-10.25.66-1.38,21.55,10.25-.66,1.38ZM746.62,533.8l-.25-1.5,32.27-5.29.25,1.5-32.27,5.29ZM801.48,527.34l-.17-1.51,13.56-1.51.17,1.51-13.56,1.51ZM778.77,524.75h-11.77v-1.53h9.63l-4.7-.77.25-1.5,5.91.97-14.75-6.32.6-1.41,15.13,6.48-.56,1.31.39.07-.2,1.17h.07v1.53ZM801.91,522.79l-.41-1.47,11.87-3.3.41,1.47-11.87,3.3ZM779.09,519.6l-2.07-1.37.85-1.28,2.07,1.37-.85,1.28ZM800.39,518.31l-1.1-1.06,5.57-5.75,1.1,1.06-5.57,5.75ZM799.55,516.38l-1.13-1.03,19.42-21.3,1.13,1.03-19.42,21.3ZM781.12,516.33l-15.95-21.02,1.22-.92,15.95,21.02-1.22.92ZM797.54,514.95l-1.42-.57,4.31-10.61,1.42.57-4.31,10.61ZM784.31,513.65l-1.18-4.74,1.48-.37,1.18,4.74-1.48.37ZM787.41,512.96l-5.25-9.42,1.34-.74,5.25,9.42-1.34.74ZM791,512.59h-1.53v-12.65h1.53v12.65Z"></path>
  <g>
    <path class="cls-3" d="M287.97,692.47s22.03-8.62,33.33-15.93c0,0,9.6-5.06,38.98-10.12,0,0,108.46-11.47,73.44-93.15,0,0-19.21-80.13-106.2-68.53l11.3-5.46s-32.95-14.8-54.99-3.94l6.59-7.31-19.77-7.68,31.45,4.31-6.78-12.56s14.12,14.8,49.33,16.68l-3.77-8.43s5.84,7.12,15.82,8.99c0,0,16.95.93,23.91,6.75,0,0-16.9-19.46-24.29-42.38,0,0-10.43-40.23-41.73-40.23l3.91-2.59s-34.33-12.97-64.33,0c0,0,.44-8.65,21.3-10.38,0,0-24.34-1.3-39.99-10.81l26.95,2.59s-6.95-7.78-5.65-13.84c0,0,6.51,13.41,29.55,17.3,0,0,27.38,1.29,35.2,6.05,0,0-5.65-20.32-11.73-23.35l1.13-2.84s4.14.74,14.12,18.74c0,0,12.99,17.24,19.21,20.05,0,0-4.47-48.33-42.81-83.82l38.58,41.77,2.43-19.8s14.68,89.22,32,105.81l1.28-84.25s2.89,34.79,5.78,38.93l9.62-19.79-3.21,27.77,4.16-.63s-29.51,43.72,40.42,97.97c0,0,5.79-55.24,46.99-78.85,0,0,76.61-62.96,15.97-96.69l6.4-3.37-33.14-26.23s40.67,14.24,47.45,33.73c0,0-24.48-71.58-120.89-72.33l6.78-6s-26.36-12.37-42.93-16.49l-16.95-.75,13.56-3-36.53-22.11-10.54-.74,3.77-2.25-26.36-14.99,30.88,10.87v-10.12s4.14,11.99,33.52,24.73l-.38-17.24s-2.26,25.86,42.56,37.48v-5.24s1.89,10.87,72.69,27.36c0,0-7.16-21.36-29.38-22.48l.76-4.13,11.67,2.25-24.1-28.49s-11.82-13.38-13.18-13.86l4.14-.75-13.55-43.1-8.66-11.99,8.66,4.87,1.5-12,21.84,63.71s15.07,26.23,27.87,32.6c0,0,22.59,25.86,24.1,33.73l13.94,11.62s-14.69-38.6-15.07-56.59l-9.79-6.75,10.17,3v-28.11l-8.28-14.24,9.04,7.12,2.48-29.61-7.38-18.74,9.41,11.25,4.52-32.61,1.13,42.35,13.18-17.62s-25.61,56.21-7.53,101.94c0,0,13.94-43.47,32.39-60.34,0,0-50.84,56.97-1.51,118.8,0,0-10.54-49.47,5.65-67.83,0,0-8.66,36.35.75,59.58,0,0,2.26-10.49,8.66-14.99,0,0-9.04,38.97,0,48.72,0,0,26.74,60.71-12.05,101.18,0,0,50.84-47.22,38.41-80.95,0,0,9.04,15.37,4.9,25.49,0,0,32.01-29.61,22.59-61.09,0,0,7.91,8.24,6.03,23.24,0,0,33.89-52.84,2.64-109.8l6.78,4.87s-5.27-68.21-9.04-73.46c0,0,5.27,5.25,9.41,30.35l7.53-8.61s-4.52,34.1,1.13,55.84c0,0,10.92,33.73,6.78,58.46l22.97-24.36s7.91-32.23,13.56-40.1l-3.39,29.23s16.19-11.25,23.72-26.23l-1.51,11.99s15.45-7.87,29-7.12c0,0-53.47,20.24-60.26,44.6,0,0,6.03-5.25,16.95-3.75,0,0-28.62,6.75-40.29,43.1,0,0-41.43,79.08-67.79,101.56,0,0,63.27-1.12,78.71-52.09,0,0,2.26,22.48-13.94,36.36,0,0,42.56-7.12,56.49-52.09l1.13,10.87,21.84-27.36-13.18,26.98,4.9-1.12-40.67,44.97,32.77,1.12s24.1-13.49,24.48-21.73c0,0,.75,9.37-12.43,20.98h13.93s14.31-7.12,21.84-7.12l-12.43,8.25,13.18,1.5-45.57,5.24,10.92,9.37s-16.95-6.75-25.61-5.24h-24.1l11.3,13.86s-19.21-14.99-25.61-11.99l-33.89,7.12,23.35,12.37-13.18-2.25v4.6s-22.97-20.89-65.15,0c0,0-99.8,49.44-29.75,140.85,0,0,41.42,61.45,83.6,68.93,0,0,32.39-3.21,62.52,19.68l29.37,10.11-10.54,7.67-70.05-17.78,15.06,17.78s-82.85-23.48-98.67-51.09l34.65,51.09-39.92,1.7s-18.83-10.48-24.1-25.95l-18.61,25.45-43.91-1.2s54.23-39.73,38.41-92.94c0,0,8.28,52.26-31.64,75.16l-30.89,19.48-45.94-.95s52.72-21.54,49.71-27.64c0,0-38.41,20.05-79.84,17.1l-40.68,11.49h-14.31l7.53-6.95Z"></path>
    <path class="cls-4" d="M554.04,183.55s-40.11,19.68-29.38,55.65l13.78-24.18-5.59,21.64s34.74-18.83,21.18-53.12"></path>
    <path class="cls-4" d="M569.29,230.49s-38.69,13.77-31.35,50.31l17.23-22.77-16.39,26.7s42.09-13.21,30.51-54.25"></path>
    <path class="cls-4" d="M558.84,290.92s-31.17,32.26,1.98,60.43l2.54-33.44,3.39,31.2s29.57-27.56-7.91-58.18"></path>
    <path class="cls-4" d="M586.8,257.61s-29.38,29.09,3.67,57.48v-30.35l4.52,30.35s25.13-32.33-8.19-57.48"></path>
    <path class="cls-4" d="M576.63,174.84s-20.62,37.1,16.67,50.31l-5.37-20.24,13.84,23.89s9.6-40.19-25.14-53.96"></path>
    <path class="cls-4" d="M605.44,102.88s-46.61,30.63-11.01,59.3l4.52-34,1.41,29.79s24.29-26.98,5.09-55.09"></path>
    <path class="cls-4" d="M655.44,125.09s-52.44,5.9-42.6,56.78l20.68-28.39-17.53,31.2s47.36-14.62,39.45-59.58"></path>
    <path class="cls-4" d="M637.36,195.92s-28.25,14.62-16.1,39.91l9.88-19.96-5.65,32.32s25.86-23.77,11.86-52.28"></path>
    <path class="cls-4" d="M681.14,170.9s-42.65,18.55-21.75,59.58l11.58-25.85-6.5,28.39s37.28-30.64,16.67-62.12"></path>
    <path class="cls-4" d="M726.61,188.33s-35.31-4.21-41.24,40.48l23.16-20.29-21.18,28.16s40.96-8.43,39.26-48.35"></path>
    <path class="cls-4" d="M765.03,233.02s-33.61-21.08-54.8,6.75h24.01l-24.01,5.62s31.92,21.64,54.8-12.37"></path>
    <path class="cls-4" d="M663.63,278.55s28.81-36.26,70.61-2.25c0,0-30.13,34.38-69.29,6.93l37.09-5.43-38.41.74Z"></path>
    <path class="cls-4" d="M654.31,313.4s-40.11,24.73-22.31,60.43l13.84-28.67-8.75,33.17s39.54-20.52,17.23-64.93"></path>
    <path class="cls-4" d="M687.92,306.38s-30.51,21.64-9.6,49.75l5.65-28.95,1.13,18.69s18.93-16.73,2.83-39.49"></path>
    <path class="cls-4" d="M742.15,300.47s-38.69-3.09-40.39,38.22l23.72-19.14-23.72,28.42s43.22-5.62,40.39-47.5"></path>
    <path class="cls-4" d="M696.11,364.84s29.09-28.67,57.62-7.03c0,0-25.14,30.35-57.62,13.21l28.81-8.02-28.81,1.84Z"></path>
    <path class="cls-4" d="M733.96,404.19s16.67-37.38,57.06-13.77c0,0-22.03,32.89-54.8,19.11l26.27-12.93-28.53,7.59Z"></path>
    <path class="cls-4" d="M728.59,423.86s35.96-16.3,55.12,20.24c0,0-37.61,12.93-53.71-15.18l26.15,6.18-27.56-11.25Z"></path>
    <path class="cls-4" d="M745.16,470.8s-6.6-38.84-48.21-40.41l22.79,22.8-22.79-17.99s-2.44,44.04,48.21,35.6"></path>
    <path class="cls-4" d="M663.06,438.76s38.69,4.5,32.48,49.75c0,0-41.52-3.38-42.09-49.75l25.7,26.98-16.1-26.98Z"></path>
    <path class="cls-4" d="M624.27,448.13l18.46,22.39-13-11.2s4.24,32.42,27.4,37.69c0,0,13.94-44.86-32.86-48.89"></path>
    <path class="cls-4" d="M611.09,450.48v25.95l-5.09-25.95s-28.24,28.62,11.86,54.27c0,0,24.86-37.21-6.78-54.27"></path>
    <path class="cls-4" d="M327.51,504.74s-38.41-5.27-41.05,39.7c0,0,42.93.37,45.95-35.6l-22.97,12.74,18.08-16.84Z"></path>
    <path class="cls-4" d="M281.94,498.72s-8.28,32.61-57.62,23.24c0,0,11.67-39.73,57.62-30.35l-28.81,15.31,28.81-8.19Z"></path>
    <path class="cls-4" d="M265.37,473.61s-18.83-29.6-52.35-13.12c0,0,24.1,36.36,52.35,18.36l-26.17-7.49,26.17,2.25Z"></path>
    <path class="cls-4" d="M290.23,472.11s-33.82-3-32.77-41.6c0,0,33.14,4.23,39.92,38.28l-19.97-13.29,12.81,16.61Z"></path>
    <path class="cls-4" d="M336.55,479.98s-23.72-4.5-23.72-31.86c0,0,31.26,5.06,28.62,28.11l-14.23-12.18,9.33,15.93Z"></path>
    <path class="cls-4" d="M312.82,419.27h-15.44l13.56-7.12s-22.97-7.12-36.53,12.74c0,0,29.75,18.36,38.41-5.62"></path>
    <path class="cls-4" d="M250.31,406.9l-24.48,11.25,24.48-5.62s-14.31,32.98-56.11,11.24c0,0,20.71-31.85,56.11-16.86"></path>
    <path class="cls-4" d="M229.59,388.92s-29.38,11.99-46.32-24.36c0,0,39.46-11.14,48.58,19.49l-24.29-7.35,22.03,12.22Z"></path>
    <path class="cls-4" d="M252.19,379.17s-33.14-9.37-27.12-47.97c0,0,39.5,5.62,32.37,43.47l-16.12-20.98,10.87,25.48Z"></path>
    <path class="cls-4" d="M306.42,376.7s-35.78.98-36.53-41.37c0,0,39.3,5.73,40.3,34.48l-21.84-13.79,18.08,20.68Z"></path>
    <path class="cls-4" d="M297.38,326.71s-33.72,4.5-39.08-39.73c0,0,46.62-3.11,44.36,39.85l-22.14-19.95,16.87,19.82Z"></path>
    <path class="cls-4" d="M336.17,346.94s-29.75-26.61-12.05-53.22c0,0,37.66,25.49,19.58,54.72l-10.15-21.61,2.62,20.11Z"></path>
    <path class="cls-4" d="M372.7,373.55s-22.59-26.61,0-56.59c0,0,26.74,23.24,6.03,52.47l-4.1-27.74-1.92,31.86Z"></path>
    <path class="cls-4" d="M390.4,387.42s-7.16-36.73,29.75-43.85c0,0,13.18,34.15-25.61,47.24l11.54-26.26-15.68,22.86Z"></path>
    <path class="cls-4" d="M393.79,417.04s17.7-29.25,47.83-8.63c0,0-21.47,27.21-44.82,12.86l20.9-8.02-23.91,3.79Z"></path>
    <path class="cls-4" d="M493.21,345.87s-9.79,28.83-57.62,21.32c0,0,16.57-49.48,59.88-29.62l-29.94,13.08,27.68-4.79Z"></path>
    <path class="cls-4" d="M468.74,313.21s-44.82,22.48-71.56-2.63c0,0,37.27-41.58,71.56-2.25l-35.78-1.39,35.78,6.26Z"></path>
    <path class="cls-4" d="M348.61,293.73s12.79-32.23,45.18-22.86l-22.59,12.37,22.59-4.87s-5.62,23.61-45.18,15.37"></path>
    <path class="cls-4" d="M345.21,246.51s-33.14-20.61-58.75,25.86c0,0,36.53,13.8,55.36-15.21l-28.62,1.64,32.01-12.3Z"></path>
    <path class="cls-4" d="M306.04,222.15s-38.03-17.73-60.63,19.8c0,0,39.92,20.18,60.63-12l-27.87,3.13,27.87-10.93Z"></path>
    <path class="cls-4" d="M282.32,205.29s-24.1,10.49-43.31-25.11c0,0,29.52-12.91,45.57,18.74l-22.78-5.24,20.53,11.62Z"></path>
    <path class="cls-4" d="M312.45,209.41s-34.27-13.86-27.87-50.96c0,0,41.8,6,31.26,46.84l-15.17-21.36,11.78,25.48Z"></path>
    <path class="cls-4" d="M346.72,213.15s-33.14-21.73-8.66-61.84c0,0,34.65,26.23,13.94,61.84l-8.17-29.23,2.9,29.23Z"></path>
    <path class="cls-4" d="M385.88,244.26s-19.21-4.31-16.2-32.89c0,0,27.12,10.02,24.1,32.89l-14.31-16.44,6.4,16.44Z"></path>
    <path class="cls-4" d="M436.72,249.51l-16.57-7.55,14.31,3.77s-6.11-21.58-34.27-17.91c0,0,8.49,24.22,35.78,25.81l.75-4.12Z"></path>
    <path class="cls-4" d="M406.97,209.41s-34.54,2.63-37.61-41.97c0,0,39.49,4.87,39.49,36.73l-19.74-13.49,17.86,18.74Z"></path>
    <path class="cls-4" d="M389.11,154.32s-37.88,3-49.18-36.35c0,0,41.43-5.62,47.08,28.85l-17.64-7.12,19.74,14.62Z"></path>
    <path class="cls-4" d="M395.67,89.86s31.83,23.34,10.92,52.84l-8.28-29.23.37,30.73s-25.23-27.74-3.01-54.34"></path>
    <path class="cls-4" d="M460.07,224.77s-28.25-1.5-30.13-33.73c0,0,35.02,0,35.02,28.86l-15.82-11.99,10.92,16.86Z"></path>
    <path class="cls-4" d="M462.71,184.67s-46.7-3.84-35.4-52.14c0,0,43.31,3.79,41.05,48.02l-21.36-21.95,15.71,26.07Z"></path>
    <path class="cls-4" d="M468.44,140.08s-42.26-16.12-27.58-64.08c0,0,43.03,18.28,32.39,58.46l-16.9-26.42,12.09,32.04Z"></path>
    <path class="cls-4" d="M486.81,117.63s-19.21-31.89,19.58-55.87c0,0,18.89,34.85-12.17,55.27l2.85-27.34-10.26,27.94Z"></path>
    <path class="cls-4" d="M507.52,132.54s-3.77-28.44,35.02-42.67c0,0,7.46,46.74-36.9,54.34l18.69-26.58-16.81,14.91Z"></path>
    <path class="cls-4" d="M500.37,215.78s-15.82-26.61,10.17-48.35c0,0,12.05,22.95-4.9,34.52v-17.28l-5.27,31.1Z"></path>
    <path class="cls-4" d="M524.33,177.18s-3.25-39.73,40.81-47.59c0,0,12.05,41.6-39.92,59.58l20.33-34.29-21.22,22.3Z"></path>
  </g>
</svg></svg></g></g></svg></g></svg>