<svg id="Capa_1" enable-background="new 0 0 512 512" height="512" viewBox="0 0 512 512" width="512" xmlns="http://www.w3.org/2000/svg" xmlns:xlink="http://www.w3.org/1999/xlink"><linearGradient id="SVGID_1_" gradientUnits="userSpaceOnUse" x1="0" x2="512" y1="256" y2="256"><stop offset="0" stop-color="#d2deff" stop-opacity="0"/><stop offset="1" stop-color="#b7c5ff"/></linearGradient><g><path d="m451.798 43.963c-160.556-97.87-410.51-8.612-439.594 61.949-38.908 94.394 26.578 110.528 38.743 187.874 9.761 62.061-51.182 121.495-16.394 176.282 37.882 59.663 163.465 44.681 211.198 16.447 87.376-51.682 43.309-112.012 84.684-187.299 39.408-71.707 116.244-42.625 160.961-99.99 42.5-54.521 14.311-122.402-39.598-155.263z" fill="url(#SVGID_1_)"/><g><g><g><g><path d="m455.47 107.867h-398.94c-8.284 0-15 6.716-15 15v314.266c0 8.284 6.716 15 15 15h17.092v23.949c0 5.523 4.477 10 10 10h145.579c5.523 0 10-4.477 10-10v-23.949h33.598v23.949c0 5.523 4.477 10 10 10h145.579c5.523 0 10-4.477 10-10v-23.949h17.092c8.284 0 15-6.716 15-15v-314.266c0-8.284-6.715-15-15-15z" fill="#2626bc" opacity=".1"/><path d="m455.47 428.133h-398.94c-8.284 0-15-6.716-15-15v-314.266c0-8.284 6.716-15 15-15h398.94c8.284 0 15 6.716 15 15v314.266c0 8.285-6.715 15-15 15z" fill="#fff"/><path d="m470.47 153.18v-54.313c0-8.284-6.716-15-15-15h-398.94c-8.284 0-15 6.716-15 15v54.313z" fill="#6583fe"/></g><g><g fill="#fff"><circle cx="85.623" cy="120.768" r="10.901"/><circle cx="120.424" cy="120.768" r="10.901"/><circle cx="155.224" cy="120.768" r="10.901"/></g><path d="m432.277 133.015h-136.158v-24.495h136.158c2.761 0 5 2.239 5 5v14.496c0 2.761-2.238 4.999-5 4.999z" fill="#fff"/><path d="m296.789 108.831c-5.286-5.286-13.887-5.286-19.173 0s-5.286 13.887 0 19.173c4.037 4.037 10.003 4.98 14.953 2.852l4.348 4.348c1.952 1.952 5.119 1.952 7.071 0 1.953-1.952 1.953-5.119 0-7.071l-4.348-4.348c2.129-4.951 1.186-10.917-2.851-14.954zm-12.102 7.071c1.387-1.387 3.644-1.387 5.031 0s1.387 3.644 0 5.031-3.644 1.387-5.031 0-1.387-3.644 0-5.031z" fill="#2626bc"/></g></g><g><g><g><path d="m239.2 195.96v256.12c0 5.52-4.48 10-10 10h-145.58c-5.52 0-10-4.48-10-10v-256.12c0-5.52 4.48-10 10-10h145.58c5.52 0 10 4.48 10 10z" fill="#fff"/><g fill="#6583fe"><path d="m239.2 381.02v71.06c0 5.52-4.48 10-10 10h-145.58c-5.52 0-10-4.48-10-10v-71.06z"/><path d="m239.201 217.475h-165.579v-21.513c0-5.523 4.477-10 10-10h145.579c5.523 0 10 4.477 10 10z"/></g></g><g><circle cx="156.412" cy="283.651" fill="#6583fe" r="33.651"/><path d="m173.028 284.789c0-9.16-7.46-16.61-16.62-16.61s-16.61 7.45-16.61 16.61c0 4.52 1.82 8.62 4.75 11.62-2.93 2.99-4.75 7.09-4.75 11.61v4.9c3.07 1.74 6.43 3.02 10 3.73v-8.63c0-3.65 2.97-6.61 6.61-6.61 3.65 0 6.62 2.96 6.62 6.61v8.63c3.57-.71 6.93-1.99 10-3.73v-4.9c0-4.52-1.82-8.62-4.76-11.61 2.94-3 4.76-7.1 4.76-11.62zm-16.62 6.62c-3.64 0-6.61-2.97-6.61-6.62 0-3.64 2.97-6.61 6.61-6.61 3.65 0 6.62 2.97 6.62 6.61 0 3.65-2.97 6.62-6.62 6.62z" fill="#2626bc"/></g><g><g><path d="m186.252 345.293h-59.681c-2.761 0-5-2.239-5-5s2.239-5 5-5h59.681c2.761 0 5 2.239 5 5 0 2.762-2.239 5-5 5z" fill="#2626bc"/></g><g><path d="m186.252 409.036h-59.681c-2.761 0-5-2.239-5-5s2.239-5 5-5h59.681c2.761 0 5 2.239 5 5s-2.239 5-5 5z" fill="#2626bc"/></g><g><path d="m186.252 428.133h-59.681c-2.761 0-5-2.239-5-5s2.239-5 5-5h59.681c2.761 0 5 2.239 5 5 0 2.762-2.239 5-5 5z" fill="#2626bc"/></g><g><path d="m147.252 362.75h-20.681c-2.761 0-5-2.239-5-5s2.239-5 5-5h20.681c2.761 0 5 2.239 5 5s-2.239 5-5 5z" fill="#2626bc"/></g><g><g><path d="m215.205 238.346h-11.681c-2.761 0-5-2.239-5-5s2.239-5 5-5h11.681c2.761 0 5 2.239 5 5s-2.239 5-5 5z" fill="#2626bc"/></g><g><path d="m215.205 253.831h-11.681c-2.761 0-5-2.239-5-5s2.239-5 5-5h11.681c2.761 0 5 2.239 5 5 0 2.762-2.239 5-5 5z" fill="#2626bc"/></g></g></g><g><circle cx="98.42" cy="233.346" fill="#2626bc" r="5.002"/></g></g><g><g><path d="m438.38 195.96v256.12c0 5.52-4.48 10-10 10h-145.58c-5.52 0-10-4.48-10-10v-256.12c0-5.52 4.48-10 10-10h145.58c5.52 0 10 4.48 10 10z" fill="#fff"/><g fill="#6583fe"><path d="m438.38 381.02v71.06c0 5.52-4.48 10-10 10h-145.58c-5.52 0-10-4.48-10-10v-71.06z"/><path d="m438.378 217.475h-165.579v-21.513c0-5.523 4.477-10 10-10h145.579c5.523 0 10 4.477 10 10z"/></g></g><g><circle cx="355.588" cy="283.651" fill="#6583fe" r="33.651"/><path d="m372.205 284.789c0-9.16-7.46-16.61-16.62-16.61s-16.61 7.45-16.61 16.61c0 4.52 1.82 8.62 4.75 11.62-2.93 2.99-4.75 7.09-4.75 11.61v4.9c3.07 1.74 6.43 3.02 10 3.73v-8.63c0-3.65 2.97-6.61 6.61-6.61 3.65 0 6.62 2.96 6.62 6.61v8.63c3.57-.71 6.93-1.99 10-3.73v-4.9c0-4.52-1.82-8.62-4.76-11.61 2.94-3 4.76-7.1 4.76-11.62zm-16.62 6.62c-3.64 0-6.61-2.97-6.61-6.62 0-3.64 2.97-6.61 6.61-6.61 3.65 0 6.62 2.97 6.62 6.61 0 3.65-2.97 6.62-6.62 6.62z" fill="#2626bc"/></g><g><g><path d="m385.429 345.293h-59.681c-2.761 0-5-2.239-5-5s2.239-5 5-5h59.681c2.761 0 5 2.239 5 5 0 2.762-2.239 5-5 5z" fill="#2626bc"/></g><g><path d="m385.429 409.036h-59.681c-2.761 0-5-2.239-5-5s2.239-5 5-5h59.681c2.761 0 5 2.239 5 5s-2.239 5-5 5z" fill="#2626bc"/></g><g><path d="m385.429 428.133h-59.681c-2.761 0-5-2.239-5-5s2.239-5 5-5h59.681c2.761 0 5 2.239 5 5 0 2.762-2.239 5-5 5z" fill="#2626bc"/></g><g><path d="m346.429 362.75h-20.681c-2.761 0-5-2.239-5-5s2.239-5 5-5h20.681c2.761 0 5 2.239 5 5s-2.239 5-5 5z" fill="#2626bc"/></g><g><g><path d="m414.382 238.346h-11.681c-2.761 0-5-2.239-5-5s2.239-5 5-5h11.681c2.761 0 5 2.239 5 5s-2.239 5-5 5z" fill="#2626bc"/></g><g><path d="m414.382 253.831h-11.681c-2.761 0-5-2.239-5-5s2.239-5 5-5h11.681c2.761 0 5 2.239 5 5 0 2.762-2.239 5-5 5z" fill="#2626bc"/></g></g></g><g><circle cx="297.597" cy="233.346" fill="#2626bc" r="5.002"/></g></g></g><circle cx="256" cy="331.528" fill="#fff" r="44.284"/><path d="m455.471 78.867h-398.942c-11.028 0-20 8.972-20 20v314.266c0 11.028 8.972 20 20 20h12.093v18.949c0 8.271 6.729 15 15 15h145.579c8.271 0 15-6.729 15-15v-18.949h23.598v18.949c0 8.271 6.729 15 15 15h145.579c8.272 0 15-6.729 15-15v-18.949h12.093c11.028 0 20-8.972 20-20v-314.266c0-11.028-8.972-20-20-20zm-226.27 378.215h-145.579c-2.757 0-5-2.243-5-5v-256.12c0-2.757 2.243-5 5-5h145.579c2.757 0 5 2.243 5 5v91.381c-16.269 8.059-27.485 24.833-27.485 44.186 0 19.352 11.216 36.126 27.485 44.185v76.369c0 2.756-2.243 4.999-5 4.999zm66.083-125.554c0 21.661-17.623 39.283-39.284 39.283s-39.284-17.622-39.284-39.283 17.623-39.284 39.284-39.284 39.284 17.623 39.284 39.284zm-51.083 91.605v-43.759c3.783.933 7.732 1.438 11.799 1.438s8.016-.505 11.799-1.438v43.759zm189.177 28.949c0 2.757-2.243 5-5 5h-145.579c-2.757 0-5-2.243-5-5v-76.369c16.269-8.059 27.485-24.833 27.485-44.185s-11.216-36.127-27.485-44.186v-91.381c0-2.757 2.243-5 5-5h145.579c2.757 0 5 2.243 5 5zm32.093-38.949c0 5.514-4.486 10-10 10h-12.093v-227.171c0-8.271-6.728-15-15-15h-145.579c-8.271 0-15 6.729-15 15v87.72c-3.783-.933-7.732-1.438-11.799-1.438s-8.016.505-11.799 1.438v-87.72c0-8.271-6.729-15-15-15h-145.579c-8.271 0-15 6.729-15 15v227.171h-12.093c-5.514 0-10-4.486-10-10v-314.266c0-5.514 4.486-10 10-10h398.941c5.514 0 10 4.486 10 10v314.266z" fill="#2626bc"/><g><g><path d="m269.447 328.209h-26.895c-2.022 0-3.846-1.218-4.619-3.086-.774-1.869-.347-4.019 1.084-5.449l13.447-13.448c1.951-1.952 5.119-1.952 7.07 0 1.953 1.953 1.953 5.119 0 7.071l-4.912 4.912h14.824c2.762 0 5 2.239 5 5s-2.237 5-4.999 5z" fill="#2626bc"/></g><g><path d="m256 358.295c-1.279 0-2.56-.488-3.535-1.464-1.953-1.953-1.953-5.119 0-7.071l4.912-4.912h-14.824c-2.762 0-5-2.239-5-5s2.238-5 5-5h26.895c2.022 0 3.846 1.218 4.619 3.086.774 1.869.347 4.019-1.084 5.449l-13.447 13.448c-.976.976-2.257 1.464-3.536 1.464z" fill="#2626bc"/></g></g></g><g fill="#6583fe"><path d="m330.322 62.579c-2.762 0-5-2.238-5-5 0-3.309-2.692-6-6.001-6-2.762 0-5-2.238-5-5s2.238-5 5-5c3.309 0 6.001-2.691 6.001-6 0-2.762 2.238-5 5-5s5 2.238 5 5c0 3.309 2.691 6 5.999 6 2.762 0 5 2.238 5 5s-2.238 5-5 5c-3.308 0-5.999 2.691-5.999 6 0 2.762-2.238 5-5 5z"/><path d="m283.647 49.87c-7.881 0-14.292-6.411-14.292-14.291 0-7.881 6.411-14.292 14.292-14.292 7.88 0 14.291 6.411 14.291 14.292.001 7.88-6.411 14.291-14.291 14.291zm0-18.583c-2.366 0-4.292 1.926-4.292 4.292s1.926 4.291 4.292 4.291 4.291-1.925 4.291-4.291c.001-2.366-1.924-4.292-4.291-4.292z"/><path d="m41.529 476.373c-7.88 0-14.291-6.411-14.291-14.291 0-7.881 6.411-14.292 14.291-14.292 7.881 0 14.292 6.411 14.292 14.292 0 7.88-6.411 14.291-14.292 14.291zm0-18.583c-2.366 0-4.291 1.926-4.291 4.292s1.925 4.291 4.291 4.291 4.292-1.925 4.292-4.291-1.925-4.292-4.292-4.292z"/><path d="m231.205 62.579c-2.762 0-5-2.238-5-5 0-3.309-2.691-6-6-6-2.762 0-5-2.238-5-5s2.238-5 5-5c3.309 0 6-2.691 6-6 0-2.762 2.238-5 5-5s5 2.238 5 5c0 3.309 2.691 6 6 6 2.762 0 5 2.238 5 5s-2.238 5-5 5c-3.309 0-6 2.691-6 6 0 2.762-2.238 5-5 5z"/><path d="m471.471 491.082c-2.762 0-5-2.238-5-5 0-3.309-2.691-6-6-6-2.762 0-5-2.238-5-5s2.238-5 5-5c3.309 0 6-2.691 6-6 0-2.762 2.238-5 5-5s5 2.238 5 5c0 3.309 2.691 6 6 6 2.762 0 5 2.238 5 5s-2.238 5-5 5c-3.309 0-6 2.691-6 6 0 2.762-2.239 5-5 5z"/></g></g></g></svg>