<svg id="Capa_1" enable-background="new 0 0 512 512" height="512" viewBox="0 0 512 512" width="512" xmlns="http://www.w3.org/2000/svg" xmlns:xlink="http://www.w3.org/1999/xlink"><linearGradient id="SVGID_1_" gradientUnits="userSpaceOnUse" x1="-21.409" x2="490.399" y1="373.272" y2="77.779"><stop offset="0" stop-color="#d2deff" stop-opacity="0"/><stop offset="1" stop-color="#b7c5ff"/></linearGradient><g><path d="m451.798 43.963c-160.556-97.869-410.51-8.611-439.594 61.949-38.908 94.393 26.578 110.528 38.743 187.874 9.761 62.06-51.182 121.494-16.394 176.282 37.882 59.663 163.465 44.681 211.198 16.447 87.376-51.682 43.309-112.012 84.684-187.299 39.408-71.707 116.244-42.625 160.961-99.99 42.5-54.521 14.311-122.402-39.598-155.263z" fill="url(#SVGID_1_)"/><g><g><g><path d="m350.232 500.339h-188.464c-16.568 0-30-13.431-30-30v-380.678c0-16.568 13.432-30 30-30h188.464c16.568 0 30 13.431 30 30v380.678c0 16.569-13.431 30-30 30z" fill="#2626bc" opacity=".1"/><path d="m350.232 476.339h-188.464c-16.568 0-30-13.432-30-30v-380.678c0-16.568 13.432-30 30-30h188.464c16.568 0 30 13.432 30 30v380.678c0 16.569-13.431 30-30 30z" fill="#fff"/><path d="m131.77 78.57h248.46v354.86h-248.46z" fill="#6583fe"/><path d="m132.353 78.57h248.46v200.001h-248.46z" fill="#fff"/><path d="m131.77 78.57h248.46v127.164h-248.46z" fill="#6583fe"/><path d="m350.232 481.339h-188.464c-19.299 0-35-15.701-35-35v-380.678c0-19.299 15.701-35 35-35h188.465c19.299 0 35 15.701 35 35v380.678c-.001 19.299-15.702 35-35.001 35zm-188.464-440.678c-13.785 0-25 11.215-25 25v380.678c0 13.785 11.215 25 25 25h188.465c13.785 0 25-11.215 25-25v-380.678c0-13.785-11.215-25-25-25z" fill="#2626bc"/><g><path d="m273.483 63.031h-34.966c-2.761 0-5-2.239-5-5s2.239-5 5-5h34.966c2.761 0 5 2.239 5 5 0 2.762-2.239 5-5 5z" fill="#2626bc"/></g><path d="m301.815 58.03c0 2.762-2.239 5.002-5.002 5.002-2.762 0-5.002-2.239-5.002-5.002s2.239-5.002 5.002-5.002 5.002 2.239 5.002 5.002z" fill="#2626bc"/></g><path d="m231.298 117.508v42.493c0 3.785 4.042 6.197 7.373 4.401l39.404-21.247c3.503-1.889 3.503-6.913 0-8.802l-39.404-21.246c-3.331-1.796-7.373.617-7.373 4.401z" fill="#fff"/><g><g><path d="m348.483 231.472h-184.966c-2.761 0-5-2.239-5-5s2.239-5 5-5h184.966c2.761 0 5 2.239 5 5s-2.239 5-5 5z" fill="#6583fe"/></g><g><path d="m198.483 258.419h-34.966c-2.761 0-5-2.239-5-5s2.239-5 5-5h34.966c2.761 0 5 2.239 5 5s-2.239 5-5 5z" fill="#2626bc"/></g><g><path d="m252.488 221.472h-88.971c-2.761 0-5 2.239-5 5s2.239 5 5 5h88.971z" fill="#2626bc"/></g></g><g fill="#6583fe"><path d="m274.202 262.804h-5.771c-2.761 0-5-2.239-5-5v-8.771c0-2.762 2.239-5 5-5h5.771c2.761 0 5 2.238 5 5v8.771c0 2.761-2.238 5-5 5z"/><path d="m299.355 262.804h-5.771c-2.761 0-5-2.239-5-5v-8.771c0-2.762 2.239-5 5-5h5.771c2.761 0 5 2.238 5 5v8.771c0 2.761-2.239 5-5 5z"/><path d="m324.507 262.804h-5.771c-2.761 0-5-2.239-5-5v-8.771c0-2.762 2.239-5 5-5h5.771c2.761 0 5 2.238 5 5v8.771c0 2.761-2.238 5-5 5z"/><path d="m349.66 262.804h-5.771c-2.761 0-5-2.239-5-5v-8.771c0-2.762 2.239-5 5-5h5.771c2.761 0 5 2.238 5 5v8.771c0 2.761-2.238 5-5 5z"/></g><g><g><g><g><path d="m340.231 316.232h-125.68c-2.761 0-5 2.239-5 5s2.239 5 5 5h125.681c2.761 0 5-2.239 5-5s-2.239-5-5.001-5z" fill="#2626bc"/></g><path d="m226.231 297.887h-11.681c-2.761 0-5 2.239-5 5s2.239 5 5 5h11.681c2.761 0 5-2.239 5-5s-2.238-5-5-5z" fill="#2626bc"/></g><ellipse cx="179.908" cy="311.026" fill="#fff" rx="13.139" ry="13.139" transform="matrix(.26 -.966 .966 .26 -167.23 403.759)"/></g><g><g><g><path d="m340.231 362.783h-125.68c-2.761 0-5 2.239-5 5s2.239 5 5 5h125.681c2.761 0 5-2.239 5-5s-2.239-5-5.001-5z" fill="#2626bc"/></g><path d="m226.231 344.438h-11.681c-2.761 0-5 2.239-5 5s2.239 5 5 5h11.681c2.761 0 5-2.239 5-5s-2.238-5-5-5z" fill="#2626bc"/></g><ellipse cx="179.908" cy="357.577" fill="#fff" rx="13.139" ry="13.139" transform="matrix(.231 -.973 .973 .231 -209.562 449.999)"/></g><g><g><g><path d="m340.231 409.334h-125.68c-2.761 0-5 2.239-5 5s2.239 5 5 5h125.681c2.761 0 5-2.239 5-5s-2.239-5-5.001-5z" fill="#2626bc"/></g><path d="m226.231 390.989h-11.681c-2.761 0-5 2.239-5 5s2.239 5 5 5h11.681c2.761 0 5-2.239 5-5s-2.238-5-5-5z" fill="#2626bc"/></g><ellipse cx="179.908" cy="404.128" fill="#fff" rx="13.139" ry="13.139" transform="matrix(.184 -.983 .983 .184 -250.413 506.649)"/></g></g></g><g fill="#6583fe"><path d="m74.824 382.075c-7.881 0-14.292-6.411-14.292-14.292s6.411-14.292 14.292-14.292c7.88 0 14.291 6.411 14.291 14.292s-6.411 14.292-14.291 14.292zm0-18.583c-2.366 0-4.292 1.925-4.292 4.292s1.926 4.292 4.292 4.292 4.291-1.925 4.291-4.292-1.925-4.292-4.291-4.292z"/><path d="m424.123 251.764c-7.88 0-14.291-6.411-14.291-14.292 0-7.88 6.411-14.291 14.291-14.291 7.881 0 14.292 6.411 14.292 14.291 0 7.881-6.411 14.292-14.292 14.292zm0-18.583c-2.366 0-4.291 1.925-4.291 4.291s1.925 4.292 4.291 4.292 4.292-1.925 4.292-4.292-1.926-4.291-4.292-4.291z"/><path d="m421.123 297.296c-2.762 0-5-2.239-5-5 0-3.309-2.691-6-6-6-2.762 0-5-2.239-5-5s2.238-5 5-5c3.309 0 6-2.691 6-6 0-2.761 2.238-5 5-5s5 2.239 5 5c0 3.309 2.691 6 6 6 2.762 0 5 2.239 5 5s-2.238 5-5 5c-3.309 0-6 2.691-6 6 0 2.762-2.238 5-5 5z"/><path d="m84.115 332.232c-2.762 0-5-2.239-5-5 0-3.309-2.691-6-6-6-2.762 0-5-2.239-5-5s2.238-5 5-5c3.309 0 6-2.691 6-6 0-2.761 2.238-5 5-5s5 2.239 5 5c0 3.309 2.691 6 6 6 2.762 0 5 2.239 5 5s-2.238 5-5 5c-3.309 0-6 2.691-6 6 0 2.761-2.238 5-5 5z"/><path d="m95.115 58.028c-2.762 0-5-2.239-5-5 0-3.309-2.691-6-6-6-2.762 0-5-2.239-5-5s2.238-5 5-5c3.309 0 6-2.691 6-6 0-2.761 2.238-5 5-5s5 2.239 5 5c0 3.309 2.691 6 6 6 2.762 0 5 2.239 5 5s-2.238 5-5 5c-3.309 0-6 2.691-6 6 0 2.761-2.238 5-5 5z"/></g></g></g></svg>