<svg id="Capa_1" enable-background="new 0 0 512 512" height="512" viewBox="0 0 512 512" width="512" xmlns="http://www.w3.org/2000/svg" xmlns:xlink="http://www.w3.org/1999/xlink"><linearGradient id="SVGID_1_" gradientUnits="userSpaceOnUse" x1="-21.409" x2="490.399" y1="373.272" y2="77.779"><stop offset="0" stop-color="#d2deff" stop-opacity="0"/><stop offset="1" stop-color="#b7c5ff"/></linearGradient><g><path d="m451.798 43.963c-160.556-97.869-410.51-8.611-439.594 61.949-38.908 94.393 26.578 110.528 38.743 187.874 9.761 62.061-51.182 121.495-16.394 176.282 37.882 59.663 163.465 44.681 211.198 16.447 87.376-51.682 43.309-112.012 84.684-187.299 39.408-71.707 116.244-42.625 160.961-99.99 42.5-54.521 14.311-122.402-39.598-155.263z" fill="url(#SVGID_1_)"/><g><g><g><path d="m350.232 500.339h-188.464c-16.568 0-30-13.432-30-30v-380.678c0-16.568 13.431-30 30-30h188.464c16.569 0 30 13.432 30 30v380.678c0 16.569-13.431 30-30 30z" fill="#2626bc" opacity=".1"/><path d="m350.232 476.339h-188.464c-16.568 0-30-13.432-30-30v-380.678c0-16.569 13.431-30 30-30h188.464c16.569 0 30 13.431 30 30v380.678c0 16.569-13.431 30-30 30z" fill="#6583fe"/><path d="m131.77 78.57h248.46v354.86h-248.46z" fill="#fff"/><path d="m380.23 78.57v167.76h-37.6c-5.5 0-10.87 1.94-14.93 5.65-9.46 8.65-22.06 13.93-35.89 13.93s-26.43-5.28-35.89-13.93c-4.06-3.71-9.43-5.65-14.92-5.65h-109.23v-167.76z" fill="#6583fe"/><path d="m222.56 246.33h-90.79v-39.25c7.83-2.98 16.32-4.61 25.19-4.61 29.6 0 54.96 18.11 65.6 43.86z" fill="#fff"/><g><path d="m291.81 270.91c-14.571 0-28.516-5.412-39.264-15.24-3.062-2.798-7.163-4.34-11.546-4.34h-109.23c-2.761 0-5-2.239-5-5s2.239-5 5-5h109.23c6.885 0 13.382 2.471 18.293 6.959 8.901 8.139 20.448 12.621 32.517 12.621 12.068 0 23.616-4.482 32.517-12.62 4.911-4.489 11.411-6.96 18.304-6.96h37.601c2.762 0 5 2.239 5 5s-2.238 5-5 5h-37.602c-4.39 0-8.494 1.542-11.557 4.341-10.747 9.827-24.691 15.239-39.263 15.239z" fill="#2626bc"/></g><path d="m380.23 91.553v-12.983h-248.46v114.578c0-28.166 22.833-51 51-51h146.865c27.943 0 50.595-22.652 50.595-50.595z" fill="#fff"/><path d="m350.232 481.339h-188.464c-19.299 0-35-15.701-35-35v-380.678c0-19.299 15.701-35 35-35h188.464c19.299 0 35 15.701 35 35v380.678c0 19.299-15.701 35-35 35zm-188.464-440.678c-13.785 0-25 11.215-25 25v380.678c0 13.785 11.215 25 25 25h188.464c13.785 0 25-11.215 25-25v-380.678c0-13.785-11.215-25-25-25z" fill="#2626bc"/><g><path d="m273.483 63.031h-34.966c-2.761 0-5-2.239-5-5s2.239-5 5-5h34.966c2.761 0 5 2.239 5 5 0 2.762-2.239 5-5 5z" fill="#2626bc"/></g><circle cx="296.813" cy="58.03" fill="#2626bc" r="5.002"/></g><g fill="#2626bc"><path d="m350.303 213.811-36.69-36.69c-.938-.939-2.209-1.465-3.535-1.465s-2.599.527-3.536 1.465l-21.158 21.163-9.666-9.666c-1.951-1.951-5.119-1.952-7.07.001l-25.324 25.324c-1.953 1.952-1.953 5.118 0 7.07 1.951 1.953 5.119 1.953 7.07 0l21.789-21.788 21.712 21.71c.976.976 2.256 1.465 3.535 1.465s2.56-.488 3.535-1.465c1.953-1.952 1.953-5.118 0-7.07l-8.51-8.51 17.623-17.628 33.155 33.154c.976.977 2.256 1.465 3.535 1.465s2.56-.488 3.535-1.465c1.953-1.952 1.953-5.118 0-7.07z"/><g><g><path d="m327.84 323.586h-143.68c-2.761 0-5 2.239-5 5s2.239 5 5 5h143.68c2.761 0 5-2.239 5-5 0-2.762-2.238-5-5-5z"/><path d="m299.34 289.517h-86.68c-2.761 0-5 2.239-5 5s2.239 5 5 5h86.681c2.761 0 5-2.239 5-5s-2.239-5-5.001-5z"/><g><path d="m196.825 96.075h-26.681c-2.761 0-5 2.239-5 5s2.239 5 5 5h26.681c2.761 0 5-2.239 5-5s-2.239-5-5-5z"/><path d="m178.825 159.145h-8.681c-2.761 0-5 2.239-5 5s2.239 5 5 5h8.681c2.761 0 5-2.239 5-5s-2.239-5-5-5z"/><path d="m226.825 115.503h-56.681c-2.761 0-5 2.239-5 5s2.239 5 5 5h56.681c2.761 0 5-2.239 5-5s-2.239-5-5-5z"/></g></g><g><path d="m327.84 362.441h-143.68c-2.761 0-5 2.239-5 5s2.239 5 5 5h143.68c2.761 0 5-2.239 5-5s-2.238-5-5-5z"/><path d="m327.84 343.013h-143.68c-2.761 0-5 2.239-5 5s2.239 5 5 5h143.68c2.761 0 5-2.239 5-5s-2.238-5-5-5z"/></g></g><g><path d="m204.833 405.087c0 2.762-2.239 5.002-5.002 5.002s-5.002-2.239-5.002-5.002c0-2.762 2.239-5.002 5.002-5.002s5.002 2.24 5.002 5.002z"/><path d="m232.917 405.087c0 2.762-2.239 5.002-5.002 5.002-2.762 0-5.002-2.239-5.002-5.002 0-2.762 2.239-5.002 5.002-5.002s5.002 2.24 5.002 5.002z"/><path d="m261.002 405.087c0 2.762-2.239 5.002-5.002 5.002-2.762 0-5.002-2.239-5.002-5.002 0-2.762 2.239-5.002 5.002-5.002 2.762 0 5.002 2.24 5.002 5.002z"/><path d="m289.086 405.087c0 2.762-2.239 5.002-5.002 5.002-2.762 0-5.002-2.239-5.002-5.002 0-2.762 2.239-5.002 5.002-5.002s5.002 2.24 5.002 5.002z"/><path d="m317.17 405.087c0 2.762-2.239 5.002-5.002 5.002-2.762 0-5.002-2.239-5.002-5.002 0-2.762 2.239-5.002 5.002-5.002s5.002 2.24 5.002 5.002z"/></g></g></g><g><g><path d="m185.928 222.179h-5.332c-6.508 0-11.803-5.295-11.803-11.803v-16.456c0-6.508 5.295-11.803 11.803-11.803h5.332c6.508 0 11.803 5.295 11.803 11.803v16.456c0 6.509-5.295 11.803-11.803 11.803zm-5.332-30.062c-.994 0-1.803.809-1.803 1.803v16.456c0 .994.809 1.803 1.803 1.803h5.332c.994 0 1.803-.809 1.803-1.803v-16.456c0-.994-.809-1.803-1.803-1.803z" fill="#2626bc"/></g><g><path d="m214.744 222.179c-2.762 0-5-2.239-5-5v-25.062h-.444c-2.762 0-5-2.239-5-5s2.238-5 5-5h5.444c2.762 0 5 2.239 5 5v30.062c0 2.762-2.238 5-5 5z" fill="#2626bc"/></g></g><g fill="#6583fe"><path d="m424.243 294.292c-7.88 0-14.291-6.411-14.291-14.292s6.411-14.292 14.291-14.292c7.881 0 14.292 6.411 14.292 14.292s-6.411 14.292-14.292 14.292zm0-18.583c-2.366 0-4.291 1.925-4.291 4.292s1.925 4.292 4.291 4.292 4.292-1.925 4.292-4.292-1.926-4.292-4.292-4.292z"/><path d="m444.535 345.944c-2.762 0-5-2.239-5-5 0-3.309-2.691-6-6-6-2.762 0-5-2.239-5-5s2.238-5 5-5c3.309 0 6-2.691 6-6 0-2.761 2.238-5 5-5s5 2.239 5 5c0 3.309 2.691 6 6 6 2.762 0 5 2.239 5 5s-2.238 5-5 5c-3.309 0-6 2.691-6 6 0 2.762-2.238 5-5 5z"/><path d="m88.587 162.794c-2.761 0-5-2.239-5-5 0-3.309-2.692-6-6.001-6-2.761 0-5-2.239-5-5s2.239-5 5-5c3.309 0 6.001-2.692 6.001-6.001 0-2.761 2.239-5 5-5s5 2.239 5 5c0 3.309 2.691 6.001 5.999 6.001 2.761 0 5 2.239 5 5s-2.239 5-5 5c-3.308 0-5.999 2.691-5.999 6 0 2.762-2.238 5-5 5z"/><path d="m424.243 208.118c-2.762 0-5-2.239-5-5 0-3.309-2.691-6-6-6-2.762 0-5-2.239-5-5s2.238-5 5-5c3.309 0 6-2.692 6-6 0-2.761 2.238-5 5-5s5 2.239 5 5c0 3.309 2.691 6 6 6 2.762 0 5 2.239 5 5s-2.238 5-5 5c-3.309 0-6 2.691-6 6 0 2.761-2.238 5-5 5z"/><path d="m66.587 208.118c-2.761 0-5-2.239-5-5 0-3.309-2.692-6-6-6-2.761 0-5-2.239-5-5s2.239-5 5-5c3.309 0 6-2.692 6-6 0-2.761 2.239-5 5-5s5 2.239 5 5c0 3.309 2.691 6 5.999 6 2.761 0 5 2.239 5 5s-2.239 5-5 5c-3.308 0-5.999 2.691-5.999 6 0 2.761-2.238 5-5 5z"/></g></g></g></svg>