<svg id="Capa_1" enable-background="new 0 0 512 512" height="512" viewBox="0 0 512 512" width="512" xmlns="http://www.w3.org/2000/svg" xmlns:xlink="http://www.w3.org/1999/xlink"><linearGradient id="SVGID_1_" gradientUnits="userSpaceOnUse" x1="96.524" x2="444.685" y1="436.43" y2="21.507"><stop offset="0" stop-color="#d2deff" stop-opacity="0"/><stop offset="1" stop-color="#b7c5ff"/></linearGradient><g><path d="m4.896 306.99c17.448 172.871 292.417 167.142 420.803 136.265 82.47-19.834 87.596-59.472 86.106-144.001-.628-35.613 1.036-109.569-7.634-169.208-4.595-31.606-12.092-59.19-24.37-74.915-54.448-69.733-103.228-25.998-170.656-3.235-86.488 29.197-120.189-22.932-202.476-21.379-120.641 2.277-110.778 187.251-101.773 276.473z" fill="url(#SVGID_1_)"/><g><g><g><g><path d="m350.232 494.69h-188.464c-16.568 0-30-13.432-30-30v-380.678c0-16.568 13.432-30 30-30h188.464c16.568 0 30 13.431 30 30v380.678c0 16.569-13.431 30-30 30z" fill="#2626bc" opacity=".1"/><path d="m350.232 470.69h-188.464c-16.568 0-30-13.432-30-30v-380.678c0-16.569 13.432-30 30-30h188.464c16.568 0 30 13.432 30 30v380.678c0 16.569-13.431 30-30 30z" fill="#6583fe"/><path d="m131.77 72.921h248.46v354.86h-248.46z" fill="#fff"/><path d="m131.77 309.821h248.46v117.96h-248.46z" fill="#fff"/><path d="m350.232 475.69h-188.464c-19.299 0-35-15.701-35-35v-380.678c0-19.299 15.701-35 35-35h188.464c19.299 0 35 15.701 35 35v380.678c0 19.299-15.701 35-35 35zm-188.464-440.678c-13.785 0-25 11.215-25 25v380.678c0 13.785 11.215 25 25 25h188.464c13.785 0 25-11.215 25-25v-380.678c0-13.785-11.215-25-25-25z" fill="#2626bc"/><g><path d="m273.483 57.382h-34.966c-2.761 0-5-2.239-5-5s2.239-5 5-5h34.966c2.761 0 5 2.239 5 5s-2.239 5-5 5z" fill="#2626bc"/></g><path d="m301.815 52.38c0 2.762-2.239 5.002-5.002 5.002-2.762 0-5.002-2.239-5.002-5.002 0-2.762 2.239-5.002 5.002-5.002 2.763.001 5.002 2.24 5.002 5.002z" fill="#2626bc"/></g></g><path d="m339.128 163.128h-166.256c-2.761 0-5-2.239-5-5v-15.34c0-2.761 2.239-5 5-5h166.256c2.761 0 5 2.239 5 5v15.34c0 2.761-2.238 5-5 5z" fill="#6583fe"/><circle cx="324.738" cy="109.35" fill="#6583fe" r="16.632"/><path d="m220.552 104.35h-47.681c-2.761 0-5 2.239-5 5s2.239 5 5 5h47.681c2.761 0 5-2.239 5-5s-2.238-5-5-5z" fill="#2626bc"/><g fill="#6583fe"><ellipse cx="179.134" cy="194.944" rx="16.632" ry="16.632" transform="matrix(.945 -.327 .327 .945 -53.939 69.368)"/><ellipse cx="230.378" cy="194.944" rx="16.632" ry="16.632" transform="matrix(.231 -.973 .973 .231 -12.585 373.959)"/><ellipse cx="281.622" cy="194.944" rx="16.632" ry="16.632" transform="matrix(.707 -.707 .707 .707 -55.361 256.235)"/><ellipse cx="332.866" cy="194.944" rx="16.632" ry="16.632" transform="matrix(.912 -.411 .411 .912 -50.692 153.879)"/></g><path d="m349.5 237.621v144.41c0 5.53-4.48 10-10 10h-167c-5.52 0-10-4.47-10-10v-144.41c0-5.52 4.48-10 10-10h167c5.52 0 10 4.48 10 10z" fill="#6583fe"/><path d="m308.208 407.24h-104.416c-5.523 0-10-4.477-10-10v-10.408c0-5.523 4.477-10 10-10h104.416c5.523 0 10 4.477 10 10v10.408c0 5.523-4.477 10-10 10z" fill="#fff"/><g><path d="m308.208 412.24h-104.416c-8.271 0-15-6.729-15-15v-10.409c0-8.271 6.729-15 15-15h104.416c8.271 0 15 6.729 15 15v10.409c0 8.271-6.729 15-15 15zm-104.416-30.409c-2.757 0-5 2.243-5 5v10.409c0 2.757 2.243 5 5 5h104.416c2.757 0 5-2.243 5-5v-10.409c0-2.757-2.243-5-5-5z" fill="#2626bc"/></g><g><g><g><path d="m308.34 290.829h-104.68c-2.761 0-5 2.239-5 5s2.239 5 5 5h104.68c2.761 0 5-2.239 5-5s-2.238-5-5-5z" fill="#2626bc"/></g><g><path d="m284.34 271.402h-80.68c-2.761 0-5 2.239-5 5s2.239 5 5 5h80.681c2.761 0 5-2.239 5-5-.001-2.761-2.239-5-5.001-5z" fill="#2626bc"/></g><g><path d="m215.34 248.056h-11.68c-2.761 0-5 2.239-5 5s2.239 5 5 5h11.681c2.761 0 5-2.239 5-5-.001-2.761-2.239-5-5.001-5z" fill="#2626bc"/></g></g><g><g><path d="m308.34 345.001h-104.68c-2.761 0-5 2.239-5 5s2.239 5 5 5h104.68c2.761 0 5-2.239 5-5s-2.238-5-5-5z" fill="#2626bc"/></g><g><path d="m284.34 325.573h-80.68c-2.761 0-5 2.239-5 5s2.239 5 5 5h80.681c2.761 0 5-2.239 5-5-.001-2.761-2.239-5-5.001-5z" fill="#2626bc"/></g></g></g></g><g fill="#6583fe"><path d="m85.524 340.843c-7.88 0-14.292-6.411-14.292-14.292s6.411-14.292 14.292-14.292c7.88 0 14.291 6.411 14.291 14.292s-6.411 14.292-14.291 14.292zm0-18.583c-2.366 0-4.292 1.925-4.292 4.292 0 2.366 1.925 4.292 4.292 4.292 2.366 0 4.291-1.925 4.291-4.292s-1.925-4.292-4.291-4.292z"/><path d="m76.232 134.451c-7.88 0-14.291-6.411-14.291-14.292s6.411-14.291 14.291-14.291 14.292 6.411 14.292 14.291-6.411 14.292-14.292 14.292zm0-18.583c-2.366 0-4.291 1.925-4.291 4.291s1.925 4.292 4.291 4.292 4.292-1.925 4.292-4.292-1.925-4.291-4.292-4.291z"/><path d="m427.961 151.911c-2.761 0-5-2.239-5-5 0-3.309-2.692-6-6.001-6-2.761 0-5-2.239-5-5s2.239-5 5-5c3.309 0 6.001-2.691 6.001-6 0-2.761 2.239-5 5-5s5 2.239 5 5c0 3.309 2.691 6 5.999 6 2.761 0 5 2.239 5 5s-2.239 5-5 5c-3.308 0-5.999 2.691-5.999 6 0 2.761-2.239 5-5 5z"/><path d="m426.277 405.373c-2.761 0-5-2.239-5-5 0-3.309-2.691-6-6-6-2.761 0-5-2.239-5-5s2.239-5 5-5c3.309 0 6-2.691 6-6 0-2.761 2.239-5 5-5s5 2.239 5 5c0 3.309 2.691 6 6 6 2.761 0 5 2.239 5 5s-2.239 5-5 5c-3.309 0-6 2.691-6 6 0 2.762-2.238 5-5 5z"/><path d="m96.524 386.841c-2.761 0-5-2.239-5-5 0-3.309-2.691-6-6-6-2.761 0-5-2.239-5-5s2.239-5 5-5c3.309 0 6-2.691 6-6 0-2.761 2.239-5 5-5s5 2.239 5 5c0 3.309 2.691 6 6 6 2.761 0 5 2.239 5 5s-2.239 5-5 5c-3.309 0-6 2.691-6 6 0 2.761-2.239 5-5 5z"/></g></g></g></svg>