<svg id="Capa_1" enable-background="new 0 0 512 512" height="512" viewBox="0 0 512 512" width="512" xmlns="http://www.w3.org/2000/svg" xmlns:xlink="http://www.w3.org/1999/xlink"><linearGradient id="SVGID_1_" gradientUnits="userSpaceOnUse" x1="8.753" x2="524.203" y1="401.161" y2="103.566"><stop offset="0" stop-color="#d2deff" stop-opacity="0"/><stop offset="1" stop-color="#b7c5ff"/></linearGradient><g><path d="m418.32 2.5c-55.666-9.521-178.298 12.183-200.004 105.016-14.432 61.722-14.007 112.075-50.427 113.02-21.67.562-32.97-44.31-62.889-48.001-39.047-4.817-66.145 27.695-83.057 57.138-37.205 64.772-25.571 174.918 23.354 228.632 118.488 130.086 259.197-5.952 319.358-112.309 38.585-68.213 125.637-123.352 143.767-200.248 15.177-64.375-18.503-131.002-90.102-143.248z" fill="url(#SVGID_1_)"/><g><g><g><g><path d="m455.47 452.133h-398.94c-8.284 0-15-6.716-15-15v-314.266c0-8.284 6.716-15 15-15h398.94c8.284 0 15 6.716 15 15v314.266c0 8.285-6.715 15-15 15z" fill="#2626bc" opacity=".1"/><path d="m470.47 98.87v314.26c0 8.29-6.72 15-15 15h-398.94c-8.28 0-15-6.71-15-15v-314.26c0-8.29 6.72-15 15-15h398.94c8.28 0 15 6.71 15 15z" fill="#fff"/><g fill="#6583fe"><g><path d="m315.474 258.633h-71.851c-3.097 0-5.607-2.51-5.607-5.607v-71.852c0-3.097 2.51-5.607 5.607-5.607h71.851c3.097 0 5.607 2.51 5.607 5.607v71.852c0 3.096-2.51 5.607-5.607 5.607z"/><path d="m425.67 258.633h-71.851c-3.097 0-5.607-2.51-5.607-5.607v-71.852c0-3.097 2.51-5.607 5.607-5.607h71.851c3.097 0 5.607 2.51 5.607 5.607v71.852c.001 3.096-2.51 5.607-5.607 5.607z"/></g><g><path d="m315.474 364.405h-71.851c-3.097 0-5.607-2.51-5.607-5.607v-71.851c0-3.097 2.51-5.607 5.607-5.607h71.851c3.097 0 5.607 2.51 5.607 5.607v71.851c0 3.096-2.51 5.607-5.607 5.607z"/><path d="m425.67 364.405h-71.851c-3.097 0-5.607-2.51-5.607-5.607v-71.851c0-3.097 2.51-5.607 5.607-5.607h71.851c3.097 0 5.607 2.51 5.607 5.607v71.851c.001 3.096-2.51 5.607-5.607 5.607z"/></g></g><g><g fill="#6583fe"><path d="m321.08 392.72v35.41h-83.06v-35.41c0-3.1 2.51-5.61 5.6-5.61h71.85c3.1 0 5.61 2.51 5.61 5.61z"/><path d="m431.28 392.72v35.41h-83.07v-35.41c0-3.1 2.51-5.61 5.61-5.61h71.85c3.1 0 5.61 2.51 5.61 5.61z"/></g></g><path d="m203.623 83.867h-147.093c-8.284 0-15 6.716-15 15v314.266c0 8.284 6.716 15 15 15h147.094v-344.266z" fill="#fff"/><g fill="#6583fe"><path d="m41.53 281.441h162.094v79.963h-162.094z"/><path d="m470.47 153.18v-54.313c0-8.284-6.716-15-15-15h-398.94c-8.284 0-15 6.716-15 15v54.313z"/></g></g><g><g fill="#fff"><circle cx="85.623" cy="120.768" r="10.901"/><circle cx="120.424" cy="120.768" r="10.901"/><circle cx="155.224" cy="120.768" r="10.901"/></g><path d="m432.278 133.015h-136.159v-24.495h136.159c2.761 0 5 2.239 5 5v14.496c0 2.761-2.239 4.999-5 4.999z" fill="#fff"/><path d="m296.789 108.831c-5.286-5.286-13.887-5.286-19.173 0s-5.286 13.887 0 19.173c4.037 4.037 10.003 4.98 14.953 2.852l4.348 4.348c1.953 1.952 5.119 1.952 7.071 0s1.952-5.119 0-7.071l-4.348-4.348c2.129-4.951 1.186-10.917-2.851-14.954zm-12.102 7.071c1.387-1.387 3.644-1.387 5.031 0s1.387 3.644 0 5.031-3.644 1.387-5.031 0-1.387-3.644 0-5.031z" fill="#2626bc"/></g></g><g><path d="m129.578 334.786h-56.181c-2.761 0-5 2.239-5 5s2.239 5 5 5h56.181c2.761 0 5-2.239 5-5s-2.239-5-5-5z" fill="#2626bc"/></g><g><g><circle cx="74.723" cy="177.569" fill="#2626bc" r="5.002"/></g><g><circle cx="74.723" cy="196.733" fill="#2626bc" r="5.002"/></g></g></g><g fill="#6583fe"><path d="m197.071 58.223c-2.761 0-5-2.238-5-5 0-3.309-2.691-6-6-6-2.761 0-5-2.238-5-5s2.239-5 5-5c3.309 0 6-2.691 6-6 0-2.762 2.239-5 5-5s5 2.238 5 5c0 3.309 2.691 6 6 6 2.761 0 5 2.238 5 5s-2.239 5-5 5c-3.309 0-6 2.691-6 6 0 2.761-2.239 5-5 5z"/><path d="m273.548 491.464c-2.761 0-5-2.238-5-5 0-3.309-2.691-6-6-6-2.761 0-5-2.238-5-5s2.239-5 5-5c3.309 0 6-2.691 6-6 0-2.762 2.239-5 5-5s5 2.238 5 5c0 3.309 2.691 6 6 6 2.761 0 5 2.238 5 5s-2.239 5-5 5c-3.309 0-6 2.691-6 6 0 2.762-2.238 5-5 5z"/><path d="m144.66 61.981c-2.761 0-5-2.238-5-5 0-3.309-2.691-6-6-6-2.761 0-5-2.238-5-5s2.239-5 5-5c3.309 0 6-2.691 6-6 0-2.762 2.239-5 5-5s5 2.238 5 5c0 3.309 2.691 6 6 6 2.761 0 5 2.238 5 5s-2.239 5-5 5c-3.309 0-6 2.691-6 6 0 2.761-2.239 5-5 5z"/><path d="m321.08 489.756c-7.88 0-14.292-6.411-14.292-14.292 0-7.88 6.411-14.291 14.292-14.291 7.88 0 14.292 6.411 14.292 14.291 0 7.881-6.412 14.292-14.292 14.292zm0-18.583c-2.366 0-4.292 1.925-4.292 4.291s1.925 4.292 4.292 4.292c2.366 0 4.292-1.926 4.292-4.292s-1.926-4.291-4.292-4.291z"/><path d="m380.84 60.272c-7.88 0-14.291-6.411-14.291-14.291 0-7.881 6.411-14.292 14.291-14.292s14.292 6.411 14.292 14.292c0 7.879-6.411 14.291-14.292 14.291zm0-18.583c-2.366 0-4.291 1.926-4.291 4.292s1.925 4.291 4.291 4.291 4.292-1.925 4.292-4.291-1.925-4.292-4.292-4.292z"/></g></g><path d="m455.47 78.867h-398.94c-11.028 0-20 8.972-20 20v314.266c0 11.028 8.972 20 20 20h398.94c11.028 0 20-8.972 20-20v-314.266c0-11.028-8.972-20-20-20zm10 334.266c0 5.514-4.486 10-10 10h-246.846v-269.953c0-2.762-2.239-5-5-5s-5 2.238-5 5v269.953h-142.094c-5.514 0-10-4.486-10-10v-314.266c0-5.514 4.486-10 10-10h398.94c5.514 0 10 4.486 10 10z" fill="#2626bc"/></g></svg>