<svg id="Capa_1" enable-background="new 0 0 512 512" height="512" viewBox="0 0 512 512" width="512" xmlns="http://www.w3.org/2000/svg" xmlns:xlink="http://www.w3.org/1999/xlink"><linearGradient id="SVGID_1_" gradientUnits="userSpaceOnUse" x1="0" x2="512" y1="256" y2="256"><stop offset="0" stop-color="#d2deff" stop-opacity="0"/><stop offset="1" stop-color="#b7c5ff"/></linearGradient><g><path d="m20.337 133.512c-23.967 39.398-26.493 107.613-8.937 150.256 15.377 37.351 45.966 72.409 86.12 76.801 14.766 1.615 29.858-1.024 44.472 1.638 50.257 9.152 68.952 71.09 108.01 104.014 27.182 22.913 64.898 31.021 100.174 26.607s68.302-20.363 97.376-40.824c22.957-16.157 44.436-36.022 55.764-61.707 23.744-53.839-4.19-118.501-47.587-158.239-13.517-12.377-28.582-23.294-39.875-37.727-11.293-14.434-18.48-33.695-13.099-51.214 4.293-13.977 15.849-24.812 20.227-38.763 5.958-18.984-3.035-40.281-17.802-53.616s-34.308-20.039-53.666-24.64c-81.103-19.281-258.823-11.524-331.177 107.414z" fill="url(#SVGID_1_)"/><g><g><g><g><path d="m455.47 452.133h-398.94c-8.284 0-15-6.716-15-15v-314.266c0-8.284 6.716-15 15-15h398.94c8.284 0 15 6.716 15 15v314.266c0 8.284-6.715 15-15 15z" fill="#2626bc" opacity=".1"/><path d="m455.47 428.133h-398.94c-8.284 0-15-6.716-15-15v-314.266c0-8.284 6.716-15 15-15h398.94c8.284 0 15 6.716 15 15v314.266c0 8.284-6.715 15-15 15z" fill="#fff"/><path d="m41.53 208.06h428.94v194.1h-428.94z" fill="#6583fe"/><g><g><g><g><g><g><path d="m100.737 241.19h-26.18c-2.761 0-5 2.239-5 5s2.239 5 5 5h26.181c2.761 0 5-2.239 5-5-.001-2.762-2.239-5-5.001-5z" fill="#2626bc"/></g><g><path d="m136.737 261.677h-62.18c-2.761 0-5 2.239-5 5s2.239 5 5 5h62.181c2.761 0 5-2.239 5-5-.001-2.761-2.239-5-5.001-5z" fill="#2626bc"/></g><g><path d="m136.737 282.165h-62.18c-2.761 0-5 2.239-5 5s2.239 5 5 5h62.181c2.761 0 5-2.239 5-5-.001-2.761-2.239-5-5.001-5z" fill="#2626bc"/></g></g></g><g><g><g><path d="m136.737 319.298h-62.18c-2.761 0-5 2.239-5 5s2.239 5 5 5h62.181c2.761 0 5-2.239 5-5-.001-2.761-2.239-5-5.001-5z" fill="#2626bc"/></g><g><path d="m136.737 339.786h-62.18c-2.761 0-5 2.239-5 5s2.239 5 5 5h62.181c2.761 0 5-2.239 5-5-.001-2.761-2.239-5-5.001-5z" fill="#2626bc"/></g><g><path d="m136.737 360.274h-62.18c-2.761 0-5 2.239-5 5s2.239 5 5 5h62.181c2.761 0 5-2.239 5-5-.001-2.762-2.239-5-5.001-5z" fill="#2626bc"/></g></g></g></g></g><g><g><g><g><g><path d="m401.443 241.19h-26.181c-2.761 0-5 2.239-5 5s2.239 5 5 5h26.181c2.761 0 5-2.239 5-5 0-2.762-2.239-5-5-5z" fill="#2626bc"/></g><g><path d="m437.443 261.677h-62.181c-2.761 0-5 2.239-5 5s2.239 5 5 5h62.181c2.761 0 5-2.239 5-5s-2.239-5-5-5z" fill="#2626bc"/></g><g><path d="m437.443 282.165h-62.181c-2.761 0-5 2.239-5 5s2.239 5 5 5h62.181c2.761 0 5-2.239 5-5s-2.239-5-5-5z" fill="#2626bc"/></g></g></g><g><g><g><path d="m437.443 319.298h-62.181c-2.761 0-5 2.239-5 5s2.239 5 5 5h62.181c2.761 0 5-2.239 5-5s-2.239-5-5-5z" fill="#2626bc"/></g><g><path d="m437.443 339.786h-62.181c-2.761 0-5 2.239-5 5s2.239 5 5 5h62.181c2.761 0 5-2.239 5-5s-2.239-5-5-5z" fill="#2626bc"/></g><g><path d="m437.443 360.274h-62.181c-2.761 0-5 2.239-5 5s2.239 5 5 5h62.181c2.761 0 5-2.239 5-5 0-2.762-2.239-5-5-5z" fill="#2626bc"/></g></g></g></g></g></g><path d="m379.81 199.49v228.64h-247.62v-228.64c0-5.52 4.48-10 10-10h227.62c5.52 0 10 4.48 10 10z" fill="#fff"/><path d="m321.01 428.13h-188.82v-150.34c9.4-1.72 19.09-2.62 28.99-2.62 86.01 0 156.16 67.86 159.83 152.96z" fill="#fff"/><g><path d="m379.81 433.13h-247.62c-2.761 0-5-2.238-5-5v-228.64c0-8.271 6.729-15 15-15h227.62c8.271 0 15 6.729 15 15v228.64c0 2.762-2.239 5-5 5zm-242.62-10h237.62v-223.64c0-2.757-2.243-5-5-5h-227.62c-2.757 0-5 2.243-5 5z" fill="#2626bc"/></g><path d="m470.47 153.18v-54.313c0-8.284-6.716-15-15-15h-398.94c-8.284 0-15 6.716-15 15v54.313z" fill="#6583fe"/><path d="m455.47 433.133h-398.94c-11.028 0-20-8.972-20-20v-314.266c0-11.028 8.972-20 20-20h398.94c11.028 0 20 8.972 20 20v314.266c0 11.028-8.972 20-20 20zm-398.94-344.266c-5.514 0-10 4.486-10 10v314.266c0 5.514 4.486 10 10 10h398.94c5.514 0 10-4.486 10-10v-314.266c0-5.514-4.486-10-10-10z" fill="#2626bc"/></g><g><g fill="#fff"><circle cx="85.623" cy="120.768" r="10.901"/><circle cx="120.424" cy="120.768" r="10.901"/><circle cx="155.224" cy="120.768" r="10.901"/></g><path d="m432.277 133.015h-136.158v-24.495h136.159c2.761 0 5 2.239 5 5v14.496c-.001 2.761-2.239 4.999-5.001 4.999z" fill="#fff"/><path d="m296.789 108.831c-5.286-5.286-13.887-5.286-19.173 0s-5.286 13.887 0 19.173c4.037 4.037 10.003 4.98 14.953 2.852l4.348 4.348c1.953 1.952 5.119 1.952 7.071 0s1.952-5.119 0-7.071l-4.348-4.348c2.129-4.951 1.186-10.917-2.851-14.954zm-12.102 7.071c1.387-1.387 3.644-1.387 5.031 0s1.387 3.644 0 5.031-3.644 1.387-5.031 0-1.387-3.644 0-5.031z" fill="#2626bc"/></g></g><g><g><g><g><g><path d="m237.59 215.458h-56.18c-2.761 0-5 2.239-5 5s2.239 5 5 5h56.181c2.761 0 5-2.239 5-5-.001-2.761-2.239-5-5.001-5z" fill="#2626bc"/></g><g><path d="m330.59 235.946h-149.18c-2.761 0-5 2.239-5 5s2.239 5 5 5h149.18c2.761 0 5-2.239 5-5 0-2.762-2.238-5-5-5z" fill="#2626bc"/></g><g><path d="m330.59 256.434h-149.18c-2.761 0-5 2.239-5 5s2.239 5 5 5h149.18c2.761 0 5-2.239 5-5 0-2.762-2.238-5-5-5z" fill="#2626bc"/></g></g></g><g><g><g><path d="m330.59 293.566h-149.18c-2.761 0-5 2.239-5 5s2.239 5 5 5h149.18c2.761 0 5-2.239 5-5s-2.238-5-5-5z" fill="#2626bc"/></g><g><path d="m330.59 314.054h-149.18c-2.761 0-5 2.239-5 5s2.239 5 5 5h149.18c2.761 0 5-2.239 5-5s-2.238-5-5-5z" fill="#2626bc"/></g><g><path d="m330.59 334.542h-149.18c-2.761 0-5 2.239-5 5s2.239 5 5 5h149.18c2.761 0 5-2.239 5-5s-2.238-5-5-5z" fill="#2626bc"/></g></g></g></g><g><g><g><g><path d="m330.59 371.675h-149.18c-2.761 0-5 2.239-5 5s2.239 5 5 5h149.18c2.761 0 5-2.239 5-5s-2.238-5-5-5z" fill="#2626bc"/></g><g><path d="m330.59 392.163h-149.18c-2.761 0-5 2.239-5 5s2.239 5 5 5h149.18c2.761 0 5-2.239 5-5s-2.238-5-5-5z" fill="#2626bc"/></g></g></g></g></g><g><ellipse cx="381.763" cy="197.161" fill="#fff" rx="28.297" ry="28.297" transform="matrix(.227 -.974 .974 .227 103.089 524.203)"/><g><path d="m381.763 230.458c-18.36 0-33.296-14.937-33.296-33.297s14.936-33.297 33.296-33.297 33.297 14.937 33.297 33.297-14.937 33.297-33.297 33.297zm0-56.594c-12.846 0-23.296 10.451-23.296 23.297s10.451 23.297 23.296 23.297c12.846 0 23.297-10.451 23.297-23.297s-10.451-23.297-23.297-23.297z" fill="#2626bc"/></g><g><path d="m376.746 212.203c-1.498 0-2.98-.671-3.965-1.949-1.685-2.189-1.276-5.328.912-7.013l7.897-6.08-7.897-6.08c-2.188-1.685-2.596-4.824-.912-7.013 1.684-2.187 4.826-2.594 7.012-.911l13.043 10.042c1.229.946 1.95 2.41 1.95 3.962s-.72 3.016-1.95 3.962l-13.043 10.042c-.909.699-1.983 1.038-3.047 1.038z" fill="#2626bc"/></g></g></g><g fill="#6583fe"><path d="m451.735 61.563c-7.88 0-14.292-6.411-14.292-14.292 0-7.88 6.411-14.291 14.292-14.291 7.88 0 14.292 6.411 14.292 14.291-.001 7.881-6.412 14.292-14.292 14.292zm0-18.583c-2.366 0-4.292 1.925-4.292 4.291s1.925 4.292 4.292 4.292c2.366 0 4.292-1.926 4.292-4.292s-1.926-4.291-4.292-4.291z"/><path d="m197.071 58.223c-2.761 0-5-2.238-5-5 0-3.309-2.691-6-6-6-2.761 0-5-2.238-5-5s2.239-5 5-5c3.309 0 6-2.691 6-6 0-2.762 2.239-5 5-5s5 2.238 5 5c0 3.309 2.691 6 6 6 2.761 0 5 2.238 5 5s-2.239 5-5 5c-3.309 0-6 2.691-6 6 0 2.761-2.239 5-5 5z"/><path d="m150.181 491.464c-2.761 0-5-2.238-5-5 0-3.309-2.691-6-6-6-2.761 0-5-2.238-5-5s2.239-5 5-5c3.309 0 6-2.691 6-6 0-2.762 2.239-5 5-5s5 2.238 5 5c0 3.309 2.691 6 6 6 2.761 0 5 2.238 5 5s-2.239 5-5 5c-3.309 0-6 2.691-6 6 0 2.762-2.239 5-5 5z"/><path d="m346.59 491.464c-2.761 0-5-2.238-5-5 0-3.309-2.691-6-6-6-2.761 0-5-2.238-5-5s2.239-5 5-5c3.309 0 6-2.691 6-6 0-2.762 2.239-5 5-5s5 2.238 5 5c0 3.309 2.691 6 6 6 2.761 0 5 2.238 5 5s-2.239 5-5 5c-3.309 0-6 2.691-6 6 0 2.762-2.238 5-5 5z"/><path d="m256 64.98c-2.761 0-5-2.238-5-5 0-3.309-2.691-6-6-6-2.761 0-5-2.238-5-5s2.239-5 5-5c3.309 0 6-2.691 6-6 0-2.762 2.239-5 5-5s5 2.238 5 5c0 3.309 2.691 6 6 6 2.761 0 5 2.238 5 5s-2.239 5-5 5c-3.309 0-6 2.691-6 6 0 2.762-2.239 5-5 5z"/></g></g></g></svg>