<svg id="Capa_1" enable-background="new 0 0 512 512" height="512" viewBox="0 0 512 512" width="512" xmlns="http://www.w3.org/2000/svg" xmlns:xlink="http://www.w3.org/1999/xlink"><linearGradient id="SVGID_1_" gradientUnits="userSpaceOnUse" x1="8.753" x2="524.203" y1="401.161" y2="103.566"><stop offset="0" stop-color="#d2deff" stop-opacity="0"/><stop offset="1" stop-color="#b7c5ff"/></linearGradient><g><path d="m418.32 2.5c-55.666-9.521-178.298 12.183-200.004 105.016-14.432 61.722-14.007 112.075-50.427 113.02-21.67.562-32.97-44.31-62.889-48.001-39.047-4.817-66.145 27.695-83.057 57.138-37.205 64.772-25.571 174.918 23.354 228.632 118.488 130.086 259.197-5.952 319.358-112.309 38.585-68.213 125.637-123.352 143.767-200.248 15.177-64.375-18.503-131.002-90.102-143.248z" fill="url(#SVGID_1_)"/><g><g><g><path d="m455.47 452.133h-398.94c-8.284 0-15-6.716-15-15v-314.266c0-8.284 6.716-15 15-15h398.94c8.284 0 15 6.716 15 15v314.266c0 8.285-6.715 15-15 15z" fill="#2626bc" opacity=".1"/><path d="m455.47 428.133h-398.94c-8.284 0-15-6.716-15-15v-314.266c0-8.284 6.716-15 15-15h398.94c8.284 0 15 6.716 15 15v314.266c0 8.285-6.715 15-15 15z" fill="#fff"/><path d="m470.47 351.37v61.76c0 8.29-6.72 15-15 15h-398.94c-8.28 0-15-6.71-15-15v-61.76z" fill="#6583fe"/><g fill="#fff"><path d="m156.18 351.37-76.76 76.76h-22.89c-8.28 0-15-6.71-15-15v-15.25l46.51-46.51z"/><path d="m294.71 351.37-76.76 76.76h-68.14l76.75-76.76z"/><path d="m433.23 351.37-76.76 76.76h-68.13l76.75-76.76z"/><path d="m470.47 384.24v28.89c0 8.29-6.72 15-15 15h-28.89z"/></g><path d="m470.47 153.18v-54.313c0-8.284-6.716-15-15-15h-398.94c-8.284 0-15 6.716-15 15v54.313z" fill="#6583fe"/><path d="m455.47 433.133h-398.94c-11.028 0-20-8.972-20-20v-314.266c0-11.028 8.972-20 20-20h398.94c11.028 0 20 8.972 20 20v314.266c0 11.028-8.972 20-20 20zm-398.94-344.266c-5.514 0-10 4.486-10 10v314.266c0 5.514 4.486 10 10 10h398.94c5.514 0 10-4.486 10-10v-314.266c0-5.514-4.486-10-10-10z" fill="#2626bc"/></g><g><g fill="#fff"><circle cx="85.623" cy="120.768" r="10.901"/><circle cx="120.424" cy="120.768" r="10.901"/><circle cx="155.224" cy="120.768" r="10.901"/></g><path d="m432.278 133.015h-136.159v-24.495h136.159c2.761 0 5 2.239 5 5v14.496c0 2.761-2.239 4.999-5 4.999z" fill="#fff"/><path d="m296.789 108.831c-5.286-5.286-13.887-5.286-19.173 0s-5.286 13.887 0 19.173c4.037 4.037 10.003 4.98 14.953 2.852l4.348 4.348c1.953 1.952 5.119 1.952 7.071 0s1.952-5.119 0-7.071l-4.348-4.348c2.129-4.951 1.186-10.917-2.851-14.954zm-12.102 7.071c1.387-1.387 3.644-1.387 5.031 0s1.387 3.644 0 5.031-3.644 1.387-5.031 0-1.387-3.644 0-5.031z" fill="#2626bc"/></g></g><g><g fill="#6583fe"><path d="m151.596 249.472h-2.143v-20.231c0-5.523-4.477-10-10-10s-10 4.477-10 10v20.231h-18.777l22.666-51.347c2.23-5.052-.058-10.956-5.11-13.186-5.05-2.23-10.957.058-13.187 5.11l-28.863 65.385c-1.365 3.092-1.075 6.666.771 9.498s4.998 4.54 8.378 4.54h34.123v42.316c0 5.523 4.477 10 10 10s10-4.477 10-10v-42.316h2.143c5.523 0 10-4.477 10-10-.001-5.523-4.478-10-10.001-10z"/><path d="m327.258 249.472h-2.143v-20.231c0-5.523-4.477-10-10-10s-10 4.477-10 10v20.231h-18.777l22.666-51.347c2.23-5.052-.058-10.956-5.11-13.186-5.051-2.23-10.957.058-13.187 5.11l-28.863 65.385c-1.365 3.092-1.075 6.666.771 9.498s4.998 4.54 8.378 4.54h34.122v42.316c0 5.523 4.477 10 10 10s10-4.477 10-10v-42.316h2.143c5.523 0 10-4.477 10-10s-4.477-10-10-10z"/><path d="m226.986 184.087h-31.384c-12.374 0-22.44 10.067-22.44 22.441v92.821c0 12.374 10.067 22.44 22.44 22.44h31.384c12.374 0 22.441-10.067 22.441-22.44v-92.821c0-12.375-10.067-22.441-22.441-22.441zm2.441 115.261c0 1.346-1.095 2.44-2.441 2.44h-31.384c-1.346 0-2.44-1.095-2.44-2.44v-92.821c0-1.346 1.095-2.441 2.44-2.441h31.384c1.346 0 2.441 1.095 2.441 2.441z"/></g><path d="m422.027 252.571h-59.264c-2.761 0-5-2.239-5-5v-9.802c0-2.761 2.239-5 5-5h59.264c2.761 0 5 2.239 5 5v9.802c0 2.761-2.239 5-5 5z" fill="#6583fe"/><g><path d="m413.444 280.739h-50.681c-2.761 0-5-2.239-5-5s2.239-5 5-5h50.681c2.761 0 5 2.239 5 5s-2.239 5-5 5z" fill="#2626bc"/></g><g><path d="m413.444 298.196h-50.681c-2.761 0-5-2.239-5-5s2.239-5 5-5h50.681c2.761 0 5 2.239 5 5s-2.239 5-5 5z" fill="#2626bc"/></g></g><g fill="#6583fe"><path d="m249.427 64.162c-7.88 0-14.292-6.411-14.292-14.292 0-7.88 6.411-14.291 14.292-14.291 7.88 0 14.292 6.411 14.292 14.291-.001 7.881-6.412 14.292-14.292 14.292zm0-18.583c-2.366 0-4.292 1.925-4.292 4.291s1.925 4.292 4.292 4.292c2.366 0 4.292-1.926 4.292-4.292s-1.926-4.291-4.292-4.291z"/><path d="m201.036 64.162c-7.88 0-14.292-6.411-14.292-14.292 0-7.88 6.411-14.291 14.292-14.291 7.88 0 14.292 6.411 14.292 14.291 0 7.881-6.411 14.292-14.292 14.292zm0-18.583c-2.366 0-4.292 1.925-4.292 4.291s1.925 4.292 4.292 4.292 4.292-1.926 4.292-4.292-1.926-4.291-4.292-4.291z"/><path d="m448.525 478.421c-2.761 0-5-2.238-5-5 0-3.309-2.691-6-6-6-2.761 0-5-2.238-5-5s2.239-5 5-5c3.309 0 6-2.691 6-6 0-2.762 2.239-5 5-5s5 2.238 5 5c0 3.309 2.691 6 6 6 2.761 0 5 2.238 5 5s-2.239 5-5 5c-3.309 0-6 2.691-6 6 0 2.762-2.239 5-5 5z"/><path d="m454.319 65.87c-2.761 0-5-2.238-5-5 0-3.309-2.691-6-6-6-2.761 0-5-2.238-5-5s2.239-5 5-5c3.309 0 6-2.691 6-6 0-2.762 2.239-5 5-5s5 2.238 5 5c0 3.309 2.691 6 6 6 2.761 0 5 2.238 5 5s-2.239 5-5 5c-3.309 0-6 2.691-6 6 0 2.762-2.238 5-5 5z"/><path d="m63.723 478.421c-2.761 0-5-2.238-5-5 0-3.309-2.692-6-6-6-2.761 0-5-2.238-5-5s2.239-5 5-5c3.308 0 6-2.691 6-6 0-2.762 2.239-5 5-5s5 2.238 5 5c0 3.309 2.691 6 6 6 2.761 0 5 2.238 5 5s-2.239 5-5 5c-3.309 0-6 2.691-6 6 0 2.762-2.239 5-5 5z"/></g></g><path d="m470.47 356.37h-428.94c-2.761 0-5-2.238-5-5s2.239-5 5-5h428.94c2.761 0 5 2.238 5 5s-2.239 5-5 5z" fill="#2626bc"/></g></svg>