<svg id="Capa_1" enable-background="new 0 0 512 512" height="512" viewBox="0 0 512 512" width="512" xmlns="http://www.w3.org/2000/svg" xmlns:xlink="http://www.w3.org/1999/xlink"><linearGradient id="SVGID_1_" gradientUnits="userSpaceOnUse" x1="8.753" x2="524.203" y1="401.161" y2="103.566"><stop offset="0" stop-color="#d2deff" stop-opacity="0"/><stop offset="1" stop-color="#b7c5ff"/></linearGradient><g><path d="m418.32 2.5c-55.666-9.521-178.298 12.183-200.004 105.017-14.432 61.722-14.007 112.075-50.427 113.02-21.67.562-32.97-44.31-62.889-48.001-39.047-4.817-66.145 27.695-83.057 57.138-37.205 64.772-25.571 174.918 23.354 228.632 118.488 130.086 259.197-5.952 319.358-112.309 38.585-68.213 125.637-123.352 143.767-200.248 15.177-64.376-18.503-131.003-90.102-143.249z" fill="url(#SVGID_1_)"/><g><g><g><g><path d="m455.47 452.133h-398.94c-8.284 0-15-6.716-15-15v-314.266c0-8.284 6.716-15 15-15h398.94c8.284 0 15 6.716 15 15v314.266c0 8.285-6.715 15-15 15z" fill="#2626bc" opacity=".1"/><path d="m455.47 428.133h-398.94c-8.284 0-15-6.716-15-15v-314.266c0-8.284 6.716-15 15-15h398.94c8.284 0 15 6.716 15 15v314.266c0 8.285-6.715 15-15 15z" fill="#fff"/><path d="m56.53 428.133h90.03v-247.383h-105.03v232.383c0 8.285 6.715 15 15 15z" fill="#6583fe"/><path d="m146.56 180.75h188.881v247.38h-188.881z" fill="#fff"/><path d="m316.9 293.01v135.12h-146v-135.12c0-2.76 2.24-5 5-5h136c2.76 0 5 2.24 5 5z" fill="#6583fe"/><path d="m303.062 385.018-36.69-36.69c-.938-.938-2.209-1.465-3.535-1.465s-2.599.527-3.536 1.465l-21.158 21.163-9.666-9.666c-1.951-1.951-5.119-1.952-7.07.001l-25.324 25.324c-1.953 1.952-1.953 5.118 0 7.07 1.951 1.953 5.119 1.953 7.07 0l21.789-21.788 21.712 21.71c.976.977 2.256 1.465 3.535 1.465s2.56-.488 3.535-1.465c1.953-1.952 1.953-5.118 0-7.07l-8.51-8.51 17.623-17.628 33.155 33.154c.976.977 2.256 1.465 3.535 1.465s2.56-.488 3.535-1.465c1.953-1.952 1.953-5.118 0-7.07z" fill="#2626bc"/><path d="m470.47 180.75v-81.883c0-8.284-6.716-15-15-15h-398.94c-8.284 0-15 6.716-15 15v81.883z" fill="#fff"/><path d="m455.47 83.867h-120.03v96.883h135.03v-81.883c0-8.284-6.715-15-15-15z" fill="#6583fe"/><path d="m470.47 153.18v-54.313c0-8.284-6.716-15-15-15h-398.94c-8.284 0-15 6.716-15 15v54.313z" fill="#6583fe"/><path d="m455.471 433.133h-398.942c-11.028 0-20-8.972-20-20v-314.266c0-11.028 8.972-20 20-20h398.941c11.028 0 20 8.972 20 20v314.266c.001 11.028-8.971 20-19.999 20zm-398.942-344.266c-5.514 0-10 4.486-10 10v314.266c0 5.514 4.486 10 10 10h398.941c5.514 0 10-4.486 10-10v-314.266c0-5.514-4.486-10-10-10z" fill="#2626bc"/></g><g><g fill="#fff"><circle cx="85.623" cy="120.768" r="10.901"/><circle cx="120.424" cy="120.768" r="10.901"/><circle cx="155.224" cy="120.768" r="10.901"/></g><path d="m432.278 133.015h-136.159v-24.495h136.159c2.761 0 5 2.239 5 5v14.496c0 2.761-2.239 4.999-5 4.999z" fill="#fff"/><path d="m296.789 108.831c-5.286-5.286-13.887-5.286-19.173 0s-5.286 13.887 0 19.173c4.037 4.037 10.003 4.98 14.953 2.852l4.348 4.348c1.953 1.952 5.119 1.952 7.071 0s1.952-5.119 0-7.071l-4.348-4.348c2.129-4.951 1.186-10.917-2.851-14.954zm-12.102 7.071c1.387-1.387 3.644-1.387 5.031 0s1.387 3.644 0 5.031-3.644 1.387-5.031 0-1.387-3.644 0-5.031z" fill="#2626bc"/></g></g><g><path d="m208.216 245.551h-32.313c-2.761 0-5-2.239-5-5v-32.313c0-2.761 2.239-5 5-5h32.313c2.761 0 5 2.239 5 5v32.313c0 2.761-2.238 5-5 5z" fill="#6583fe"/><g><path d="m311.904 213.238h-83.181c-2.761 0-5 2.239-5 5s2.239 5 5 5h83.181c2.761 0 5-2.239 5-5s-2.239-5-5-5z" fill="#2626bc"/><g><path d="m311.9 233.726h-83.177c-2.761 0-5 2.239-5 5s2.239 5 5 5h83.177c2.761 0 5-2.239 5-5s-2.239-5-5-5z" fill="#2626bc"/></g><g><path d="m311.9 254.213h-135.997c-2.761 0-5 2.239-5 5s2.239 5 5 5h135.997c2.761 0 5-2.239 5-5s-2.239-5-5-5z" fill="#2626bc"/></g></g></g><g><path d="m439.218 208.238h-44.181c-2.761 0-5 2.239-5 5s2.239 5 5 5h44.181c2.761 0 5-2.239 5-5s-2.239-5-5-5z" fill="#2626bc"/><circle cx="366.698" cy="213.238" fill="#6583fe" r="14.305"/></g><g><path d="m439.218 254.213h-44.181c-2.761 0-5 2.239-5 5s2.239 5 5 5h44.181c2.761 0 5-2.239 5-5s-2.239-5-5-5z" fill="#2626bc"/><circle cx="366.698" cy="259.213" fill="#6583fe" r="14.305"/></g><g><path d="m439.218 300.189h-44.181c-2.761 0-5 2.239-5 5s2.239 5 5 5h44.181c2.761 0 5-2.239 5-5s-2.239-5-5-5z" fill="#2626bc"/><circle cx="366.698" cy="305.189" fill="#6583fe" r="14.305"/></g><g><path d="m439.218 346.165h-44.181c-2.761 0-5 2.239-5 5s2.239 5 5 5h44.181c2.761 0 5-2.239 5-5 0-2.762-2.239-5-5-5z" fill="#2626bc"/><circle cx="366.698" cy="351.165" fill="#6583fe" r="14.305"/></g><g><path d="m439.218 392.14h-44.181c-2.761 0-5 2.239-5 5s2.239 5 5 5h44.181c2.761 0 5-2.239 5-5s-2.239-5-5-5z" fill="#2626bc"/><ellipse cx="366.698" cy="397.14" fill="#6583fe" rx="14.305" ry="14.305" transform="matrix(.707 -.707 .707 .707 -173.417 375.614)"/></g><g><path d="m309.712 300.733c0 2.762-2.239 5.002-5.002 5.002s-5.002-2.239-5.002-5.002c0-2.762 2.239-5.002 5.002-5.002s5.002 2.24 5.002 5.002z" fill="#2626bc"/></g><g><g><path d="m117.885 222.994h-47.681c-2.761 0-5-2.239-5-5s2.239-5 5-5h47.681c2.761 0 5 2.239 5 5 0 2.762-2.239 5-5 5z" fill="#2626bc"/></g><g><path d="m117.885 242.092h-47.681c-2.761 0-5-2.239-5-5s2.239-5 5-5h47.681c2.761 0 5 2.239 5 5s-2.239 5-5 5z" fill="#2626bc"/></g></g><g><g><path d="m117.885 276.641h-47.681c-2.761 0-5-2.239-5-5s2.239-5 5-5h47.681c2.761 0 5 2.239 5 5s-2.239 5-5 5z" fill="#2626bc"/></g><g><path d="m117.885 295.738h-47.681c-2.761 0-5-2.239-5-5s2.239-5 5-5h47.681c2.761 0 5 2.239 5 5 0 2.762-2.239 5-5 5z" fill="#2626bc"/></g></g><g><g><path d="m117.885 330.287h-47.681c-2.761 0-5-2.239-5-5s2.239-5 5-5h47.681c2.761 0 5 2.239 5 5 0 2.762-2.239 5-5 5z" fill="#2626bc"/></g><g><path d="m117.885 349.385h-47.681c-2.761 0-5-2.239-5-5s2.239-5 5-5h47.681c2.761 0 5 2.239 5 5s-2.239 5-5 5z" fill="#2626bc"/></g></g><g><g><path d="m117.885 383.934h-47.681c-2.761 0-5-2.239-5-5s2.239-5 5-5h47.681c2.761 0 5 2.239 5 5s-2.239 5-5 5z" fill="#2626bc"/></g><g><path d="m117.885 403.031h-47.681c-2.761 0-5-2.239-5-5s2.239-5 5-5h47.681c2.761 0 5 2.239 5 5 0 2.762-2.239 5-5 5z" fill="#2626bc"/></g></g></g><g fill="#6583fe"><path d="m342.138 68.52c-7.881 0-14.292-6.411-14.292-14.291 0-7.881 6.411-14.292 14.292-14.292 7.88 0 14.291 6.411 14.291 14.292 0 7.879-6.411 14.291-14.291 14.291zm0-18.583c-2.366 0-4.292 1.926-4.292 4.292s1.926 4.291 4.292 4.291 4.291-1.925 4.291-4.291-1.925-4.292-4.291-4.292z"/><path d="m290.759 49.937c-7.881 0-14.292-6.411-14.292-14.291 0-7.881 6.411-14.292 14.292-14.292 7.88 0 14.291 6.411 14.291 14.292 0 7.879-6.411 14.291-14.291 14.291zm0-18.583c-2.366 0-4.292 1.926-4.292 4.292s1.926 4.291 4.292 4.291 4.291-1.925 4.291-4.291-1.925-4.292-4.291-4.292z"/><path d="m111.133 482.173c-2.762 0-5-2.238-5-5 0-3.309-2.691-6-6-6-2.762 0-5-2.238-5-5s2.238-5 5-5c3.309 0 6-2.691 6-6 0-2.762 2.238-5 5-5s5 2.238 5 5c0 3.309 2.691 6 6 6 2.762 0 5 2.238 5 5s-2.238 5-5 5c-3.309 0-6 2.691-6 6 0 2.762-2.238 5-5 5z"/><path d="m428.128 482.173c-2.762 0-5-2.238-5-5 0-3.309-2.691-6-6-6-2.762 0-5-2.238-5-5s2.238-5 5-5c3.309 0 6-2.691 6-6 0-2.762 2.238-5 5-5s5 2.238 5 5c0 3.309 2.691 6 6 6 2.762 0 5 2.238 5 5s-2.238 5-5 5c-3.309 0-6 2.691-6 6 0 2.762-2.238 5-5 5z"/><path d="m360.721 482.173c-2.762 0-5-2.238-5-5 0-3.309-2.691-6-6-6-2.762 0-5-2.238-5-5s2.238-5 5-5c3.309 0 6-2.691 6-6 0-2.762 2.238-5 5-5s5 2.238 5 5c0 3.309 2.691 6 6 6 2.762 0 5 2.238 5 5s-2.238 5-5 5c-3.309 0-6 2.691-6 6 0 2.762-2.239 5-5 5z"/></g></g><g fill="#2626bc"><path d="m470.471 158.18h-428.942c-2.762 0-5-2.238-5-5s2.238-5 5-5h428.941c2.762 0 5 2.238 5 5 .001 2.761-2.238 5-4.999 5z"/><path d="m335.44 428.133c-2.762 0-5-2.238-5-5v-270.159c0-2.762 2.238-5 5-5s5 2.238 5 5v270.159c0 2.762-2.238 5-5 5z"/></g></g></svg>