<svg id="Capa_1" enable-background="new 0 0 512 512" height="512" viewBox="0 0 512 512" width="512" xmlns="http://www.w3.org/2000/svg" xmlns:xlink="http://www.w3.org/1999/xlink"><linearGradient id="SVGID_1_" gradientUnits="userSpaceOnUse" x1="48.606" x2="438.791" y1="463.622" y2="-1.382"><stop offset="0" stop-color="#d2deff" stop-opacity="0"/><stop offset="1" stop-color="#b7c5ff"/></linearGradient><g><path d="m418.32 2.5c-55.666-9.521-178.298 12.183-200.004 105.016-14.431 61.722-14.007 112.075-50.427 113.02-21.67.562-32.97-44.31-62.889-48.001-39.047-4.817-66.145 27.695-83.057 57.138-37.205 64.772-25.571 174.918 23.354 228.632 118.488 130.086 259.197-5.952 319.358-112.309 38.584-68.213 125.637-123.352 143.767-200.248 15.177-64.375-18.503-131.002-90.102-143.248z" fill="url(#SVGID_1_)"/><g><g><g><path d="m350.232 500.339h-188.464c-16.568 0-30-13.432-30-30v-380.678c0-16.568 13.432-30 30-30h188.464c16.569 0 30 13.432 30 30v380.678c0 16.569-13.431 30-30 30z" fill="#2626bc" opacity=".1"/><path d="m350.232 476.339h-188.464c-16.568 0-30-13.432-30-30v-380.678c0-16.569 13.432-30 30-30h188.464c16.569 0 30 13.431 30 30v380.678c0 16.569-13.431 30-30 30z" fill="#6583fe"/><path d="m131.77 78.57h248.46v354.86h-248.46z" fill="#fff"/><path d="m350.232 481.339h-188.464c-19.299 0-35-15.701-35-35v-380.678c0-19.299 15.701-35 35-35h188.464c19.299 0 35 15.701 35 35v380.678c0 19.299-15.701 35-35 35zm-188.464-440.678c-13.785 0-25 11.215-25 25v380.678c0 13.785 11.215 25 25 25h188.464c13.785 0 25-11.215 25-25v-380.678c0-13.785-11.215-25-25-25z" fill="#2626bc"/><g><path d="m273.483 63.031h-34.966c-2.761 0-5-2.239-5-5s2.239-5 5-5h34.966c2.761 0 5 2.239 5 5s-2.239 5-5 5z" fill="#2626bc"/></g><path d="m301.815 58.029c0 2.762-2.239 5.002-5.002 5.002-2.762 0-5.002-2.239-5.002-5.002 0-2.762 2.239-5.002 5.002-5.002 2.763.001 5.002 2.24 5.002 5.002z" fill="#2626bc"/></g><g><path d="m342.708 201.733h-173.416c-5.523 0-10-4.477-10-10v-77.943c0-5.523 4.477-10 10-10h173.416c5.523 0 10 4.477 10 10v77.943c0 5.523-4.477 10-10 10z" fill="#fff"/><g><path d="m342.708 206.733h-173.416c-8.271 0-15-6.729-15-15v-77.943c0-8.271 6.729-15 15-15h173.416c8.271 0 15 6.729 15 15v77.943c0 8.271-6.729 15-15 15zm-173.416-97.943c-2.757 0-5 2.243-5 5v77.943c0 2.757 2.243 5 5 5h173.416c2.757 0 5-2.243 5-5v-77.943c0-2.757-2.243-5-5-5z" fill="#2626bc"/></g><path d="m309.49 158.495-36.69-36.69c-.938-.938-2.209-1.465-3.535-1.465s-2.599.527-3.536 1.465l-21.158 21.163-9.666-9.666c-1.951-1.951-5.119-1.952-7.07.001l-25.324 25.324c-1.953 1.952-1.953 5.118 0 7.07 1.951 1.953 5.119 1.953 7.07 0l21.788-21.788 21.712 21.71c1.952 1.953 5.119 1.953 7.07 0 1.953-1.952 1.953-5.118 0-7.07l-8.51-8.51 17.623-17.628 33.155 33.154c1.952 1.953 5.119 1.953 7.07 0 1.954-1.951 1.954-5.117.001-7.07z" fill="#2626bc"/><path d="m320.921 216.665h-129.278c-2.761 0-5-2.239-5-5v-19.655c0-2.761 2.239-5 5-5h129.278c2.761 0 5 2.239 5 5v19.654c0 2.762-2.239 5.001-5 5.001z" fill="#6583fe"/><path d="m293.34 196.733h-74.68c-2.761 0-5 2.239-5 5s2.239 5 5 5h74.681c2.761 0 5-2.239 5-5-.001-2.761-2.239-5-5.001-5z" fill="#2626bc"/></g><g><path d="m342.708 342.513h-173.416c-5.523 0-10-4.477-10-10v-77.943c0-5.523 4.477-10 10-10h173.416c5.523 0 10 4.477 10 10v77.943c0 5.522-4.477 10-10 10z" fill="#fff"/><g><path d="m342.708 347.513h-173.416c-8.271 0-15-6.729-15-15v-77.943c0-8.271 6.729-15 15-15h173.416c8.271 0 15 6.729 15 15v77.943c0 8.271-6.729 15-15 15zm-173.416-97.943c-2.757 0-5 2.243-5 5v77.943c0 2.757 2.243 5 5 5h173.416c2.757 0 5-2.243 5-5v-77.943c0-2.757-2.243-5-5-5z" fill="#2626bc"/></g><path d="m309.49 299.275-36.69-36.69c-.938-.938-2.209-1.465-3.535-1.465s-2.599.527-3.536 1.465l-21.158 21.163-9.666-9.666c-1.951-1.951-5.119-1.952-7.07.001l-25.324 25.324c-1.953 1.952-1.953 5.118 0 7.07 1.951 1.953 5.119 1.953 7.07 0l21.788-21.788 21.712 21.71c.976.977 2.256 1.465 3.535 1.465s2.56-.488 3.535-1.465c1.953-1.952 1.953-5.118 0-7.07l-8.51-8.51 17.623-17.628 33.155 33.154c.976.977 2.256 1.465 3.535 1.465s2.56-.488 3.535-1.465c1.954-1.952 1.954-5.118.001-7.07z" fill="#2626bc"/><path d="m320.921 357.444h-129.278c-2.761 0-5-2.239-5-5v-19.654c0-2.761 2.239-5 5-5h129.278c2.761 0 5 2.239 5 5v19.654c0 2.762-2.239 5-5 5z" fill="#6583fe"/><path d="m293.34 337.513h-74.68c-2.761 0-5 2.239-5 5s2.239 5 5 5h74.681c2.761 0 5-2.239 5-5s-2.239-5-5.001-5z" fill="#2626bc"/></g><g><path d="m352.71 395.35v38.08h-193.42v-38.08c0-5.52 4.48-10 10-10h173.42c5.52 0 10 4.48 10 10z" fill="#fff"/><g><path d="m352.71 438.43c-2.761 0-5-2.239-5-5v-38.08c0-2.757-2.243-5-5-5h-173.42c-2.757 0-5 2.243-5 5v38.08c0 2.761-2.239 5-5 5s-5-2.239-5-5v-38.08c0-8.271 6.729-15 15-15h173.42c8.271 0 15 6.729 15 15v38.08c0 2.761-2.239 5-5 5z" fill="#2626bc"/></g><path d="m302.86 433.43h-14.14l-19.46-19.46-17.62 17.63 1.83 1.83h-14.14l-7.96-7.96-7.96 7.96h-14.14l18.56-18.57c1.96-1.95 5.12-1.95 7.07 0l9.67 9.67 21.16-21.16c.94-.94 2.21-1.47 3.53-1.47 1.33 0 2.6.53 3.54 1.47z" fill="#2626bc"/></g></g><g fill="#6583fe"><path d="m428.087 172.085c-7.88 0-14.292-6.411-14.292-14.291s6.411-14.292 14.292-14.292c7.88 0 14.292 6.411 14.292 14.292 0 7.88-6.411 14.291-14.292 14.291zm0-18.582c-2.366 0-4.292 1.925-4.292 4.292 0 2.366 1.925 4.291 4.292 4.291s4.292-1.925 4.292-4.291c0-2.367-1.925-4.292-4.292-4.292z"/><path d="m416.941 81.321c-7.88 0-14.292-6.411-14.292-14.291s6.411-14.291 14.292-14.291 14.292 6.411 14.292 14.291-6.411 14.291-14.292 14.291zm0-18.583c-2.366 0-4.292 1.925-4.292 4.291s1.925 4.291 4.292 4.291 4.292-1.925 4.292-4.291-1.925-4.291-4.292-4.291z"/><path d="m86.206 381.801c-7.88 0-14.292-6.411-14.292-14.292 0-7.88 6.411-14.291 14.292-14.291 7.88 0 14.291 6.411 14.291 14.291.001 7.881-6.411 14.292-14.291 14.292zm0-18.582c-2.366 0-4.292 1.925-4.292 4.291s1.925 4.292 4.292 4.292c2.366 0 4.291-1.925 4.291-4.292s-1.925-4.291-4.291-4.291z"/><path d="m95.498 334.942c-2.761 0-5-2.239-5-5 0-3.309-2.691-6-6-6-2.761 0-5-2.239-5-5s2.239-5 5-5c3.309 0 6-2.691 6-6 0-2.761 2.239-5 5-5s5 2.239 5 5c0 3.309 2.691 6 6 6 2.761 0 5 2.239 5 5s-2.239 5-5 5c-3.309 0-6 2.691-6 6 0 2.762-2.239 5-5 5z"/><path d="m434.233 374.219c-2.761 0-5-2.239-5-5 0-3.309-2.691-6-6-6-2.761 0-5-2.239-5-5s2.239-5 5-5c3.309 0 6-2.691 6-6 0-2.761 2.239-5 5-5s5 2.239 5 5c0 3.309 2.691 6 6 6 2.761 0 5 2.239 5 5s-2.239 5-5 5c-3.309 0-6 2.691-6 6 0 2.761-2.239 5-5 5z"/></g></g></g></svg>