<?xml version="1.0" encoding="utf-8"?>
<!-- Generator: Adobe Illustrator 25.2.0, SVG Export Plug-In . SVG Version: 6.00 Build 0)  -->
<svg version="1.1" id="Layer_1" xmlns="http://www.w3.org/2000/svg" xmlns:xlink="http://www.w3.org/1999/xlink" x="0px" y="0px"
	 viewBox="0 0 435.6 435.6" style="enable-background:new 0 0 435.6 435.6;" xml:space="preserve">
<style type="text/css">
	.st0{fill:#FFFFFF;}
</style>
<g>
	<path class="st0" d="M182.5,306.9l-60.2,73.4c-8.5,10.3-4.4,25.9,8,30.8l58.9,23.2c12.7,5,26.5-4.1,26.9-17.8l2.5-96.1
		C219.1,301,194.8,292,182.5,306.9z"/>
	<path class="st0" d="M172.5,234l-89.3-32.1c-12.6-4.5-25.9,4.5-26.3,17.9l-2,63.3c-0.4,13.6,12.8,23.6,25.8,19.3l91.3-29.9
		C190.3,266.5,190.7,240.6,172.5,234z"/>
	<path class="st0" d="M274.8,244.3l91.5-25.2c12.9-3.5,18.5-18.6,11.2-29.8l-34.8-52.9c-7.5-11.4-24.1-11.9-32.2-1l-57.5,77.1
		C241.5,228.1,256.2,249.5,274.8,244.3z"/>
	<path class="st0" d="M208.6,24.4c0.7-15.8-14.2-27.8-29.5-23.6l-72.4,19.8c-15.6,4.3-22.3,22.8-12.9,36l83.1,144
		c0.7,1.2,1.4,2.3,2.3,3.3c12.3,14.5,35.4,9.1,41.1-7.8c1-3,1.3-6.3,1.1-9.5L208.6,24.4z"/>
	<path class="st0" d="M367,310.1l-91.9-28.2c-18.5-5.7-33.8,15.3-22.6,31.1l54.5,77.7c7.7,10.9,23.8,11.2,31.8,0.6l38.1-50.5
		C385.1,329.9,380,314.1,367,310.1z"/>
</g>
</svg>
