<?xml version="1.0" encoding="utf-8"?>
<!-- Generator: Adobe Illustrator 25.2.0, SVG Export Plug-In . SVG Version: 6.00 Build 0)  -->
<svg version="1.1" id="Layer_1" xmlns="http://www.w3.org/2000/svg" xmlns:xlink="http://www.w3.org/1999/xlink" x="0px" y="0px"
	 viewBox="0 0 447.7 447.7" style="enable-background:new 0 0 447.7 447.7;" xml:space="preserve">
<style type="text/css">
	.st0{fill:#FFFFFF;}
</style>
<g>
	<path class="st0" d="M134.3,138.2h-24.7L177,328.7l37.7-107.8l-29.3-82.7h-26.1V120h115.5v18.2h-27l67.4,190.5l24.2-69.2
		c31.8-88.7-26-116.3-26-136.1s16-35.8,35.8-35.8c1.1,0,2.1,0.1,3.1,0.2C318.8,56,273.6,36.5,223.8,36.5
		c-65,0-122.3,33.1-155.9,83.5h66.3L134.3,138.2L134.3,138.2L134.3,138.2z"/>
	<path class="st0" d="M36.5,223.8c0,71.7,40.3,134,99.5,165.5L51.5,150.4C41.9,172.9,36.5,197.8,36.5,223.8z"/>
	<path class="st0" d="M386.8,131.5c2.7,15.8,1.9,33.5-2.2,51.3h0.7l-2.8,8.1l0,0c-1.7,5.8-3.8,11.8-6.2,17.7l-64.4,180.5
		c59.1-31.5,99.3-93.7,99.3-165.3C411.1,190.3,402.3,158.8,386.8,131.5z"/>
	<path class="st0" d="M166.1,402c18.2,5.9,37.6,9.1,57.8,9.1c19.2,0,37.8-2.9,55.2-8.3L224.3,248L166.1,402z"/>
	<path class="st0" d="M382.1,65.6C339.8,23.3,283.6,0,223.8,0s-116,23.3-158.3,65.6S0,164,0,223.8c0,59.8,23.3,116,65.6,158.3
		s98.5,65.6,158.3,65.6s116-23.3,158.3-65.6c42.3-42.3,65.6-98.5,65.6-158.3C447.7,164,424.4,107.8,382.1,65.6z M223.8,431.9
		c-114.7,0-208-93.3-208-208s93.3-208,208-208s208,93.3,208,208S338.6,431.9,223.8,431.9z"/>
</g>
</svg>
