<?xml version="1.0" encoding="utf-8"?>
<!-- Generator: Adobe Illustrator 25.2.0, SVG Export Plug-In . SVG Version: 6.00 Build 0)  -->
<svg version="1.1" id="Layer_1" xmlns="http://www.w3.org/2000/svg" xmlns:xlink="http://www.w3.org/1999/xlink" x="0px" y="0px"
	 viewBox="0 0 404 404" style="enable-background:new 0 0 404 404;" xml:space="preserve">
<style type="text/css">
	.st0{fill:#FFFFFF;}
</style>
<path class="st0" d="M354.8,0H49.2C22,0,0,22,0,49.2v305.5C0,382,22,404,49.2,404h305.5c27.2,0,49.2-22,49.2-49.2V49.2
	C404,22,382,0,354.8,0z M175.7,314.9c0,12.6-10.2,22.9-22.9,22.9H75.4c-12.6,0-22.9-10.2-22.9-22.9V78.8C52.5,66.2,62.8,56,75.4,56
	h77.5c12.6,0,22.9,10.2,22.9,22.9V314.9z M351.5,213.3c0,12.6-10.2,22.9-22.9,22.9h-77.5c-12.6,0-22.9-10.2-22.9-22.9V78.8
	c0-12.6,10.2-22.9,22.9-22.9h77.5c12.6,0,22.9,10.2,22.9,22.9V213.3z"/>
</svg>
