<?xml version="1.0" encoding="utf-8"?>
<!-- Generator: Adobe Illustrator 25.2.0, SVG Export Plug-In . SVG Version: 6.00 Build 0)  -->
<svg version="1.1" id="Layer_1" xmlns="http://www.w3.org/2000/svg" xmlns:xlink="http://www.w3.org/1999/xlink" x="0px" y="0px"
	 viewBox="0 0 412.1 412.1" style="enable-background:new 0 0 412.1 412.1;" xml:space="preserve">
<style type="text/css">
	.st0{fill:#FFFFFF;}
</style>
<g>
	<path class="st0" d="M347.3,220.7v45c0,15.2-12.4,28.1-27.6,27.8c-14.7-0.2-26.6-12.3-26.6-27.1V223c0-5.4-5.4-9.2-10.5-7.3
		l-23.9,8.8c-1.8,0.7-3.8,0.6-5.6-0.1l-14.2-5.6c-5.1-2-10.6,1.7-10.6,7.2V265c0,50.4,40.1,92.5,90.5,93.3
		c51.3,0.8,93.3-40.7,93.3-91.9v-45.8c0-3.9-3.1-7-7-7h-50.7C350.4,213.6,347.3,216.8,347.3,220.7z"/>
	<path class="st0" d="M228.3,141.4v21.5c0,3.2,2,6.1,4.9,7.2l20.4,8.1c1.8,0.7,3.8,0.7,5.5,0.1l28.8-10.6c3.1-1.1,5.1-4,5.1-7.3
		v-18.3c0-47.8-37.9-87.6-85.7-88.3c-48.6-0.7-88.4,38.6-88.4,87v124.9c0,15.2-12.4,28.1-27.6,27.8c-14.7-0.2-26.6-12.3-26.6-27.1
		v-45.8c0-3.9-3.1-7-7-7H7c-3.9,0-7,3.1-7,7V265c0,50.4,40,92.5,90.5,93.3c51.3,0.8,93.3-40.7,93.3-91.9V140.8
		c0-12.6,10.6-22.8,23.3-22.2C219.1,119.2,228.3,129.5,228.3,141.4z"/>
</g>
</svg>
