<?xml version="1.0" encoding="utf-8"?>
<!-- Generator: Adobe Illustrator 25.2.0, SVG Export Plug-In . SVG Version: 6.00 Build 0)  -->
<svg version="1.1" id="Layer_1" xmlns="http://www.w3.org/2000/svg" xmlns:xlink="http://www.w3.org/1999/xlink" x="0px" y="0px"
	 viewBox="0 0 447.7 447.7" style="enable-background:new 0 0 447.7 447.7;" xml:space="preserve">
<style type="text/css">
	.st0{fill:#FFFFFF;}
</style>
<g>
	<path class="st0" d="M447.6,263.7c-1.8-26-23.1-46.9-49.1-48.1c-9.9-0.5-19.3,1.8-27.4,6.2c-1.1-51.7-43.3-93.4-95.3-93.4
		c-13.8,0-26.8,2.9-38.6,8.2c-2.5,1.1-4.2,3.7-4.2,6.5v169.1c0,3.9,3.2,7.1,7.1,7.1h155.8C425.7,319.2,449.7,294,447.6,263.7z"/>
	<path class="st0" d="M219.2,139.4c-3.9,0-7.1,3.2-7.1,7.1v165.4c0,3.9,3.2,7.1,7.1,7.1c3.9,0,7.1-3.2,7.1-7.1V146.6
		C226.3,142.6,223.1,139.4,219.2,139.4z"/>
	<path class="st0" d="M195.6,157c-3.9,0-7.1,3.2-7.1,7.1v147.8c0,3.9,3.2,7.1,7.1,7.1s7.1-3.2,7.1-7.1V164.1
		C202.7,160.2,199.6,157,195.6,157z"/>
	<path class="st0" d="M172.1,165c-3.9,0-7.1,3.2-7.1,7.1v139.8c0,3.9,3.2,7.1,7.1,7.1c3.9,0,7.1-3.2,7.1-7.1V172.2
		C179.2,168.2,176,165,172.1,165z"/>
	<path class="st0" d="M148.5,154.3c-3.9,0-7.1,3.2-7.1,7.1v150.5c0,3.9,3.2,7.1,7.1,7.1s7.1-3.2,7.1-7.1V161.5
		C155.6,157.5,152.4,154.3,148.5,154.3z"/>
	<path class="st0" d="M124.9,161.5c-3.9,0-7.1,3.2-7.1,7.1v143.3c0,3.9,3.2,7.1,7.1,7.1s7.1-3.2,7.1-7.1V168.6
		C132.1,164.7,128.9,161.5,124.9,161.5z"/>
	<path class="st0" d="M101.4,175.7c-3.9,0-7.1,3.2-7.1,7.1v129.1c0,3.9,3.2,7.1,7.1,7.1s7.1-3.2,7.1-7.1V182.8
		C108.5,178.9,105.3,175.7,101.4,175.7z"/>
	<path class="st0" d="M77.8,203.3c-3.9,0-7.1,3.2-7.1,7.1v101.5c0,3.9,3.2,7.1,7.1,7.1c3.9,0,7.1-3.2,7.1-7.1V210.4
		C84.9,206.5,81.7,203.3,77.8,203.3z"/>
	<path class="st0" d="M54.2,214.9c-3.9,0-7.1,3.2-7.1,7.1v89.9c0,3.9,3.2,7.1,7.1,7.1s7.1-3.2,7.1-7.1V222
		C61.4,218.1,58.2,214.9,54.2,214.9z"/>
	<path class="st0" d="M30.7,217.6c-3.9,0-7.1,3.2-7.1,7.1v84.6c0,3.9,3.2,7.1,7.1,7.1s7.1-3.2,7.1-7.1v-84.6
		C37.8,220.7,34.6,217.6,30.7,217.6z"/>
	<path class="st0" d="M7.1,236.1c-3.9,0-7.1,3.2-7.1,7.1V292c0,3.9,3.2,7.1,7.1,7.1s7.1-3.2,7.1-7.1v-48.8
		C14.2,239.3,11.1,236.1,7.1,236.1z"/>
</g>
</svg>
