<?xml version="1.0" encoding="utf-8"?>
<!-- Generator: Adobe Illustrator 25.2.0, SVG Export Plug-In . SVG Version: 6.00 Build 0)  -->
<svg version="1.1" id="Layer_1" xmlns="http://www.w3.org/2000/svg" xmlns:xlink="http://www.w3.org/1999/xlink" x="0px" y="0px"
	 viewBox="0 0 396.9 396.9" style="enable-background:new 0 0 396.9 396.9;" xml:space="preserve">
<style type="text/css">
	.st0{fill:#FFFFFF;}
</style>
<path class="st0" d="M0,22.7v351.6c0,12.5,10.1,22.7,22.7,22.7h351.6c12.5,0,22.7-10.1,22.7-22.7V22.7c0-12.5-10.1-22.7-22.7-22.7
	H22.7C10.1,0,0,10.1,0,22.7z M181,108.2h-62.3c-6.3,0-11.3,5.1-11.3,11.3v59.9h-52v-59.9c0-34.9,28.4-63.3,63.3-63.3H181L181,108.2
	L181,108.2z M341.6,277.4c0,34.9-28.4,63.3-63.3,63.3H216v-52h62.3c6.3,0,11.3-5.1,11.3-11.3v-59.9h52L341.6,277.4L341.6,277.4z"/>
</svg>
