<?xml version="1.0" encoding="utf-8"?>
<!-- Generator: Adobe Illustrator 25.2.0, SVG Export Plug-In . SVG Version: 6.00 Build 0)  -->
<svg version="1.1" id="Layer_1" xmlns="http://www.w3.org/2000/svg" xmlns:xlink="http://www.w3.org/1999/xlink" x="0px" y="0px"
	 viewBox="0 0 429.7 429.7" style="enable-background:new 0 0 429.7 429.7;" xml:space="preserve">
<style type="text/css">
	.st0{fill:#FFFFFF;}
</style>
<path class="st0" d="M429.7,196.6c0-29.8-24.2-54-54-54c-14.9,0-28.4,6.1-38.2,15.9c-30.2-19.5-68.7-31.9-111.1-33.8
	c0-18,8.1-34.7,22.1-46c14.1-11.3,32.2-15.5,49.8-11.6l2.4,0.5c0,0.6-0.1,1.2-0.1,1.8c0,24.9,20.2,45,45,45s45-20.2,45-45
	c0-24.9-20.2-45-45-45c-16,0-30,8.4-38,20.9l-4.3-1c-24.5-5.4-49.8,0.4-69.4,16.2c-19.6,15.7-30.8,39.1-30.8,64.2
	c-42.3,1.9-80.9,14.3-111.1,33.8c-9.8-9.8-23.3-15.9-38.2-15.9c-29.8,0-54,24.2-54,54c0,20.8,11.8,38.8,28.9,47.8
	c-1.3,6.7-2,13.5-2,20.5c0,77.5,84.1,140.4,187.9,140.4s187.9-62.9,187.9-140.4c0-6.9-0.7-13.8-2-20.5
	C418,235.4,429.7,217.4,429.7,196.6z M345.7,47.7c12,0,21.8,9.8,21.8,21.8c0,12-9.8,21.8-21.8,21.8S324,81.5,324,69.5
	C324,57.5,333.7,47.7,345.7,47.7z M23.3,196.6c0-16.9,13.8-30.7,30.7-30.7c7.2,0,13.9,2.5,19.1,6.8c-16.4,14.1-29.1,30.6-37,48.8
	C28.3,215.9,23.3,206.9,23.3,196.6z M333.8,345.5C302.3,369,260.1,382,214.9,382s-87.4-13-118.9-36.5c-29.5-22-45.7-50.6-45.7-80.6
	c0-30,16.2-58.6,45.7-80.6c31.5-23.5,73.7-36.5,118.9-36.5s87.4,13,118.9,36.5c29.5,22,45.7,50.6,45.7,80.6
	C379.5,294.8,363.2,323.5,333.8,345.5z M393.6,221.5c-7.9-18.2-20.6-34.7-37-48.8c5.2-4.2,11.9-6.8,19.1-6.8
	c16.9,0,30.7,13.8,30.7,30.7C406.4,206.9,401.4,215.9,393.6,221.5z"/>
<g>
	<circle class="st0" cx="146.2" cy="232.1" r="24.6"/>
	<circle class="st0" cx="283.5" cy="232.1" r="24.6"/>
</g>
<path class="st0" d="M273.1,291.8c-17.3,15.8-39.8,24.5-63.2,24.5c-26.3,0-50.7-10.6-68.7-29.9c-4.4-4.7-11.8-5-16.5-0.6
	c-4.7,4.4-5,11.8-0.6,16.5c22.1,23.7,53.3,37.3,85.7,37.3c29.3,0,57.3-10.8,78.9-30.5c4.8-4.3,5.1-11.7,0.8-16.4
	C285.2,287.8,277.8,287.4,273.1,291.8z"/>
</svg>
