<?xml version="1.0" encoding="utf-8"?>
<!-- Generator: Adobe Illustrator 25.2.0, SVG Export Plug-In . SVG Version: 6.00 Build 0)  -->
<svg version="1.1" id="Layer_1" xmlns="http://www.w3.org/2000/svg" xmlns:xlink="http://www.w3.org/1999/xlink" x="0px" y="0px"
	 viewBox="0 0 381.3 381.3" style="enable-background:new 0 0 381.3 381.3;" xml:space="preserve">
<style type="text/css">
	.st0{fill:#FFFFFF;}
</style>
<path class="st0" d="M190.6,0C85.4,0,0,85.4,0,190.6c0,49.7,19,94.9,50.1,128.8V189.7C50.1,112.1,113.2,49,190.8,49
	s140.7,63.1,140.7,140.7s-63.1,140.7-140.7,140.7c-21.9,0-39.6-17.7-39.6-39.6s17.7-39.6,39.6-39.6c33.9,0,61.4-27.6,61.4-61.4
	c0-33.9-27.6-61.4-61.4-61.4s-61.4,27.6-61.4,61.4v181.5c19.2,6.5,39.8,10.1,61.3,10.1c105.3,0,190.6-85.4,190.6-190.6
	C381.3,85.4,295.9,0,190.6,0z"/>
</svg>
