<?xml version="1.0" encoding="utf-8"?>
<!-- Generator: Adobe Illustrator 25.2.0, SVG Export Plug-In . SVG Version: 6.00 Build 0)  -->
<svg version="1.1" id="Layer_1" xmlns="http://www.w3.org/2000/svg" xmlns:xlink="http://www.w3.org/1999/xlink" x="0px" y="0px"
	 viewBox="0 0 412.4 412.4" style="enable-background:new 0 0 412.4 412.4;" xml:space="preserve">
<style type="text/css">
	.st0{fill:#FFFFFF;}
</style>
<path class="st0" d="M412.4,212.3C415.7,94.6,320.5-1.7,203.1,0C90.2,1.7-0.9,94.9,0,207.8c0.6,80.9,47.8,150.7,116.1,183.9
	c4,1.9,8.5-1.1,8.4-5.5c-0.5-13.3-0.1-27.5,2.6-38.9c2.6-11.2,12.9-54.6,19.6-83.2c3.3-13.9,3.7-28.3,1-42.3c-0.9-4.6-1.5-10-1.5-16
	c0-30.5,17.7-53.2,39.7-53.2c18.7,0,27.7,14,27.7,30.9c0,18.8-12,46.9-18.2,73c-5.2,21.8,10.9,39.6,32.5,39.6
	c39,0,68.9-41.1,68.9-100.4c0-52.5-37.7-89.2-91.6-89.2c-62.4,0-99,46.8-99,95.1c0,18.8,7.3,39,16.3,50c1.8,2.2,2.1,4.1,1.5,6.3
	c-1.7,6.9-5.4,21.8-6.1,24.9c-1,4-3.2,4.9-7.3,2.9c-27.4-12.7-44.5-52.8-44.5-84.9c0-69.1,50.2-132.6,144.8-132.6
	c76,0,135.1,54.2,135.1,126.6c0,75.5-47.6,136.3-113.7,136.3c-17.5,0-34.1-7.1-43.9-16.8c-3-3-8.1-1.6-9.2,2.5
	c-3.4,13.1-9,34.4-10.8,41.3c-3.2,12.4-10,26.9-16.9,39.5c-1.8,3.4,0,7.5,3.7,8.4c16.9,4.3,34.5,6.5,52.8,6.3
	C316.4,411.4,409.3,320.4,412.4,212.3z"/>
</svg>
