<?xml version="1.0" encoding="utf-8"?>
<!-- Generator: Adobe Illustrator 25.2.0, SVG Export Plug-In . SVG Version: 6.00 Build 0)  -->
<svg version="1.1" id="Layer_1" xmlns="http://www.w3.org/2000/svg" xmlns:xlink="http://www.w3.org/1999/xlink" x="0px" y="0px"
	 viewBox="0 0 404.4 404.4" style="enable-background:new 0 0 404.4 404.4;" xml:space="preserve">
<style type="text/css">
	.st0{fill:#FFFFFF;}
</style>
<path class="st0" d="M202.2,0c-87.8,0-159,71.2-159,159c0,104.4,129.3,245.4,159,245.4s159-137.1,159-245.4
	C361.2,71.2,290,0,202.2,0z M201.5,278C139,278,88.3,227.4,88.3,164.8c0-62.5,50.7-113.2,113.2-113.2c62.5,0,113.2,50.7,113.2,113.2
	C314.7,227.4,264,278,201.5,278z"/>
<path class="st0" d="M201.5,73.5c-2.8,0-5.6,0.1-8.3,0.4c6.7,7.8,10.8,17.9,10.8,29c0,24.5-19.9,44.4-44.4,44.4
	c-17.2,0-32.1-9.8-39.4-24c-6.4,12.5-10,26.6-10,41.5c0,50.4,40.9,91.3,91.3,91.3s91.3-40.9,91.3-91.3
	C292.8,114.4,251.9,73.5,201.5,73.5z"/>
</svg>
