<?xml version="1.0" encoding="utf-8"?>
<!-- Generator: Adobe Illustrator 25.2.0, SVG Export Plug-In . SVG Version: 6.00 Build 0)  -->
<svg version="1.1" id="Layer_1" xmlns="http://www.w3.org/2000/svg" xmlns:xlink="http://www.w3.org/1999/xlink" x="0px" y="0px"
	 viewBox="0 0 512 512" style="enable-background:new 0 0 512 512;" xml:space="preserve">
<style type="text/css">
	.st0{fill:#FFFFFF;}
</style>
<path class="st0" d="M428.9,132.3c0.9-7,1.3-14.2,1.3-21.5C430.2,49.6,380.6,0,319.4,0H134.3c-11.6,0-21.6,8.4-23.5,19.9L42.5,425.4
	c-2.4,14.5,8.8,27.8,23.5,27.8h67.7c11.6,0,21.8-8.4,23.7-19.9c0,0,0.1-0.7,0.3-1.9h0l-9.4,56.1c-2.2,12.8,7.7,24.5,20.7,24.5h59.2
	c10.3,0,19-7.4,20.7-17.5l16.8-100c2.9-17.2,17.8-29.9,35.3-29.9h15.6c84.5,0,153.1-68.5,153.1-153.1
	C469.8,178.8,453.6,149.9,428.9,132.3z"/>
<path class="st0" d="M428.9,132.3c-10.6,86.2-84,152.9-173.1,152.9h-51.7c-11.7,0-21.7,7.8-24.9,18.7l-30.9,183.5
	c-2.2,12.8,7.7,24.5,20.7,24.5h59.2c10.3,0,19-7.4,20.7-17.5l16.8-100c2.9-17.2,17.8-29.9,35.3-29.9h15.6
	c84.5,0,153.1-68.5,153.1-153.1l0,0C469.8,178.8,453.6,149.9,428.9,132.3z"/>
<path class="st0" d="M204.1,285.2h51.7c89,0,162.5-66.7,173.1-152.9c-15.9-11.3-35.3-18-56.3-18H237.7c-15.4,0-28.5,11.1-31,26.2
	l-27.5,163.4C182.4,293,192.5,285.2,204.1,285.2z"/>
</svg>
