<?xml version="1.0" encoding="utf-8"?>
<!-- Generator: Adobe Illustrator 25.2.0, SVG Export Plug-In . SVG Version: 6.00 Build 0)  -->
<svg version="1.1" id="Layer_1" xmlns="http://www.w3.org/2000/svg" xmlns:xlink="http://www.w3.org/1999/xlink" x="0px" y="0px"
	 viewBox="0 0 396 396" style="enable-background:new 0 0 396 396;" xml:space="preserve">
<style type="text/css">
	.st0{fill:#FFFFFF;}
</style>
<g>
	<circle class="st0" cx="56.1" cy="175.7" r="51"/>
	<path class="st0" d="M55.4,240C24.6,240.4,0,266.2,0,297.1v14.4c0,3.3,2.7,6,6,6h100.2c3.3,0,6-2.7,6-6v-15.3
		C112.3,264.9,86.8,239.7,55.4,240z"/>
	<circle class="st0" cx="185.3" cy="164.1" r="55.2"/>
	<path class="st0" d="M184.6,233.7c-33.4,0.4-60,28.3-60,61.7v16c0,3.3,2.7,6,6,6h109.5c3.3,0,6-2.7,6-6v-17
		C246.1,260.6,218.5,233.3,184.6,233.7z"/>
	<path class="st0" d="M326.4,205c34.9,0,63.2-28.3,63.2-63.2c0-34.9-28.3-63.2-63.2-63.2c-34.9,0-63.2,28.3-63.2,63.2
		C263.2,176.7,291.5,205,326.4,205z"/>
	<path class="st0" d="M326.4,221.5L326.4,221.5c-38.4,0-69.6,31.2-69.6,69.6v20.3c0,3.3,2.7,6,6,6H390c3.3,0,6-2.7,6-6v-20.3
		C396,252.7,364.8,221.5,326.4,221.5z"/>
</g>
</svg>
