<?xml version="1.0" encoding="utf-8"?>
<!-- Generator: Adobe Illustrator 25.2.0, SVG Export Plug-In . SVG Version: 6.00 Build 0)  -->
<svg version="1.1" id="Layer_1" xmlns="http://www.w3.org/2000/svg" xmlns:xlink="http://www.w3.org/1999/xlink" x="0px" y="0px"
	 viewBox="0 0 386.5 386.5" style="enable-background:new 0 0 386.5 386.5;" xml:space="preserve">
<style type="text/css">
	.st0{fill:#FFFFFF;}
</style>
<path class="st0" d="M291.1,146.8H140.4L80.3,51.4c-7.9-12.5-21.6-20.1-36.4-20.1H14.7C3.1,31.4-3.9,44.1,2.3,53.8l80.8,128.2
	L4.3,333.8c-5.1,9.8,2,21.4,13,21.4h25.6c16,0,30.7-8.9,38.1-23.2l61.3-117.9h154.4l-62.2,119.6c-5.1,9.8,2,21.4,13,21.4h25.6
	c16,0,30.7-8.9,38.1-23.2l72.1-138.7c4.7-9,4.2-19.7-1.2-28.3L310.5,51.4c-7.9-12.5-21.6-20.1-36.4-20.1h-29.3
	c-11.5,0-18.6,12.7-12.4,22.5L291.1,146.8z"/>
</svg>
