<?xml version="1.0" encoding="utf-8"?>
<!-- Generator: Adobe Illustrator 25.2.0, SVG Export Plug-In . SVG Version: 6.00 Build 0)  -->
<svg version="1.1" id="Layer_1" xmlns="http://www.w3.org/2000/svg" xmlns:xlink="http://www.w3.org/1999/xlink" x="0px" y="0px"
	 viewBox="0 0 422.8 422.8" style="enable-background:new 0 0 422.8 422.8;" xml:space="preserve">
<style type="text/css">
	.st0{fill:#FFFFFF;}
</style>
<path class="st0" d="M351.5,16.3C342.6,5.9,329.7,0,316.1,0H106.7C81.1,0,60.2,20.9,60.2,46.5v355c0,8.8,5.5,16.8,13.7,19.9
	c2.5,0.9,5,1.4,7.5,1.4c6,0,11.8-2.5,15.9-7.2l112.3-126.6h75.4c23,0,42.3-16.5,45.9-39.2l31-196C364.2,40.3,360.3,26.7,351.5,16.3z
	 M299.4,118.8h-99.5c-11.9,0-22,9.8-21.8,21.7c0.2,11.6,9.7,20.9,21.3,20.9h90c6.5,0,11.5,5.8,10.5,12.3l-10.1,63.9
	c-0.8,5.2-5.3,9-10.5,9l-79.2,0c-6.1,0-11.9,2.6-15.9,7.2l-81.4,91.8v-299c0-2.2,1.8-4,4-4h200.7c6.5,0,11.5,5.8,10.5,12.2l-8,54.9
	C309.2,114.9,304.7,118.8,299.4,118.8z"/>
</svg>
