<?xml version="1.0" encoding="utf-8"?>
<!-- Generator: Adobe Illustrator 25.2.0, SVG Export Plug-In . SVG Version: 6.00 Build 0)  -->
<svg version="1.1" id="Layer_1" xmlns="http://www.w3.org/2000/svg" xmlns:xlink="http://www.w3.org/1999/xlink" x="0px" y="0px"
	 viewBox="0 0 352.7 352.7" style="enable-background:new 0 0 352.7 352.7;" xml:space="preserve">
<style type="text/css">
	.st0{fill:#FFFFFF;}
</style>
<path class="st0" d="M307.2,249.6l-12,38.7c-6.4,20.6-25.5,34.7-47.1,34.7h-92.2c-13.7,0-24.8-11.1-24.8-24.8v-104h66.7
	c17.5,0,31.7,14.2,31.7,31.7v8.2c0,2.4,2,4.4,4.4,4.4h13.7c2.4,0,4.4-2,4.4-4.4V114c0-2.4-2-4.4-4.4-4.4h-13.7c-2.4,0-4.4,2-4.4,4.4
	v12.8c0,17.5-14.2,31.7-31.7,31.7h-66.7v-104c0-13.7,11.1-24.8,24.8-24.8h87.5c22.6,0,41,18.3,41,41v24.7c0,2.4,2,4.4,4.4,4.4h16
	c2.3,0,4.2-1.8,4.4-4l6.7-84.8C316.3,5,311.7,0,305.8,0h-278c-3.9,0-7,3.1-7,7v15.7c0,3.9,3.1,7,7,7h17.8
	c13.7,0,24.8,11.1,24.8,24.8v243.7c0,13.7-11.1,24.8-24.8,24.8H27.8c-3.9,0-7,3.1-7,7v15.7c0,3.9,3.1,7,7,7H308c5,0,9.3-3.7,10-8.6
	l13.8-92.5c0.4-2.7-1.7-5-4.3-5h-16.1C309.4,246.5,307.7,247.7,307.2,249.6z"/>
</svg>
