<?xml version="1.0" encoding="utf-8"?>
<!-- Generator: Adobe Illustrator 25.2.0, SVG Export Plug-In . SVG Version: 6.00 Build 0)  -->
<svg version="1.1" id="Layer_1" xmlns="http://www.w3.org/2000/svg" xmlns:xlink="http://www.w3.org/1999/xlink" x="0px" y="0px"
	 viewBox="0 0 425.3 425.3" style="enable-background:new 0 0 425.3 425.3;" xml:space="preserve">
<style type="text/css">
	.st0{fill:#FFFFFF;}
</style>
<path class="st0" d="M212.6,0C95.2,0,0,95.2,0,212.6s95.2,212.6,212.6,212.6s212.6-95.2,212.6-212.6S330.1,0,212.6,0z M384.6,197.3
	c-22.6-0.9-65.3-0.9-113.8,7.6c-4.4-10.5-8.9-20.6-13.4-30.2c2.8-1.3,5.6-2.6,8.3-4c33.3-16.8,61-38.5,82.6-64.8
	C369.1,132.2,381.7,163.8,384.6,197.3z M320,77.4c-20.1,25.7-47,46.2-80.3,61.6c-3.8-7.1-7.4-13.8-11-20.1
	c-18.4-32.3-35.9-58-49-75.8c10.8-2.1,21.8-3.1,33-3.1C252.1,40,289.5,53.2,320,77.4z M90.6,90.6c14.4-14.4,30.9-25.9,48.8-34.3
	c12.6,16.3,33.3,45.1,55,83.4c2.5,4.4,5,9,7.6,13.7c-16.7,5.2-34.6,9.3-53.7,12.4c-42.9,7-81.6,6.8-103.3,5.8
	C52.3,141.2,67.9,113.3,90.6,90.6z M40,212.6c0-0.4,0-0.8,0-1.2c7.4,0.4,16.8,0.7,27.7,0.7c23.1,0,53.2-1.4,85.9-6.7
	c23.6-3.8,45.8-9.1,66.5-16c3.7,7.8,7.3,15.8,10.9,24.2c-26.5,7.1-50.9,16.5-72.7,27.9c-35.4,18.5-64.3,42.7-86,71.8
	C51.4,284.2,40,249.3,40,212.6z M100,343.5c30.4-44.5,79.3-75.5,145.9-92.4c13.3,36.7,24.8,77.7,31.4,121.7
	c-20.3,8.2-42.1,12.5-64.6,12.5C170.8,385.3,131.3,370.5,100,343.5z M334.7,334.7c-6.4,6.4-13.2,12.2-20.3,17.4
	c-6.8-39.1-17.1-75.7-28.9-109.1c41.9-6.6,78.8-6.4,98-5.6C378.3,274.1,361.4,308,334.7,334.7z"/>
</svg>
