<?xml version="1.0" encoding="utf-8"?>
<!-- Generator: Adobe Illustrator 25.2.0, SVG Export Plug-In . SVG Version: 6.00 Build 0)  -->
<svg version="1.1" id="Layer_1" xmlns="http://www.w3.org/2000/svg" xmlns:xlink="http://www.w3.org/1999/xlink" x="0px" y="0px"
	 viewBox="0 0 350 350" style="enable-background:new 0 0 350 350;" xml:space="preserve">
<style type="text/css">
	.st0{fill:#FFFFFF;}
</style>
<g>
	<path class="st0" d="M14.1,88.8l158,76.1c1.8,0.9,4,0.9,5.8,0l158-76.1c5.1-2.4,5.1-9.6,0-12.1l-158-76.1c-1.8-0.9-4-0.9-5.8,0
		l-158,76.1C9,79.1,9,86.3,14.1,88.8z"/>
	<path class="st0" d="M14.1,181l158,76.1c1.8,0.9,4,0.9,5.8,0l158-76.1c5.1-2.4,5.1-9.6,0-12.1l-33.3-16l-105.9,51
		c-6.7,3.2-14.2,4.9-21.7,4.9s-15-1.7-21.7-5l-105.9-51l-33.3,16C9,171.4,9,178.6,14.1,181z"/>
	<path class="st0" d="M335.9,261.2l-33.3-16l-105.9,51c-6.7,3.2-14.2,4.9-21.7,4.9s-15-1.7-21.7-5l-105.9-51l-33.3,16
		c-5.1,2.4-5.1,9.6,0,12.1l158,76.1c1.8,0.9,4,0.9,5.8,0l158-76.1C341,270.9,341,263.7,335.9,261.2z"/>
</g>
</svg>
