<?xml version="1.0" encoding="utf-8"?>
<!-- Generator: Adobe Illustrator 25.2.0, SVG Export Plug-In . SVG Version: 6.00 Build 0)  -->
<svg version="1.1" id="Layer_1" xmlns="http://www.w3.org/2000/svg" xmlns:xlink="http://www.w3.org/1999/xlink" x="0px" y="0px"
	 viewBox="0 0 457.9 457.9" style="enable-background:new 0 0 457.9 457.9;" xml:space="preserve">
<style type="text/css">
	.st0{fill:#FFFFFF;}
</style>
<g>
	<path class="st0" d="M233,182c-33.7,0-62.7,20.4-75.4,49.5c-12.7-29.1-41.7-49.5-75.4-49.5c-15.7,0-30.4,4.4-42.9,12.1v-67.6
		c0-10.8-8.8-19.6-19.6-19.6S0,115.6,0,126.5v137.7c0,45.3,36.9,82.2,82.2,82.2c33.7,0,62.7-20.4,75.4-49.5
		c12.7,29.1,41.7,49.5,75.4,49.5c45.3,0,82.2-36.9,82.2-82.2C315.2,218.9,278.3,182,233,182z M82.2,307.1
		c-23.7,0-42.9-19.3-42.9-42.9c0-23.7,19.3-42.9,42.9-42.9s42.9,19.3,42.9,42.9C125.1,287.9,105.9,307.1,82.2,307.1z M233,307.1
		c-23.7,0-42.9-19.3-42.9-42.9c0-23.7,19.3-42.9,42.9-42.9s42.9,19.3,42.9,42.9C275.9,287.9,256.7,307.1,233,307.1z"/>
	<path class="st0" d="M404.9,263.4l48.2-55.1c7.1-8.2,6.3-20.6-1.9-27.7s-20.6-6.3-27.7,1.9l-44.7,51.1l-44.7-51.1
		c-7.1-8.2-19.5-9-27.7-1.9c-8.2,7.1-9,19.6-1.9,27.7l48.2,55.1l-48.2,55.1c-7.1,8.2-6.3,20.6,1.9,27.7c3.7,3.3,8.3,4.9,12.9,4.9
		c5.5,0,10.9-2.3,14.8-6.7l44.7-51.1l44.7,51.1c3.9,4.4,9.3,6.7,14.8,6.7c4.6,0,9.2-1.6,12.9-4.9c8.2-7.1,9-19.6,1.9-27.7
		L404.9,263.4z"/>
</g>
</svg>
