<?xml version="1.0" encoding="utf-8"?>
<!-- Generator: Adobe Illustrator 25.2.0, SVG Export Plug-In . SVG Version: 6.00 Build 0)  -->
<svg version="1.1" id="Layer_1" xmlns="http://www.w3.org/2000/svg" xmlns:xlink="http://www.w3.org/1999/xlink" x="0px" y="0px"
	 viewBox="0 0 458.4 458.4" style="enable-background:new 0 0 458.4 458.4;" xml:space="preserve">
<style type="text/css">
	.st0{fill:#FFFFFF;}
</style>
<g>
	<path class="st0" d="M194,206.6c7.9-12.4,12.5-27.1,12.2-42.9c-0.7-42.3-35.9-75.9-78.2-75.9H10c-5.5,0-10,4.5-10,10v259.6
		c0,5.5,4.5,10,10,10h131.9c48.9,0,89.5-39.2,89.7-88.2C231.7,249.3,216.8,222.8,194,206.6z M51.8,139.7h77.3
		c14,0,25.4,11.4,25.4,25.4c0,14-11.4,25.4-25.4,25.4H51.8V139.7z M143,315.7H51.8v-73.5h77.3h14c20.3,0,36.7,16.5,36.7,36.7
		C179.8,299.2,163.3,315.7,143,315.7z"/>
	<path class="st0" d="M458.4,260.9c0-60.4-47.6-109.6-106.2-109.6S246,200.5,246,260.9s47.6,109.6,106.2,109.6
		c35.5,0,68.6-18.2,88.3-48.7c2.5-3.8,4.7-7.8,6.7-11.9c1.4-3-0.7-6.4-4.1-6.4l-52.2-0.1c-1.2,0-2.2,0.5-3.1,1.3
		c-9.9,9.6-21.9,14.1-35.7,14.1c-25.9,0-47.7-19.4-53.1-45.3H448c5.7,0,10.4-4.7,10.4-10.4V260.9z M352.2,203.1
		c19,0,35.8,10.4,45.5,26.1h-91C316.5,213.5,333.2,203.1,352.2,203.1z"/>
	<path class="st0" d="M396.4,138.4h-94.2c-4.4,0-8-3.6-8-8v-23.6c0-4.4,3.6-8,8-8h94.2c4.4,0,8,3.6,8,8v23.6
		C404.3,134.9,400.8,138.4,396.4,138.4z"/>
</g>
</svg>
