<?xml version="1.0" encoding="utf-8"?>
<!-- Generator: Adobe Illustrator 25.2.3, SVG Export Plug-In . SVG Version: 6.00 Build 0)  -->
<svg version="1.1" id="Layer_1" xmlns="http://www.w3.org/2000/svg" xmlns:xlink="http://www.w3.org/1999/xlink" x="0px" y="0px"
	 viewBox="0 0 461 461" style="enable-background:new 0 0 461 461;" xml:space="preserve">
<style type="text/css">
	.st0{fill:#FFFFFF;}
</style>
<path class="st0" d="M384.2,67.4H76.8c-25.9,0-47,21.1-47,47v38.8l172.7,128.4c8.4,6.2,18.2,9.4,28.1,9.4c9.8,0,19.7-3.1,28.1-9.4
	l172.7-128.4v-38.8C431.2,88.5,410.1,67.4,384.2,67.4z M399.9,137.5l-160,119c-5.6,4.2-13.1,4.2-18.7,0l-160-119v-23.1
	c0-8.6,7-15.7,15.7-15.7h307.4c8.6,0,15.7,7,15.7,15.7V137.5z M399.9,215.7l31.4-23.3v154.2c0,25.9-21.1,47-47,47H76.8
	c-25.9,0-47-21.1-47-47V192.3l31.4,23.3v130.9c0,8.6,7,15.7,15.7,15.7h307.4c8.6,0,15.7-7,15.7-15.7V215.7z"/>
</svg>
