<svg id="Capa_1" enable-background="new 0 0 512 512" height="512" viewBox="0 0 512 512" width="512" xmlns="http://www.w3.org/2000/svg" xmlns:xlink="http://www.w3.org/1999/xlink"><linearGradient id="SVGID_1_" gradientUnits="userSpaceOnUse" x1="63.731" x2="463.845" y1="374.126" y2="143.12"><stop offset="0" stop-color="#d2deff" stop-opacity="0"/><stop offset="1" stop-color="#b7c5ff"/></linearGradient><g><path d="m20.337 130.334c-23.967 39.398-26.493 107.613-8.937 150.256 15.377 37.351 45.966 72.41 86.12 76.801 14.766 1.615 29.858-1.024 44.472 1.638 50.257 9.152 68.952 71.09 108.01 104.014 27.182 22.913 64.898 31.021 100.174 26.607s68.302-20.363 97.376-40.824c22.957-16.157 44.436-36.022 55.764-61.707 23.744-53.839-4.19-118.501-47.587-158.239-13.517-12.377-28.582-23.294-39.875-37.727-11.293-14.434-18.48-33.695-13.099-51.214 4.293-13.977 15.849-24.812 20.227-38.763 5.958-18.984-3.035-40.28-17.802-53.616-14.767-13.335-34.308-20.039-53.666-24.64-81.103-19.281-258.823-11.525-331.177 107.414z" fill="url(#SVGID_1_)"/><g><g><g><path d="m350.232 497.161h-188.464c-16.568 0-30-13.432-30-30v-380.678c0-16.569 13.432-30 30-30h188.464c16.569 0 30 13.431 30 30v380.678c0 16.568-13.431 30-30 30z" fill="#2626bc" opacity=".1"/><path d="m350.232 473.161h-188.464c-16.568 0-30-13.432-30-30v-380.678c0-16.569 13.432-30 30-30h188.464c16.569 0 30 13.431 30 30v380.678c0 16.568-13.431 30-30 30z" fill="#6583fe"/><path d="m131.77 75.392h248.46v354.86h-248.46z" fill="#fff"/><path d="m131.77 75.392h248.46v139.05h-248.46z" fill="#fff"/><g fill="#6583fe"><path d="m192.498 171.081h-55.732c-2.761 0-5-2.239-5-5v-40.451c0-2.761 2.239-5 5-5h55.732c2.762 0 5 2.239 5 5v40.452c0 2.761-2.239 4.999-5 4.999z"/><path d="m375.232 171.081h-55.732c-2.762 0-5-2.239-5-5v-40.451c0-2.761 2.238-5 5-5h55.732c2.761 0 5 2.239 5 5v40.452c0 2.761-2.238 4.999-5 4.999z"/></g><path d="m350.232 478.161h-188.464c-19.299 0-35-15.701-35-35v-380.678c0-19.299 15.701-35 35-35h188.464c19.299 0 35 15.701 35 35v380.678c0 19.299-15.701 35-35 35zm-188.464-440.678c-13.785 0-25 11.215-25 25v380.678c0 13.785 11.215 25 25 25h188.464c13.785 0 25-11.215 25-25v-380.678c0-13.785-11.215-25-25-25z" fill="#2626bc"/><g><path d="m273.483 59.853h-34.966c-2.761 0-5-2.239-5-5s2.239-5 5-5h34.966c2.761 0 5 2.239 5 5s-2.239 5-5 5z" fill="#2626bc"/></g><circle cx="296.813" cy="54.851" fill="#2626bc" r="5.002"/></g><path d="m327.648 408.719h-143.296c-11.046 0-20-8.954-20-20v-132.315c0-11.046 8.954-20 20-20h143.295c11.046 0 20 8.954 20 20v132.314c.001 11.046-8.954 20.001-19.999 20.001z" fill="#6583fe"/><g><path d="m375.232 219.442h-243.462c-2.761 0-5-2.239-5-5s2.239-5 5-5h243.462c2.762 0 5 2.239 5 5s-2.238 5-5 5z" fill="#2626bc"/></g><g><circle cx="256" cy="235.993" fill="#fff" r="33.651"/><g><path d="m256 274.645c-21.313 0-38.651-17.339-38.651-38.651s17.339-38.651 38.651-38.651 38.651 17.339 38.651 38.651-17.339 38.651-38.651 38.651zm0-67.303c-15.798 0-28.651 12.852-28.651 28.651 0 15.798 12.853 28.651 28.651 28.651 15.799 0 28.651-12.853 28.651-28.651s-12.852-28.651-28.651-28.651z" fill="#2626bc"/></g><path d="m272.617 237.131c0-9.16-7.46-16.61-16.62-16.61s-16.61 7.45-16.61 16.61c0 4.52 1.82 8.62 4.75 11.62-2.93 2.99-4.75 7.09-4.75 11.61v4.9c3.07 1.74 6.43 3.02 10 3.73v-8.63c0-3.65 2.97-6.61 6.61-6.61 3.65 0 6.62 2.96 6.62 6.61v8.63c3.57-.71 6.93-1.99 10-3.73v-4.9c0-4.52-1.82-8.62-4.76-11.61 2.94-3 4.76-7.1 4.76-11.62zm-16.62 6.62c-3.64 0-6.61-2.97-6.61-6.62 0-3.64 2.97-6.61 6.61-6.61 3.65 0 6.62 2.97 6.62 6.61 0 3.65-2.97 6.62-6.62 6.62z" fill="#2626bc"/></g><g fill="#2626bc"><path d="m203.34 292.289h-11.68c-2.761 0-5 2.239-5 5s2.239 5 5 5h11.681c2.761 0 5-2.239 5-5-.001-2.761-2.239-5-5.001-5z"/><path d="m320.34 312.561h-128.68c-2.761 0-5 2.239-5 5s2.239 5 5 5h128.68c2.761 0 5-2.239 5-5s-2.238-5-5-5z"/></g><g fill="#2626bc"><path d="m218.34 345.206h-26.68c-2.761 0-5 2.239-5 5s2.239 5 5 5h26.681c2.761 0 5-2.239 5-5-.001-2.762-2.239-5-5.001-5z"/><path d="m320.34 365.478h-128.68c-2.761 0-5 2.239-5 5s2.239 5 5 5h128.68c2.761 0 5-2.239 5-5s-2.238-5-5-5z"/></g><path d="m292.865 120.63h-73.732c-2.761 0-5 2.239-5 5v40.452c0 2.761 2.239 5 5 5h13.646c4.495 0 8.71 2.417 10.771 6.411 2.326 4.507 7.028 7.589 12.449 7.589 5.422 0 10.124-3.082 12.449-7.589 2.061-3.994 6.276-6.411 10.771-6.411h13.646c2.762 0 5-2.239 5-5v-40.452c0-2.762-2.239-5-5-5z" fill="#6583fe"/><path d="m352.644 93.874h-20.681c-2.761 0-5 2.239-5 5s2.239 5 5 5h20.681c2.761 0 5-2.239 5-5s-2.239-5-5-5z" fill="#2626bc"/></g><g fill="#6583fe"><path d="m73.919 408.101c-7.88 0-14.292-6.411-14.292-14.292s6.411-14.292 14.292-14.292c7.88 0 14.291 6.411 14.291 14.292s-6.411 14.292-14.291 14.292zm0-18.583c-2.366 0-4.292 1.925-4.292 4.292 0 2.366 1.925 4.292 4.292 4.292 2.366 0 4.291-1.925 4.291-4.292s-1.925-4.292-4.291-4.292z"/><path d="m439.79 174.963c-2.762 0-5-2.239-5-5 0-3.309-2.691-6-6-6-2.762 0-5-2.239-5-5s2.238-5 5-5c3.309 0 6-2.691 6-6 0-2.761 2.238-5 5-5s5 2.239 5 5c0 3.309 2.691 6 6 6 2.762 0 5 2.239 5 5s-2.238 5-5 5c-3.309 0-6 2.691-6 6 0 2.761-2.238 5-5 5z"/><path d="m425.79 221.679c-2.762 0-5-2.239-5-5 0-3.309-2.691-6-6-6-2.762 0-5-2.239-5-5s2.238-5 5-5c3.309 0 6-2.692 6-6.001 0-2.761 2.238-5 5-5s5 2.239 5 5c0 3.309 2.691 6.001 6 6.001 2.762 0 5 2.239 5 5s-2.238 5-5 5c-3.309 0-6 2.691-6 6 0 2.761-2.238 5-5 5z"/><path d="m58.627 327.557c-2.761 0-5-2.239-5-5 0-3.309-2.691-6-6-6-2.761 0-5-2.239-5-5s2.239-5 5-5c3.309 0 6-2.691 6-6 0-2.761 2.239-5 5-5s5 2.239 5 5c0 3.309 2.691 6 6 6 2.761 0 5 2.239 5 5s-2.239 5-5 5c-3.309 0-6 2.691-6 6 0 2.761-2.238 5-5 5z"/><path d="m88.523 357.206c-2.761 0-5-2.239-5-5 0-3.309-2.691-6-6-6-2.761 0-5-2.239-5-5s2.239-5 5-5c3.309 0 6-2.691 6-6 0-2.761 2.239-5 5-5s5 2.239 5 5c0 3.309 2.691 6 6 6 2.761 0 5 2.239 5 5s-2.239 5-5 5c-3.309 0-6 2.691-6 6 0 2.761-2.239 5-5 5z"/></g></g></g></svg>