<svg id="Capa_1" enable-background="new 0 0 512 512" height="512" viewBox="0 0 512 512" width="512" xmlns="http://www.w3.org/2000/svg" xmlns:xlink="http://www.w3.org/1999/xlink"><linearGradient id="SVGID_1_" gradientUnits="userSpaceOnUse" x1="23.821" x2="459.531" y1="336.331" y2="84.774"><stop offset="0" stop-color="#d2deff" stop-opacity="0"/><stop offset="1" stop-color="#b7c5ff"/></linearGradient><g><path d="m16.074 295.943c18.727 64.003 72.707 194.564 163.922 182.845 91.486-11.755 55.758-129.725 139.508-145.894 36.867-7.118 61.857 56.689 98.806 54.704 47.588-2.557 71.81-49.663 85.108-89.264 28.197-83.968-14.029-226.352-112.859-251.012-86.245-21.519-96.332 83.855-171.322 53.248-42.149-17.203-37.938-68.576-89.272-78.942-155.298-31.359-138.81 189.15-113.891 274.315z" fill="url(#SVGID_1_)"/><g><g><g><path d="m350.232 493.402h-188.464c-16.568 0-30-13.431-30-30v-380.679c0-16.568 13.432-30 30-30h188.464c16.569 0 30 13.431 30 30v380.678c0 16.569-13.431 30.001-30 30.001z" fill="#2626bc" opacity=".1"/><path d="m350.232 469.402h-188.464c-16.568 0-30-13.431-30-30v-380.679c0-16.569 13.432-30 30-30h188.464c16.569 0 30 13.431 30 30v380.678c0 16.569-13.431 30.001-30 30.001z" fill="#6583fe"/><path d="m131.77 71.633h248.46v354.86h-248.46z" fill="#fff"/><g><path d="m131.77 71.633h248.46v118.287h-248.46z" fill="#fff"/><path d="m131.77 189.919h248.46v118.287h-248.46z" fill="#6583fe"/></g><path d="m350.232 474.401h-188.464c-19.299 0-35-15.701-35-35v-380.677c0-19.299 15.701-35 35-35h188.465c19.299 0 35 15.701 35 35v380.678c-.001 19.298-15.702 34.999-35.001 34.999zm-188.464-440.677c-13.785 0-25 11.215-25 25v380.678c0 13.785 11.215 25 25 25h188.465c13.785 0 25-11.215 25-25v-380.678c0-13.785-11.215-25-25-25z" fill="#2626bc"/><g><path d="m273.483 56.094h-34.966c-2.761 0-5-2.239-5-5s2.239-5 5-5h34.966c2.761 0 5 2.239 5 5s-2.239 5-5 5z" fill="#2626bc"/></g><path d="m301.815 51.092c0 2.762-2.239 5.002-5.002 5.002-2.762 0-5.002-2.239-5.002-5.002s2.239-5.002 5.002-5.002 5.002 2.24 5.002 5.002z" fill="#2626bc"/></g><g><path d="m200.805 124.969c0-9.16-7.453-16.613-16.613-16.613-9.161 0-16.613 7.453-16.613 16.613 0 4.518 1.818 8.615 4.755 11.613-2.936 2.998-4.755 7.095-4.755 11.613 0 2.761 2.239 5 5 5s5-2.239 5-5c0-3.646 2.967-6.613 6.613-6.613s6.613 2.967 6.613 6.613c0 2.761 2.239 5 5 5s5-2.239 5-5c0-4.518-1.818-8.615-4.755-11.613 2.937-2.998 4.755-7.095 4.755-11.613zm-16.613-6.613c3.646 0 6.613 2.966 6.613 6.613 0 3.646-2.967 6.613-6.613 6.613s-6.613-2.967-6.613-6.613c-.001-3.647 2.966-6.613 6.613-6.613z" fill="#2626bc"/></g><g><g fill="#2626bc"><path d="m278.465 95.367h-47.681c-2.761 0-5 2.239-5 5s2.239 5 5 5h47.681c2.761 0 5-2.239 5-5s-2.239-5-5-5z"/><path d="m329.465 115.64h-98.681c-2.761 0-5 2.239-5 5s2.239 5 5 5h98.681c2.761 0 5-2.239 5-5 0-2.762-2.239-5-5-5z"/></g><g><path d="m344.465 135.912h-113.681c-2.761 0-5 2.239-5 5s2.239 5 5 5h113.681c2.761 0 5-2.239 5-5s-2.239-5-5-5z" fill="#2626bc"/></g><g><path d="m344.465 156.184h-113.681c-2.761 0-5 2.239-5 5s2.239 5 5 5h113.681c2.761 0 5-2.239 5-5s-2.239-5-5-5z" fill="#2626bc"/></g></g><g><path d="m200.805 243.256c0-9.16-7.453-16.613-16.613-16.613-9.161 0-16.613 7.453-16.613 16.613 0 4.518 1.818 8.615 4.755 11.613-2.936 2.998-4.755 7.095-4.755 11.613 0 2.761 2.239 5 5 5s5-2.239 5-5c0-3.647 2.967-6.613 6.613-6.613s6.613 2.967 6.613 6.613c0 2.761 2.239 5 5 5s5-2.239 5-5c0-4.518-1.818-8.615-4.755-11.613 2.937-2.998 4.755-7.095 4.755-11.613zm-16.613-6.613c3.646 0 6.613 2.966 6.613 6.613s-2.967 6.613-6.613 6.613-6.613-2.967-6.613-6.613 2.966-6.613 6.613-6.613z" fill="#2626bc"/></g><g><g fill="#2626bc"><path d="m278.465 213.654h-47.681c-2.761 0-5 2.239-5 5s2.239 5 5 5h47.681c2.761 0 5-2.239 5-5s-2.239-5-5-5z"/><path d="m344.465 233.926h-113.681c-2.761 0-5 2.239-5 5s2.239 5 5 5h113.681c2.761 0 5-2.239 5-5s-2.239-5-5-5z"/></g><g><path d="m344.465 254.199h-113.681c-2.761 0-5 2.239-5 5s2.239 5 5 5h113.681c2.761 0 5-2.239 5-5 0-2.762-2.239-5-5-5z" fill="#2626bc"/></g><g><path d="m344.465 274.471h-113.681c-2.761 0-5 2.239-5 5s2.239 5 5 5h113.681c2.761 0 5-2.239 5-5s-2.239-5-5-5z" fill="#2626bc"/></g></g><g><path d="m200.805 361.542c0-9.16-7.453-16.613-16.613-16.613-9.161 0-16.613 7.453-16.613 16.613 0 4.518 1.818 8.615 4.755 11.613-2.936 2.998-4.755 7.095-4.755 11.613 0 2.761 2.239 5 5 5s5-2.239 5-5c0-3.647 2.967-6.613 6.613-6.613s6.613 2.967 6.613 6.613c0 2.761 2.239 5 5 5s5-2.239 5-5c0-4.518-1.818-8.615-4.755-11.613 2.937-2.997 4.755-7.095 4.755-11.613zm-16.613-6.613c3.646 0 6.613 2.966 6.613 6.613 0 3.646-2.967 6.613-6.613 6.613s-6.613-2.967-6.613-6.613c-.001-3.646 2.966-6.613 6.613-6.613z" fill="#2626bc"/></g><g><g fill="#2626bc"><path d="m278.465 331.941h-47.681c-2.761 0-5 2.239-5 5s2.239 5 5 5h47.681c2.761 0 5-2.239 5-5 0-2.762-2.239-5-5-5z"/><path d="m278.465 352.213h-47.681c-2.761 0-5 2.239-5 5s2.239 5 5 5h47.681c2.761 0 5-2.239 5-5s-2.239-5-5-5z"/></g><g><path d="m344.465 372.485h-113.681c-2.761 0-5 2.239-5 5s2.239 5 5 5h113.681c2.761 0 5-2.239 5-5s-2.239-5-5-5z" fill="#2626bc"/></g><g><path d="m344.465 392.758h-113.681c-2.761 0-5 2.239-5 5s2.239 5 5 5h113.681c2.761 0 5-2.239 5-5 0-2.762-2.239-5-5-5z" fill="#2626bc"/></g></g><g><path d="m305.487 357.895 10.54-21.535c1.626-3.322-.792-7.198-4.491-7.198-1.909 0-3.652 1.087-4.491 2.802l-10.54 21.535c-1.626 3.322.792 7.198 4.491 7.198 1.909 0 3.652-1.087 4.491-2.802z" fill="#2626bc"/></g></g><g fill="#6583fe"><path d="m95.115 273.49c-7.88 0-14.291-6.411-14.291-14.292 0-7.88 6.411-14.292 14.291-14.292 7.881 0 14.292 6.411 14.292 14.292s-6.411 14.292-14.292 14.292zm0-18.583c-2.366 0-4.291 1.925-4.291 4.292 0 2.366 1.925 4.292 4.291 4.292s4.292-1.925 4.292-4.292-1.926-4.292-4.292-4.292z"/><path d="m421.123 67.015c-7.88 0-14.291-6.411-14.291-14.292 0-7.88 6.411-14.292 14.291-14.292 7.881 0 14.292 6.411 14.292 14.292s-6.411 14.292-14.292 14.292zm0-18.583c-2.366 0-4.291 1.925-4.291 4.292s1.925 4.292 4.291 4.292 4.292-1.925 4.292-4.292-1.926-4.292-4.292-4.292z"/><path d="m430.415 445.493c-2.762 0-5-2.239-5-5 0-3.309-2.691-6-6-6-2.762 0-5-2.239-5-5s2.238-5 5-5c3.309 0 6-2.692 6-6 0-2.761 2.238-5 5-5s5 2.239 5 5c0 3.309 2.691 6 6 6 2.762 0 5 2.239 5 5s-2.238 5-5 5c-3.309 0-6 2.691-6 6 0 2.761-2.238 5-5 5z"/><path d="m421.123 402.643c-2.762 0-5-2.239-5-5 0-3.309-2.691-6-6-6-2.762 0-5-2.239-5-5s2.238-5 5-5c3.309 0 6-2.691 6-6 0-2.761 2.238-5 5-5s5 2.239 5 5c0 3.309 2.691 6 6 6 2.762 0 5 2.239 5 5s-2.238 5-5 5c-3.309 0-6 2.691-6 6 0 2.761-2.238 5-5 5z"/><path d="m84.115 223.654c-2.762 0-5-2.239-5-5 0-3.309-2.691-6-6-6-2.762 0-5-2.239-5-5s2.238-5 5-5c3.309 0 6-2.692 6-6.001 0-2.761 2.238-5 5-5s5 2.239 5 5c0 3.309 2.691 6.001 6 6.001 2.762 0 5 2.239 5 5s-2.238 5-5 5c-3.309 0-6 2.691-6 6 0 2.761-2.238 5-5 5z"/></g></g></g></svg>