<svg id="Capa_1" enable-background="new 0 0 507.259 507.259" height="512" viewBox="0 0 507.259 507.259" width="512" xmlns="http://www.w3.org/2000/svg" xmlns:xlink="http://www.w3.org/1999/xlink"><linearGradient id="SVGID_1_" gradientUnits="userSpaceOnUse" x1="86.347" x2="440.444" y1="449.322" y2="27.325"><stop offset="0" stop-color="#d2deff" stop-opacity="0"/><stop offset="1" stop-color="#b7c5ff"/></linearGradient><g><path d="m.156 312.388c-7.914 179.092 288.253 168.164 420.803 136.265 82.467-19.846 87.596-59.472 86.106-144.001-.96-54.486 3.443-198.725-32.004-244.123-54.448-69.733-103.228-25.998-170.656-3.235-86.488 29.197-120.189-22.932-202.476-21.38-120.641 2.278-97.815 186.887-101.773 276.474z" fill="url(#SVGID_1_)"/><g><g><g><path d="m345.491 488.469h-188.464c-16.568 0-30-13.431-30-30v-380.679c0-16.569 13.432-30 30-30h188.464c16.568 0 30 13.431 30 30v380.678c0 16.569-13.431 30.001-30 30.001z" fill="#2626bc" opacity=".1"/><path d="m345.491 464.469h-188.464c-16.568 0-30-13.431-30-30v-380.679c0-16.569 13.432-30 30-30h188.464c16.568 0 30 13.432 30 30v380.678c0 16.569-13.431 30.001-30 30.001z" fill="#6583fe"/><path d="m127.029 66.699h248.46v354.86h-248.46z" fill="#fff"/><path d="m375.489 101.819v53.42c-83.84 14.05-112.08 84.9-168.9 60.55-34.04-14.59-61.51-10.46-79.56-3.58v-90.78c27.05-16.05 62.23-25.98 101.75-10.43 57.9 22.79 113.99 5.85 146.71-9.18z" fill="#6583fe"/><path d="m205.399 164.419c-1.3-2.16-4.01-3.02-6.31-1.99-8.57 3.81-15.1 11.12-17.91 20.03-.65 2.04-1.07 4.13-1.31 6.22-2.32-2.14-4.75-4.14-7.3-5.96-2.24-1.61-5.36-1.09-6.97 1.16-1.61 2.24-1.09 5.37 1.16 6.97 3.84 2.75 7.39 5.93 10.67 9.52-1.39-.18-2.8-.28-4.21-.28-.96 0-1.92.05-2.89.13-5.86.53-11.4 2.63-16.1 5.99 12.54-.91 27.1.48 43.33 6.09.14.05.29.1.43.15-.75-1.4-1.52-2.76-2.31-4.1 6.07-4.1 10.65-10.15 12.89-17.24 2.82-8.93 1.67-18.66-3.17-26.69zm-6.36 23.68c-1.46 4.62-4.35 8.61-8.19 11.44-1.52-4.53-1.59-9.45-.14-14.07 1.46-4.61 4.35-8.6 8.19-11.43 1.52 4.52 1.59 9.44.14 14.06z" fill="#2626bc"/><path d="m345.491 469.468h-188.464c-19.299 0-35-15.701-35-35v-380.677c0-19.299 15.701-35 35-35h188.464c19.299 0 35 15.701 35 35v380.678c0 19.298-15.701 34.999-35 34.999zm-188.464-440.677c-13.785 0-25 11.215-25 25v380.678c0 13.785 11.215 25 25 25h188.464c13.785 0 25-11.215 25-25v-380.678c0-13.785-11.215-25-25-25z" fill="#2626bc"/><g><path d="m268.742 51.161h-34.966c-2.761 0-5-2.239-5-5s2.239-5 5-5h34.966c2.761 0 5 2.239 5 5s-2.239 5-5 5z" fill="#2626bc"/></g><path d="m297.074 46.159c0 2.762-2.239 5.002-5.002 5.002-2.762 0-5.002-2.239-5.002-5.002 0-2.762 2.239-5.002 5.002-5.002s5.002 2.24 5.002 5.002z" fill="#2626bc"/></g><path d="m309.602 387.213h-116.686c-2.761 0-5-2.239-5-5v-14.431c0-2.761 2.239-5 5-5h116.687c2.761 0 5 2.239 5 5v14.431c-.001 2.762-2.239 5-5.001 5z" fill="#6583fe"/><path d="m299.549 122.279c-1.26-5.38-3.74-9.92-7.44-13.62-4.03-4.03-9.07-6.89-15.12-8.57-13.14-3.65-27.17-3.57-40.48-.85-11.04 2.25-23.27 6.41-29.98 16.1-8.57 12.38-.7 31.39 15 31.39 19.49 0 27.15-25.12 10.33-35.54 4.58-1.84 13.29-4.37 21.93-1.67 6.72 2.11 11.33 8.38 11.35 15.43v19.76c0 4.54-2.14 8.11-6.43 10.72-17.72 10.77-42.56 11.59-56.22 28.74-6.13 7.7-7.58 18.66-4.93 28.13 2.96 1.02 5.97 2.18 9.03 3.49 35.95 15.41 60.46-7.3 94.85-29.61v-41.97c0-9.24-.63-16.55-1.89-21.93zm-34.41 75.04c-4.88 6.89-9.21 10.87-16.39 12.4-5.13 1.09-16.38-.71-16.38-12.82 0-11.64 13.36-17.15 19.91-21.35 6.56-4.03 10.84-7.73 12.86-11.09z" fill="#fff"/><path d="m299.549 122.279c-1.26-5.38-3.74-9.92-7.44-13.62-4.03-4.03-9.07-6.89-15.12-8.57-13.14-3.65-27.17-3.57-40.48-.85-11.04 2.25-23.27 6.41-29.98 16.1-8.57 12.38-.7 31.39 15 31.39 19.49 0 27.15-25.12 10.33-35.54 4.58-1.84 13.29-4.37 21.93-1.67 6.72 2.11 11.33 8.38 11.35 15.43v19.76c0 4.54-2.14 8.11-6.43 10.72-17.72 10.77-42.56 11.59-56.22 28.74-6.13 7.7-7.58 18.66-4.93 28.13 2.96 1.02 5.97 2.18 9.03 3.49 35.95 15.41 60.46-7.3 94.85-29.61v-41.97c0-9.24-.63-16.55-1.89-21.93zm-53.578 92.71c-4.072 0-8.802-1.183-12.45-4.138-2.807-2.272-6.152-6.538-6.152-13.952 0-12.672 11.339-19.221 18.843-23.554 1.246-.719 2.423-1.399 3.368-2.005 7.338-4.509 10.173-7.626 11.274-9.457l9.285-15.444v52.471l-.92 1.298c-5.137 7.254-10.407 12.479-19.428 14.4-1.154.247-2.45.381-3.82.381zm14.168-38.663c-1.574 1.143-3.32 2.302-5.243 3.483-1.06.681-2.334 1.416-3.684 2.196-7.574 4.374-13.844 8.514-13.844 14.894 0 2.827.8 4.848 2.445 6.181 2.441 1.977 6.138 2.121 7.896 1.749 4.919-1.048 8.183-3.405 12.429-9.129v-19.374z" fill="none"/><g fill="#2626bc"><path d="m344.839 144.849c-.97-.08-1.93-.13-2.89-.13-1.41 0-2.82.1-4.21.28 3.28-3.59 6.83-6.77 10.67-9.52 2.25-1.6 2.77-4.73 1.16-6.97-1.61-2.25-4.73-2.77-6.97-1.16-2.55 1.82-4.98 3.82-7.3 5.96-.24-2.09-.66-4.18-1.31-6.22-2.81-8.91-9.34-16.22-17.91-20.03-2.3-1.03-5.01-.17-6.31 1.99-4.84 8.03-5.99 17.76-3.17 26.69 2.24 7.09 6.82 13.14 12.89 17.24-5.1 8.57-9.23 18.44-12.35 29.57 4.17-2.6 8.49-5.16 12.99-7.63 1.18-3.19 2.48-6.24 3.87-9.15 1.85 1.58 3.87 2.94 6.02 4.07 4.65-2.25 9.5-4.35 14.58-6.26-.48-.01-.96-.04-1.44-.08-4.82-.43-9.34-2.4-12.92-5.54 4.09-2.45 8.89-3.58 13.7-3.15 2.41.21 4.75.81 6.93 1.75 1.87.81 3.63 1.87 5.23 3.15 3.62-1.07 7.35-2.04 11.2-2.88-5.56-6.85-13.66-11.19-22.46-11.98zm-20.52-.68c-3.84-2.83-6.73-6.82-8.19-11.44-1.45-4.62-1.38-9.54.14-14.06 3.84 2.83 6.73 6.82 8.19 11.43 1.45 4.62 1.38 9.54-.14 14.07z"/><g><path d="m323.099 284.419h-143.68c-2.761 0-5 2.239-5 5s2.239 5 5 5h143.681c2.761 0 5-2.239 5-5-.001-2.761-2.239-5-5.001-5z"/><path d="m294.599 250.35h-86.681c-2.761 0-5 2.239-5 5s2.239 5 5 5h86.681c2.761 0 5-2.239 5-5s-2.238-5-5-5z"/><g><path d="m323.099 323.274h-143.68c-2.761 0-5 2.239-5 5s2.239 5 5 5h143.681c2.761 0 5-2.239 5-5s-2.239-5-5.001-5z"/><path d="m323.099 303.846h-143.68c-2.761 0-5 2.239-5 5s2.239 5 5 5h143.681c2.761 0 5-2.239 5-5-.001-2.761-2.239-5-5.001-5z"/></g></g></g></g><g fill="#6583fe"><path d="m429.492 169.879c-7.88 0-14.292-6.411-14.292-14.292 0-7.88 6.411-14.291 14.292-14.291 7.88 0 14.291 6.411 14.291 14.291.001 7.881-6.411 14.292-14.291 14.292zm0-18.583c-2.366 0-4.292 1.925-4.292 4.291s1.925 4.292 4.292 4.292c2.366 0 4.291-1.925 4.291-4.292.001-2.366-1.925-4.291-4.291-4.291z"/><path d="m410.909 473.017c-7.88 0-14.292-6.411-14.292-14.292s6.411-14.292 14.292-14.292 14.292 6.411 14.292 14.292-6.412 14.292-14.292 14.292zm0-18.583c-2.366 0-4.292 1.925-4.292 4.292 0 2.366 1.925 4.292 4.292 4.292 2.366 0 4.292-1.925 4.292-4.292s-1.926-4.292-4.292-4.292z"/><path d="m420.201 213.831c-7.88 0-14.292-6.411-14.292-14.292 0-7.88 6.411-14.292 14.292-14.292s14.292 6.411 14.292 14.292c-.001 7.881-6.412 14.292-14.292 14.292zm0-18.583c-2.366 0-4.292 1.925-4.292 4.292 0 2.366 1.925 4.292 4.292 4.292 2.366 0 4.292-1.925 4.292-4.292-.001-2.367-1.926-4.292-4.292-4.292z"/><path d="m76.82 297.206c-2.761 0-5-2.239-5-5 0-3.309-2.692-6-6-6-2.761 0-5-2.239-5-5s2.239-5 5-5c3.309 0 6-2.691 6-6 0-2.761 2.239-5 5-5s5 2.239 5 5c0 3.309 2.692 6 6 6 2.761 0 5 2.239 5 5s-2.239 5-5 5c-3.308 0-6 2.691-6 6 0 2.761-2.239 5-5 5z"/><path d="m94.528 247.494c-2.761 0-5-2.239-5-5 0-3.309-2.691-6-6-6-2.761 0-5-2.239-5-5s2.239-5 5-5c3.309 0 6-2.691 6-6 0-2.761 2.239-5 5-5s5 2.239 5 5c0 3.309 2.691 6 6 6 2.761 0 5 2.239 5 5s-2.239 5-5 5c-3.309 0-6 2.691-6 6 0 2.761-2.239 5-5 5z"/></g></g></g></svg>