<svg id="Capa_1" enable-background="new 0 0 512 512" height="512" viewBox="0 0 512 512" width="512" xmlns="http://www.w3.org/2000/svg" xmlns:xlink="http://www.w3.org/1999/xlink"><linearGradient id="SVGID_1_" gradientUnits="userSpaceOnUse" x1="0" x2="512" y1="246.5" y2="246.5"><stop offset="0" stop-color="#d2deff" stop-opacity="0"/><stop offset="1" stop-color="#b7c5ff"/></linearGradient><g><path d="m4.896 314.759c17.448 172.871 292.417 167.142 420.803 136.265 82.47-19.834 87.596-59.472 86.106-144.001-.96-54.486 3.443-198.725-32.004-244.123-54.448-69.733-103.228-25.998-170.656-3.235-86.488 29.197-120.189-22.932-202.476-21.379-120.641 2.277-110.778 187.251-101.773 276.473z" fill="url(#SVGID_1_)"/><g><g><g><path d="m350.232 490.839h-188.464c-16.568 0-30-13.431-30-30v-380.678c0-16.569 13.432-30 30-30h188.464c16.568 0 30 13.431 30 30v380.678c0 16.568-13.431 30-30 30z" fill="#2626bc" opacity=".1"/><path d="m350.232 466.839h-188.464c-16.568 0-30-13.431-30-30v-380.678c0-16.569 13.432-30 30-30h188.464c16.568 0 30 13.431 30 30v380.678c0 16.568-13.431 30-30 30z" fill="#6583fe"/><path d="m131.77 69.07h248.46v354.86h-248.46z" fill="#fff"/><path d="m131.77 345.046h248.46v78.884h-248.46z" fill="#fff"/><path d="m350.232 471.839h-188.464c-19.299 0-35-15.701-35-35v-380.678c0-19.299 15.701-35 35-35h188.464c19.299 0 35 15.701 35 35v380.678c0 19.299-15.701 35-35 35zm-188.464-440.678c-13.785 0-25 11.215-25 25v380.678c0 13.785 11.215 25 25 25h188.464c13.785 0 25-11.215 25-25v-380.678c0-13.785-11.215-25-25-25z" fill="#2626bc"/><g><path d="m273.483 53.531h-34.966c-2.761 0-5-2.239-5-5s2.239-5 5-5h34.966c2.761 0 5 2.239 5 5s-2.239 5-5 5z" fill="#2626bc"/></g><path d="m301.815 48.529c0 2.762-2.239 5.002-5.002 5.002-2.762 0-5.002-2.239-5.002-5.002s2.239-5.002 5.002-5.002c2.763.001 5.002 2.24 5.002 5.002z" fill="#2626bc"/></g><g><g><circle cx="256" cy="212.403" fill="#6583fe" r="99.095"/><circle cx="256" cy="212.403" fill="#fff" r="66.686"/><ellipse cx="256" cy="212.403" fill="#6583fe" rx="33.236" ry="33.236" transform="matrix(.172 -.985 .985 .172 2.822 428.162)"/></g><g fill="#fff"><path d="m238.609 210.983 10.819 4.167c.791.305 1.417.93 1.721 1.721l4.167 10.819c1.025 2.662 4.837 2.525 5.669-.203l8.086-26.515c.701-2.297-1.448-4.445-3.745-3.745l-26.515 8.086c-2.727.833-2.864 4.645-.202 5.67z"/><ellipse cx="307.876" cy="172.241" rx="14.81" ry="14.81" transform="matrix(.239 -.971 .971 .239 67.168 430.144)"/><ellipse cx="204.124" cy="130.907" rx="14.81" ry="14.81" transform="matrix(.259 -.966 .966 .259 24.844 294.192)"/><ellipse cx="266.443" cy="279.089" rx="14.81" ry="14.81" transform="matrix(1 -.01 .01 1 -2.753 2.655)"/></g></g><g fill="#2626bc"><g><path d="m352.644 105.308h-20.681c-2.761 0-5 2.239-5 5s2.239 5 5 5h20.681c2.761 0 5-2.239 5-5 0-2.762-2.239-5-5-5z"/><path d="m352.644 87.552h-20.681c-2.761 0-5 2.239-5 5s2.239 5 5 5h20.681c2.761 0 5-2.239 5-5s-2.239-5-5-5z"/></g><g><path d="m199.289 375.754c0-9.16-7.453-16.613-16.613-16.613-9.161 0-16.613 7.453-16.613 16.613 0 4.518 1.818 8.615 4.755 11.613-2.936 2.998-4.755 7.095-4.755 11.613 0 2.761 2.239 5 5 5s5-2.239 5-5c0-3.646 2.967-6.613 6.613-6.613s6.613 2.967 6.613 6.613c0 2.761 2.239 5 5 5s5-2.239 5-5c0-4.518-1.818-8.615-4.755-11.613 2.937-2.997 4.755-7.095 4.755-11.613zm-16.614-6.613c3.646 0 6.613 2.966 6.613 6.613s-2.967 6.613-6.613 6.613-6.613-2.967-6.613-6.613 2.967-6.613 6.613-6.613z"/><g><path d="m274.938 371.669h-47.681c-2.761 0-5 2.239-5 5s2.239 5 5 5h47.681c2.761 0 5-2.239 5-5 0-2.762-2.239-5-5-5z"/><path d="m340.938 391.941h-113.681c-2.761 0-5 2.239-5 5s2.239 5 5 5h113.681c2.761 0 5-2.239 5-5s-2.239-5-5-5z"/></g></g></g></g><g fill="#6583fe"><path d="m85.623 136.741c-7.88 0-14.292-6.411-14.292-14.292s6.411-14.292 14.292-14.292c7.88 0 14.292 6.411 14.292 14.292s-6.412 14.292-14.292 14.292zm0-18.583c-2.366 0-4.292 1.925-4.292 4.292 0 2.366 1.925 4.291 4.292 4.291 2.366 0 4.292-1.925 4.292-4.291 0-2.367-1.926-4.292-4.292-4.292z"/><path d="m85.623 465.718c-2.761 0-5-2.239-5-5 0-3.309-2.691-6-6-6-2.761 0-5-2.239-5-5s2.239-5 5-5c3.309 0 6-2.691 6-6 0-2.761 2.239-5 5-5s5 2.239 5 5c0 3.309 2.691 6 6 6 2.761 0 5 2.239 5 5s-2.239 5-5 5c-3.309 0-6 2.691-6 6 0 2.761-2.239 5-5 5z"/><path d="m434.655 328.884c-2.761 0-5-2.239-5-5 0-3.309-2.691-6-6-6-2.761 0-5-2.239-5-5s2.239-5 5-5c3.309 0 6-2.691 6-6 0-2.761 2.239-5 5-5s5 2.239 5 5c0 3.309 2.691 6 6 6 2.761 0 5 2.239 5 5s-2.239 5-5 5c-3.309 0-6 2.691-6 6 0 2.761-2.239 5-5 5z"/><path d="m85.623 185.863c-2.761 0-5-2.239-5-5 0-3.309-2.691-6-6-6-2.761 0-5-2.239-5-5s2.239-5 5-5c3.309 0 6-2.691 6-6 0-2.761 2.239-5 5-5s5 2.239 5 5c0 3.309 2.691 6 6 6 2.761 0 5 2.239 5 5s-2.239 5-5 5c-3.309 0-6 2.691-6 6 0 2.761-2.239 5-5 5z"/><path d="m426.277 379.764c-2.761 0-5-2.239-5-5 0-3.309-2.691-6-6-6-2.761 0-5-2.239-5-5s2.239-5 5-5c3.309 0 6-2.691 6-6 0-2.761 2.239-5 5-5s5 2.239 5 5c0 3.309 2.691 6 6 6 2.761 0 5 2.239 5 5s-2.239 5-5 5c-3.309 0-6 2.691-6 6 0 2.761-2.238 5-5 5z"/></g></g><g fill="#2626bc"><path d="m307.875 192.051c-10.923 0-19.81-8.887-19.81-19.81s8.887-19.81 19.81-19.81 19.811 8.887 19.811 19.81-8.887 19.81-19.811 19.81zm0-29.62c-5.409 0-9.81 4.401-9.81 9.81s4.401 9.81 9.81 9.81c5.41 0 9.811-4.401 9.811-9.81 0-5.41-4.401-9.81-9.811-9.81z"/><path d="m204.124 150.717c-10.923 0-19.811-8.887-19.811-19.81s8.887-19.81 19.811-19.81c10.923 0 19.81 8.887 19.81 19.81.001 10.923-8.886 19.81-19.81 19.81zm0-29.62c-5.41 0-9.811 4.401-9.811 9.81s4.401 9.81 9.811 9.81c5.409 0 9.81-4.401 9.81-9.81.001-5.409-4.4-9.81-9.81-9.81z"/><path d="m266.443 298.899c-10.923 0-19.81-8.887-19.81-19.81s8.887-19.811 19.81-19.811 19.811 8.887 19.811 19.811c-.001 10.924-8.888 19.81-19.811 19.81zm0-29.62c-5.409 0-9.81 4.401-9.81 9.811 0 5.409 4.401 9.81 9.81 9.81 5.41 0 9.811-4.401 9.811-9.81-.001-5.41-4.402-9.811-9.811-9.811z"/><path d="m375.232 350.046h-243.462c-2.761 0-5-2.239-5-5s2.239-5 5-5h243.462c2.761 0 5 2.239 5 5s-2.239 5-5 5z"/></g></g></svg>