<svg id="Capa_1" enable-background="new 0 0 512 512" height="512" viewBox="0 0 512 512" width="512" xmlns="http://www.w3.org/2000/svg" xmlns:xlink="http://www.w3.org/1999/xlink"><linearGradient id="SVGID_1_" gradientUnits="userSpaceOnUse" x1="0" x2="512" y1="249.063" y2="249.063"><stop offset="0" stop-color="#d2deff" stop-opacity="0"/><stop offset="1" stop-color="#b7c5ff"/></linearGradient><g><path d="m16.074 295.943c18.727 64.003 72.707 194.564 163.922 182.844 91.486-11.755 55.758-129.725 139.508-145.894 36.867-7.118 61.857 56.689 98.806 54.704 47.588-2.557 71.81-49.663 85.108-89.264 28.197-83.968-14.029-226.352-112.859-251.012-86.245-21.519-96.332 83.855-171.322 53.248-42.149-17.203-37.938-68.576-89.272-78.942-155.298-31.358-138.81 189.151-113.891 274.316z" fill="url(#SVGID_1_)"/><g><g><g><path d="m350.232 493.402h-188.464c-16.568 0-30-13.432-30-30v-380.679c0-16.568 13.432-30 30-30h188.464c16.569 0 30 13.432 30 30v380.678c0 16.569-13.431 30.001-30 30.001z" fill="#2626bc" opacity=".1"/><path d="m350.232 469.402h-188.464c-16.568 0-30-13.432-30-30v-380.679c0-16.569 13.432-30 30-30h188.464c16.569 0 30 13.432 30 30v380.678c0 16.569-13.431 30.001-30 30.001z" fill="#6583fe"/><path d="m131.77 71.633h248.46v354.86h-248.46z" fill="#fff"/><path d="m350.232 474.401h-188.464c-19.299 0-35-15.701-35-35v-380.677c0-19.299 15.701-35 35-35h188.465c19.299 0 35 15.701 35 35v380.678c-.001 19.298-15.702 34.999-35.001 34.999zm-188.464-440.677c-13.785 0-25 11.215-25 25v380.678c0 13.785 11.215 25 25 25h188.465c13.785 0 25-11.215 25-25v-380.678c0-13.785-11.215-25-25-25z" fill="#2626bc"/><g><path d="m273.483 56.094h-34.966c-2.761 0-5-2.239-5-5s2.239-5 5-5h34.966c2.761 0 5 2.239 5 5s-2.239 5-5 5z" fill="#2626bc"/></g><path d="m301.815 51.092c0 2.762-2.239 5.002-5.002 5.002-2.762 0-5.002-2.239-5.002-5.002 0-2.762 2.239-5.002 5.002-5.002s5.002 2.24 5.002 5.002z" fill="#2626bc"/></g><g><g><g><g><path d="m258.082 149.491h-5.331c-6.508 0-11.803-5.294-11.803-11.802v-16.457c0-6.508 5.295-11.803 11.803-11.803h5.331c6.508 0 11.803 5.295 11.803 11.803v16.457c-.001 6.507-5.296 11.802-11.803 11.802zm-5.331-30.062c-.994 0-1.803.809-1.803 1.803v16.457c0 .994.809 1.802 1.803 1.802h5.331c.994 0 1.803-.809 1.803-1.802v-16.457c0-.994-.809-1.803-1.803-1.803z" fill="#2626bc"/></g><g><path d="m230.546 149.051h-18.108c-2.122 0-4.012-1.339-4.716-3.341s-.068-4.23 1.586-5.559c5.042-4.05 12.846-11.452 14.406-15.228.6-1.451.505-3.052-.248-4.177-.584-.875-1.455-1.318-2.586-1.318-1.898 0-3.442 1.544-3.442 3.442 0 2.761-2.238 5-5 5s-5-2.239-5-5c0-7.412 6.03-13.442 13.442-13.442 4.479 0 8.451 2.099 10.898 5.759 2.624 3.922 3.064 8.99 1.178 13.555-1.354 3.274-4.398 6.997-7.594 10.308h5.184c2.762 0 5 2.239 5 5s-2.238 5.001-5 5.001z" fill="#2626bc"/></g></g><g><g><path d="m258.082 197.246h-5.331c-6.508 0-11.803-5.295-11.803-11.803v-16.457c0-6.508 5.295-11.802 11.803-11.802h5.331c6.508 0 11.803 5.294 11.803 11.802v16.457c-.001 6.508-5.296 11.803-11.803 11.803zm-5.331-30.062c-.994 0-1.803.809-1.803 1.802v16.457c0 .994.809 1.803 1.803 1.803h5.331c.994 0 1.803-.809 1.803-1.803v-16.457c0-.994-.809-1.802-1.803-1.802z" fill="#2626bc"/></g><g><path d="m299.562 196.806h-18.108c-2.122 0-4.012-1.339-4.716-3.341-.704-2.001-.068-4.23 1.586-5.559 5.042-4.05 12.846-11.452 14.406-15.227.6-1.451.505-3.051-.247-4.176-.585-.875-1.455-1.318-2.587-1.318-1.898 0-3.442 1.544-3.442 3.442 0 2.761-2.238 5-5 5s-5-2.239-5-5c0-7.412 6.03-13.442 13.442-13.442 4.479 0 8.452 2.099 10.899 5.76 2.624 3.923 3.064 8.99 1.177 13.555-1.354 3.274-4.398 6.997-7.594 10.307h5.184c2.762 0 5 2.239 5 5 0 2.76-2.238 4.999-5 4.999z" fill="#2626bc"/></g></g></g><g><circle cx="280.524" cy="144.491" fill="#2626bc" r="5.002"/></g></g><g><path d="m285.483 223.076h-58.966c-2.761 0-5-2.239-5-5s2.239-5 5-5h58.966c2.761 0 5 2.239 5 5s-2.239 5-5 5z" fill="#2626bc"/></g><g><path d="m261.56 401.705c-1.279 0-2.559-.488-3.535-1.464l-2.025-2.024-2.024 2.024c-1.951 1.952-5.118 1.953-7.071 0-1.952-1.953-1.952-5.118.001-7.071l5.56-5.559c1.951-1.952 5.119-1.952 7.07 0l5.56 5.559c1.953 1.953 1.953 5.118.001 7.071-.978.976-2.258 1.464-3.537 1.464z" fill="#2626bc"/></g><g><path d="m261.56 373.931c-1.279 0-2.559-.488-3.535-1.464l-2.025-2.024-2.024 2.024c-1.951 1.952-5.118 1.953-7.071 0-1.952-1.953-1.952-5.118.001-7.071l5.56-5.559c1.951-1.952 5.119-1.952 7.07 0l5.56 5.559c1.953 1.953 1.953 5.118.001 7.071-.978.976-2.258 1.464-3.537 1.464z" fill="#2626bc"/></g><g><path d="m261.56 346.157c-1.279 0-2.559-.488-3.535-1.464l-2.025-2.025-2.024 2.024c-1.951 1.952-5.118 1.953-7.071-.001-1.952-1.953-1.952-5.118.001-7.071l5.56-5.559c1.951-1.952 5.119-1.952 7.07 0l5.56 5.559c1.953 1.953 1.953 5.118.001 7.071-.978.977-2.258 1.466-3.537 1.466z" fill="#2626bc"/></g><g><path d="m261.56 318.383c-1.279 0-2.559-.488-3.535-1.464l-2.025-2.025-2.024 2.024c-1.951 1.952-5.118 1.953-7.071 0-1.952-1.953-1.952-5.118.001-7.071l5.56-5.559c1.951-1.952 5.119-1.952 7.07 0l5.56 5.559c1.953 1.953 1.953 5.118.001 7.071-.978.976-2.258 1.465-3.537 1.465z" fill="#2626bc"/></g><g fill="#6583fe"><ellipse cx="183.269" cy="336.434" rx="23.768" ry="23.768" transform="matrix(.26 -.966 .966 .26 -189.268 425.833)"/><ellipse cx="328.731" cy="336.434" rx="23.768" ry="23.768" transform="matrix(.618 -.787 .787 .618 -138.893 387.232)"/></g><g><path d="m361.331 89.249c0 2.762-2.239 5.002-5.002 5.002-2.762 0-5.002-2.239-5.002-5.002 0-2.762 2.239-5.002 5.002-5.002 2.763.001 5.002 2.24 5.002 5.002z" fill="#2626bc"/></g><g><path d="m344.062 89.249c0 2.762-2.239 5.002-5.002 5.002-2.762 0-5.002-2.239-5.002-5.002 0-2.762 2.239-5.002 5.002-5.002 2.763.001 5.002 2.24 5.002 5.002z" fill="#2626bc"/></g><g><path d="m326.793 89.249c0 2.762-2.239 5.002-5.002 5.002s-5.002-2.239-5.002-5.002c0-2.762 2.239-5.002 5.002-5.002s5.002 2.24 5.002 5.002z" fill="#2626bc"/></g></g><g fill="#6583fe"><path d="m77.767 312.953c-7.88 0-14.291-6.411-14.291-14.292 0-7.88 6.411-14.291 14.291-14.291 7.881 0 14.292 6.411 14.292 14.291 0 7.881-6.411 14.292-14.292 14.292zm0-18.583c-2.366 0-4.291 1.925-4.291 4.291s1.925 4.292 4.291 4.292 4.292-1.925 4.292-4.292c0-2.366-1.926-4.291-4.292-4.291z"/><path d="m88.767 185.812c-2.762 0-5-2.239-5-5 0-3.309-2.691-6-6-6-2.762 0-5-2.239-5-5s2.238-5 5-5c3.309 0 6-2.691 6-6 0-2.761 2.238-5 5-5s5 2.239 5 5c0 3.309 2.691 6 6 6 2.762 0 5 2.239 5 5s-2.238 5-5 5c-3.309 0-6 2.691-6 6 0 2.761-2.239 5-5 5z"/><path d="m422.665 338.007c-2.762 0-5-2.239-5-5 0-3.309-2.691-6-6-6-2.762 0-5-2.239-5-5s2.238-5 5-5c3.309 0 6-2.691 6-6 0-2.761 2.238-5 5-5s5 2.239 5 5c0 3.309 2.691 6 6 6 2.762 0 5 2.239 5 5s-2.238 5-5 5c-3.309 0-6 2.691-6 6 0 2.761-2.238 5-5 5z"/><path d="m433.665 287.634c-2.762 0-5-2.239-5-5 0-3.309-2.691-6-6-6-2.762 0-5-2.239-5-5s2.238-5 5-5c3.309 0 6-2.691 6-6 0-2.761 2.238-5 5-5s5 2.239 5 5c0 3.309 2.691 6 6 6 2.762 0 5 2.239 5 5s-2.238 5-5 5c-3.309 0-6 2.691-6 6 0 2.761-2.238 5-5 5z"/><path d="m77.767 139.602c-2.762 0-5-2.239-5-5 0-3.309-2.691-6-6-6-2.762 0-5-2.239-5-5s2.238-5 5-5c3.309 0 6-2.691 6-6 0-2.761 2.238-5 5-5s5 2.239 5 5c0 3.309 2.691 6 6 6 2.762 0 5 2.239 5 5s-2.238 5-5 5c-3.309 0-6 2.691-6 6 0 2.762-2.239 5-5 5z"/></g></g></g></svg>