<svg id="Capa_1" enable-background="new 0 0 512 512" height="512" viewBox="0 0 512 512" width="512" xmlns="http://www.w3.org/2000/svg" xmlns:xlink="http://www.w3.org/1999/xlink"><linearGradient id="SVGID_1_" gradientUnits="userSpaceOnUse" x1="0" x2="512" y1="256" y2="256"><stop offset="0" stop-color="#d2deff" stop-opacity="0"/><stop offset="1" stop-color="#b7c5ff"/></linearGradient><g><path d="m451.798 43.963c-160.556-97.869-410.51-8.611-439.594 61.949-38.908 94.393 26.578 110.528 38.743 187.874 9.761 62.061-51.182 121.495-16.394 176.282 37.882 59.663 163.465 44.681 211.198 16.447 87.376-51.682 43.309-112.012 84.684-187.299 39.408-71.707 116.244-42.625 160.961-99.99 42.5-54.521 14.311-122.402-39.598-155.263z" fill="url(#SVGID_1_)"/><g><g><g><path d="m350.232 500.339h-188.464c-16.568 0-30-13.431-30-30v-380.678c0-16.569 13.432-30 30-30h188.464c16.568 0 30 13.431 30 30v380.678c0 16.569-13.431 30-30 30z" fill="#2626bc" opacity=".1"/><path d="m350.232 476.339h-188.464c-16.568 0-30-13.431-30-30v-380.678c0-16.569 13.432-30 30-30h188.464c16.568 0 30 13.431 30 30v380.678c0 16.569-13.431 30-30 30z" fill="#6583fe"/><path d="m131.77 78.57h248.46v354.86h-248.46z" fill="#fff"/><path d="m380.23 244.04v189.39h-248.46v-135.56c24-5.96 54.53-4.31 91.29 15.57 85.22 46.08 76.03-55.22 157.17-69.4z" fill="#fff"/><g><path d="m380.23 308.056v10c-81.63 1.89-104.58 30.91-119.87 50.25-7.92 10.02-14.77 18.69-26.73 18.69-6.7 0-15.01-2.72-26.01-9.46-23.47-14.39-48.97-16.63-75.85-6.68v-10.59c28.38-9.45 56.23-6.5 81.08 8.74 14.67 8.99 20.97 8.57 24.42 7.46 5.21-1.67 9.64-7.27 15.25-14.36 7.94-10.04 18.81-23.8 38.96-34.73 22.41-12.16 51.49-18.5 88.75-19.32z" fill="#6583fe"/></g><path d="m380.23 344.25v89.18h-248.46v-19.02c47.22-46.1 142.75-9.15 192.09-18 50.77-9.1 55.95-42.41 56.37-52.16z" fill="#fff"/><path d="m380.23 300.92v132.51h-107.68c-15.02-29.99-51.97-30.46-43.58-54.77 10.18-29.49 63.35 15.5 99.67-37.11 18.18-26.34 37.01-36.83 51.59-40.63z" fill="#6583fe"/><g><g><path d="m380.23 276.88v10.02c-44.43 3.5-73.5 41.44-99.29 75.1-12.11 15.8-23.54 30.73-35.27 39.87-8.35 6.5-16.47 9.75-24.52 9.75-5.46 0-10.89-1.5-16.34-4.48-26.52-14.51-46.56-17.25-58.69-17-6.18.12-11 1.03-14.35 1.95v-10.33c13.61-3.04 40.1-4.04 77.84 16.61 20.7 11.33 37.58-8.75 63.39-42.45 25.91-33.81 57.88-75.54 107.23-79.04z" fill="#2626bc"/></g></g><path d="m350.232 481.339h-188.464c-19.299 0-35-15.701-35-35v-380.678c0-19.299 15.701-35 35-35h188.465c19.299 0 35 15.701 35 35v380.678c-.001 19.299-15.702 35-35.001 35zm-188.464-440.678c-13.785 0-25 11.215-25 25v380.678c0 13.785 11.215 25 25 25h188.465c13.785 0 25-11.215 25-25v-380.678c0-13.785-11.215-25-25-25z" fill="#2626bc"/><g><path d="m380.23 438.43h-248.46c-2.762 0-5-2.239-5-5v-135.56c0-2.297 1.566-4.299 3.795-4.853 29.67-7.369 61.59-1.977 94.875 16.024 45.038 24.353 60.453 5.604 81.791-20.344 16.643-20.24 35.507-43.181 72.14-49.583 1.453-.256 2.946.147 4.077 1.098 1.131.95 1.783 2.351 1.783 3.828v189.39c-.001 2.761-2.239 5-5.001 5zm-243.46-10h238.46v-178.248c-29.176 7.047-44.972 26.255-60.275 44.867-21.593 26.258-41.985 51.063-94.273 22.789-29.586-16-57.797-21.366-83.913-15.978v126.57z" fill="#2626bc"/></g><g><path d="m273.483 63.031h-34.966c-2.761 0-5-2.239-5-5s2.239-5 5-5h34.966c2.761 0 5 2.239 5 5 0 2.762-2.239 5-5 5z" fill="#2626bc"/></g><path d="m301.815 58.03c0 2.762-2.239 5.002-5.002 5.002-2.762 0-5.002-2.239-5.002-5.002 0-2.762 2.239-5.002 5.002-5.002s5.002 2.239 5.002 5.002z" fill="#2626bc"/></g><g><path d="m327.84 166.866h-143.68c-2.761 0-5 2.239-5 5s2.239 5 5 5h143.68c2.761 0 5-2.239 5-5s-2.238-5-5-5z" fill="#2626bc"/><path d="m299.34 132.798h-86.68c-2.761 0-5 2.239-5 5s2.239 5 5 5h86.681c2.761 0 5-2.239 5-5-.001-2.762-2.239-5-5.001-5z" fill="#2626bc"/><g><path d="m327.84 186.294h-143.68c-2.761 0-5 2.239-5 5s2.239 5 5 5h143.68c2.761 0 5-2.239 5-5s-2.238-5-5-5z" fill="#2626bc"/></g></g><circle cx="256" cy="249.314" fill="#6583fe" r="15.686"/></g><g fill="#6583fe"><path d="m87.163 167.141c-7.88 0-14.291-6.411-14.291-14.292 0-7.88 6.411-14.292 14.291-14.292 7.881 0 14.292 6.411 14.292 14.292s-6.411 14.292-14.292 14.292zm0-18.583c-2.366 0-4.291 1.925-4.291 4.292s1.925 4.292 4.291 4.292 4.292-1.925 4.292-4.292-1.926-4.292-4.292-4.292z"/><path d="m67.919 211.148c-7.881 0-14.292-6.411-14.292-14.292 0-7.88 6.411-14.291 14.292-14.291 7.88 0 14.291 6.411 14.291 14.291 0 7.881-6.411 14.292-14.291 14.292zm0-18.583c-2.366 0-4.292 1.925-4.292 4.291s1.926 4.292 4.292 4.292 4.291-1.925 4.291-4.292c0-2.366-1.925-4.291-4.291-4.291z"/><path d="m420.693 77.323c-7.881 0-14.292-6.411-14.292-14.292 0-7.88 6.411-14.292 14.292-14.292 7.88 0 14.291 6.411 14.291 14.292s-6.411 14.292-14.291 14.292zm0-18.583c-2.366 0-4.292 1.925-4.292 4.292 0 2.366 1.926 4.292 4.292 4.292s4.291-1.925 4.291-4.292-1.924-4.292-4.291-4.292z"/><path d="m96.455 447.721c-7.881 0-14.292-6.411-14.292-14.292 0-7.88 6.411-14.291 14.292-14.291 7.88 0 14.291 6.411 14.291 14.291 0 7.881-6.411 14.292-14.291 14.292zm0-18.582c-2.366 0-4.292 1.925-4.292 4.291s1.926 4.292 4.292 4.292 4.291-1.925 4.291-4.292c0-2.366-1.925-4.291-4.291-4.291z"/><path d="m420.693 297.409c-2.762 0-5-2.239-5-5 0-3.309-2.691-6-6-6-2.762 0-5-2.239-5-5s2.238-5 5-5c3.309 0 6-2.692 6-6 0-2.761 2.238-5 5-5s5 2.239 5 5c0 3.309 2.691 6 6 6 2.762 0 5 2.239 5 5s-2.238 5-5 5c-3.309 0-6 2.691-6 6 0 2.761-2.238 5-5 5z"/></g></g></g></svg>